<svg width="32" height="32" viewBox="0 0 32 32" fill="none" xmlns="http://www.w3.org/2000/svg">
<path d="M0 16C0 7.16344 7.16344 0 16 0C24.8366 0 32 7.16344 32 16C32 24.8366 24.8366 32 16 32C7.16344 32 0 24.8366 0 16Z" fill="url(#paint0_linear_819_706)"/>
<path d="M16 1C24.2843 1 31 7.71573 31 16C31 24.2843 24.2843 31 16 31C7.71573 31 1 24.2843 1 16C1 7.71573 7.71573 1 16 1Z" stroke="#F3F6FF" stroke-opacity="0.15" stroke-width="2"/>
<path d="M19.5 16C19.5035 18.0203 19.1097 20.0216 18.3413 21.89C18.304 21.9822 18.2401 22.0611 18.1577 22.1168C18.0753 22.1725 17.9782 22.2023 17.8788 22.2025C17.8145 22.2019 17.7508 22.1892 17.6913 22.165C17.6304 22.1401 17.5751 22.1034 17.5285 22.057C17.4819 22.0107 17.4449 21.9556 17.4196 21.8949C17.3943 21.8343 17.3812 21.7692 17.381 21.7035C17.3809 21.6378 17.3937 21.5726 17.4188 21.5119C18.1371 19.7632 18.5044 17.8904 18.5 16C18.5 15.8674 18.5527 15.7402 18.6465 15.6465C18.7402 15.5527 18.8674 15.5 19 15.5C19.1326 15.5 19.2598 15.5527 19.3536 15.6465C19.4473 15.7402 19.5 15.8674 19.5 16ZM16 13.5C16.3516 13.5003 16.6993 13.5746 17.0203 13.7181C17.3413 13.8617 17.6285 14.0712 17.8631 14.3331C17.9066 14.3832 17.9596 14.4242 18.019 14.4537C18.0784 14.4831 18.1431 14.5004 18.2093 14.5046C18.2755 14.5088 18.3419 14.4998 18.4046 14.4781C18.4673 14.4564 18.525 14.4224 18.5744 14.3782C18.6238 14.3339 18.664 14.2803 18.6925 14.2204C18.7209 14.1605 18.7372 14.0955 18.7404 14.0293C18.7435 13.963 18.7334 13.8968 18.7107 13.8345C18.688 13.7722 18.6531 13.715 18.6081 13.6663C18.1355 13.1381 17.5137 12.7659 16.8249 12.5989C16.1361 12.4318 15.4129 12.4778 14.7508 12.7308C14.0888 12.9837 13.5191 13.4317 13.1172 14.0155C12.7153 14.5993 12.5001 15.2913 12.5 16C12.4999 17.4397 12.1344 18.8558 11.4375 20.1156C11.4057 20.1731 11.3854 20.2362 11.378 20.3015C11.3706 20.3668 11.3761 20.4329 11.3942 20.496C11.4123 20.5592 11.4426 20.6181 11.4835 20.6695C11.5244 20.7209 11.5751 20.7638 11.6325 20.7956C11.69 20.8275 11.7531 20.8477 11.8184 20.8551C11.8837 20.8626 11.9497 20.8571 12.0129 20.839C12.076 20.8209 12.135 20.7905 12.1864 20.7496C12.2378 20.7087 12.2807 20.6581 12.3125 20.6006C13.0913 19.1923 13.4999 17.6093 13.5 16C13.5 15.337 13.7634 14.7011 14.2322 14.2322C14.7011 13.7634 15.337 13.5 16 13.5ZM16 9.5C15.2619 9.49912 14.5291 9.62425 13.8331 9.87C13.7103 9.91592 13.6105 10.0082 13.5551 10.127C13.4997 10.2458 13.4931 10.3817 13.5369 10.5052C13.5807 10.6288 13.6712 10.7303 13.789 10.7877C13.9069 10.8452 14.0426 10.8541 14.1669 10.8125C14.9966 10.5199 15.8844 10.4306 16.7558 10.5519C17.6272 10.6732 18.4568 11.0017 19.175 11.5098C19.8933 12.0179 20.4792 12.6908 20.8838 13.4721C21.2883 14.2533 21.4996 15.1202 21.5 16C21.5006 17.3086 21.3551 18.6131 21.0663 19.8894C21.0369 20.0184 21.0599 20.1538 21.1302 20.2659C21.2005 20.378 21.3123 20.4577 21.4413 20.4875C21.4777 20.4959 21.5151 20.5001 21.5525 20.5C21.6659 20.5 21.7759 20.4614 21.8644 20.3907C21.953 20.3199 22.0149 20.2212 22.04 20.1106C22.3454 18.7617 22.4997 17.383 22.5 16C22.4982 14.2767 21.8128 12.6244 20.5942 11.4058C19.3756 10.1872 17.7234 9.50182 16 9.5ZM12.3319 11.9013C12.3808 11.8575 12.4207 11.8045 12.4492 11.7453C12.4776 11.6861 12.4942 11.6219 12.4978 11.5563C12.5015 11.4907 12.4922 11.425 12.4705 11.3631C12.4488 11.3011 12.415 11.244 12.3713 11.195C12.3275 11.146 12.2745 11.1062 12.2153 11.0777C12.1561 11.0492 12.0919 11.0327 12.0263 11.029C11.9607 11.0254 11.895 11.0347 11.8331 11.0564C11.7711 11.0781 11.714 11.1118 11.665 11.1556C10.9842 11.7658 10.4396 12.5126 10.0665 13.3472C9.69352 14.1819 9.50048 15.0858 9.5 16C9.5014 16.791 9.33079 17.5728 9 18.2913C8.97259 18.3509 8.9572 18.4154 8.95471 18.481C8.95221 18.5466 8.96267 18.6121 8.98548 18.6737C9.03154 18.798 9.12512 18.899 9.24563 18.9544C9.36614 19.0097 9.5037 19.015 9.62806 18.9689C9.75242 18.9228 9.85339 18.8293 9.90875 18.7088C10.2999 17.8594 10.5017 16.9351 10.5 16C10.5004 15.2265 10.6638 14.4617 10.9794 13.7555C11.295 13.0493 11.7559 12.4175 12.3319 11.9013ZM15.1181 20.5463C14.9977 20.4911 14.8603 20.486 14.7361 20.532C14.6118 20.5781 14.511 20.6715 14.4556 20.7919C14.335 21.0544 14.2025 21.3163 14.0619 21.5694C14.0299 21.6269 14.0096 21.6901 14.0021 21.7554C13.9946 21.8207 14 21.8869 14.0182 21.9501C14.0363 22.0134 14.0667 22.0724 14.1076 22.1239C14.1486 22.1753 14.1993 22.2182 14.2569 22.25C14.3308 22.2913 14.4141 22.3128 14.4988 22.3125C14.588 22.3125 14.6757 22.2887 14.7526 22.2434C14.8295 22.1981 14.893 22.1331 14.9363 22.055C15.0888 21.7794 15.2325 21.4925 15.3638 21.21C15.3913 21.1503 15.4067 21.0858 15.4093 21.0201C15.4118 20.9544 15.4014 20.8888 15.3786 20.8272C15.3558 20.7655 15.321 20.709 15.2763 20.6608C15.2316 20.6126 15.1779 20.5737 15.1181 20.5463ZM16 15.5C15.8674 15.5 15.7402 15.5527 15.6465 15.6465C15.5527 15.7402 15.5 15.8674 15.5 16C15.5004 16.9697 15.3788 17.9356 15.1381 18.875C15.1051 19.0034 15.1244 19.1396 15.1918 19.2538C15.2592 19.3679 15.3691 19.4507 15.4975 19.4838C15.5384 19.4941 15.5803 19.4994 15.6225 19.4994C15.7333 19.4993 15.8409 19.4624 15.9285 19.3945C16.016 19.3267 16.0786 19.2316 16.1063 19.1244C16.3683 18.1034 16.5006 17.0535 16.5 15.9994C16.4998 15.8669 16.4471 15.7399 16.3533 15.6462C16.2596 15.5526 16.1325 15.5 16 15.5Z" fill="#F3F6FF"/>
<defs>
<linearGradient id="paint0_linear_819_706" x1="16" y1="0" x2="16" y2="32" gradientUnits="userSpaceOnUse">
<stop stop-color="#0C3EFF"/>
<stop offset="1" stop-color="#10339F"/>
</linearGradient>
</defs>
</svg>
