<svg width="25" height="24" viewBox="0 0 25 24" fill="none" xmlns="http://www.w3.org/2000/svg">
<path d="M14.9321 1.67166C14.9986 1.4259 15.1586 1.21598 15.3801 1.08798C15.6002 0.96126 15.8626 0.9267 16.1084 0.99198C19.7321 1.9379 22.5622 4.76798 23.5081 8.39166C23.5734 8.63742 23.5388 8.89982 23.4121 9.11998C23.2841 9.34014 23.0742 9.50142 22.8284 9.56798C22.7478 9.58846 22.6646 9.59998 22.5801 9.59998C22.1449 9.59998 21.7647 9.30686 21.6521 8.88702C20.8815 5.92894 18.5711 3.61854 15.613 2.84798C15.366 2.78142 15.1561 2.62142 15.0293 2.39998C14.9013 2.17982 14.8668 1.91742 14.9321 1.67166ZM14.653 6.68798C16.3081 7.12958 17.3705 8.19198 17.8121 9.84702C17.9247 10.2669 18.3049 10.56 18.7401 10.56C18.8245 10.56 18.9077 10.5485 18.9884 10.528C19.2341 10.4614 19.4441 10.3001 19.5721 10.08C19.6988 9.85982 19.7333 9.59742 19.6681 9.35166C19.0537 7.05278 17.4473 5.44638 15.1484 4.83198C14.6364 4.69502 14.1103 4.99966 13.9733 5.51166C13.8364 6.02494 14.141 6.55102 14.653 6.68798ZM24.486 18.1299C24.0431 21.4937 21.1734 24.0064 17.7801 24C8.25172 24 0.500012 16.2483 0.500012 6.71998C0.493612 3.3267 3.00626 0.45694 6.37011 0.0140595C7.21491 -0.0883405 8.02643 0.3763 8.36435 1.1571L10.8988 6.8147V6.82878C11.1548 7.42014 11.0984 8.09982 10.7464 8.63998C10.7247 8.67198 10.7029 8.7027 10.6786 8.73214L8.18003 11.6941C9.0786 13.5206 10.9896 15.4137 12.8392 16.3149L15.7602 13.8304C15.7897 13.8061 15.8191 13.783 15.8511 13.7625C16.39 13.4029 17.0748 13.3401 17.6713 13.5949L17.6866 13.6013L23.3391 16.1344C24.1212 16.4723 24.5884 17.2838 24.486 18.1299ZM22.5801 17.8893C22.5801 17.8893 22.5711 17.8893 22.5673 17.8893L16.9263 15.3638L14.0053 17.8483C13.9759 17.8726 13.9465 17.8957 13.9157 17.9161C13.3538 18.2912 12.6357 18.3424 12.0264 18.0531C9.77876 16.9664 7.53747 14.743 6.45075 12.5197C6.15763 11.9142 6.20371 11.1987 6.57107 10.6355C6.59155 10.6035 6.61459 10.5715 6.63891 10.5433L9.14004 7.57758L6.61971 1.9379C6.61971 1.93278 6.61971 1.92766 6.61971 1.92382C4.21202 2.23742 2.41362 4.29182 2.42002 6.71998C2.42898 15.1987 9.30132 22.071 17.7801 22.08C20.2069 22.0877 22.2614 20.2944 22.5801 17.8893Z" fill="#0C3EFF"/>
</svg>
