<svg width="63" height="52" viewBox="0 0 63 52" fill="none" xmlns="http://www.w3.org/2000/svg">
<path d="M6.49483 0H30.5257V16.8299C30.5257 21.5768 29.8762 25.8921 28.5773 29.7759C27.4226 33.5159 25.6907 36.8243 23.3814 39.7012C21.0721 42.5781 18.1855 45.0954 14.7216 47.2531C11.402 49.2669 7.5773 50.8492 3.24742 52L0 44.2324C5.48453 42.2185 9.67008 39.6293 12.5567 36.4647C15.5876 33.3001 17.3196 29.2725 17.7525 24.3817H6.49483V0Z" fill="#F3F6FF"/>
<path d="M38.9691 0H63V16.8299C63 21.5768 62.3505 25.8921 61.0515 29.7759C59.8969 33.5159 58.1649 36.8243 55.8557 39.7012C53.5464 42.5781 50.6598 45.0954 47.1959 47.2531C43.8763 49.2669 40.0516 50.8492 35.7217 52L32.4743 44.2324C37.9588 42.2185 42.1444 39.6293 45.031 36.4647C48.0619 33.3001 49.7938 29.2725 50.2268 24.3817H38.9691V0Z" fill="#F3F6FF"/>
</svg>
