<svg width="33" height="32" viewBox="0 0 33 32" fill="none" xmlns="http://www.w3.org/2000/svg">
<path d="M0.5 16C0.5 7.16344 7.66344 0 16.5 0C25.3366 0 32.5 7.16344 32.5 16C32.5 24.8366 25.3366 32 16.5 32C7.66344 32 0.5 24.8366 0.5 16Z" fill="url(#paint0_linear_1049_1508)"/>
<path d="M16.5 1C24.7843 1 31.5 7.71573 31.5 16C31.5 24.2843 24.7843 31 16.5 31C8.21573 31 1.5 24.2843 1.5 16C1.5 7.71573 8.21573 1 16.5 1Z" stroke="#F3F6FF" stroke-opacity="0.15" stroke-width="2"/>
<path d="M17.9187 9.97514C17.9575 9.83178 18.0509 9.70932 18.18 9.63465C18.3085 9.56073 18.4615 9.54057 18.6049 9.57865C20.7187 10.1304 22.3696 11.7813 22.9214 13.8951C22.9595 14.0385 22.9393 14.1916 22.8654 14.32C22.7907 14.4484 22.6683 14.5425 22.5249 14.5813C22.4779 14.5933 22.4293 14.6 22.38 14.6C22.1262 14.6 21.9044 14.429 21.8387 14.1841C21.3892 12.4585 20.0415 11.1108 18.3159 10.6613C18.1718 10.6225 18.0494 10.5292 17.9754 10.4C17.9008 10.2716 17.8806 10.1185 17.9187 9.97514ZM17.7559 12.9013C18.7214 13.1589 19.3411 13.7787 19.5987 14.7441C19.6644 14.989 19.8862 15.16 20.14 15.16C20.1893 15.16 20.2379 15.1533 20.2849 15.1413C20.4283 15.1025 20.5507 15.0084 20.6254 14.88C20.6993 14.7516 20.7195 14.5985 20.6814 14.4551C20.323 13.1141 19.3859 12.1771 18.0449 11.8187C17.7462 11.7388 17.4393 11.9165 17.3594 12.2151C17.2795 12.5145 17.4573 12.8214 17.7559 12.9013ZM23.4918 19.5758C23.2335 21.538 21.5595 23.0037 19.58 23C14.0218 23 9.50001 18.4782 9.50001 12.92C9.49627 10.9406 10.962 9.26655 12.9242 9.0082C13.417 8.94847 13.8904 9.21951 14.0875 9.67497L15.5659 12.9752V12.9835C15.7153 13.3284 15.6824 13.7249 15.4771 14.04C15.4644 14.0587 15.4517 14.0766 15.4375 14.0937L13.98 15.8215C14.5042 16.887 15.619 17.9914 16.6979 18.517L18.4018 17.0677C18.419 17.0535 18.4361 17.0401 18.4548 17.0282C18.7692 16.8183 19.1686 16.7818 19.5166 16.9303L19.5255 16.9341L22.8228 18.4117C23.279 18.6088 23.5516 19.0822 23.4918 19.5758ZM22.38 19.4354C22.38 19.4354 22.3748 19.4354 22.3726 19.4354L19.082 17.9622L17.3781 19.4115C17.3609 19.4257 17.3438 19.4391 17.3258 19.4511C16.9981 19.6699 16.5792 19.6997 16.2238 19.531C14.9126 18.8971 13.6052 17.6001 12.9713 16.3031C12.8003 15.95 12.8272 15.5326 13.0415 15.204C13.0534 15.1854 13.0668 15.1667 13.081 15.1503L14.54 13.4203L13.0698 10.1304C13.0698 10.1275 13.0698 10.1245 13.0698 10.1222C11.6653 10.3052 10.6163 11.5036 10.62 12.92C10.6252 17.8659 14.6341 21.8748 19.58 21.88C20.9957 21.8845 22.1941 20.8384 22.38 19.4354Z" fill="#F3F6FF"/>
<defs>
<linearGradient id="paint0_linear_1049_1508" x1="16.5" y1="0" x2="16.5" y2="32" gradientUnits="userSpaceOnUse">
<stop stop-color="#0C3EFF"/>
<stop offset="1" stop-color="#10339F"/>
</linearGradient>
</defs>
</svg>
