<svg width="29" height="28" viewBox="0 0 29 28" fill="none" xmlns="http://www.w3.org/2000/svg">
<path d="M27.6797 0H24.3984C23.9454 0 23.5781 0.367281 23.5781 0.820312V1.64062H16.8198C16.4812 0.685891 15.5694 0 14.5 0C13.4306 0 12.5188 0.685891 12.1802 1.64062H5.42188V0.820312C5.42188 0.367281 5.05459 0 4.60156 0H1.32031C0.867281 0 0.5 0.367281 0.5 0.820312V4.10156C0.5 4.55459 0.867281 4.92188 1.32031 4.92188H4.60156C5.05459 4.92188 5.42188 4.55459 5.42188 4.10156V3.27031H8.83312C5.87365 5.14467 4.07465 8.31113 3.85825 11.6726C2.89192 12.0049 2.19531 12.9223 2.19531 14C2.19531 15.357 3.29929 16.4609 4.65625 16.4609C6.01321 16.4609 7.11719 15.357 7.11719 14C7.11719 12.9402 6.44371 12.0346 5.50227 11.6889C5.79353 7.8254 8.57559 4.49783 12.2959 3.5537C12.6991 4.36373 13.5354 4.92188 14.5 4.92188C15.4646 4.92188 16.3009 4.36373 16.7041 3.55376C20.4245 4.49788 23.2065 7.82545 23.4977 11.689C22.5563 12.0346 21.8828 12.9402 21.8828 14C21.8828 15.357 22.9868 16.4609 24.3438 16.4609C25.7007 16.4609 26.8047 15.357 26.8047 14C26.8047 12.9223 26.1081 12.0049 25.1418 11.6726C24.9249 8.30441 23.1206 5.15195 20.1669 3.28125H23.5781V4.10156C23.5781 4.55459 23.9454 4.92188 24.3984 4.92188H27.6797C28.1327 4.92188 28.5 4.55459 28.5 4.10156V0.820312C28.5 0.367281 28.1327 0 27.6797 0ZM3.78125 3.28125H2.14062V1.64062H3.78125V3.28125ZM4.65625 14.8203C4.20393 14.8203 3.83594 14.4523 3.83594 14C3.83594 13.5477 4.20393 13.1797 4.65625 13.1797C5.10857 13.1797 5.47656 13.5477 5.47656 14C5.47656 14.4523 5.10857 14.8203 4.65625 14.8203ZM14.5 3.28125C14.0477 3.28125 13.6797 2.91326 13.6797 2.46094C13.6797 2.00862 14.0477 1.64062 14.5 1.64062C14.9523 1.64062 15.3203 2.00862 15.3203 2.46094C15.3203 2.91326 14.9523 3.28125 14.5 3.28125ZM24.3438 13.1797C24.7961 13.1797 25.1641 13.5477 25.1641 14C25.1641 14.4523 24.7961 14.8203 24.3438 14.8203C23.8914 14.8203 23.5234 14.4523 23.5234 14C23.5234 13.5477 23.8914 13.1797 24.3438 13.1797ZM26.8594 3.28125H25.2188V1.64062H26.8594V3.28125Z" fill="#0C3EFF"/>
<path d="M21.745 16.8262L15.1825 6.9825C15.1823 6.98217 15.182 6.98184 15.1818 6.98146C15.1794 6.97796 15.1769 6.97463 15.1745 6.97118C15.1632 6.95483 15.1513 6.93908 15.139 6.92371C14.7933 6.4942 14.1351 6.52318 13.8255 6.97118C13.8231 6.97463 13.8206 6.97796 13.8182 6.98146C13.818 6.98184 13.8177 6.98212 13.8175 6.9825L7.255 16.8263C7.03805 17.1516 7.08098 17.5848 7.35748 17.8613C8.99412 19.498 10.0358 21.6373 10.3196 23.9262C10.1922 24.0292 10.0692 24.1394 9.95263 24.2588C9.18213 25.0469 8.75781 26.0843 8.75781 27.1797C8.75781 27.6327 9.12509 28 9.57812 28H19.4219C19.8749 28 20.2422 27.6327 20.2422 27.1797C20.2422 26.0843 19.8179 25.0469 19.0474 24.2587C18.9308 24.1394 18.8078 24.0291 18.6804 23.9262C18.9641 21.6372 20.0058 19.4978 21.6425 17.8613C21.919 17.5848 21.9619 17.1515 21.745 16.8262ZM14.5 16.4609C14.9523 16.4609 15.3203 16.8289 15.3203 17.2812C15.3203 17.7336 14.9523 18.1016 14.5 18.1016C14.0477 18.1016 13.6797 17.7336 13.6797 17.2812C13.6797 16.8289 14.0477 16.4609 14.5 16.4609ZM10.5383 26.3594C10.8796 25.3841 11.8048 24.6641 12.8594 24.6641H16.1406C17.1952 24.6641 18.1204 25.3841 18.4617 26.3594H10.5383ZM17.1384 23.1483C16.8157 23.0659 16.4813 23.0234 16.1406 23.0234H12.8594C12.5187 23.0234 12.1843 23.0659 11.8616 23.1483C11.4777 20.9374 10.4807 18.8706 8.9823 17.1929L13.6797 10.1468V14.9615C12.7249 15.3001 12.0391 16.2119 12.0391 17.2813C12.0391 18.6383 13.143 19.7422 14.5 19.7422C15.857 19.7422 16.9609 18.6383 16.9609 17.2813C16.9609 16.2119 16.2751 15.3001 15.3203 14.9615V10.1468L20.0177 17.1929C18.5193 18.8705 17.5222 20.9373 17.1384 23.1483Z" fill="#0C3EFF"/>
</svg>
