<svg width="124" height="44" viewBox="0 0 124 44" fill="none" xmlns="http://www.w3.org/2000/svg">
<path d="M19.9943 0.0970788C19.7721 -0.03144 19.4989 -0.033276 19.2749 0.0970788L11.3668 4.6852C10.8878 4.96243 10.345 5.10931 9.79134 5.10931C9.23584 5.10931 8.68945 4.96059 8.20863 4.68153L1.08003 0.519355C0.601031 0.238449 0 0.587286 0 1.14726V10.6687C0 10.9239 0.0673883 11.1736 0.193058 11.3939L5.85368 21.277C6.11048 21.7249 6.11048 22.2794 5.85368 22.7274L0.193058 32.6105C0.0673883 32.8308 0 33.0805 0 33.3357V42.8553C0 43.4134 0.601031 43.7622 1.08003 43.4832L8.2232 39.3155C8.70038 39.0364 9.24313 38.8895 9.79498 38.8895C10.345 38.8895 10.8859 39.0346 11.3613 39.3118L19.2731 43.9036C19.4953 44.0321 19.7703 44.0321 19.9925 43.9036L38.3349 33.2292C38.7811 32.9703 39.0543 32.4911 39.0543 31.9734V12.0273C39.0543 11.5095 38.7793 11.0304 38.3349 10.7715L19.9943 0.0970788ZM10.9879 37.7274C10.8677 37.7971 10.733 37.8339 10.5945 37.8339C10.1611 37.8339 9.80956 37.4795 9.80956 37.0425V35.7353C9.80956 35.4801 9.87694 35.2304 10.0026 35.0101L17.0383 22.7274C17.2951 22.2794 17.2951 21.7249 17.0383 21.277L9.91519 8.83819C9.84598 8.71885 9.80956 8.58115 9.80956 8.44345V6.95814C9.80956 6.52118 10.1611 6.16684 10.5945 6.16684C10.733 6.16684 10.8677 6.20355 10.9861 6.27332L35.8506 20.7427C36.8104 21.3008 36.8104 22.6962 35.8506 23.2562L10.9879 37.7274Z" fill="#F3F6FF"/>
<path d="M53.3388 32.8455C52.9599 32.5793 52.5702 32.3608 52.1695 32.1864C51.7688 32.0138 51.3044 31.8577 50.7762 31.7182C50.3063 31.6025 49.9275 31.5052 49.6415 31.4226C49.3556 31.3418 49.0259 31.2298 48.6526 31.0848C48.2792 30.9397 47.9914 30.7965 47.7838 30.6515C47.578 30.5064 47.3995 30.3247 47.2501 30.1062C47.1008 29.8877 47.0261 29.6435 47.0261 29.3773C47.0261 28.8228 47.2702 28.3528 47.7565 27.9654C48.2428 27.578 48.9166 27.3853 49.7763 27.3853C50.8418 27.3853 51.6905 27.7029 52.3207 28.3381C52.5848 28.6503 52.7669 28.9679 52.8707 29.291H54.4188C54.2585 28.6668 53.9944 28.1068 53.6284 27.6093C52.7578 26.4765 51.4738 25.911 49.7763 25.911C48.4923 25.911 47.4541 26.2525 46.6637 26.9336C45.8732 27.6148 45.478 28.4299 45.478 29.3773C45.478 29.6435 45.509 29.8914 45.5727 30.1227C45.6365 30.354 45.7111 30.5615 45.7967 30.7469C45.8824 30.9324 46.008 31.1086 46.1756 31.2757C46.3413 31.4428 46.4961 31.5842 46.64 31.6998C46.7839 31.8155 46.9751 31.933 47.2155 32.056C47.456 32.1772 47.6618 32.2763 47.8348 32.3498C48.006 32.425 48.2355 32.5095 48.5232 32.6013C48.8092 32.6931 49.0387 32.7629 49.2117 32.8088C49.3829 32.8547 49.6215 32.9189 49.9256 32.9997C50.2298 33.0805 50.4502 33.1447 50.5868 33.1906C51.3426 33.411 51.9273 33.6698 52.3407 33.9709C52.7541 34.272 52.9599 34.6759 52.9599 35.1845C52.9599 35.7849 52.705 36.2824 52.195 36.6753C51.685 37.0682 50.9365 37.2647 49.9511 37.2647C48.7127 37.2647 47.7729 36.8773 47.1318 36.1025C46.8458 35.7555 46.6382 35.3626 46.5125 34.9238H44.9644C45.1247 35.6527 45.4052 36.2879 45.8077 36.8296C46.7238 38.1001 48.1062 38.7353 49.9511 38.7353C51.3608 38.7353 52.4737 38.392 53.2878 37.7035C54.1019 37.0168 54.5081 36.1759 54.5081 35.1808C54.5081 34.6723 54.4079 34.2225 54.2075 33.8296C54.0072 33.4367 53.7176 33.108 53.3388 32.8418V32.8455Z" fill="#F3F6FF"/>
<path d="M75.8538 31.1123H75.8374L75.6826 30.8516C75.464 30.5395 75.1034 30.2457 74.5989 29.9685C74.0944 29.6913 73.4806 29.5517 72.7594 29.5517C71.6138 29.5517 70.6394 29.9832 69.8362 30.8424C69.033 31.7035 68.6323 32.7757 68.6323 34.0572C68.6323 35.3387 69.033 36.4109 69.8362 37.272C70.6375 38.1331 71.6119 38.5627 72.7594 38.5627C73.4934 38.5627 74.1126 38.4213 74.6171 38.1386C75.1216 37.8559 75.4768 37.5584 75.6826 37.2463L75.8374 37.004H75.8538V38.3901H77.2289V26.2561H75.8538V31.1123ZM75.0196 36.3651C74.4641 36.9654 73.7665 37.2665 72.9306 37.2665C72.0946 37.2665 71.397 36.9654 70.8415 36.3651C70.286 35.7647 70.0074 34.9954 70.0074 34.0591C70.0074 33.1227 70.286 32.3553 70.8415 31.7531C71.397 31.1527 72.0946 30.8516 72.9306 30.8516C73.7665 30.8516 74.4641 31.1527 75.0196 31.7531C75.5751 32.3534 75.8538 33.1227 75.8538 34.0591C75.8538 34.9954 75.5751 35.7628 75.0196 36.3651Z" fill="#F3F6FF"/>
<path d="M89.4535 30.8351C88.6047 29.9795 87.5393 29.5517 86.2552 29.5517C84.9712 29.5517 83.9058 29.9795 83.057 30.8351C82.2083 31.6906 81.7839 32.7647 81.7839 34.0591C81.7839 35.3534 82.2083 36.4275 83.057 37.283C83.9058 38.1386 84.9712 38.5664 86.2552 38.5664C87.5393 38.5664 88.6047 38.1386 89.4535 37.283C90.3022 36.4275 90.7265 35.3534 90.7265 34.0591C90.7265 32.7647 90.3022 31.6906 89.4535 30.8351ZM88.4736 36.3651C87.889 36.9654 87.1495 37.2665 86.2552 37.2665C85.361 37.2665 84.6215 36.9654 84.0369 36.3651C83.4523 35.7647 83.1609 34.9954 83.1609 34.0591C83.1609 33.1227 83.4541 32.3553 84.0369 31.7531C84.6215 31.1527 85.361 30.8516 86.2552 30.8516C87.1495 30.8516 87.889 31.1527 88.4736 31.7531C89.0582 32.3534 89.3496 33.1227 89.3496 34.0591C89.3496 34.9954 89.0564 35.7628 88.4736 36.3651Z" fill="#F3F6FF"/>
<path d="M80.0664 26.1735C79.8024 26.1735 79.5783 26.2653 79.3962 26.4508C79.2122 26.6362 79.1212 26.8602 79.1212 27.1264C79.1212 27.3926 79.2122 27.6184 79.3962 27.802C79.5802 27.9875 79.8024 28.0793 80.0664 28.0793C80.3305 28.0793 80.5527 27.9875 80.7367 27.802C80.9206 27.6166 81.0117 27.3926 81.0117 27.1264C81.0117 26.8602 80.9206 26.6362 80.7367 26.4508C80.5527 26.2653 80.3305 26.1735 80.0664 26.1735Z" fill="#F3F6FF"/>
<path d="M78.2597 29.7261V31.026H79.378V38.392H80.7531V29.7261H78.2597Z" fill="#F3F6FF"/>
<path d="M65.1062 29.7261V31.026H66.2227V34.4061C66.2227 35.2616 65.9768 35.952 65.4832 36.477C64.9897 37.0021 64.3486 37.2665 63.5581 37.2665C62.8351 37.2665 62.2686 37.0554 61.8552 36.6331C61.4418 36.2108 61.236 35.5848 61.236 34.7531V29.7261H56.7738V27.8204H55.3987V29.7261H54.774V31.026H55.3987V36.1025C55.3987 37.3675 56.4168 38.3938 57.6717 38.3938H59.6114V37.0939H57.8665C57.2637 37.0939 56.7738 36.6001 56.7738 35.9923V31.0279H59.8609V34.8412C59.8609 35.996 60.1723 36.9067 60.7988 37.5713C61.4236 38.2359 62.2577 38.5682 63.3013 38.5682C64.161 38.5682 64.9004 38.3259 65.5197 37.8393C65.7947 37.6319 66.0242 37.3822 66.2081 37.0939H66.2245V38.3938H67.5996V29.728H65.1062V29.7261Z" fill="#F3F6FF"/>
<path d="M121.295 8.39754C121.139 8.30758 121.013 8.18457 120.922 8.02851C120.831 7.87245 120.785 7.69619 120.785 7.49974C120.785 7.30329 120.831 7.12888 120.92 6.97098C121.011 6.81309 121.135 6.68824 121.294 6.59828C121.452 6.50831 121.63 6.46425 121.827 6.46425C122.044 6.46425 122.233 6.51382 122.395 6.61297C122.558 6.71211 122.68 6.85348 122.763 7.03524L122.401 7.19314C122.343 7.0793 122.264 6.99301 122.168 6.93243C122.071 6.87184 121.958 6.84246 121.825 6.84246C121.709 6.84246 121.601 6.87 121.505 6.92692C121.408 6.98383 121.332 7.06094 121.275 7.16192C121.219 7.26107 121.192 7.3749 121.192 7.49974C121.192 7.62459 121.221 7.73659 121.275 7.83573C121.33 7.93487 121.408 8.01198 121.505 8.0689C121.601 8.12581 121.709 8.15335 121.825 8.15335C121.96 8.15335 122.077 8.12214 122.175 8.06155C122.273 7.99913 122.352 7.90917 122.408 7.78799L122.782 7.94589C122.732 8.05972 122.663 8.1607 122.574 8.24883C122.485 8.33695 122.374 8.40672 122.246 8.45813C122.119 8.5077 121.978 8.5334 121.827 8.5334C121.63 8.5334 121.452 8.48934 121.295 8.39938V8.39754Z" fill="#F3F6FF"/>
<path d="M121.783 9.73046C120.561 9.73046 119.567 8.72802 119.567 7.49607C119.567 6.26413 120.561 5.26168 121.783 5.26168C123.006 5.26168 124 6.26413 124 7.49607C124 8.72802 123.006 9.73046 121.783 9.73046ZM121.783 5.57013C120.729 5.57013 119.873 6.43488 119.873 7.49607C119.873 8.55727 120.731 9.42202 121.783 9.42202C122.836 9.42202 123.694 8.55727 123.694 7.49607C123.694 6.43488 122.836 5.57013 121.783 5.57013Z" fill="#F3F6FF"/>
<path d="M54.3259 11.5297C53.0601 10.3272 51.4464 9.72495 49.4849 9.72495H44.9626V22.2372H49.4849C51.4464 22.2372 53.0601 21.635 54.3259 20.4324C55.5899 19.2298 56.2237 17.7464 56.2237 15.982C56.2237 14.2176 55.5917 12.736 54.3259 11.5316V11.5297ZM52.4026 18.7066C51.6869 19.3914 50.7143 19.7347 49.4867 19.7347H47.6253V12.2274H49.4867C50.7161 12.2274 51.6887 12.5707 52.4026 13.2555C53.1184 13.9404 53.4754 14.8492 53.4754 15.982C53.4754 17.1148 53.1184 18.0236 52.4026 18.7084V18.7066Z" fill="#F3F6FF"/>
<path d="M60.3016 19.5566L66.862 12.2274V9.72495H57.0215V12.2274H63.4051V12.4055L56.8448 19.7347V22.2372H67.0386V19.7347H60.3016V19.5566Z" fill="#F3F6FF"/>
<path d="M71.1165 9.72495H68.4574V22.2372H71.1165V9.72495Z" fill="#F3F6FF"/>
<path d="M92.8211 17.0542L92.9995 18.5726H92.8211L87.9454 9.72495H84.4886V22.2372H87.1477V14.9079L86.971 13.3896H87.1477L92.0233 22.2372H95.482V9.72495H92.8211V17.0542Z" fill="#F3F6FF"/>
<path d="M97.072 22.2427H106.381V19.7402H99.7311V17.0597H105.051V14.7353H99.7311V12.2329H106.381V9.73046H97.072V22.2427Z" fill="#F3F6FF"/>
<path d="M115.779 15.8975L118.97 9.73046H116.097L113.65 14.6454H112.764L110.317 9.73046H107.444L110.635 15.8975L107.444 22.2427H110.459L111.876 19.1123L112.764 17.3278H113.65L114.538 19.1123L115.955 22.2427H118.97L118.929 22.1858L115.779 15.8975Z" fill="#F3F6FF"/>
<path d="M77.7479 15.1778H82.8767V21.9379C82.1992 22.1692 81.4962 22.3528 80.7658 22.4869C80.0355 22.6209 79.205 22.687 78.2743 22.687C76.9939 22.687 75.9029 22.4318 75.0032 21.9195C74.1035 21.4073 73.4205 20.6527 72.9561 19.6539C72.4916 18.6552 72.2585 17.4251 72.2585 15.9636C72.2585 14.5995 72.5208 13.419 73.0471 12.4202C73.5735 11.4214 74.3366 10.6485 75.3402 10.0995C76.3437 9.55054 77.5694 9.27697 79.0192 9.27697C79.7076 9.27697 80.3852 9.35041 81.0481 9.49546C81.7129 9.64234 82.3158 9.83695 82.8603 10.0793L81.9533 12.2898C81.5545 12.0824 81.1009 11.9116 80.5946 11.7776C80.0865 11.6436 79.5547 11.5775 78.9992 11.5775C78.2014 11.5775 77.5093 11.7611 76.9247 12.1264C76.3382 12.4918 75.8847 13.0059 75.566 13.6705C75.2454 14.3351 75.0852 15.1172 75.0852 16.0187C75.0852 16.8706 75.1999 17.627 75.4294 18.2843C75.6589 18.9416 76.0213 19.4575 76.5167 19.8284C77.0121 20.1992 77.6587 20.3847 78.4564 20.3847C78.8425 20.3847 79.1722 20.3663 79.4436 20.3296C79.7149 20.2929 79.9663 20.2506 80.1958 20.2011V17.4783H77.7497V15.176L77.7479 15.1778Z" fill="#F3F6FF"/>
</svg>
