<svg width="33" height="32" viewBox="0 0 33 32" fill="none" xmlns="http://www.w3.org/2000/svg">
<path d="M0.5 16C0.5 7.16344 7.66344 0 16.5 0C25.3366 0 32.5 7.16344 32.5 16C32.5 24.8366 25.3366 32 16.5 32C7.66344 32 0.5 24.8366 0.5 16Z" fill="url(#paint0_linear_857_1882)"/>
<path d="M16.5 1C24.7843 1 31.5 7.71573 31.5 16C31.5 24.2843 24.7843 31 16.5 31C8.21573 31 1.5 24.2843 1.5 16C1.5 7.71573 8.21573 1 16.5 1Z" stroke="#F3F6FF" stroke-opacity="0.15" stroke-width="2"/>
<path d="M16.4291 15.3899C16.9501 15.3899 17.4594 15.2319 17.8927 14.9357C18.3259 14.6396 18.6635 14.2186 18.8629 13.7262C19.0622 13.2337 19.1144 12.6918 19.0127 12.169C18.911 11.6462 18.6601 11.166 18.2916 10.7891C17.9231 10.4123 17.4537 10.1556 16.9427 10.0517C16.4317 9.94779 15.902 10.0012 15.4206 10.2053C14.9393 10.4094 14.5279 10.7549 14.2385 11.1981C13.9491 11.6414 13.7947 12.1625 13.7948 12.6955C13.7957 13.4099 14.0735 14.0949 14.5674 14.6C15.0612 15.1051 15.7308 15.3892 16.4291 15.3899ZM16.4291 11.0914C16.7392 11.0914 17.0424 11.1855 17.3002 11.3617C17.5581 11.538 17.759 11.7885 17.8777 12.0816C17.9964 12.3748 18.0274 12.6973 17.9669 13.0085C17.9064 13.3196 17.7571 13.6055 17.5378 13.8298C17.3185 14.0541 17.0391 14.2069 16.735 14.2688C16.4308 14.3307 16.1156 14.2989 15.8291 14.1775C15.5425 14.0561 15.2977 13.8505 15.1254 13.5867C14.9531 13.3229 14.8611 13.0128 14.8611 12.6955C14.8617 12.2703 15.0271 11.8626 15.321 11.5619C15.6149 11.2612 16.0134 11.092 16.4291 11.0914Z" fill="#F3F6FF"/>
<path d="M11.4527 16.9739C11.8534 16.9739 12.2451 16.8523 12.5783 16.6246C12.9115 16.3968 13.1711 16.0731 13.3245 15.6944C13.4778 15.3157 13.5179 14.8989 13.4398 14.4969C13.3616 14.0948 13.1686 13.7255 12.8853 13.4357C12.602 13.1458 12.241 12.9484 11.848 12.8684C11.455 12.7885 11.0476 12.8295 10.6774 12.9864C10.3073 13.1432 9.99085 13.4089 9.76824 13.7497C9.54562 14.0906 9.4268 14.4913 9.4268 14.9012C9.4268 15.4509 9.64025 15.9781 10.0202 16.3668C10.4001 16.7555 10.9154 16.9739 11.4527 16.9739ZM11.4527 13.9195C11.6425 13.9195 11.8281 13.977 11.9859 14.0849C12.1437 14.1928 12.2667 14.3461 12.3393 14.5255C12.412 14.7049 12.431 14.9023 12.394 15.0928C12.3569 15.2832 12.2655 15.4581 12.1313 15.5955C11.9971 15.7328 11.8261 15.8263 11.64 15.8641C11.4538 15.902 11.2609 15.8826 11.0855 15.8083C10.9101 15.734 10.7603 15.6081 10.6548 15.4467C10.5494 15.2852 10.4931 15.0954 10.4931 14.9012C10.4931 14.6408 10.5942 14.3911 10.7742 14.207C10.9541 14.0229 11.1982 13.9195 11.4527 13.9195Z" fill="#F3F6FF"/>
<path d="M21.4049 16.9739C21.8056 16.9739 22.1973 16.8523 22.5305 16.6246C22.8636 16.3968 23.1233 16.0731 23.2766 15.6944C23.43 15.3157 23.4701 14.8989 23.3919 14.4969C23.3137 14.0948 23.1208 13.7255 22.8375 13.4357C22.5541 13.1458 22.1931 12.9484 21.8001 12.8684C21.4072 12.7885 20.9998 12.8295 20.6296 12.9864C20.2594 13.1432 19.943 13.4089 19.7204 13.7497C19.4978 14.0906 19.379 14.4913 19.379 14.9012C19.379 15.4509 19.5924 15.9781 19.9724 16.3668C20.3523 16.7555 20.8676 16.9739 21.4049 16.9739ZM21.4049 13.9195C21.5947 13.9195 21.7802 13.977 21.9381 14.0849C22.0959 14.1928 22.2189 14.3461 22.2915 14.5255C22.3641 14.7049 22.3832 14.9023 22.3461 15.0928C22.3091 15.2832 22.2177 15.4581 22.0835 15.5955C21.9493 15.7328 21.7783 15.8263 21.5921 15.8641C21.406 15.902 21.213 15.8826 21.0377 15.8083C20.8623 15.734 20.7124 15.6081 20.607 15.4467C20.5015 15.2852 20.4453 15.0954 20.4453 14.9012C20.4453 14.6408 20.5464 14.3911 20.7263 14.207C20.9063 14.0229 21.1504 13.9195 21.4049 13.9195Z" fill="#F3F6FF"/>
<path d="M21.4758 18.068C21.0084 18.0712 20.5492 18.1936 20.1398 18.4242C19.7505 17.7937 19.214 17.2723 18.5785 16.9069C17.9431 16.5416 17.2288 16.3438 16.5 16.3313C15.7712 16.3438 15.0569 16.5416 14.4215 16.9069C13.786 17.2723 13.2495 17.7937 12.8602 18.4242C12.4508 18.1936 11.9916 18.0712 11.5242 18.068C10.6855 18.1099 9.89706 18.4895 9.331 19.124C8.76494 19.7585 8.46723 20.5963 8.50287 21.4546C8.50287 21.5992 8.55904 21.738 8.65902 21.8402C8.759 21.9425 8.89461 22 9.03601 22C9.17741 22 9.31301 21.9425 9.413 21.8402C9.51298 21.738 9.56915 21.5992 9.56915 21.4546C9.53421 20.8857 9.71985 20.3257 10.0858 19.896C10.4518 19.4662 10.9686 19.2014 11.5242 19.1589C11.8188 19.1612 12.1081 19.2398 12.3649 19.3874C12.1137 20.0352 11.985 20.726 11.9859 21.4229C11.9859 21.5676 12.0421 21.7063 12.142 21.8086C12.242 21.9109 12.3776 21.9684 12.519 21.9684C12.6604 21.9684 12.796 21.9109 12.896 21.8086C12.996 21.7063 13.0522 21.5676 13.0522 21.4229C13.0522 19.2167 14.5983 17.4222 16.5 17.4222C18.4017 17.4222 19.9478 19.2167 19.9478 21.4229C19.9478 21.5676 20.004 21.7063 20.104 21.8086C20.204 21.9109 20.3396 21.9684 20.481 21.9684C20.6224 21.9684 20.758 21.9109 20.858 21.8086C20.9579 21.7063 21.0141 21.5676 21.0141 21.4229C21.015 20.726 20.8863 20.0352 20.6351 19.3874C20.8919 19.2398 21.1812 19.1612 21.4758 19.1589C22.0314 19.2014 22.5482 19.4662 22.9142 19.896C23.2801 20.3257 23.4658 20.8857 23.4308 21.4546C23.4308 21.5992 23.487 21.738 23.587 21.8402C23.687 21.9425 23.8226 22 23.964 22C24.1054 22 24.241 21.9425 24.341 21.8402C24.441 21.738 24.4971 21.5992 24.4971 21.4546C24.5328 20.5963 24.2351 19.7585 23.669 19.124C23.1029 18.4895 22.3145 18.1099 21.4758 18.068Z" fill="#F3F6FF"/>
<defs>
<linearGradient id="paint0_linear_857_1882" x1="16.5" y1="0" x2="16.5" y2="32" gradientUnits="userSpaceOnUse">
<stop stop-color="#0C3EFF"/>
<stop offset="1" stop-color="#10339F"/>
</linearGradient>
</defs>
</svg>
