<svg width="25" height="24" viewBox="0 0 25 24" fill="none" xmlns="http://www.w3.org/2000/svg">
<path d="M24.4823 1.81763C24.4539 1.34955 24.2551 0.908078 23.9235 0.576491C23.5918 0.244905 23.1503 0.0461376 22.6822 0.0176927C21.1725 -0.072304 17.3143 0.0656907 14.1125 3.26597L13.5424 3.84315H6.54239C6.28927 3.84172 6.03839 3.89064 5.80435 3.98705C5.57031 4.08346 5.35777 4.22544 5.17911 4.40473L1.06285 8.52297C0.810414 8.77522 0.633276 9.09281 0.551319 9.44012C0.469361 9.78743 0.485828 10.1507 0.59887 10.4892C0.711912 10.8276 0.917057 11.1279 1.19128 11.3563C1.4655 11.5847 1.79795 11.7321 2.15132 11.7821L6.76801 12.4264L12.0735 17.7314L12.718 22.3501C12.7675 22.7034 12.9149 23.0359 13.1436 23.3098C13.3722 23.5838 13.6729 23.7884 14.0117 23.9004C14.209 23.9663 14.4157 23.9999 14.6237 24C14.8756 24.0005 15.1251 23.9511 15.3579 23.8547C15.5906 23.7583 15.802 23.6168 15.9798 23.4384L20.0984 19.3226C20.2777 19.1439 20.4197 18.9314 20.5162 18.6974C20.6126 18.4634 20.6615 18.2125 20.6601 17.9594V10.9601L21.2325 10.3877C24.4343 7.18622 24.5723 3.32837 24.4823 1.81763ZM6.54239 5.76308H11.6223L6.87841 10.5053L2.41894 9.88372L6.54239 5.76308ZM15.4721 4.62912C16.3947 3.701 17.5046 2.98039 18.7279 2.51542C19.9512 2.05045 21.2596 1.85183 22.5658 1.93282C22.6499 3.23955 22.4533 4.54914 21.9893 5.7736C21.5252 6.99805 20.8043 8.10899 19.8752 9.03176L12.9796 15.9243L8.57772 11.5229L15.4721 4.62912ZM18.74 17.9594L14.6201 22.0825L13.9973 17.6222L18.74 12.88V17.9594ZM9.8402 19.0994C9.30016 20.2825 7.49405 23.0424 2.41894 23.0424C2.16431 23.0424 1.92012 22.9413 1.74007 22.7613C1.56003 22.5812 1.45888 22.3371 1.45888 22.0825C1.45888 17.0079 4.21905 15.2019 5.40232 14.6607C5.51705 14.6084 5.64096 14.5792 5.76698 14.5748C5.893 14.5704 6.01866 14.5908 6.13678 14.6349C6.25491 14.679 6.36318 14.746 6.45543 14.832C6.54767 14.9179 6.62208 15.0212 6.6744 15.1359C6.72672 15.2506 6.75593 15.3745 6.76037 15.5006C6.7648 15.6266 6.74437 15.7522 6.70024 15.8703C6.65611 15.9884 6.58915 16.0967 6.50318 16.1889C6.4172 16.2812 6.3139 16.3556 6.19917 16.4079C5.42752 16.7595 3.72462 17.891 3.4246 21.0769C6.6108 20.7769 7.74487 19.0742 8.09409 18.3026C8.14641 18.1879 8.22082 18.0846 8.31306 17.9986C8.40531 17.9127 8.51358 17.8457 8.63171 17.8016C8.74983 17.7575 8.87549 17.737 9.00151 17.7415C9.12753 17.7459 9.25144 17.7751 9.36617 17.8274C9.4809 17.8797 9.5842 17.9541 9.67017 18.0464C9.75615 18.1386 9.82311 18.2469 9.86724 18.365C9.91137 18.4831 9.9318 18.6087 9.92737 18.7348C9.92293 18.8608 9.89372 18.9847 9.8414 19.0994H9.8402Z" fill="#0C3EFF"/>
</svg>
