<svg width="203" height="44" viewBox="0 0 203 44" fill="none" xmlns="http://www.w3.org/2000/svg">
<path d="M0 23.7072V5.70658H6.55682C9.40211 5.70658 11.7423 6.57282 13.5774 8.30398C15.4112 10.0351 16.3294 12.1701 16.3294 14.7062C16.3294 17.2423 15.4125 19.3773 13.5774 21.1084C11.7423 22.8396 9.40344 23.7059 6.55682 23.7059H0V23.7072ZM3.8568 20.1076H6.55682C8.33996 20.1076 9.74994 19.6145 10.7868 18.6296C11.8236 17.6435 12.342 16.3374 12.342 14.7089C12.342 13.0803 11.8236 11.773 10.7868 10.7868C9.74994 9.80059 8.33996 9.30883 6.55682 9.30883H3.8568V20.1089V20.1076Z" fill="#F3F6FF"/>
<path d="M17.8713 23.7072V20.622L24.4281 13.9359V13.6787H18.1285V10.5935H29.1858V13.6787L22.629 20.3648V20.622H29.443V23.7072H17.8713Z" fill="#F3F6FF"/>
<path d="M31.8472 8.34262C31.4447 7.95748 31.2435 7.50703 31.2435 6.99261C31.2435 6.47819 31.4447 6.02775 31.8472 5.6426C32.2497 5.25745 32.7348 5.06421 33.2998 5.06421C33.8649 5.06421 34.35 5.25745 34.7525 5.6426C35.1549 6.02775 35.3562 6.47819 35.3562 6.99261C35.3562 7.50703 35.1549 7.95748 34.7525 8.34262C34.35 8.72777 33.8649 8.92101 33.2998 8.92101C32.7348 8.92101 32.2497 8.72777 31.8472 8.34262ZM31.4994 10.5935H35.099V23.7085H31.4994V10.5935Z" fill="#F3F6FF"/>
<path d="M39.0343 21.9334C37.8682 20.6646 37.2859 19.0281 37.2859 17.0224C37.2859 15.0167 37.8682 13.3802 39.0343 12.1115C40.2004 10.8427 41.6317 10.2084 43.3283 10.2084C44.4597 10.2084 45.4965 10.5602 46.4401 11.2625C46.8346 11.5877 47.1691 11.9315 47.4436 12.2914H47.5715V10.5949H51.1711V28.5955H39.2143V25.5103H47.5715V21.7561H47.4436C47.1517 22.1679 46.8172 22.5184 46.4401 22.8103C45.5139 23.4966 44.477 23.8391 43.3283 23.8391C41.6317 23.8391 40.1991 23.2047 39.0343 21.936V21.9334ZM41.9396 14.2957C41.3226 14.9647 41.0134 15.8736 41.0134 17.0211C41.0134 18.1685 41.3226 19.0787 41.9396 19.7464C42.5566 20.4141 43.3629 20.7499 44.3571 20.7499C45.2993 20.7499 46.0709 20.4154 46.672 19.7464C47.2717 19.0774 47.5715 18.1699 47.5715 17.0211C47.5715 15.8723 47.2717 14.9634 46.672 14.2957C46.0723 13.6267 45.3006 13.2922 44.3571 13.2922C43.3629 13.2922 42.5566 13.6267 41.9396 14.2957Z" fill="#F3F6FF"/>
<path d="M54.0005 10.5935H57.6001V12.394H57.728C57.9506 11.9995 58.2678 11.6397 58.6796 11.3145C59.6218 10.5775 60.6759 10.2084 61.842 10.2084C63.4706 10.2084 64.7353 10.6802 65.6349 11.6224C66.5344 12.5659 66.9849 13.9372 66.9849 15.7364V23.7085H63.3853V16.2508C63.3853 15.2913 63.1494 14.5583 62.6776 14.0519C62.2059 13.5468 61.5422 13.2936 60.6853 13.2936C59.8283 13.2936 59.0994 13.6201 58.4997 14.2704C57.8999 14.9221 57.6001 15.7537 57.6001 16.7652V23.7085H54.0005V10.5935Z" fill="#F3F6FF"/>
<path d="M70.9589 22.0746C69.5956 20.7286 68.9146 19.0881 68.9146 17.1504C68.9146 15.2126 69.5956 13.5721 70.9589 12.2261C72.3223 10.8801 73.9975 10.2071 75.9858 10.2071C77.9742 10.2071 79.672 10.8761 80.9741 12.2127C82.2761 13.5494 82.9278 15.1953 82.9278 17.1504V17.922H72.6421C72.7794 18.7789 73.1645 19.5079 73.7989 20.1076C74.4332 20.7073 75.1622 21.0071 75.9845 21.0071C76.8934 21.0071 77.673 20.7499 78.3247 20.2355C78.5819 20.013 78.7871 19.7558 78.9417 19.4639H82.7985C82.5067 20.3381 82.0789 21.1098 81.5125 21.7788C80.1411 23.322 78.298 24.0937 75.9845 24.0937C73.9961 24.0937 72.3196 23.4206 70.9576 22.0746H70.9589ZM72.7714 15.7364H79.071C78.9337 15.0514 78.5859 14.473 78.0302 14.0012C77.4731 13.5294 76.7921 13.2936 75.9858 13.2936C75.1796 13.2936 74.4946 13.5254 73.9282 13.9879C73.3618 14.4503 72.9766 15.034 72.7714 15.7364Z" fill="#F3F6FF"/>
<path d="M83.1863 23.7072L87.0431 17.0211L83.4436 10.5922H87.4296L89.8724 15.4778H90.5148L92.9576 10.5922H96.9437L93.3441 17.0211L97.2009 23.7072H93.2148L90.5148 18.5643H89.8724L87.1724 23.7072H83.1863Z" fill="#F3F6FF"/>
<path d="M189.559 0H186.917V2.64139H189.559V0Z" fill="#F3F6FF"/>
<path d="M189.559 29.0672H186.917V31.7086H189.559V29.0672Z" fill="#F3F6FF"/>
<path d="M147.475 0H144.834V2.64139H147.475V0Z" fill="#F3F6FF"/>
<path d="M147.475 29.0672H144.834V31.7086H147.475V29.0672Z" fill="#F3F6FF"/>
<path d="M105.392 0H102.75V2.64139H105.392V0Z" fill="#F3F6FF"/>
<path d="M105.392 29.0672H102.75V31.7086H105.392V29.0672Z" fill="#F3F6FF"/>
<path d="M190.151 32.2284L193.99 42.6633L196.049 37.5231L200.909 35.0377L190.151 32.2284Z" fill="#F3F6FF"/>
<path d="M202.248 34.8919L196.427 37.8676L193.971 44L189.384 31.5328L202.248 34.8919ZM194.009 41.3262L195.671 37.178L199.57 35.1835L190.917 32.9239L194.009 41.3262Z" fill="#F3F6FF"/>
<path d="M188.226 29.1965V30.3839H187.039" fill="#F3F6FF"/>
<path d="M188.546 29.1965V30.7038H187.039V30.0641H187.906V29.1965H188.546Z" fill="#F3F6FF"/>
<path d="M107.884 30.0644V30.7035H106.66V30.0644H107.884ZM112.778 30.0644V30.7035H110.331V30.0644H112.778ZM117.672 30.0644V30.7035H115.225V30.0644H117.672ZM122.566 30.0644V30.7035H120.12V30.0644H122.566ZM127.461 30.0644V30.7035H125.014V30.0644H127.461ZM132.355 30.0644V30.7035H129.908V30.0644H132.355ZM137.249 30.0644V30.7035H134.802V30.0644H137.249ZM142.143 30.0644V30.7035H139.696V30.0644H142.143ZM147.038 30.0644V30.7035H144.591V30.0644H147.038ZM151.932 30.0644V30.7035H149.484V30.0644H151.932ZM156.826 30.0644V30.7035H154.379V30.0644H156.826ZM161.72 30.0644V30.7035H159.273V30.0644H161.72ZM166.614 30.0644V30.7035H164.167V30.0644H166.614ZM171.509 30.0644V30.7035H169.061V30.0644H171.509ZM176.403 30.0644V30.7035H173.956V30.0644H176.403ZM181.297 30.0644V30.7035H178.85V30.0644H181.297ZM184.968 30.0644V30.7035H183.744V30.0644H184.968Z" fill="#F3F6FF"/>
<path d="M105.225 30.3839H104.038V29.1965" fill="#F3F6FF"/>
<path d="M104.357 29.1965V30.0641H105.225V30.7038H103.718V29.1965H104.357Z" fill="#F3F6FF"/>
<path d="M104.357 25.6189V26.7708H103.718V25.6189H104.357ZM104.357 21.01V23.3147H103.718V21.01H104.357ZM104.357 16.4015V18.7058H103.718V16.4015H104.357ZM104.357 11.7926V14.0973H103.718V11.7926H104.357ZM104.357 7.18412V9.48835H103.718V7.18412H104.357ZM104.357 3.72753V4.87989H103.718V3.72753H104.357Z" fill="#F3F6FF"/>
<path d="M104.038 2.51478V1.32735H105.225" fill="#F3F6FF"/>
<path d="M105.225 1.00777V1.64694H104.357V2.51501H103.718V1.00777H105.225Z" fill="#F3F6FF"/>
<path d="M108.519 1.00777V1.64694H107.296V1.00777H108.519ZM113.414 1.00777V1.64694H110.967V1.00777H113.414ZM118.308 1.00777V1.64694H115.861V1.00777H118.308ZM123.202 1.00777V1.64694H120.755V1.00777H123.202ZM128.096 1.00777V1.64694H125.649V1.00777H128.096ZM132.991 1.00777V1.64694H130.544V1.00777H132.991ZM137.885 1.00777V1.64694H135.438V1.00777H137.885ZM142.779 1.00777V1.64694H140.332V1.00777H142.779ZM147.673 1.00777V1.64694H145.226V1.00777H147.673ZM152.567 1.00777V1.64694H150.12V1.00777H152.567ZM157.462 1.00777V1.64694H155.014V1.00777H157.462ZM162.356 1.00777V1.64694H159.909V1.00777H162.356ZM167.25 1.00777V1.64694H164.803V1.00777H167.25ZM172.144 1.00777V1.64694H169.697V1.00777H172.144ZM177.039 1.00777V1.64694H174.591V1.00777H177.039ZM181.933 1.00777V1.64694H179.485V1.00777H181.933ZM185.604 1.00777V1.64694H184.38V1.00777H185.604Z" fill="#F3F6FF"/>
<path d="M187.039 1.32735H188.226V2.51478" fill="#F3F6FF"/>
<path d="M188.546 1.00777V2.51501H187.906V1.64694H187.039V1.00777H188.546Z" fill="#F3F6FF"/>
<path d="M188.546 26.8317V27.9836H187.906V26.8317H188.546ZM188.546 22.2227V24.5275H187.906V22.2227H188.546ZM188.546 17.6143V19.9185H187.906V17.6143H188.546ZM188.546 13.0053V15.31H187.906V13.0053H188.546ZM188.546 8.39686V10.7011H187.906V8.39686H188.546ZM188.546 4.94027V6.09263H187.906V4.94027H188.546Z" fill="#F3F6FF"/>
<path d="M108.506 18.6989H110.821C111.009 19.3506 111.318 19.933 111.747 20.4474C112.707 21.5962 114.113 22.1706 115.964 22.1706C117.438 22.1706 118.557 21.8787 119.319 21.2963C120.082 20.714 120.464 19.977 120.464 19.0854C120.464 18.3311 120.155 17.7314 119.538 17.285C118.921 16.8398 118.047 16.4534 116.915 16.1282C116.71 16.0602 116.38 15.9656 115.925 15.8457C115.471 15.7257 115.115 15.6311 114.858 15.5631C114.6 15.4952 114.258 15.3925 113.829 15.2539C113.4 15.1167 113.057 14.9927 112.8 14.8808C112.543 14.7702 112.235 14.6236 111.874 14.4437C111.514 14.2638 111.226 14.0878 111.013 13.9159C110.798 13.7453 110.566 13.5348 110.318 13.2856C110.069 13.0377 109.881 12.7751 109.752 12.5019C109.624 12.2274 109.512 11.9196 109.418 11.5757C109.323 11.2332 109.276 10.8641 109.276 10.4696C109.276 9.06361 109.868 7.85486 111.05 6.84335C112.234 5.83184 113.785 5.32675 115.704 5.32675C118.241 5.32675 120.16 6.16635 121.464 7.84686C122.013 8.58384 122.406 9.41544 122.647 10.3417H120.332C120.178 9.86189 119.903 9.39012 119.51 8.92767C118.566 7.98546 117.299 7.51369 115.704 7.51369C114.418 7.51369 113.41 7.80155 112.683 8.37461C111.954 8.949 111.59 9.64732 111.59 10.4709C111.59 10.8654 111.7 11.2252 111.924 11.5504C112.147 11.8769 112.413 12.1461 112.721 12.3607C113.031 12.5752 113.462 12.7898 114.019 13.003C114.576 13.2176 115.07 13.3842 115.497 13.5041C115.925 13.6241 116.492 13.7707 117.194 13.9412C117.983 14.1465 118.676 14.3784 119.277 14.6356C119.877 14.8928 120.46 15.2193 121.025 15.6124C121.59 16.0069 122.023 16.496 122.323 17.0784C122.623 17.6608 122.774 18.3298 122.774 19.0841C122.774 20.558 122.165 21.8054 120.948 22.8249C119.731 23.8444 118.068 24.3549 115.96 24.3549C113.2 24.3549 111.134 23.4126 109.763 21.5269C109.163 20.722 108.743 19.7784 108.503 18.6976L108.506 18.6989Z" fill="#F3F6FF"/>
<path d="M124.577 12.9137V10.9853H126.248V8.15738H128.306V10.9853H132.42V12.9137H128.306V21.9134H132.549V23.8418H126.25V12.9137H124.577Z" fill="#F3F6FF"/>
<path d="M135.12 18.571V10.9853H137.178V18.4431C137.178 19.6771 137.487 20.6073 138.104 21.2324C138.721 21.8587 139.57 22.1706 140.649 22.1706C141.833 22.1706 142.792 21.7814 143.529 21.0005C144.266 20.2209 144.635 19.196 144.635 17.9273V10.984H146.693V23.8418H144.635V21.9134H144.61C144.335 22.3425 143.993 22.7103 143.581 23.0195C142.655 23.7392 141.55 24.099 140.264 24.099C138.704 24.099 137.457 23.6059 136.523 22.621C135.589 21.6348 135.121 20.2848 135.121 18.571H135.12Z" fill="#F3F6FF"/>
<path d="M151.32 22.1839C150.119 20.9072 149.52 19.3173 149.52 17.4142C149.52 15.5112 150.119 13.9213 151.32 12.6445C152.519 11.3678 153.977 10.7295 155.691 10.7295C156.771 10.7295 157.688 10.9347 158.443 11.3465C159.197 11.7583 159.737 12.1954 160.064 12.6579L160.296 13.043H160.321V5.84251H162.379V23.8431H160.321V21.7854H160.296L160.064 22.1453C159.755 22.6077 159.224 23.0502 158.47 23.47C157.716 23.8898 156.789 24.1003 155.693 24.1003C153.979 24.1003 152.521 23.462 151.321 22.1839H151.32ZM152.825 13.9932C151.993 14.8848 151.577 16.0242 151.577 17.4129C151.577 18.8016 151.993 19.9423 152.825 20.8326C153.656 21.7241 154.697 22.1693 155.948 22.1693C157.2 22.1693 158.241 21.7241 159.072 20.8326C159.904 19.941 160.32 18.8016 160.32 17.4129C160.32 16.0242 159.904 14.8848 159.072 13.9932C158.241 13.1017 157.198 12.6565 155.948 12.6565C154.698 12.6565 153.655 13.103 152.825 13.9932Z" fill="#F3F6FF"/>
<path d="M166.004 8.13073C165.729 7.85619 165.592 7.52302 165.592 7.12721C165.592 6.73141 165.729 6.39823 166.004 6.1237C166.278 5.84916 166.611 5.7119 167.006 5.7119C167.4 5.7119 167.735 5.84916 168.009 6.1237C168.284 6.39823 168.421 6.73274 168.421 7.12721C168.421 7.52169 168.284 7.85619 168.009 8.13073C167.735 8.40526 167.4 8.54253 167.006 8.54253C166.611 8.54253 166.277 8.40526 166.004 8.13073ZM165.977 23.8418V10.984H168.035V23.8418H165.977Z" fill="#F3F6FF"/>
<path d="M172.766 22.1959C171.497 20.9272 170.863 19.3333 170.863 17.4129C170.863 15.4925 171.497 13.8986 172.766 12.6299C174.034 11.3612 175.628 10.7268 177.549 10.7268C179.469 10.7268 181.063 11.3612 182.332 12.6299C183.6 13.8986 184.235 15.4925 184.235 17.4129C184.235 19.3333 183.6 20.9272 182.332 22.1959C181.063 23.4646 179.469 24.099 177.549 24.099C175.628 24.099 174.034 23.4646 172.766 22.1959ZM174.232 13.9932C173.357 14.8848 172.92 16.0242 172.92 17.4129C172.92 18.8016 173.357 19.9423 174.232 20.8326C175.106 21.7241 176.212 22.1693 177.549 22.1693C178.885 22.1693 179.991 21.7241 180.866 20.8326C181.74 19.941 182.177 18.8016 182.177 17.4129C182.177 16.0242 181.74 14.8848 180.866 13.9932C179.991 13.1016 178.885 12.6565 177.549 12.6565C176.212 12.6565 175.106 13.103 174.232 13.9932Z" fill="#F3F6FF"/>
</svg>
