<svg width="129" height="24" viewBox="0 0 129 24" fill="none" xmlns="http://www.w3.org/2000/svg">
<path d="M40.0923 17.6738L39.9695 17.7671C39.3685 17.8294 38.7659 17.813 38.1648 17.7819C38.1026 17.551 38.1796 17.4576 38.381 17.3806H38.4121C38.458 14.1725 38.458 10.9644 38.4432 7.78735L34.0478 15.4679C33.2618 14.1267 32.4741 12.7527 31.688 11.4278L30.8397 9.90154C30.4696 9.2383 30.0995 8.56032 29.6983 7.91181V17.1661C29.6983 17.3659 29.6671 17.3364 29.8522 17.4281L30.0225 17.5051C30.0536 17.6902 29.9292 17.8294 29.7605 17.8294C29.5132 17.8294 29.2823 17.8294 29.0514 17.8146C28.9892 17.8146 28.9286 17.7835 28.8663 17.7229L28.8352 17.6918L28.85 17.5067L28.8958 17.4609L28.9728 17.415L28.9875 17.4003C29.1415 17.3544 29.1103 17.3856 29.1103 17.1841C29.1103 16.7518 29.1103 16.3358 29.1251 15.9035V8.68478C29.1251 8.08377 29.1103 7.46637 29.1251 6.86536C29.1251 6.71142 29.094 6.66557 29.0317 6.63445C28.9695 6.64919 28.7844 6.51163 28.8008 6.40355C28.8319 6.3102 28.94 6.23323 29.0317 6.21849C29.3707 6.17264 29.7261 6.18738 30.0651 6.28073C29.9423 6.43466 29.9111 6.43466 30.034 6.60498L32.61 11.1085C33.1504 12.0649 33.7056 12.9754 34.2443 13.9154C35.6478 11.4639 37.0365 9.05652 38.4089 6.61971C38.3941 6.60497 38.3777 6.60498 38.363 6.60498C38.1927 6.54275 38.1157 6.46577 38.1321 6.31184L38.2091 6.23487C38.4089 6.14152 39.7206 6.12679 39.9974 6.20376L40.0907 6.28073C40.1366 6.45104 40.0449 6.55912 39.8745 6.5886C39.8287 6.5886 39.8123 6.60334 39.7976 6.74254C39.7976 7.35993 39.7976 7.99205 39.7828 8.60944V11.3852C39.7828 12.959 39.7828 14.5475 39.7976 16.1197C39.7976 16.5209 39.7976 16.9368 39.8123 17.3381V17.3528C39.8123 17.3626 39.8276 17.373 39.8582 17.3839C40.0285 17.4461 40.1054 17.5231 40.0891 17.6771L40.0923 17.6738Z" fill="#F3F6FF"/>
<path d="M49.5922 17.6593C49.5611 17.7051 49.453 17.7821 49.376 17.8132C49.2991 17.8279 49.191 17.8279 49.114 17.8279H47.8039C47.7728 17.8279 47.7269 17.8132 47.6647 17.7968C47.6336 17.7821 47.6188 17.7821 47.6025 17.7821L47.5566 17.597L47.7564 17.3972C47.7875 17.3661 47.8023 17.3203 47.7711 17.2433C47.555 16.6112 47.3077 15.979 47.0932 15.3305C46.9228 14.8376 46.7689 14.343 46.6002 13.8501L46.0909 12.3697C45.8748 11.7376 45.6438 11.1202 45.4129 10.488C45.2279 9.97874 45.0428 9.46944 44.8725 8.96177C44.7333 8.63752 44.6416 8.32964 44.5335 8.02176L42.5896 13.7437C43.0531 13.7126 43.5149 13.8518 44.0242 14.176C44.3485 14.3922 44.6563 14.5609 45.0265 14.592C45.2885 14.6067 45.5358 14.5461 45.7978 14.4691C45.8289 14.4691 45.86 14.4544 45.9059 14.438C45.9992 14.4069 46.122 14.3611 46.2449 14.3447C46.3841 14.3136 46.538 14.3447 46.6297 14.3905C46.954 14.5903 46.9687 14.8998 46.6756 15.1471C46.4446 15.3322 46.1515 15.3469 45.9206 15.3469C45.3966 15.3158 44.902 15.1766 44.4091 14.931C44.3321 14.8851 44.2699 14.8687 44.1929 14.8229C43.9145 14.6689 43.623 14.5297 43.3446 14.3905C43.2365 14.3447 43.1743 14.3136 42.9598 14.2677C42.9286 14.253 42.8828 14.2366 42.8517 14.2366C42.7125 14.2055 42.6044 14.2219 42.4504 14.2988C42.4193 14.3299 42.3587 14.3758 42.3276 14.438C41.9575 15.5172 41.6791 16.3655 41.4171 17.1532C41.3401 17.3841 41.309 17.3236 41.5104 17.4005C41.7102 17.4775 41.7888 17.6003 41.6955 17.8165C41.4171 17.8312 41.1256 17.8165 40.8325 17.8165H40.3543C40.2462 17.6314 40.2773 17.5086 40.4312 17.4464C40.5852 17.4153 40.6785 17.3236 40.7866 17.0452C40.88 16.7668 40.9717 16.4736 41.0797 16.1969C41.4499 15.1013 41.8363 14.0073 42.2359 12.9118C42.4979 12.1257 42.7763 11.338 43.0531 10.5519C43.3151 9.76585 43.5935 8.99452 43.8703 8.20845C43.9931 7.86946 44.1012 7.5141 44.2256 7.16037C44.2879 6.92946 44.3337 6.82137 44.3648 6.69691C44.4107 6.57409 44.4418 6.51186 44.4877 6.41852C44.658 6.14012 45.0281 6.11064 45.1968 6.3874C45.2901 6.51022 45.336 6.60356 45.3671 6.71165C45.6602 7.59106 45.9534 8.47047 46.2612 9.34825C46.3235 9.5333 46.3693 9.70362 46.4315 9.87229C46.5249 10.1196 46.6166 10.3652 46.6936 10.6125L48.1118 14.592C48.2657 14.9768 48.4049 15.3633 48.5441 15.7481C48.6833 16.133 48.8372 16.5195 48.9601 16.8896C49.0993 17.1975 49.2221 17.3367 49.4071 17.3825C49.5611 17.4136 49.6692 17.5217 49.5922 17.6609V17.6593Z" fill="#F3F6FF"/>
<path d="M59.6179 12.7542V12.8934C59.6031 13.2782 59.5868 13.6647 59.5556 14.0496L59.5098 15.191L59.4639 16.1932C59.4639 16.5175 59.4492 16.8565 59.4328 17.1807V17.3658C59.4181 17.5656 59.2789 17.6589 59.0774 17.6442C58.8924 17.6442 58.7843 17.5361 58.7843 17.3511V16.2866C58.7843 16.1932 58.799 16.1163 58.799 16.0246C58.3356 16.6567 57.7346 17.1513 56.9633 17.505C56.5784 17.7048 56.115 17.8129 55.5287 17.8292C55.1733 17.844 54.7574 17.8292 54.2481 17.767C53.9549 17.7359 53.6782 17.6589 53.385 17.582C52.6907 17.3511 52.0585 17.0415 51.5034 16.6567C50.7484 16.1474 50.1621 15.5464 49.6987 14.8373C49.1894 14.0348 48.8962 13.1718 48.8193 12.2465C48.7112 10.92 49.0191 9.73276 49.7445 8.59132C50.1769 7.94282 50.7615 7.37292 51.5034 6.86361C52.1814 6.40016 52.9838 6.07754 53.986 5.86137C54.5723 5.73855 55.1897 5.72218 55.8366 5.78441C56.8077 5.87775 57.6724 6.32483 58.3503 7.07978C58.5043 7.26483 58.6435 7.46463 58.6582 7.72829C58.673 7.99031 58.5501 8.22121 58.3192 8.26871C57.995 8.31456 57.7477 8.19174 57.6707 7.92971C57.6249 7.80689 57.5626 7.66769 57.5315 7.54487C57.3612 7.00445 57.0844 6.65072 56.6996 6.41818C56.5145 6.32483 56.3295 6.27898 56.0052 6.23312C55.1733 6.17089 54.5707 6.20201 54.0155 6.34121C53.1214 6.52626 52.3648 7.01919 51.6868 7.82163C51.1005 8.51599 50.6993 9.30206 50.4373 10.2126C50.1294 11.3229 50.1294 12.4185 50.4225 13.4813C50.7779 14.8225 51.5328 15.9034 52.6743 16.6747C53.1672 17.0137 53.7224 17.2151 54.3398 17.2921C54.9719 17.3691 55.4812 17.3838 55.943 17.3232C56.282 17.2774 56.6063 17.1693 56.8994 16.9842C57.7624 16.4602 58.3028 15.7036 58.4732 14.7325C58.519 14.4704 58.5501 14.2084 58.5812 13.9464C58.5812 13.8072 58.596 13.6844 58.6124 13.5452C58.6271 13.5141 58.6271 13.4682 58.6124 13.3912V13.2979C58.6124 13.144 58.5501 13.0506 58.4126 12.99C58.1194 12.8819 57.8263 12.8819 57.4873 12.8672C57.2711 12.8672 57.1794 12.8361 57.1172 12.6969L57.1794 12.5577C57.1794 12.5577 57.1647 12.5577 57.1942 12.5429C57.2253 12.5282 57.2859 12.4971 57.317 12.4971H59.5999C59.5999 12.6052 59.5999 12.6674 59.6146 12.7591L59.6179 12.7542Z" fill="#F3F6FF"/>
<path d="M69.3965 17.7981C69.1182 17.8128 68.8414 17.8292 68.5335 17.8292C67.284 17.7981 67.1153 16.3946 67.6541 17.3199C67.2987 16.6877 66.945 16.0867 66.5749 15.453L64.0611 11.0575L61.7783 7.04696V9.9161C61.7635 10.6105 61.7635 11.3048 61.7635 12.0139C61.7783 13.6958 61.7783 15.3907 61.7783 17.0873V17.2576C61.7783 17.3805 61.793 17.4116 61.8552 17.4279C62.0403 17.4427 62.1336 17.5983 62.0403 17.7833C61.8241 17.8144 61.5932 17.8144 61.377 17.8144C61.0839 17.8292 60.8071 17.8292 60.514 17.8292C60.2667 17.8292 60.1292 17.7358 60.098 17.5213C60.1914 17.4591 60.2831 17.4132 60.3453 17.3821C60.4174 17.3614 60.4534 17.2997 60.4534 17.197V6.86354C60.4534 6.67849 60.4223 6.63263 60.3306 6.61626C60.2225 6.60152 60.1308 6.50817 60.1455 6.40009C60.1455 6.30674 60.2372 6.22977 60.3306 6.20029C60.4239 6.18556 60.5156 6.18556 60.5779 6.18556C60.7777 6.18556 60.9627 6.18556 61.1478 6.20029H61.7029C61.8732 6.20029 61.9961 6.26253 62.073 6.38535C62.1189 6.44758 62.1811 6.52455 62.2122 6.61626L65.4826 12.3382C66.2539 13.7105 67.0252 15.0828 67.8113 16.4257V6.86354C67.8113 6.67849 67.7802 6.63263 67.6885 6.61626C67.5804 6.60152 67.5034 6.49343 67.5034 6.40009C67.5034 6.33786 67.5493 6.292 67.6115 6.24615C67.6426 6.23141 67.6263 6.23141 67.6426 6.23141C67.6738 6.20029 67.7507 6.18556 67.7966 6.20029H69.354C69.5079 6.38535 69.4473 6.53929 69.2459 6.58514C69.1689 6.59988 69.1525 6.59988 69.1525 6.77019V7.86578C69.1378 8.23588 69.1378 8.60599 69.1378 8.97609V16.5338C69.1525 16.7811 69.1525 17.0267 69.1525 17.274C69.1525 17.3821 69.1673 17.4132 69.2148 17.4279C69.4146 17.4427 69.4932 17.5819 69.3998 17.7981H69.3965Z" fill="#F3F6FF"/>
<path d="M70.5529 17.6131L70.5988 17.505L70.6135 17.4903C70.6283 17.4591 70.6905 17.4133 70.7363 17.3985L70.7216 17.4133C70.9067 17.3199 70.8755 17.3674 70.8755 17.166V6.8325C70.8755 6.66219 70.8903 6.67856 70.7527 6.63271C70.7069 6.61797 70.6446 6.57048 70.6135 6.52462C70.5824 6.49351 70.5988 6.49351 70.5988 6.49351L70.6135 6.32319L70.6594 6.29208C70.6741 6.26096 70.6905 6.24622 70.7052 6.22985C70.7511 6.19873 70.8444 6.18399 70.9214 6.18399C71.1376 6.19873 71.3537 6.19874 71.5846 6.19874C71.8008 6.19874 72.017 6.21347 72.2331 6.21347C72.2643 6.21347 72.2954 6.21347 72.356 6.22821C72.3707 6.22821 72.4182 6.24295 72.4493 6.24295L72.5115 6.44274C72.4968 6.45748 72.4657 6.47386 72.4346 6.50497C72.3887 6.55083 72.3265 6.58194 72.2643 6.58194H72.2954C72.2184 6.59668 72.2037 6.61305 72.2037 6.75225V8.57167C72.1889 9.52805 72.1889 10.4844 72.1889 11.4408V14.0479C72.2037 14.911 72.2037 15.7756 72.2037 16.6551V16.8712C72.2037 17.0104 72.2184 17.1644 72.2037 17.3036C72.2037 17.3805 72.2184 17.4117 72.2659 17.4264C72.4198 17.4411 72.5132 17.5197 72.5132 17.6884L72.374 17.7965H72.2806C72.2495 17.8112 72.2037 17.8112 72.1578 17.8112H71.5568C71.357 17.826 71.1556 17.826 70.9558 17.826C70.7396 17.826 70.6168 17.7801 70.5546 17.6098L70.5529 17.6131Z" fill="#F3F6FF"/>
<path d="M80.7926 6.59999C80.7926 6.78504 80.7778 6.84728 80.6698 6.95536H80.4847C80.47 6.95536 80.47 6.94062 80.4536 6.94062C80.4225 6.90951 80.3766 6.86365 80.3766 6.8178V6.84891C80.3619 6.78668 80.3619 6.77195 80.2538 6.77195C80.0229 6.77195 79.8067 6.77194 79.5758 6.7572H78.9273C78.3722 6.7572 77.8317 6.77195 77.2766 6.77195C76.7214 6.77195 76.181 6.77195 75.6258 6.78668H75.5341C75.4883 7.43519 75.4408 11.567 75.4883 12.4316H75.6422C75.8273 12.4169 76.0123 12.4005 76.1974 12.4005C76.4758 12.3858 76.7689 12.4316 77.0604 12.5233C77.5844 12.7231 78.0626 12.6462 78.5261 12.3235L78.8962 12.1237C79.0813 12.0304 79.2974 12.0615 79.4661 12.2007C79.6659 12.3547 79.697 12.5397 79.5742 12.7559C79.4825 12.8951 79.3433 13.0032 79.173 13.0638C78.7095 13.2488 78.1544 13.2947 77.5992 13.1866L76.8737 13.0015C76.8279 12.9868 76.7656 12.9704 76.7345 12.9704C76.2252 12.8312 75.8404 12.8476 75.4703 12.9851V13.3864C75.4703 14.6506 75.4555 15.9313 75.4391 17.2119C75.4391 17.4117 75.408 17.3822 75.5783 17.4281C75.5882 17.4379 75.5985 17.4428 75.6095 17.4428C75.7634 17.4887 75.8256 17.5656 75.7945 17.7048L75.6864 17.7818C75.408 17.844 74.1749 17.844 74.0046 17.7671L73.9129 17.6901C73.8981 17.582 73.944 17.5198 74.0668 17.4592L74.0815 17.4444H74.0963C74.1732 17.4133 74.2044 17.3364 74.2044 17.2283C74.1896 16.4717 74.1732 15.7167 74.1732 14.9765V9.26935C74.1732 8.48328 74.1585 7.69557 74.1732 6.90951C74.1732 6.6786 74.1421 6.63111 74.034 6.61637H74.0488C74.0029 6.61637 73.9407 6.58525 73.9096 6.55414L73.8637 6.47717L73.849 6.4002C73.8949 6.261 74.034 6.21514 74.2191 6.21514C74.45 6.20041 74.6826 6.20041 74.9282 6.20041C76.1777 6.21515 77.4109 6.21514 78.6604 6.21514C79.2319 6.21514 79.8166 6.21515 80.3881 6.20041C80.7271 6.20041 80.8041 6.29375 80.7893 6.60163L80.7926 6.59999Z" fill="#F3F6FF"/>
<path d="M81.5948 17.6131L81.6407 17.505L81.6554 17.4903C81.6701 17.4591 81.7324 17.4133 81.7782 17.3985L81.7635 17.4133C81.9485 17.3199 81.9174 17.3674 81.9174 17.166V6.8325C81.9174 6.66219 81.9322 6.67856 81.7946 6.63271C81.7487 6.61797 81.6865 6.57048 81.6554 6.52462C81.6243 6.49351 81.6407 6.49351 81.6407 6.49351L81.6554 6.32319L81.7013 6.29208C81.716 6.26096 81.7324 6.24622 81.7471 6.22985C81.793 6.19873 81.8863 6.18399 81.9633 6.18399C82.1794 6.19873 82.3956 6.19874 82.6265 6.19874C82.8427 6.19874 83.0589 6.21347 83.275 6.21347C83.3061 6.21347 83.3373 6.21347 83.3979 6.22821C83.4126 6.22821 83.4601 6.24295 83.4912 6.24295L83.5534 6.44274C83.5387 6.45748 83.5076 6.47386 83.4765 6.50497C83.4306 6.55083 83.3684 6.58194 83.3061 6.58194H83.3373C83.2603 6.59668 83.2456 6.61305 83.2456 6.75225V8.57167C83.2308 9.52805 83.2308 10.4844 83.2308 11.4408V14.0479C83.2455 14.911 83.2456 15.7756 83.2456 16.6551V16.8712C83.2456 17.0104 83.2603 17.1644 83.2456 17.3036C83.2456 17.3805 83.2603 17.4117 83.3078 17.4264C83.4617 17.4411 83.5551 17.5197 83.5551 17.6884L83.4159 17.7965H83.3225C83.2914 17.8112 83.2456 17.8112 83.1997 17.8112H82.5987C82.3989 17.826 82.1975 17.826 81.9977 17.826C81.7815 17.826 81.6587 17.7801 81.5965 17.6098L81.5948 17.6131Z" fill="#F3F6FF"/>
<path d="M86.4063 17.6589C85.6202 17.3199 85.0487 16.7484 84.7408 15.9312C84.5099 15.3138 84.5099 14.6669 84.6491 14.0348C84.695 13.835 84.803 13.6499 84.9111 13.4796C85.0192 13.3093 85.2043 13.2798 85.3435 13.3404C85.4974 13.4174 85.5744 13.6172 85.5138 13.8039C85.4827 13.8956 85.4221 14.0037 85.3598 14.097C85.2206 14.3279 85.052 14.5605 84.9897 14.8372C84.898 15.2696 84.9897 15.6708 85.1437 16.0704C85.3287 16.5944 85.6988 16.9498 86.1623 17.2265C87.3348 17.952 88.5057 17.9209 89.6783 17.2118C90.2498 16.8564 90.7116 16.3946 90.9425 15.7625C91.3127 14.775 91.3585 13.7891 90.8197 12.8475C90.4955 12.276 90.0025 11.8911 89.4163 11.6291C88.9839 11.4129 88.5057 11.336 88.0587 11.1656C87.5805 10.9953 87.1023 10.8266 86.6552 10.6105C86.0542 10.3321 85.6219 9.87027 85.4515 9.22176C85.2354 8.41932 85.4974 7.74134 86.0837 7.18618C86.439 6.84719 86.855 6.64576 87.3168 6.49182C88.1962 6.2298 89.0756 6.2298 89.9534 6.47708C90.2924 6.56879 90.6167 6.7391 90.9098 6.94053C91.0637 7.04862 91.1571 7.17144 91.126 7.37287C91.1112 7.49569 91.0948 7.60378 91.0948 7.72824C91.0637 7.72824 91.049 7.74298 91.0179 7.74298C90.9868 7.69712 90.9409 7.63489 90.9098 7.57266C90.7706 7.26478 90.5544 7.04862 90.2613 6.90942C89.598 6.55405 88.9037 6.52457 88.1798 6.58516C87.8245 6.63102 87.4855 6.72436 87.1612 6.8783C86.5602 7.17144 86.236 7.64963 86.159 8.31287C86.0657 9.17591 86.421 9.85553 87.1301 10.3485C87.6231 10.7038 88.1946 10.9036 88.7645 11.0739C89.2574 11.2279 89.7356 11.3982 90.2138 11.5669C91.0457 11.8911 91.6484 12.461 92.0332 13.2635C92.1724 13.5419 92.233 13.835 92.233 14.1429C92.2641 14.9453 92.1102 15.7166 91.6156 16.3799C91.1522 17.012 90.5512 17.4591 89.8273 17.7375C88.6859 18.1698 87.5297 18.1387 86.403 17.6605L86.4063 17.6589Z" fill="#F3F6FF"/>
<path d="M96.6316 17.3037C96.1076 17.1187 95.6441 16.8403 95.1823 16.5177C94.519 16.0542 93.9786 15.4843 93.5627 14.79C92.8536 13.6338 92.5752 12.399 92.7455 11.0578C92.8994 9.94746 93.317 8.97634 94.0261 8.12804C94.9661 7.01773 96.1698 6.35448 97.6044 6.06134C98.3609 5.9074 99.1306 5.9074 99.8872 6.09246C100.041 6.12357 100.211 6.1858 100.365 6.26277C100.812 6.47894 101.245 6.7557 101.553 7.15692C101.676 7.29612 101.784 7.45006 101.846 7.62038C101.892 7.72846 101.892 7.8824 101.877 8.02159C101.862 8.14442 101.769 8.22139 101.63 8.23776C101.459 8.2525 101.322 8.20665 101.245 8.05271C101.168 7.92989 101.137 7.77595 101.091 7.63675C101.014 7.38947 100.921 7.15856 100.767 6.94239C100.474 6.51005 100.058 6.26441 99.5335 6.2333C98.6852 6.15633 97.8516 6.17106 97.0508 6.48058C96.4187 6.71148 95.9094 7.08159 95.4623 7.57616C94.8302 8.25414 94.3831 9.04184 94.1047 9.90488C93.8263 10.7532 93.7199 11.6326 93.8116 12.5267C93.8885 13.4373 94.167 14.2856 94.6288 15.0716C95.1528 15.9347 95.8472 16.629 96.7724 17.0761C97.3423 17.3381 97.9761 17.4462 98.6082 17.4921C98.6999 17.4921 98.808 17.4921 98.9014 17.5068V17.5379L99.6874 17.4921C100.336 17.4151 100.752 17.0597 101.014 16.4898L101.245 16.0428C101.322 15.9199 101.43 15.843 101.584 15.8888C101.738 15.9199 101.846 16.0116 101.877 16.1672C101.923 16.4292 101.846 16.6307 101.646 16.7993C101.261 17.1383 100.798 17.3545 100.305 17.5248C99.7038 17.741 99.0864 17.741 98.4543 17.7099C97.8222 17.664 97.2211 17.5248 96.6349 17.3086L96.6316 17.3037Z" fill="#F3F6FF"/>
<path d="M102.892 17.5657L103.015 17.4887C103.2 17.4118 103.215 17.4118 103.215 17.1956V6.87847C103.215 6.69341 103.2 6.53947 102.984 6.50836C102.938 6.50836 102.922 6.46251 102.891 6.43139C102.953 6.30857 103.045 6.30857 103.153 6.30857H108.736C108.952 6.30857 109.151 6.29383 109.353 6.30857C109.523 6.30857 109.553 6.33968 109.569 6.50836C109.569 6.69341 109.569 6.72453 109.492 6.84735H109.446C109.384 6.6623 109.261 6.64756 109.091 6.64756H106.376C105.775 6.64756 105.172 6.64756 104.556 6.6623H104.278C104.232 8.63565 104.263 10.5959 104.247 12.5545C104.525 12.5234 104.787 12.5087 105.049 12.4923C105.342 12.4776 105.65 12.5234 105.929 12.6315C106.498 12.8313 107.024 12.7396 107.517 12.4006C107.625 12.3236 107.748 12.2614 107.872 12.2008C108.058 12.1238 108.243 12.1861 108.351 12.34C108.444 12.4481 108.413 12.6184 108.288 12.7723C108.149 12.9426 107.949 12.9885 107.764 13.0507C107.24 13.1899 106.716 13.1277 106.207 13.0049L105.265 12.774C104.91 12.7117 104.602 12.7592 104.247 12.9132L104.201 17.3233C104.247 17.3381 104.263 17.3692 104.293 17.3692C105.866 17.3692 107.438 17.3692 109.027 17.3839C109.212 17.3839 109.397 17.3839 109.459 17.153C109.567 17.1989 109.567 17.2922 109.553 17.3692C109.553 17.4609 109.567 17.569 109.522 17.6623C109.507 17.6934 109.399 17.7245 109.322 17.7245C108.952 17.7245 108.582 17.7098 108.195 17.7098C106.761 17.7098 105.326 17.7098 103.891 17.7245H103.12C103.027 17.7245 102.92 17.7245 102.889 17.5706L102.892 17.5657Z" fill="#F3F6FF"/>
<path d="M110.573 17.5658C110.619 17.5347 110.665 17.5036 110.712 17.4889C110.883 17.4266 110.912 17.3972 110.912 17.1957V6.86222C110.912 6.6919 110.897 6.55434 110.681 6.50685C110.65 6.50685 110.588 6.44462 110.604 6.39876C110.604 6.36765 110.65 6.3218 110.696 6.30542C110.758 6.29068 110.835 6.29068 110.896 6.29068C111.281 6.29068 111.651 6.30542 112.023 6.30542C112.145 6.30542 112.222 6.35128 112.285 6.44462C112.33 6.50685 112.378 6.56744 112.407 6.64441L115.678 12.3811C116.495 13.8304 117.312 15.2813 118.146 16.7306C118.177 16.7765 118.208 16.8223 118.268 16.8698V6.86058C118.268 6.69026 118.254 6.5527 118.038 6.50521C118.006 6.50521 117.961 6.44298 117.961 6.39713C117.961 6.36601 118.023 6.3349 118.054 6.30378C118.069 6.28904 118.1 6.30378 118.131 6.30378H119.597C119.659 6.41187 119.597 6.45772 119.534 6.4741C119.349 6.50521 119.335 6.61329 119.335 6.76723C119.335 7.49271 119.32 8.23292 119.32 8.97313V15.7906C119.32 16.2836 119.335 16.7781 119.335 17.2711C119.335 17.4103 119.366 17.502 119.52 17.5331C119.582 17.5331 119.642 17.5642 119.611 17.687C119.364 17.7018 119.118 17.7181 118.856 17.7181C118.316 17.7034 118.393 17.7804 118.1 17.2711C116.896 15.1732 115.709 13.0918 114.507 11.0087C113.721 9.62 112.933 8.23292 112.132 6.86058C112.101 6.78361 112.055 6.73775 111.993 6.62967C111.978 6.73775 111.962 6.78361 111.962 6.84584V9.91477C111.947 10.6091 111.947 11.3035 111.947 12.0126C111.962 13.6944 111.962 15.3894 111.962 17.086C111.962 17.1482 111.977 17.1941 111.962 17.2563C111.962 17.4103 111.993 17.5036 112.162 17.5347C112.224 17.5347 112.285 17.5806 112.255 17.6886C112.07 17.7034 111.885 17.7034 111.7 17.7034C111.407 17.7181 111.13 17.7181 110.837 17.7181C110.729 17.7181 110.621 17.7181 110.575 17.5642L110.573 17.5658Z" fill="#F3F6FF"/>
<path d="M123.205 17.582C123.236 17.5673 123.267 17.5198 123.313 17.505C123.512 17.4117 123.529 17.397 123.529 17.1972V6.84893C123.529 6.77196 123.514 6.70974 123.514 6.61803H120.537C120.351 6.62785 120.202 6.70482 120.09 6.84893C120.059 6.80308 120.028 6.77197 120.028 6.74085C120.013 6.64914 120.013 6.5558 120.013 6.46245C120.028 6.30851 120.059 6.2774 120.213 6.2774H127.908C128.047 6.2774 128.093 6.32325 128.093 6.46245C128.093 6.58527 128.124 6.72447 128.031 6.83256C128.016 6.83256 127.985 6.83256 127.985 6.81782C127.923 6.64751 127.785 6.61803 127.629 6.61803C126.642 6.63277 125.656 6.61803 124.669 6.61803C124.654 6.61803 124.637 6.63277 124.606 6.64914C124.592 6.71137 124.592 6.78834 124.592 6.88005C124.577 7.89866 124.577 8.93201 124.577 9.96536V11.9862C124.577 13.4519 124.577 14.9012 124.592 16.3505V17.2922C124.592 17.4314 124.623 17.5083 124.762 17.5394C124.839 17.5542 124.901 17.5706 124.885 17.6786C124.839 17.6934 124.793 17.7098 124.746 17.7098C124.313 17.7098 123.883 17.7245 123.45 17.7245C123.357 17.7245 123.25 17.7245 123.203 17.5853L123.205 17.582Z" fill="#F3F6FF"/>
<path d="M20.5183 10.6599L23.5741 8.79177L23.426 8.55076L22.6352 7.2392C22.5355 7.57798 22.339 7.86546 22.0457 8.10163C21.7524 8.33781 21.4263 8.5043 21.0671 8.59819C20.709 8.69304 20.3344 8.73466 19.9434 8.72499C19.6007 8.71337 19.2126 8.67465 18.777 8.6098C18.3511 8.54592 18.0298 8.49074 17.8168 8.44428C17.872 8.2323 17.9698 7.9216 18.1062 7.51313C18.2475 7.09595 18.3898 6.732 18.536 6.42226C18.7044 6.06993 18.9125 5.75535 19.1603 5.47949C19.4081 5.20363 19.7043 4.98875 20.0489 4.83485C20.2996 4.72257 20.5522 4.66933 20.8039 4.67417L21.6731 6.09704L21.8647 5.97992L21.0846 4.70417L20.3383 3.49716L20.2792 3.4023L20.1312 3.16128L17.0754 5.0294L17.9146 1.54773L17.6397 1.48094L16.1539 1.1141C16.3233 1.42287 16.3872 1.76552 16.3475 2.14011C16.3068 2.5147 16.1926 2.86219 16.0058 3.18258C15.819 3.50296 15.5838 3.79819 15.3011 4.06727C15.0505 4.30151 14.7485 4.54834 14.3952 4.81065C14.0486 5.06618 13.7825 5.25396 13.5985 5.37205C13.4872 5.1833 13.3372 4.89486 13.1456 4.50962C12.95 4.1147 12.7932 3.75753 12.6771 3.43424C12.5474 3.06546 12.4719 2.6957 12.4525 2.32595C12.4332 1.9562 12.4903 1.59419 12.6248 1.24283C12.7226 0.98536 12.8629 0.76951 13.0449 0.595281L14.6662 0.986328L14.7185 0.767574L13.2646 0.417181L11.8834 0.091954L11.774 0.0667877L11.4991 0L10.6599 3.48167L8.7908 0.425892L8.54979 0.573987L7.2392 1.36479C7.57798 1.46449 7.86449 1.66098 8.10163 1.95427C8.33781 2.24755 8.50333 2.57374 8.59818 2.93285C8.69207 3.29099 8.7337 3.66655 8.72402 4.05662C8.71337 4.39927 8.67465 4.78742 8.6098 5.22299C8.54495 5.64888 8.48978 5.97024 8.44332 6.18318C8.23134 6.12801 7.92063 6.03025 7.51313 5.89377C7.09498 5.75245 6.732 5.61113 6.42226 5.464C6.06896 5.29558 5.75438 5.08748 5.47852 4.83969C5.20363 4.59189 4.98778 4.2957 4.83485 3.95112C4.7216 3.70042 4.66836 3.44779 4.67417 3.1971L6.09703 2.32692L5.97991 2.13527L4.70321 2.91543L3.49716 3.66171L3.40133 3.72172L3.16031 3.86884L5.02843 6.92462L1.54676 6.08542L1.48094 6.36031L1.11313 7.8461C1.42287 7.67768 1.76455 7.61379 2.13914 7.65348C2.51373 7.69316 2.86219 7.80738 3.18258 7.99419C3.50296 8.181 3.79722 8.41621 4.0663 8.69885C4.30054 8.94955 4.54834 9.25154 4.80968 9.60581C5.06618 9.95233 5.25396 10.2185 5.37205 10.4024C5.18233 10.5128 4.89486 10.6628 4.50865 10.8554C4.11373 11.0509 3.75656 11.2077 3.43424 11.3229C3.06546 11.4526 2.6957 11.5281 2.32499 11.5485C1.95523 11.5678 1.59322 11.5097 1.24186 11.3752C0.984392 11.2774 0.768542 11.1371 0.594313 10.9551L0.985359 9.33382L0.766606 9.28155L0.416213 10.7354L0.0909863 12.1166L0.065819 12.226L0 12.5009L3.48167 13.3411L0.425892 15.2092L0.573019 15.4502L1.36479 16.7608C1.46352 16.423 1.66001 16.1355 1.9533 15.8984C2.24658 15.6622 2.57374 15.4967 2.93188 15.4018C3.29099 15.3079 3.66558 15.2663 4.05566 15.276C4.39927 15.2876 4.78645 15.3253 5.22202 15.3902C5.64791 15.4551 5.96927 15.5102 6.18318 15.5567C6.12704 15.7687 6.03025 16.0794 5.8928 16.4869C5.75245 16.905 5.61016 17.268 5.464 17.5777C5.29462 17.931 5.08651 18.2456 4.83872 18.5215C4.59092 18.7964 4.29474 19.0122 3.95112 19.1652C3.69945 19.2784 3.44779 19.3316 3.19613 19.3258L2.32595 17.903L2.1343 18.0201L2.91446 19.2968L3.66171 20.5028L3.72075 20.5987L3.86788 20.8397L6.92462 18.9706L6.08445 22.4532L6.35935 22.52L7.8461 22.8869C7.67671 22.5771 7.61282 22.2355 7.65251 21.8609C7.69316 21.4863 7.80641 21.1378 7.99322 20.8174C8.18003 20.497 8.41524 20.2028 8.69885 19.9337C8.94954 19.6995 9.25058 19.4526 9.60484 19.1903C9.95136 18.9338 10.2175 18.746 10.4015 18.6279C10.5118 18.8177 10.6628 19.1061 10.8544 19.4913C11.05 19.8863 11.2068 20.2434 11.322 20.5658C11.4517 20.9345 11.5272 21.3043 11.5475 21.675C11.5668 22.0448 11.5097 22.4068 11.3752 22.7581C11.2765 23.0156 11.1361 23.2315 10.9551 23.4057L9.33382 23.0146L9.28058 23.2334L10.7344 23.5838L12.1157 23.909L12.225 23.9342L12.4999 24L13.3401 20.5183L15.2082 23.5741L15.4492 23.427L16.7608 22.6352C16.422 22.5365 16.1345 22.34 15.8984 22.0467C15.6622 21.7534 15.4957 21.4263 15.4018 21.0681C15.307 20.709 15.2653 20.3344 15.275 19.9443C15.2866 19.6017 15.3253 19.2136 15.3902 18.778C15.4541 18.3521 15.5093 18.0307 15.5567 17.8178C15.7687 17.873 16.0784 17.9698 16.4869 18.1072C16.9041 18.2485 17.268 18.3898 17.5777 18.536C17.9301 18.7054 18.2446 18.9135 18.5205 19.1613C18.7964 19.4091 19.0113 19.7053 19.1652 20.0489C19.2774 20.3005 19.3307 20.5522 19.3258 20.8039L17.903 21.674L18.0201 21.8657L19.2958 21.0855L20.5028 20.3383L20.5977 20.2792L20.8387 20.1321L18.9706 17.0754L22.4532 17.9155L22.5191 17.6407L22.8869 16.1539C22.5771 16.3233 22.2345 16.3872 21.8599 16.3475C21.4853 16.3068 21.1378 16.1936 20.8174 16.0068C20.497 15.82 20.2018 15.5848 19.9327 15.3012C19.6985 15.0505 19.4517 14.7494 19.1894 14.3952C18.9338 14.0486 18.746 13.7825 18.6279 13.5985C18.8167 13.4882 19.1051 13.3372 19.4904 13.1456C19.8853 12.95 20.2425 12.7932 20.5658 12.678C20.9345 12.5483 21.3043 12.4728 21.674 12.4525C22.0448 12.4332 22.4058 12.4903 22.7581 12.6258C23.0146 12.7235 23.2305 12.8639 23.4057 13.0449L23.0146 14.6662L23.2324 14.7194L23.5828 13.2656L23.908 11.8843L23.9332 11.775L24 11.5001L20.5183 10.6599ZM19.4633 9.47707C19.8737 9.62517 20.1873 9.71906 20.4031 9.75777L19.3771 10.385L17.4325 9.91652C17.4606 9.81488 17.4887 9.70841 17.5177 9.59903C17.5961 9.29316 17.6619 9.04053 17.7132 8.8392L19.4633 9.47707ZM18.3763 10.9967L16.4375 12.1825C16.5972 11.9782 16.7356 11.7614 16.8518 11.533C16.9621 11.3191 17.0754 11.0451 17.1886 10.7112L18.3763 10.9967ZM16.7995 6.1706H16.8005L17.8265 5.54241C17.7616 5.75245 17.7016 6.07381 17.6465 6.50647L17.4171 8.3562L17.3725 8.71531L17.3435 8.94664C17.3106 9.20799 17.2835 9.41416 17.2612 9.56322C17.2477 9.65033 17.2293 9.75003 17.207 9.86231L15.9816 9.56612L16.7995 6.1706ZM15.4928 4.93938C15.8877 4.75354 16.1752 4.5977 16.3562 4.47187L16.0745 5.64114L14.3671 6.68457C14.3148 6.59165 14.2606 6.49679 14.2035 6.4C14.0428 6.12898 13.9102 5.90345 13.8047 5.72438L15.4928 4.93938ZM15.7987 6.78234L15.2663 8.99117C15.2353 8.7337 15.1792 8.483 15.1008 8.23908C15.0282 8.00968 14.913 7.73672 14.7572 7.41924L15.7987 6.78234ZM11.5533 3.31422C11.6559 3.5078 11.8408 3.77786 12.1079 4.12244L13.253 5.59274L13.4766 5.87828L13.6189 6.06219C13.7805 6.2703 13.9073 6.43581 13.9964 6.55681C14.0486 6.62843 14.1057 6.71168 14.1687 6.80653L13.0943 7.46376L11.2716 4.48252L11.5533 3.31422ZM10.9967 5.62371L12.1825 7.56346C11.9773 7.40278 11.7604 7.26534 11.532 7.14822C11.3181 7.03787 11.0442 6.92462 10.7102 6.81137L10.9967 5.62371ZM9.47707 4.53769C9.62517 4.12632 9.71809 3.81367 9.7568 3.59685L10.384 4.62287L9.91555 6.56745C9.81391 6.53938 9.70744 6.51131 9.59806 6.48228C9.29316 6.40387 9.03956 6.33805 8.83823 6.28675L9.47707 4.53769ZM6.50647 6.35354L8.35523 6.58294L8.71531 6.62747L8.94567 6.6565C9.20798 6.68941 9.41319 6.71652 9.56225 6.73878C9.64937 6.75233 9.74906 6.77072 9.86134 6.79298L9.56515 8.01839L6.1706 7.20048H6.16963L5.54241 6.1735C5.75148 6.23835 6.07284 6.29837 6.50647 6.35354ZM8.99117 8.7337C8.73369 8.76564 8.48203 8.82081 8.23811 8.90018C8.00871 8.97278 7.73575 9.08699 7.41924 9.24283L6.78233 8.20133L8.99117 8.7337ZM4.93842 8.5072C4.75257 8.11228 4.5977 7.8248 4.47187 7.6438L5.64114 7.92547L6.68457 9.63291C6.59262 9.68518 6.49776 9.73938 6.4 9.79649C6.12801 9.95717 5.90248 10.0898 5.72438 10.1953L4.93842 8.5072ZM3.31325 12.4467C3.5078 12.3441 3.77689 12.1592 4.12244 11.8921L5.59177 10.747L5.87828 10.5244L6.06122 10.3811C6.2703 10.2195 6.43484 10.0927 6.55584 10.0036C6.62746 9.95136 6.71071 9.89425 6.80653 9.83134L7.46376 10.9057L4.48252 12.7284L3.31325 12.4467ZM7.56249 11.8175C7.40278 12.0227 7.26437 12.2396 7.14725 12.468C7.0369 12.6819 6.92462 12.9558 6.81137 13.2898L5.62275 13.0033L7.56249 11.8175ZM4.53672 14.5229C4.12632 14.3748 3.8127 14.2819 3.59589 14.2432L4.6219 13.616H4.62287L6.56745 14.0845C6.53938 14.1861 6.51034 14.2926 6.48131 14.4019C6.4029 14.7078 6.33805 14.9604 6.28578 15.1618L4.53672 14.5229ZM7.19952 17.8304L6.1735 18.4576C6.23739 18.2485 6.2974 17.9272 6.35257 17.4935L6.58294 15.6448L6.62747 15.2847L6.65553 15.0543C6.68844 14.792 6.71555 14.5868 6.73878 14.4377C6.75233 14.3506 6.77072 14.2519 6.79298 14.1396L8.01839 14.4348L7.19952 17.8304ZM8.50623 19.0616C8.11131 19.2474 7.82383 19.4033 7.64283 19.5281L7.9245 18.3589L9.63194 17.3154C9.68421 17.4074 9.73842 17.5022 9.79552 17.6C9.9562 17.872 10.0898 18.0975 10.1943 18.2756L8.50623 19.0616ZM8.19939 17.2186L8.73273 15.0088C8.76467 15.2663 8.82081 15.518 8.89921 15.7619C8.97181 15.9913 9.08699 16.2642 9.24283 16.5817L8.19939 17.2186ZM12.4457 20.6868C12.3431 20.4932 12.1583 20.2231 11.8911 19.8776L10.746 18.4082L10.5234 18.1217L10.3802 17.9388C10.2185 17.7297 10.0917 17.5652 10.0027 17.4442C9.95039 17.3725 9.89328 17.2893 9.83037 17.1944L10.9057 16.5372L12.7274 19.5175L12.4457 20.6868ZM13.0033 18.3763L11.8175 16.4375C12.0218 16.5972 12.2386 16.7356 12.467 16.8528C12.6809 16.9631 12.9549 17.0754 13.2888 17.1886L13.0033 18.3763ZM9.3948 16.4249C9.11893 15.7832 9.08409 15.2005 9.29123 14.6749C9.35995 14.4968 9.46158 14.3458 9.59903 14.219C9.61549 14.2035 9.63291 14.19 9.64936 14.1754L11.3655 14.5897L11.4178 14.3719L7.0098 13.3382C7.01658 13.3208 7.02238 13.3043 7.02916 13.2878C7.2876 12.6384 7.67574 12.2018 8.19359 11.9763C8.36782 11.8998 8.54688 11.864 8.73273 11.8717C8.75596 11.8717 8.77822 11.8747 8.79952 11.8766L9.72002 13.3827L9.91167 13.2656L7.52571 9.41803C7.54217 9.41028 7.55862 9.40254 7.57508 9.39577C8.21682 9.1199 8.79952 9.08506 9.3251 9.2922C9.50321 9.36092 9.6542 9.46255 9.781 9.59903C9.79649 9.61646 9.81101 9.63388 9.82456 9.64937L9.41028 11.3665L9.62807 11.4188L10.6618 7.01077C10.6792 7.01754 10.6957 7.02335 10.7122 7.03013C11.3616 7.28857 11.7982 7.67574 12.0237 8.19456C12.1002 8.36878 12.136 8.54785 12.1283 8.7337C12.1283 8.75693 12.1253 8.77822 12.1234 8.80048L10.6173 9.72099L10.7344 9.91168L14.582 7.52668C14.5897 7.54313 14.5975 7.55862 14.6042 7.57508C14.8801 8.21779 14.9149 8.80048 14.7078 9.32607C14.6391 9.50321 14.5374 9.65517 14.401 9.78197C14.3845 9.79746 14.3671 9.81101 14.3506 9.82553L12.6345 9.41125L12.5812 9.62904L16.9892 10.6628C16.9825 10.6802 16.9766 10.6967 16.9699 10.7131C16.7114 11.3626 16.3243 11.7992 15.8054 12.0237C15.6312 12.1011 15.4531 12.137 15.2663 12.1292C15.2431 12.1283 15.2218 12.1263 15.2005 12.1244L14.279 10.6183L14.0883 10.7344L16.4743 14.5829C16.4578 14.5907 16.4414 14.5984 16.4249 14.6052C15.7822 14.8811 15.1995 14.9159 14.6739 14.7088C14.4968 14.64 14.3448 14.5384 14.219 14.401C14.2025 14.3845 14.189 14.3671 14.1754 14.3506L14.5887 12.6345L14.3719 12.5822L13.3372 16.9902C13.3198 16.9834 13.3033 16.9776 13.2869 16.9708C12.6374 16.7124 12.2008 16.3243 11.9763 15.8064C11.8989 15.6322 11.863 15.4531 11.8708 15.2673C11.8708 15.244 11.8737 15.2218 11.8756 15.2005L13.3817 14.28L13.2656 14.0893M16.5808 14.7581L17.2177 15.7996L15.0088 15.2673C15.2663 15.2353 15.517 15.1792 15.7619 15.1008C15.9903 15.0282 16.2633 14.914 16.5808 14.7581ZM14.5229 19.4633C14.3748 19.8737 14.2809 20.1873 14.2422 20.4041L13.615 19.3771L14.0835 17.4325C14.1851 17.4606 14.2916 17.4897 14.401 17.5187C14.7068 17.5971 14.9604 17.6619 15.1608 17.7142L14.5229 19.4633ZM17.4935 17.6474L15.6438 17.418L15.2847 17.3735L15.0534 17.3445C14.792 17.3116 14.5858 17.2845 14.4368 17.2612C14.3497 17.2477 14.25 17.2293 14.1387 17.207L14.4339 15.9816L17.8294 16.8005L18.4576 17.8275C18.2475 17.7626 17.9262 17.7026 17.4935 17.6474ZM19.0606 15.4938C19.2465 15.8887 19.4023 16.1762 19.5281 16.3572L18.3589 16.0755L17.3154 14.3681C17.4083 14.3158 17.5032 14.2616 17.6 14.2045C17.871 14.0438 18.0965 13.9112 18.2756 13.8057L19.0606 15.4938ZM19.8776 12.1089L18.4073 13.254L18.1217 13.4766L17.9378 13.6198C17.7297 13.7815 17.5642 13.9083 17.4432 13.9973C17.3716 14.0496 17.2883 14.1067 17.1935 14.1696L16.5362 13.0943L19.5165 11.2726L20.6858 11.5543C20.4922 11.6569 20.2221 11.8417 19.8776 12.1089Z" fill="#F3F6FF"/>
</svg>
