<svg width="54" height="24" viewBox="0 0 54 24" fill="none" xmlns="http://www.w3.org/2000/svg">
<path d="M15.277 8.51537V8.51258L12.4647 6.90144C12.4233 6.87774 12.372 6.87774 12.3306 6.90144L6.80089 10.0687C6.71172 10.1195 6.71172 10.2478 6.80089 10.2993L12.3278 13.4694C12.3692 13.4931 12.4205 13.4931 12.4619 13.4694L14.2378 12.454L17.993 10.3014C18.0822 10.2506 18.0822 10.1223 17.993 10.0708L16.5788 9.25892L15.277 8.51398V8.51537Z" fill="#F3F6FF"/>
<path d="M17.993 17.2701L15.3135 15.7356V15.7314L12.4711 14.1035C12.4296 14.0798 12.3784 14.0798 12.3369 14.1035L7.50308 16.8728L6.61482 17.3843H6.61131L2.06746 19.9913L1.02892 20.5857C0.939746 20.6366 0.939746 20.7648 1.02892 20.8157L3.74006 22.3697L6.54811 23.9822C6.58954 24.0059 6.6408 24.0059 6.68223 23.9822L12.405 20.7042L17.9937 17.4986C18.0829 17.4478 18.0829 17.3195 17.9937 17.2687L17.993 17.2701Z" fill="#F3F6FF"/>
<path d="M3.24291 15.4853V15.4881L6.05517 17.0992C6.09659 17.1229 6.14785 17.1229 6.18928 17.0992L11.719 13.932C11.8082 13.8811 11.8082 13.7529 11.719 13.7013L6.19209 10.5313C6.15066 10.5076 6.0994 10.5076 6.05797 10.5313L4.28215 11.5466L0.527555 13.6985C0.438377 13.7494 0.438377 13.8776 0.527555 13.9292L1.94176 14.741L3.24361 15.486L3.24291 15.4853Z" fill="#F3F6FF"/>
<path d="M0.526844 6.73065L3.20639 8.26514V8.26932L6.04884 9.89719C6.09027 9.92088 6.14153 9.92088 6.18296 9.89719L11.0168 7.12786L11.9051 6.61636H11.9086L16.4524 4.0094L17.491 3.41497C17.5801 3.3641 17.5801 3.23588 17.491 3.18501L14.7798 1.63101L11.9732 0.01777C11.9318 -0.00592333 11.8805 -0.00592333 11.8391 0.01777L6.11625 3.29581L0.526844 6.50068C0.437667 6.55155 0.437667 6.67977 0.526844 6.73065Z" fill="#F3F6FF"/>
<path d="M26.9819 7.21275H25.6878C25.6519 6.66571 25.2833 6.39184 24.5825 6.39184C23.9414 6.39184 23.6205 6.59393 23.6205 6.99811C23.6205 7.15282 23.6802 7.28661 23.8003 7.39951C23.9204 7.5124 24.1415 7.61066 24.4653 7.69358C25.4237 7.94306 26.0564 8.15142 26.3619 8.31797C26.9068 8.60926 27.1799 9.07616 27.1799 9.71866C27.1799 10.3249 26.9735 10.789 26.5599 11.1103C26.1463 11.4316 25.5529 11.5918 24.7805 11.5918C24.0081 11.5918 23.3677 11.4253 22.9155 11.0922C22.4633 10.7591 22.2309 10.2657 22.219 9.61135H23.5313C23.5433 9.87337 23.657 10.0824 23.8726 10.2399C24.0882 10.3974 24.3936 10.4762 24.7897 10.4762C25.4968 10.4762 25.85 10.2413 25.85 9.77163C25.85 9.58765 25.784 9.4448 25.6519 9.34375C25.5199 9.24271 25.2924 9.14724 24.9687 9.05804C24.1654 8.83783 23.6205 8.66292 23.3326 8.53191C22.9914 8.37163 22.7421 8.1779 22.5869 7.95212C22.431 7.72633 22.3531 7.44062 22.3531 7.09567C22.3531 6.54237 22.5406 6.09986 22.9148 5.76676C23.2891 5.43366 23.8298 5.26711 24.5369 5.26711C25.244 5.26711 25.8415 5.44132 26.2762 5.78906C26.7108 6.13679 26.9461 6.61135 26.9819 7.21205V7.21275Z" fill="#F3F6FF"/>
<path d="M31.5208 11.3877H30.2892V10.8525C30.0196 11.2866 29.5912 11.5033 29.0042 11.5033C28.5604 11.5033 28.1981 11.3654 27.9165 11.0887C27.6349 10.8121 27.4938 10.4601 27.4938 10.0316V6.99883H28.7971V9.74586C28.7971 10.2218 29.0218 10.4594 29.4712 10.4594C29.7464 10.4594 29.9416 10.3716 30.0554 10.196C30.1691 10.0204 30.226 9.74865 30.226 9.38001V6.99813H31.5201V11.387L31.5208 11.3877Z" fill="#F3F6FF"/>
<path d="M36.0773 11.3878H34.7649V8.66721C34.7649 8.39404 34.7123 8.2031 34.6076 8.09648C34.503 7.98916 34.3303 7.9362 34.0908 7.9362C33.5754 7.9362 33.3177 8.20379 33.3177 8.73898V11.3885H32.0145V6.99961H33.2545V7.55292C33.5059 7.10693 33.9497 6.88393 34.5845 6.88393C35.0219 6.88393 35.3801 7.01216 35.6588 7.26721C35.9376 7.52296 36.0766 7.86163 36.0766 8.28393V11.3878H36.0773Z" fill="#F3F6FF"/>
<path d="M39.511 11.3878H38.1179V6.6157H36.3652V5.46518H41.2728V6.6157H39.511V11.3878Z" fill="#F3F6FF"/>
<path d="M44.6882 11.3875L44.0682 9.0419L43.4482 11.3875H42.1182L40.8782 6.9987H42.2446L42.892 9.63911L43.4046 6.9987H44.7261L45.337 9.63911L45.9304 6.9987H47.2695L46.0203 11.3875H44.6882Z" fill="#F3F6FF"/>
<path d="M48.8852 11.3875H47.582V6.9987H48.8852V11.3875Z" fill="#F3F6FF"/>
<path d="M53.46 11.3878H52.1476V8.66721C52.1476 8.39404 52.0949 8.2031 51.9903 8.09648C51.8857 7.98916 51.7129 7.9362 51.4735 7.9362C50.9581 7.9362 50.7004 8.20379 50.7004 8.73898V11.3885H49.3971V6.99961H50.6372V7.55292C50.8886 7.10693 51.3323 6.88393 51.9671 6.88393C52.4046 6.88393 52.7627 7.01216 53.0415 7.26721C53.3202 7.52296 53.4593 7.86163 53.4593 8.28393V11.3878H53.46Z" fill="#F3F6FF"/>
<path d="M26.7698 18.2168H26.413L25.8822 16.9074H23.2202L22.6816 18.2168H22.3404L24.3957 13.2196H24.7292L26.7691 18.2168H26.7698ZM25.7839 16.6363L24.5628 13.6182L23.3192 16.6363H25.7839Z" fill="#F3F6FF"/>
<path d="M30.2961 18.2168H29.9928V15.8614C29.9928 15.4147 29.898 15.106 29.7084 14.936C29.5188 14.7652 29.2344 14.6802 28.8552 14.6802C28.3848 14.6802 28.0365 14.8468 27.809 15.1806C27.5815 15.5144 27.4677 15.9318 27.4677 16.4335V18.2175H27.1644V14.5144H27.4523V15.628C27.5485 15.2168 27.7352 14.9116 28.0133 14.7137C28.2914 14.5158 28.6046 14.4161 28.9535 14.4161C29.3833 14.4161 29.714 14.5206 29.9471 14.7283C30.1796 14.9367 30.2961 15.2893 30.2961 15.7854V18.2168Z" fill="#F3F6FF"/>
<path d="M33.8597 18.2167H33.5718C33.5669 18.2069 33.5627 18.0647 33.5606 17.7916C33.5578 17.5184 33.5571 17.3762 33.5571 17.3665C33.4862 17.6376 33.3092 17.8634 33.0263 18.0438C32.7433 18.2243 32.4146 18.3149 32.0404 18.3149C31.1907 18.3149 30.7666 17.9686 30.7666 17.2766C30.7666 16.8654 30.8916 16.5804 31.1423 16.4222C31.3923 16.2641 31.7883 16.1602 32.329 16.1101C32.3894 16.1052 32.4645 16.0989 32.553 16.0912C32.6415 16.0836 32.7124 16.0773 32.765 16.0724C32.8184 16.0675 32.8788 16.0613 32.9469 16.0536C33.015 16.0459 33.0705 16.0383 33.114 16.0313C33.1569 16.0236 33.2039 16.0153 33.2545 16.0048C33.305 15.9951 33.3457 15.9832 33.3759 15.9707C33.4061 15.9581 33.4356 15.9442 33.463 15.9296C33.4904 15.9142 33.5108 15.8954 33.5234 15.8731C33.536 15.8508 33.5452 15.8264 33.5501 15.8013C33.5501 15.4202 33.4588 15.1351 33.2769 14.947C33.0951 14.7588 32.7938 14.6648 32.3746 14.6648C31.5959 14.6648 31.1914 15.016 31.1612 15.7184H30.8733C30.8888 14.8501 31.3944 14.4167 32.3901 14.4167C32.9209 14.4167 33.2987 14.5386 33.5241 14.7818C33.7488 15.025 33.8619 15.3902 33.8619 15.8766V18.2174L33.8597 18.2167ZM33.5564 16.8996V16.1094C33.5311 16.1393 33.496 16.1658 33.4504 16.1881C33.4047 16.2104 33.3401 16.2285 33.2573 16.2411C33.1737 16.2536 33.0944 16.2634 33.0185 16.271C32.9427 16.2787 32.8353 16.2871 32.6962 16.2975C32.5572 16.308 32.4371 16.3177 32.336 16.3275C31.8908 16.3728 31.5685 16.4564 31.3691 16.5797C31.1697 16.7031 31.0693 16.9247 31.0693 17.2459C31.0693 17.8027 31.4133 18.0815 32.1008 18.0815C32.4694 18.0815 32.7987 17.9749 33.0866 17.7616C33.3745 17.5484 33.5311 17.2613 33.5571 16.8996H33.5564Z" fill="#F3F6FF"/>
<path d="M34.7396 18.2169H34.4362V13.1591H34.7396V18.2169Z" fill="#F3F6FF"/>
<path d="M38.1599 18.2768V17.389C38.1094 17.6301 37.9704 17.8343 37.7428 18.0022C37.5153 18.1702 37.1895 18.2545 36.7647 18.2545C36.3399 18.2545 35.9923 18.1318 35.7374 17.8858C35.4818 17.6398 35.3547 17.2635 35.3547 16.7569V14.5144H35.6581V16.7269C35.6581 17.1688 35.7613 17.4921 35.9691 17.6977C36.1763 17.9033 36.4621 18.0064 36.8258 18.0064C37.7155 18.0064 38.1606 17.575 38.1606 16.7116V14.5137H38.464V18.2691C38.464 18.8057 38.32 19.2238 38.0314 19.5221C37.7435 19.8203 37.3587 19.9701 36.8785 19.9701C36.3982 19.9701 36.0028 19.8308 35.722 19.5527C35.4411 19.2747 35.3013 18.897 35.3013 18.4203H35.5892C35.5892 18.8217 35.7079 19.1367 35.9459 19.3646C36.1833 19.5931 36.4972 19.7067 36.8862 19.7067C37.2752 19.7067 37.5849 19.5813 37.8152 19.3304C38.0455 19.0796 38.1599 18.7283 38.1599 18.2768Z" fill="#F3F6FF"/>
<path d="M41.5571 16.8091V15.7777H41.845V16.8314C41.845 17.253 41.7278 17.6056 41.4925 17.8885C41.2573 18.1721 40.9097 18.3136 40.4498 18.3136C39.9898 18.3136 39.6205 18.1728 39.3881 17.892C39.1556 17.6112 39.0391 17.2551 39.0391 16.823V13.5115H39.3347V14.5122H41.845V14.7457H39.3347V16.8C39.3347 17.1666 39.4267 17.4662 39.6114 17.6997C39.796 17.9331 40.0748 18.0495 40.4491 18.0495C40.8233 18.0495 41.0951 17.9331 41.2798 17.6997C41.4644 17.4662 41.5564 17.1694 41.5564 16.8077L41.5571 16.8091Z" fill="#F3F6FF"/>
<path d="M42.7101 14.0699H42.4067V13.1591H42.7101V14.0699ZM42.7101 18.2169H42.4067V14.5138H42.7101V18.2169Z" fill="#F3F6FF"/>
<path d="M46.4029 16.8769C46.3524 17.3033 46.1803 17.6497 45.8875 17.9152C45.594 18.1814 45.238 18.3138 44.8181 18.3138C44.3329 18.3138 43.9474 18.1431 43.6616 17.8023C43.3758 17.4615 43.2333 16.9668 43.2333 16.3194C43.2333 15.672 43.3758 15.1995 43.6616 14.8859C43.9474 14.5723 44.3427 14.4156 44.8483 14.4156C45.2984 14.4156 45.6649 14.5438 45.9479 14.7995C46.2309 15.0553 46.3854 15.4016 46.4107 15.8378H46.0996C46.0694 15.472 45.9402 15.187 45.7127 14.9835C45.4852 14.78 45.1945 14.679 44.8406 14.679C44.4361 14.679 44.1173 14.8135 43.8849 15.0818C43.6525 15.35 43.5359 15.7626 43.5359 16.3201C43.5359 16.8776 43.6525 17.3124 43.8849 17.6107C44.1173 17.9096 44.4284 18.0587 44.8174 18.0587C45.1509 18.0587 45.4367 17.9521 45.6741 17.7389C45.9114 17.5256 46.0532 17.2385 46.0989 16.8769H46.4029Z" fill="#F3F6FF"/>
<path d="M49.4897 15.6351C49.4595 15.2887 49.3542 15.0392 49.1751 14.8859C48.9953 14.7326 48.6906 14.6567 48.2616 14.6567C47.5032 14.6567 47.124 14.9047 47.124 15.4016C47.124 15.6776 47.263 15.8734 47.5411 15.9884C47.7181 16.0636 48.0046 16.125 48.402 16.173C48.7987 16.2211 49.0782 16.272 49.2397 16.327C49.6645 16.4622 49.8766 16.7459 49.8766 17.1772C49.8766 17.5236 49.7488 17.7995 49.4939 18.0051C49.2383 18.2107 48.8633 18.3138 48.3676 18.3138C47.8466 18.3138 47.4421 18.1981 47.1542 17.9675C46.8663 17.7368 46.7167 17.4232 46.7069 17.0267H47.018C47.0278 17.3528 47.1479 17.6086 47.3782 17.7946C47.6085 17.98 47.9357 18.0734 48.3606 18.0734C48.7854 18.0734 49.0831 17.9891 49.286 17.8211C49.4883 17.6532 49.5894 17.4385 49.5894 17.1779C49.5894 16.8873 49.4426 16.6887 49.1498 16.5835C48.968 16.5131 48.6857 16.4532 48.3044 16.403C47.9224 16.3528 47.6507 16.3006 47.4892 16.2448C47.0496 16.0943 46.8291 15.8155 46.8291 15.4093C46.8291 14.7473 47.3122 14.4156 48.2777 14.4156C48.8036 14.4156 49.18 14.5187 49.4075 14.7243C49.635 14.9298 49.7586 15.2337 49.779 15.6351H49.4897Z" fill="#F3F6FF"/>
<path d="M49.1168 5.92678C49.1309 5.93514 49.1309 5.95535 49.1168 5.96301L48.2419 6.46406C48.2356 6.46754 48.2272 6.46754 48.2208 6.46406L47.3459 5.96232C47.3319 5.95395 47.3319 5.93375 47.3459 5.92608L47.7701 5.68357L47.8803 5.62016L48.2208 5.42504C48.2272 5.42155 48.2356 5.42155 48.2419 5.42504L48.6871 5.68009L48.8928 5.79855L49.1168 5.92678Z" fill="#F3F6FF"/>
</svg>
