<svg width="59" height="24" viewBox="0 0 59 24" fill="none" xmlns="http://www.w3.org/2000/svg">
<path d="M9.09801 0H9.17021L17.3383 19.3662H15.1587L13.0279 14.1705H4.97884L2.79926 19.3662H0.666504L9.09801 0ZM12.261 12.269L10.6805 8.41446C10.4093 7.74687 10.1419 7.08921 9.87852 6.4395C9.6151 5.78979 9.34777 5.13014 9.07654 4.46453C8.80532 5.14802 8.52628 5.81363 8.23944 6.46533C7.9526 7.11703 7.67162 7.77469 7.40039 8.44029L5.79448 12.271H12.263L12.261 12.269Z" fill="#F9F6F4"/>
<path d="M17.1783 9.29863H19.3345L22.117 15.9507L26.1249 6.69978H28.2811L22.117 20H22.0682L17.1783 9.29863Z" fill="#F9F6F4"/>
<path d="M29.1709 8.00119H31.087V14.5857C31.087 15.6924 31.2861 16.5249 31.6861 17.0852C32.0842 17.6455 32.7476 17.9257 33.6744 17.9257C34.6013 17.9257 35.2472 17.6376 35.6628 17.0594C36.0784 16.4812 36.2853 15.6567 36.2853 14.5837V7.9992H38.2014V14.6592C38.2014 15.4222 38.1097 16.1136 37.9263 16.7316C37.7429 17.3495 37.4638 17.878 37.0872 18.3171C36.7106 18.7562 36.2404 19.094 35.6745 19.3304C35.1067 19.5669 34.4413 19.6841 33.6744 19.6841C32.2207 19.6841 31.1066 19.2649 30.3319 18.4284C29.5572 17.5899 29.1709 16.3342 29.1709 14.6592V7.9992V8.00119Z" fill="#F9F6F4"/>
<path d="M41.2162 8.00119H43.1323V9.41585H43.1792C43.5304 8.87939 43.8933 8.45817 44.2699 8.14822C44.6446 7.84025 45.1207 7.68528 45.6963 7.68528C46.2719 7.68528 46.9022 7.87204 47.5403 8.24558L46.6544 10.0258C46.2544 9.73376 45.8153 9.58673 45.3373 9.58673C44.666 9.58673 44.1314 9.8788 43.7333 10.4649C43.3333 11.0511 43.1343 11.9531 43.1343 13.1731V19.3682H41.2181V8.00119H41.2162Z" fill="#F9F6F4"/>
<path d="M53.4195 7.68329C54.2508 7.68329 54.9922 7.83032 55.6479 8.12239C56.3015 8.41446 56.8538 8.82575 57.3006 9.35426C57.7475 9.88277 58.087 10.5007 58.3192 11.208C58.5514 11.9154 58.6665 12.6843 58.6665 13.5128V14.0493H49.9716C49.9872 14.6175 50.0828 15.1421 50.2584 15.6229C50.434 16.1017 50.674 16.513 50.9765 16.8548C51.2789 17.1965 51.6477 17.4647 52.079 17.6594C52.5102 17.8542 52.998 17.9515 53.5405 17.9515C54.3073 17.9515 54.9493 17.7806 55.4684 17.4409C55.9874 17.0991 56.4381 16.6024 56.8206 15.9527L58.4011 16.9283C57.8899 17.8065 57.2362 18.488 56.4362 18.9768C55.6381 19.4655 54.6469 19.7099 53.4663 19.7099C52.6351 19.7099 51.8858 19.5629 51.2146 19.2708C50.5433 18.9787 49.9696 18.5675 49.4896 18.0389C49.0096 17.5104 48.6389 16.8766 48.3754 16.1375C48.112 15.3984 47.9793 14.5818 47.9793 13.6857C47.9793 12.7896 48.112 12.0028 48.3754 11.2716C48.6389 10.5404 49.0096 9.90662 49.4896 9.37016C49.9677 8.8337 50.5394 8.41844 51.2028 8.12637C51.8643 7.83429 52.6039 7.68726 53.4176 7.68726L53.4195 7.68329ZM50.0906 12.4399H56.7016C56.6216 11.5955 56.2937 10.8842 55.7201 10.306C55.1464 9.72978 54.3873 9.4397 53.4449 9.4397C52.5024 9.4397 51.7882 9.71985 51.2048 10.2802C50.6214 10.8405 50.2506 11.5617 50.0906 12.4379V12.4399Z" fill="#F9F6F4"/>
</svg>
