<svg width="85" height="24" viewBox="0 0 85 24" fill="none" xmlns="http://www.w3.org/2000/svg">
<path d="M8.05445 0V3.99745L4.0763 7.99489H0.0981445V3.99745L4.0763 0H8.05445Z" fill="#F3F6FF"/>
<path d="M16.0109 0V3.99745L12.0327 7.99489H8.05458L8.05445 3.99745L12.0327 0H16.0109Z" fill="#F3F6FF"/>
<path d="M8.05458 7.99489L8.05445 11.9923L4.0763 15.9898H0.0981445V11.9923L4.0763 7.99489H8.05458Z" fill="#F3F6FF"/>
<path d="M8.05445 15.9898V19.9872L4.0763 23.9847H0.0981445V19.9872L4.0763 15.9898L8.05445 15.9898Z" fill="#F3F6FF"/>
<path d="M16.0109 7.99489V11.9923L12.0327 15.9898L8.05445 15.9898V11.9923L12.0327 7.99489L16.0109 7.99489Z" fill="#F3F6FF"/>
<path d="M24.2097 14.7634H21.6358V2.19281H30.421V4.34807H24.2097V7.19371H29.684V9.34896H24.2097V14.7634Z" fill="#F3F6FF"/>
<path d="M39.5166 10.2974C39.5166 13.2973 37.7659 15.1593 34.9351 15.1593C32.1044 15.1593 30.3536 13.2973 30.3536 10.2273C30.3536 7.15741 32.087 5.29536 34.9177 5.29536C37.7484 5.29536 39.5166 7.13989 39.5166 10.2963V10.2974ZM32.7554 10.2285C32.7554 12.0216 33.6308 13.212 34.9351 13.212C36.2395 13.212 37.1149 12.0053 37.1149 10.2636C37.1149 8.43538 36.2569 7.24619 34.9351 7.24619C33.6133 7.24619 32.7554 8.43538 32.7554 10.2297V10.2285Z" fill="#F3F6FF"/>
<path d="M42.8623 5.29652V6.84316C43.7865 5.91448 44.3375 5.29652 45.4361 5.29652C45.5396 5.29652 45.5907 5.29652 45.7279 5.31404V7.76251C45.4024 7.71111 45.2304 7.69359 44.9734 7.69359C43.5668 7.69359 42.8623 8.40032 42.8623 9.81496V14.7633H40.4605V5.29652H42.8623Z" fill="#F3F6FF"/>
<path d="M48.5935 5.45189V6.6072C49.3828 5.64113 50.0687 5.29652 51.1336 5.29652C52.2833 5.29652 53.2099 5.79649 53.6563 6.67612C54.377 5.71005 55.1838 5.29652 56.3673 5.29652C58.2203 5.29652 59.3189 6.36539 59.3189 8.17604V14.7633H56.9171V8.55569C56.9171 7.81391 56.4196 7.34898 55.6128 7.34898C54.5828 7.34898 53.9655 8.03819 53.9655 9.17715V14.7633H51.5637V8.55569C51.5637 7.81391 51.0662 7.34898 50.2594 7.34898C49.2294 7.34898 48.6121 8.02184 48.6121 9.17715V14.7633H46.2103V5.45189H48.5958H48.5935Z" fill="#F3F6FF"/>
<path d="M66.4569 14.7633V13.6594C65.771 14.7107 64.9294 15.1593 63.6773 15.1593C61.6871 15.1593 60.5711 14.004 60.5711 11.9352V5.29652H62.9728V11.4352C62.9728 12.5555 63.4878 13.108 64.5167 13.108C65.7001 13.108 66.4558 12.3837 66.4558 11.2798V5.29652H68.8575V14.7633H66.4558H66.4569Z" fill="#F3F6FF"/>
<path d="M72.6868 5.29652V7.27889C73.2192 6.01961 74.162 5.29652 75.2606 5.29652C75.3641 5.29652 75.4152 5.29652 75.5524 5.31404V7.76251C75.2269 7.71111 75.0548 7.69359 74.7979 7.69359C73.3913 7.69359 72.6868 8.40032 72.6868 9.81496V14.7633H70.285V5.29652H72.6868Z" fill="#F3F6FF"/>
<path d="M84.0981 14.7633H81.4894C81.2662 14.4876 81.2151 14.3147 81.2151 13.8323C80.3571 14.7294 79.4306 15.1605 78.4006 15.1605C76.7022 15.1605 75.5861 14.0402 75.5861 12.3674C75.5861 10.6946 76.479 9.74603 78.3146 9.43647L79.276 9.26358C80.065 9.13742 80.5683 9.01671 80.7861 8.90145C81.043 8.74609 81.1976 8.48792 81.1976 8.17719C81.1976 7.5569 80.7338 7.24617 79.8073 7.24617C78.6238 7.24617 78.2286 7.5569 78.1088 8.5218H75.7919C75.9465 6.36654 77.2509 5.29768 79.7561 5.29768C82.2614 5.29768 83.5483 6.26374 83.5483 8.15967V13.3323C83.5483 13.7984 83.6854 14.0741 84.097 14.4701V14.7633H84.0981ZM81.1976 10.3663C80.9233 10.5042 80.8198 10.5392 80.1851 10.6595L79.3609 10.8149C78.3657 11.0217 77.9879 11.3663 77.9879 12.0905C77.9879 12.8148 78.4855 13.2108 79.2923 13.2108C80.5106 13.2108 81.1965 12.4176 81.1965 11.0205V10.3652L81.1976 10.3663Z" fill="#F3F6FF"/>
<path d="M22.6194 23.1297H26.4243V24H21.6371V15.9899H22.6194V23.1297Z" fill="#F3F6FF"/>
<path d="M31.8229 23.9042C31.5264 23.9789 31.4102 24 31.2207 24C30.6499 24 30.3755 23.7558 30.3116 23.1822C29.6885 23.7558 29.1281 24 28.4306 24C27.31 24 26.6124 23.3633 26.6124 22.354C26.6124 21.6321 26.9403 21.1438 27.5843 20.8669C27.9226 20.7291 28.1133 20.6859 29.3595 20.527C30.0779 20.4312 30.2686 20.2934 30.279 19.9114V19.6778C30.279 19.1462 29.8454 18.8495 29.0421 18.8495C28.2388 18.8495 27.8168 19.1579 27.7424 19.8366H26.8543C26.8752 19.2841 26.981 18.9664 27.2344 18.679C27.6145 18.2643 28.2597 18.0307 29.0735 18.0307C30.4371 18.0307 31.1556 18.5622 31.1556 19.5493V22.8201C31.1556 23.0958 31.3242 23.2558 31.6311 23.2558C31.6834 23.2558 31.7264 23.2558 31.8217 23.2348V23.9042H31.8229ZM30.2802 21.0048C29.9838 21.1426 29.8047 21.1859 28.8643 21.3132C27.9133 21.451 27.5332 21.7489 27.5332 22.333C27.5332 22.9171 27.9342 23.2255 28.6213 23.2255C29.1386 23.2255 29.5722 23.0561 29.9314 22.7267C30.1953 22.4825 30.2802 22.3014 30.2802 22.0047V21.0048Z" fill="#F3F6FF"/>
<path d="M32.9645 15.9922V18.9453C33.3772 18.3192 33.9155 18.0318 34.6769 18.0318C36.1463 18.0318 37.0438 19.1463 37.0438 20.9522C37.0438 22.7582 36.0929 24 34.6339 24C33.862 24 33.3028 23.6916 32.8797 23.0444V24H32.0868V15.9922H32.9645ZM32.9645 21.0165C32.9645 22.3225 33.5667 23.1717 34.5072 23.1717C35.4477 23.1717 36.1243 22.312 36.1243 21.048C36.1243 19.721 35.4907 18.8601 34.5072 18.8601C33.5237 18.8601 32.9645 19.7093 32.9645 21.0153V21.0165Z" fill="#F3F6FF"/>
<path d="M40.5628 19.742C40.5419 19.1579 40.1618 18.8495 39.4538 18.8495C38.7458 18.8495 38.2808 19.1684 38.2808 19.6883C38.2808 20.0808 38.5877 20.3144 39.3061 20.485L40.1513 20.687C41.2499 20.9522 41.7149 21.409 41.7149 22.2372C41.7149 23.3096 40.8267 24 39.4317 24C38.0367 24 37.2648 23.3843 37.2229 22.0994H38.1529C38.2052 22.4919 38.2692 22.6519 38.4063 22.8108C38.6284 23.0444 39.0295 23.1822 39.5049 23.1822C40.2768 23.1822 40.7942 22.8318 40.7942 22.3003C40.7942 21.9078 40.5512 21.6847 39.9386 21.5351L39.1143 21.333C37.8042 21.0141 37.3601 20.6006 37.3601 19.7292C37.3601 18.6988 38.1948 18.0307 39.484 18.0307C40.7732 18.0307 41.4812 18.6463 41.4917 19.7408H40.5617L40.5628 19.742Z" fill="#F3F6FF"/>
</svg>
