<svg width="73" height="24" viewBox="0 0 73 24" fill="none" xmlns="http://www.w3.org/2000/svg">
<g clip-path="url(#clip0_852_1328)">
<path d="M1.97519 17.723L1.93814 17.5681C1.80846 17.0242 1.67682 16.4706 1.48278 15.957C1.04009 15.687 0.567177 15.3127 0.286354 14.8361C0.0435584 14.4199 0.0796364 14.1149 0.152768 13.9306C0.235649 13.723 0.405314 13.569 0.618856 13.5076L0.675411 13.4911L0.733916 13.4852C1.34334 13.4277 1.75873 13.957 1.98299 14.2416L2.0025 14.2669C2.18679 14.5271 2.3389 14.7991 2.46859 15.0788C3.91171 15.7991 5.49231 15.9842 6.5649 16.0125C9.45017 16.0876 11.9278 14.2727 12.4095 13.34C12.0039 10.9579 11.8362 8.53883 11.6734 6.17333L11.65 5.83512L11.6392 5.57684C11.5914 4.46183 11.5378 3.19867 11.7874 2.09731L11.7962 2.06514C11.9873 1.39165 12.3218 1.06124 12.7898 1.07879C13.6947 1.11583 14.0623 2.6977 14.1325 3.04565C14.4952 4.59536 14.6083 6.30491 14.5001 8.58561C14.4075 10.5388 14.151 12.0954 13.6976 13.4618C13.8224 14.1519 13.9677 14.8371 14.1413 15.5135C14.1481 15.3419 14.1491 15.1655 14.1501 14.9862C14.1501 14.8371 14.152 14.688 14.1559 14.5398C14.1735 13.9004 14.2554 13.0798 14.7449 12.4014C15.0939 11.918 15.6283 11.7357 16.0758 11.9482C16.3264 12.0671 16.4629 12.2679 16.5546 12.4287C16.8452 12.9423 16.9895 13.4862 17.1289 14.0115C17.1689 14.1646 17.2089 14.3137 17.2508 14.4589C17.283 13.6957 17.7471 13.0067 18.4151 12.7727C19.0264 12.5583 19.7685 12.7347 20.3525 13.2318C20.5836 13.4287 20.767 13.646 20.9434 13.8556C21.0595 13.994 21.1697 14.1246 21.2847 14.2377C21.7947 14.7406 22.566 15.0564 23.5771 15.1782C25.9788 15.4667 28.2556 15.2562 30.1628 14.571C31.2208 14.1909 32.0535 13.726 32.6971 13.2308C32.5079 12.9901 32.3431 12.7289 32.2037 12.4501C31.5972 11.2367 31.6079 9.82928 32.232 8.94623C32.6707 8.32538 33.3679 8.02421 34.1441 8.11972C35.0441 8.23083 35.673 8.92089 35.7842 9.92089C35.8934 10.9024 35.5014 12.1061 34.5176 13.225C35.2391 13.7006 36.1762 13.9735 37.2546 14.0047C43.5751 14.186 43.8042 9.49107 43.8111 9.29029L45.0562 9.3244C45.0543 9.41894 44.9772 11.6577 43.1665 13.3722C41.7741 14.6909 39.7723 15.3225 37.2185 15.2494C35.7832 15.2084 34.539 14.8059 33.5942 14.1032C32.8151 14.7299 31.8176 15.2981 30.5831 15.7416C28.4945 16.493 26.0207 16.725 23.427 16.4141C22.6216 16.3176 21.9234 16.1119 21.3393 15.801C21.5802 16.2425 21.5851 16.7172 21.3325 17.0837C21.0741 17.4579 20.5895 17.6363 20.0356 17.5583C19.3492 17.4628 18.6822 17.0807 18.106 16.454C17.9977 16.3371 17.9002 16.2182 17.8125 16.0983C17.7062 16.1811 17.5248 16.3069 17.2713 16.3186C17.1007 16.3273 16.6745 16.2844 16.3986 15.726C16.1714 15.2659 16.0456 14.7893 15.9228 14.3283C15.8321 13.9852 15.7443 13.6558 15.6215 13.3566C15.4479 13.7318 15.4108 14.1909 15.4011 14.57C15.3972 14.7094 15.3962 14.8497 15.3962 14.9901C15.3933 15.5037 15.3904 16.0359 15.2538 16.5768C15.2295 16.6724 14.9994 17.5135 14.3363 17.6363C14.1774 17.6655 13.7727 17.686 13.4568 17.2386C13.3515 17.0895 13.2754 16.9355 13.215 16.8049L13.1964 16.764L13.1838 16.7211C13.0073 16.1236 12.8532 15.5203 12.7186 14.9131C11.4715 16.1071 9.2025 17.2581 6.73847 17.2581C6.67021 17.2581 6.60195 17.2581 6.5337 17.2552C5.59567 17.2308 4.30661 17.0963 2.99903 16.6451C3.05266 16.8556 3.10336 17.0671 3.15309 17.2757L3.19015 17.4297L1.97812 17.7191L1.97519 17.723ZM19.1356 15.7318C19.397 15.9881 19.7646 16.262 20.1936 16.3254C20.1829 16.3117 20.1722 16.2971 20.1595 16.2835C19.8962 15.9872 19.5276 15.7903 19.1356 15.7318ZM18.8977 14.4687C18.9816 14.4687 19.0664 14.4726 19.1503 14.4794C19.4486 14.5057 19.7412 14.5798 20.0171 14.6938C20.0074 14.6821 19.9966 14.6704 19.9869 14.6577C19.8367 14.4794 19.6944 14.3098 19.5413 14.1802C19.3014 13.9755 19.0128 13.8819 18.8246 13.9482C18.6462 14.0106 18.5096 14.2455 18.494 14.4959C18.6276 14.4774 18.7622 14.4677 18.8977 14.4677V14.4687ZM33.8545 9.34877C33.5961 9.34877 33.3962 9.45306 33.2451 9.66651C32.9506 10.0837 32.8453 10.9589 33.3133 11.8946C33.3982 12.0642 33.4966 12.224 33.6068 12.3751C34.3508 11.5106 34.6063 10.6509 34.541 10.0612C34.5078 9.76787 34.3849 9.40725 33.9861 9.35754C33.9403 9.35169 33.8964 9.34877 33.8535 9.34877H33.8545ZM12.8942 5.77664L12.9156 6.08951C12.9956 7.24156 13.0755 8.40627 13.1847 9.57099C13.214 9.23766 13.2364 8.8897 13.254 8.52811C13.3573 6.36339 13.253 4.75715 12.9156 3.32245L12.9107 3.30101C12.9029 3.2591 12.8932 3.21622 12.8825 3.17236C12.8152 3.93259 12.8512 4.7669 12.8834 5.52616L12.8942 5.77664Z" fill="#F3F6FF"/>
<path d="M32.9202 7.67805C33.3596 7.67805 33.7158 7.32197 33.7158 6.88272C33.7158 6.44348 33.3596 6.0874 32.9202 6.0874C32.4807 6.0874 32.1245 6.44348 32.1245 6.88272C32.1245 7.32197 32.4807 7.67805 32.9202 7.67805Z" fill="#F3F6FF"/>
<path d="M34.7166 7.67805C35.156 7.67805 35.5122 7.32197 35.5122 6.88272C35.5122 6.44348 35.156 6.0874 34.7166 6.0874C34.2771 6.0874 33.9209 6.44348 33.9209 6.88272C33.9209 7.32197 34.2771 7.67805 34.7166 7.67805Z" fill="#F3F6FF"/>
<path d="M39.0759 9.63361C39.5154 9.63361 39.8716 9.27753 39.8716 8.83829C39.8716 8.39905 39.5154 8.04297 39.0759 8.04297C38.6365 8.04297 38.2803 8.39905 38.2803 8.83829C38.2803 9.27753 38.6365 9.63361 39.0759 9.63361Z" fill="#F3F6FF"/>
<path d="M41.031 9.63361C41.4705 9.63361 41.8267 9.27753 41.8267 8.83829C41.8267 8.39905 41.4705 8.04297 41.031 8.04297C40.5916 8.04297 40.2354 8.39905 40.2354 8.83829C40.2354 9.27753 40.5916 9.63361 41.031 9.63361Z" fill="#F3F6FF"/>
<path d="M28.7244 18.4832C29.1638 18.4832 29.52 18.1271 29.52 17.6879C29.52 17.2487 29.1638 16.8926 28.7244 16.8926C28.2849 16.8926 27.9287 17.2487 27.9287 17.6879C27.9287 18.1271 28.2849 18.4832 28.7244 18.4832Z" fill="#F3F6FF"/>
<path d="M30.5208 18.4832C30.9602 18.4832 31.3164 18.1271 31.3164 17.6879C31.3164 17.2487 30.9602 16.8926 30.5208 16.8926C30.0813 16.8926 29.7251 17.2487 29.7251 17.6879C29.7251 18.1271 30.0813 18.4832 30.5208 18.4832Z" fill="#F3F6FF"/>
<path d="M23.6765 18.4832C24.116 18.4832 24.4722 18.1271 24.4722 17.6879C24.4722 17.2487 24.116 16.8926 23.6765 16.8926C23.2371 16.8926 22.8809 17.2487 22.8809 17.6879C22.8809 18.1271 23.2371 18.4832 23.6765 18.4832Z" fill="#F3F6FF"/>
<path d="M25.4729 18.4832C25.9123 18.4832 26.2686 18.1271 26.2686 17.6879C26.2686 17.2487 25.9123 16.8926 25.4729 16.8926C25.0335 16.8926 24.6772 17.2487 24.6772 17.6879C24.6772 18.1271 25.0335 18.4832 25.4729 18.4832Z" fill="#F3F6FF"/>
<path d="M6.92277 15.0701L6.02667 14.3479C6.25484 14.0652 6.49081 13.7884 6.72971 13.5253C6.81746 13.4288 6.91497 13.3225 7.01931 13.2105C6.9608 13.1832 6.90327 13.152 6.84672 13.1188C6.30067 12.7943 5.88626 12.2085 5.76535 11.5906C5.66199 11.0652 5.7751 10.5516 6.08225 10.1452C6.40013 9.72507 6.86719 9.47459 7.39764 9.4395C7.96611 9.40246 8.54921 9.62761 8.95679 10.0409L8.13675 10.8479C7.96026 10.6685 7.71161 10.5711 7.47272 10.5867C7.33718 10.5954 7.14509 10.6461 7.00078 10.8381C6.8906 10.9843 6.85452 11.1627 6.89547 11.3683C6.95495 11.6705 7.16654 11.9697 7.43567 12.1296C7.46687 12.1481 7.50002 12.1656 7.5322 12.1802C7.66579 12.2397 7.81985 12.2728 7.98074 12.2758C8.29276 11.9999 8.63112 11.7309 9.01627 11.536C9.36633 11.3586 9.66275 11.3576 9.89775 11.5331C10.1006 11.6851 10.1912 11.9366 10.1396 12.2046C10.1113 12.3547 10.0411 12.4931 9.92505 12.6266C9.55159 13.0584 8.95192 13.2952 8.47023 13.383C8.13187 13.6988 7.82082 14.034 7.58193 14.2972C7.35766 14.5438 7.13534 14.804 6.9218 15.0691L6.92277 15.0701Z" fill="#F3F6FF"/>
<path d="M1.89919 19.8486L1.19616 21.1917V21.9607H0.851955V21.1917L0.145996 19.8486H0.540904L1.02552 20.8272L1.51013 19.8486H1.89919Z" fill="#F3F6FF"/>
<path d="M6.09182 20.3934C6.21956 20.4616 6.31902 20.559 6.39117 20.6867C6.46333 20.8144 6.49843 20.9635 6.49843 21.1351C6.49843 21.3066 6.46235 21.4587 6.39117 21.5863C6.31999 21.714 6.21956 21.8115 6.09182 21.8797C5.96409 21.9479 5.82075 21.9811 5.66084 21.9811C5.50092 21.9811 5.35856 21.947 5.2318 21.8797C5.10504 21.8115 5.00558 21.714 4.93245 21.5854C4.85932 21.4567 4.82324 21.3066 4.82324 21.1351C4.82324 20.9635 4.85932 20.8144 4.93245 20.6867C5.00558 20.559 5.10504 20.4616 5.2318 20.3934C5.35856 20.3251 5.5019 20.292 5.66084 20.292C5.81978 20.292 5.96409 20.3261 6.09182 20.3934ZM5.41804 20.6468C5.34394 20.6867 5.28446 20.7481 5.2396 20.831C5.19475 20.9138 5.17232 21.0152 5.17232 21.1351C5.17232 21.255 5.19475 21.3583 5.2396 21.4401C5.28446 21.522 5.34394 21.5824 5.41804 21.6224C5.49215 21.6624 5.57308 21.6819 5.66084 21.6819C5.74859 21.6819 5.82953 21.6624 5.90363 21.6224C5.97774 21.5824 6.03722 21.522 6.08207 21.4401C6.12693 21.3583 6.14935 21.2569 6.14935 21.1351C6.14935 21.0132 6.12693 20.9138 6.08207 20.831C6.03722 20.7481 5.97774 20.6867 5.90363 20.6468C5.82953 20.6068 5.74859 20.5873 5.66084 20.5873C5.57308 20.5873 5.49215 20.6078 5.41804 20.6468Z" fill="#F3F6FF"/>
<path d="M11.1011 20.3125V21.9606H10.7569V21.602C10.715 21.7238 10.6419 21.8174 10.5385 21.8846C10.4352 21.9519 10.3143 21.985 10.1768 21.985C9.98565 21.985 9.83159 21.9236 9.71556 21.7998C9.59952 21.676 9.54199 21.4996 9.54199 21.2706V20.3135H9.88327V21.2345C9.88327 21.3836 9.9213 21.4996 9.99735 21.5796C10.0734 21.6605 10.1768 21.7004 10.3084 21.7004C10.44 21.7004 10.5532 21.6566 10.6351 21.5688C10.717 21.4811 10.7579 21.3534 10.7579 21.1858V20.3125H11.1021H11.1011Z" fill="#F3F6FF"/>
<path d="M14.8443 20.3797C14.9477 20.3173 15.0676 20.2852 15.2032 20.2852V20.6565H15.1018C14.9526 20.6565 14.8317 20.6926 14.741 20.7657C14.6503 20.8388 14.6045 20.9586 14.6045 21.1263V21.9606H14.2632V20.3124H14.6045V20.6351C14.66 20.5278 14.74 20.4421 14.8443 20.3797Z" fill="#F3F6FF"/>
<path d="M22.7747 21.9607L22.2481 21.1176H22.0053V21.9607H21.6641V19.8486H22.409C22.6508 19.8486 22.8332 19.9071 22.958 20.025C23.0828 20.143 23.1452 20.298 23.1452 20.4919C23.1452 20.6576 23.0984 20.7931 23.0058 20.8983C22.9131 21.0036 22.7786 21.0718 22.6031 21.102L23.1569 21.9607H22.7737H22.7747ZM22.0053 20.8749H22.3827C22.6577 20.8749 22.7952 20.7531 22.7952 20.5104C22.7952 20.3944 22.762 20.3048 22.6947 20.2395C22.6274 20.1742 22.5241 20.142 22.3817 20.142H22.0044V20.8749H22.0053Z" fill="#F3F6FF"/>
<path d="M27.2512 20.4021C27.3565 20.4762 27.4316 20.5737 27.4755 20.6955V20.3125H27.8168V21.9606H27.4755V21.5776C27.4316 21.6994 27.3565 21.7969 27.2512 21.8709C27.1459 21.945 27.0182 21.9821 26.868 21.9821C26.7178 21.9821 26.596 21.9479 26.4838 21.8807C26.3717 21.8134 26.283 21.715 26.2186 21.5873C26.1552 21.4596 26.123 21.3095 26.123 21.136C26.123 20.9626 26.1552 20.8154 26.2186 20.6877C26.282 20.56 26.3707 20.4626 26.4838 20.3943C26.5969 20.3261 26.7247 20.293 26.868 20.293C27.0113 20.293 27.1449 20.33 27.2512 20.4041V20.4021ZM26.6086 20.7355C26.518 20.832 26.4721 20.9655 26.4721 21.1351C26.4721 21.3047 26.518 21.4372 26.6086 21.5347C26.6993 21.6312 26.8202 21.6799 26.9723 21.6799C27.0679 21.6799 27.1537 21.6575 27.2298 21.6127C27.3058 21.5678 27.3653 21.5045 27.4092 21.4226C27.4531 21.3407 27.4755 21.2452 27.4755 21.1351C27.4755 21.0249 27.4531 20.9323 27.4092 20.8495C27.3653 20.7667 27.3058 20.7033 27.2298 20.6585C27.1537 20.6136 27.0679 20.5912 26.9723 20.5912C26.8202 20.5912 26.6993 20.6399 26.6086 20.7364V20.7355Z" fill="#F3F6FF"/>
<path d="M31.8081 21.6645V21.9608H31.5984C31.4229 21.9608 31.2893 21.9189 31.1987 21.8341C31.108 21.7493 31.0621 21.608 31.0621 21.4111V20.6031H30.8262V20.3127H31.0621V19.9033H31.4063V20.3127H31.8042V20.6031H31.4063V21.417C31.4063 21.5105 31.4239 21.5758 31.459 21.6109C31.4941 21.647 31.5555 21.6645 31.6433 21.6645H31.8081Z" fill="#F3F6FF"/>
<path d="M34.893 19.6898C34.933 19.6518 34.9856 19.6333 35.0519 19.6333C35.1182 19.6333 35.1709 19.6528 35.2118 19.6898C35.2528 19.7278 35.2733 19.7756 35.2733 19.8331C35.2733 19.8906 35.2528 19.9374 35.2118 19.9735C35.1709 20.0095 35.1172 20.0271 35.0519 20.0271C34.9866 20.0271 34.933 20.0095 34.893 19.9735C34.853 19.9374 34.8335 19.8906 34.8335 19.8331C34.8335 19.7756 34.853 19.7278 34.893 19.6898ZM35.2226 20.3126V21.9608H34.8813V20.3126H35.2226Z" fill="#F3F6FF"/>
<path d="M39.7713 20.4703C39.8874 20.5941 39.9449 20.7705 39.9449 20.9996V21.9596H39.6036V21.0356C39.6036 20.8885 39.5656 20.7735 39.4895 20.6935C39.4135 20.6126 39.3101 20.5727 39.1785 20.5727C39.0469 20.5727 38.9337 20.6165 38.8518 20.7023C38.7699 20.7881 38.729 20.9158 38.729 21.0834V21.9596H38.3877V20.3115H38.729V20.6731C38.7729 20.5493 38.847 20.4538 38.9503 20.3855C39.0537 20.3173 39.1736 20.2842 39.3091 20.2842C39.5003 20.2842 39.6543 20.3456 39.7704 20.4694L39.7713 20.4703Z" fill="#F3F6FF"/>
<path d="M44.1399 20.4021C44.2452 20.4762 44.3203 20.5737 44.3642 20.6955V20.3125H44.7054V21.9782C44.7054 22.1321 44.6742 22.2676 44.6109 22.3865C44.5484 22.5054 44.4578 22.598 44.3398 22.6663C44.2218 22.7345 44.0824 22.7676 43.9205 22.7676C43.6894 22.7676 43.5022 22.713 43.3598 22.6029C43.2175 22.4937 43.1278 22.3446 43.0917 22.1575H43.43C43.4583 22.255 43.5119 22.332 43.5919 22.3865C43.6718 22.4411 43.7733 22.4684 43.8971 22.4684C44.0326 22.4684 44.1448 22.4265 44.2325 22.3427C44.3203 22.2589 44.3642 22.137 44.3642 21.9782V21.5776C44.3203 21.6994 44.2452 21.7969 44.1399 21.8709C44.0346 21.945 43.9068 21.9821 43.7567 21.9821C43.6065 21.9821 43.4846 21.9479 43.3725 21.8807C43.2604 21.8134 43.1716 21.715 43.1073 21.5873C43.0439 21.4596 43.0117 21.3095 43.0117 21.136C43.0117 20.9626 43.0439 20.8154 43.1073 20.6877C43.1707 20.56 43.2594 20.4626 43.3725 20.3943C43.4856 20.3261 43.6133 20.293 43.7567 20.293C43.9 20.293 44.0336 20.33 44.1399 20.4041V20.4021ZM43.4983 20.7355C43.4076 20.832 43.3618 20.9655 43.3618 21.1351C43.3618 21.3047 43.4076 21.4372 43.4983 21.5347C43.589 21.6312 43.7099 21.6799 43.862 21.6799C43.9575 21.6799 44.0434 21.6575 44.1194 21.6127C44.1955 21.5678 44.2549 21.5045 44.2988 21.4226C44.3427 21.3407 44.3651 21.2452 44.3651 21.1351C44.3651 21.0249 44.3427 20.9323 44.2988 20.8495C44.2549 20.7667 44.1955 20.7033 44.1194 20.6585C44.0434 20.6136 43.9575 20.5912 43.862 20.5912C43.7099 20.5912 43.589 20.6399 43.4983 20.7364V20.7355Z" fill="#F3F6FF"/>
<path d="M53.0228 0H67.1634C69.8868 0 72.0983 2.21053 72.0983 4.93275V24H53.0228C50.2994 24 48.0879 21.7895 48.0879 19.0673V4.93275C48.0879 2.21053 50.2994 0 53.0228 0Z" fill="#F3F6FF"/>
<path d="M51.18 19.9378L50.709 17.9914C51.3214 17.8433 51.8596 17.4632 52.3169 16.9388C51.5856 16.3988 51.1147 15.8033 50.8212 15.3277C49.5467 13.2604 49.808 10.8482 50.632 9.37349C51.2609 8.24679 52.234 7.60156 53.2998 7.60156C54.7722 7.60156 55.7931 8.78967 56.031 10.7799C56.2192 12.3608 55.9218 14.3715 55.1525 16.1181C55.9618 16.3443 56.9096 16.4378 57.9822 16.391C61.4924 16.2409 64.4118 14.9914 66.6584 12.6766C68.356 10.9281 69.022 9.18831 69.0279 9.17174L70.9069 9.86667C70.8757 9.95147 70.1229 11.9554 68.1639 14.0002C66.361 15.8832 63.1452 18.1737 58.067 18.391C56.4425 18.4602 55.1495 18.2458 54.1247 17.8842C53.3612 18.8881 52.3784 19.6474 51.18 19.9378ZM53.2998 9.60254C52.8464 9.60254 52.5061 10.125 52.3813 10.3491C51.844 11.3111 51.7212 12.969 52.5276 14.277C52.7489 14.6357 53.0258 14.9505 53.3544 15.2205C53.9375 13.8443 54.1871 12.2312 54.0418 11.0168C54.0136 10.7809 53.8459 9.60351 53.2998 9.60351V9.60254Z" fill="#010110"/>
<path d="M61.0991 9.38026C61.8057 9.38026 62.3784 8.80774 62.3784 8.10151C62.3784 7.39527 61.8057 6.82275 61.0991 6.82275C60.3926 6.82275 59.8198 7.39527 59.8198 8.10151C59.8198 8.80774 60.3926 9.38026 61.0991 9.38026Z" fill="#010110"/>
<path d="M63.9868 9.38026C64.6934 9.38026 65.2661 8.80774 65.2661 8.10151C65.2661 7.39527 64.6934 6.82275 63.9868 6.82275C63.2803 6.82275 62.7075 7.39527 62.7075 8.10151C62.7075 8.80774 63.2803 9.38026 63.9868 9.38026Z" fill="#010110"/>
</g>
<defs>
<clipPath id="clip0_852_1328">
<rect width="72" height="24" fill="white" transform="translate(0.0981445)"/>
</clipPath>
</defs>
</svg>
