<svg width="97" height="20" viewBox="0 0 97 20" fill="none" xmlns="http://www.w3.org/2000/svg">
<path d="M0.65522 19.9161V17.0056H1.03067V18.2735H2.59211V17.0056H2.96756V19.9161H2.59211V18.6266H1.03067V19.9161H0.65522Z" fill="#F3F6FF"/>
<path d="M4.75264 19.5643C4.46529 19.2747 4.32162 18.9067 4.32162 18.4602C4.32162 18.0137 4.46529 17.6456 4.75264 17.3561C5.03999 17.0665 5.40324 16.9217 5.84239 16.9217C6.28155 16.9217 6.6448 17.0665 6.93215 17.3561C7.2195 17.6456 7.36317 18.0137 7.36317 18.4602C7.36317 18.9067 7.2195 19.2747 6.93215 19.5643C6.6448 19.8539 6.28155 19.9986 5.84239 19.9986C5.40324 19.9986 5.03999 19.8539 4.75264 19.5643ZM5.01695 17.6037C4.80279 17.8229 4.69571 18.1084 4.69571 18.4602C4.69571 18.812 4.80279 19.0975 5.01695 19.3167C5.2311 19.5359 5.50625 19.6455 5.84104 19.6455C6.17583 19.6455 6.45233 19.5359 6.66649 19.3167C6.88064 19.0975 6.98772 18.812 6.98772 18.4602C6.98772 18.1084 6.88064 17.8229 6.66649 17.6037C6.45233 17.3845 6.17718 17.2749 5.84104 17.2749C5.5049 17.2749 5.22975 17.3845 5.01695 17.6037Z" fill="#F3F6FF"/>
<path d="M8.69554 18.8133V17.0043H9.07099V18.8133C9.07099 19.0691 9.14147 19.2707 9.28379 19.4209C9.42611 19.5711 9.6118 19.6455 9.84223 19.6455C10.0726 19.6455 10.2583 19.5711 10.4007 19.4209C10.543 19.2707 10.6135 19.0691 10.6135 18.8133V17.0043H10.9889V18.8133C10.9889 19.1733 10.8845 19.4615 10.6744 19.6766C10.4644 19.8918 10.1879 19.9986 9.84358 19.9986C9.49931 19.9986 9.2228 19.8918 9.01271 19.6766C8.80262 19.4615 8.69825 19.1746 8.69825 18.8133H8.69554Z" fill="#F3F6FF"/>
<path d="M12.2982 19.084H12.6737C12.7049 19.1895 12.7537 19.2842 12.8241 19.3668C12.98 19.5521 13.2077 19.6455 13.5073 19.6455C13.7458 19.6455 13.9274 19.5981 14.0508 19.5048C14.1741 19.41 14.2365 19.291 14.2365 19.1476C14.2365 19.0258 14.1863 18.9284 14.086 18.8566C13.9857 18.7849 13.8448 18.7227 13.6618 18.6699C13.6279 18.6591 13.575 18.6442 13.5018 18.6239C13.4287 18.605 13.3704 18.5887 13.3284 18.5779C13.2863 18.5671 13.2308 18.5495 13.1616 18.5278C13.0925 18.5062 13.0369 18.4859 12.9949 18.4669C12.9529 18.4494 12.9028 18.425 12.8445 18.3966C12.7862 18.3668 12.7401 18.3384 12.7049 18.3113C12.6696 18.2843 12.633 18.2491 12.5924 18.2099C12.5517 18.1693 12.5219 18.1273 12.5002 18.0827C12.4799 18.038 12.4609 17.988 12.446 17.9325C12.4311 17.877 12.4229 17.8175 12.4229 17.7539C12.4229 17.5266 12.5192 17.3317 12.7103 17.168C12.9014 17.0043 13.1535 16.9231 13.4639 16.9231C13.8746 16.9231 14.1863 17.0584 14.3964 17.3304C14.4859 17.4494 14.5496 17.5847 14.5875 17.7336H14.2121C14.1877 17.6565 14.143 17.5793 14.0793 17.5049C13.9261 17.352 13.7214 17.2762 13.4625 17.2762C13.2538 17.2762 13.0912 17.3222 12.9732 17.4156C12.8553 17.509 12.7957 17.6213 12.7957 17.7539C12.7957 17.8175 12.8133 17.8757 12.8499 17.9284C12.8865 17.9812 12.9285 18.0245 12.9787 18.0597C13.0288 18.0949 13.0993 18.1287 13.1887 18.1639C13.2796 18.199 13.3582 18.2261 13.4287 18.245C13.4978 18.264 13.5899 18.2883 13.7038 18.3154C13.8312 18.3492 13.9437 18.3858 14.0413 18.4277C14.1389 18.4697 14.2324 18.5224 14.3246 18.586C14.4168 18.6496 14.4859 18.7295 14.5347 18.8228C14.5835 18.9175 14.6079 19.0258 14.6079 19.1476C14.6079 19.3857 14.5089 19.5873 14.3124 19.7524C14.1145 19.9175 13.8461 20 13.5046 20C13.0573 20 12.7225 19.8471 12.5002 19.5427C12.4026 19.4128 12.3348 19.2599 12.2955 19.0853L12.2982 19.084Z" fill="#F3F6FF"/>
<path d="M15.9646 19.9161V17.0056H18.0059V17.3588H16.3401V18.2735H17.6941V18.6266H16.3401V19.563H18.0059V19.9161H15.9646Z" fill="#F3F6FF"/>
<path d="M19.3383 19.9161V17.0056H19.7137V18.2735H21.2752V17.0056H21.6506V19.9161H21.2752V18.6266H19.7137V19.9161H19.3383Z" fill="#F3F6FF"/>
<path d="M23.4357 19.5643C23.1483 19.2747 23.0047 18.9067 23.0047 18.4602C23.0047 18.0137 23.1483 17.6456 23.4357 17.3561C23.723 17.0665 24.0863 16.9217 24.5254 16.9217C24.9646 16.9217 25.3278 17.0665 25.6152 17.3561C25.9025 17.6456 26.0462 18.0137 26.0462 18.4602C26.0462 18.9067 25.9025 19.2747 25.6152 19.5643C25.3278 19.8539 24.9646 19.9986 24.5254 19.9986C24.0863 19.9986 23.723 19.8539 23.4357 19.5643ZM23.7 17.6037C23.4858 17.8229 23.3788 18.1084 23.3788 18.4602C23.3788 18.812 23.4858 19.0975 23.7 19.3167C23.9141 19.5359 24.1893 19.6455 24.5254 19.6455C24.8616 19.6455 25.1367 19.5359 25.3495 19.3167C25.5637 19.0975 25.6708 18.812 25.6708 18.4602C25.6708 18.1084 25.5637 17.8229 25.3495 17.6037C25.1354 17.3845 24.8602 17.2749 24.5254 17.2749C24.1907 17.2749 23.9141 17.3845 23.7 17.6037Z" fill="#F3F6FF"/>
<path d="M27.3989 19.9161V17.0056H27.7744V19.563H29.2951V19.9161H27.3989Z" fill="#F3F6FF"/>
<path d="M30.4811 17.0056H31.4394C31.8786 17.0056 32.2418 17.145 32.5292 17.4237C32.8165 17.7025 32.9602 18.0475 32.9602 18.4615C32.9602 18.8756 32.8165 19.2206 32.5292 19.4994C32.2418 19.7781 31.8786 19.9175 31.4394 19.9175H30.4811V17.0056ZM30.8566 19.5616H31.4394C31.7783 19.5616 32.0534 19.4588 32.2662 19.2544C32.479 19.0488 32.5847 18.7849 32.5847 18.4602C32.5847 18.1354 32.479 17.8716 32.2662 17.6659C32.0534 17.4603 31.7783 17.3588 31.4394 17.3588H30.8566V19.563V19.5616Z" fill="#F3F6FF"/>
<path d="M36.3135 19.9161V17.0056H36.6889V19.9161H36.3135Z" fill="#F3F6FF"/>
<path d="M37.8953 17.3588V17.0056H40.2699V17.3588H39.2696V19.9161H38.8942V17.3588H37.8939H37.8953Z" fill="#F3F6FF"/>
<path d="M41.4776 19.9161V17.0056H43.5189V17.3588H41.8531V18.2735H43.2071V18.6266H41.8531V19.563H43.5189V19.9161H41.4776Z" fill="#F3F6FF"/>
<path d="M44.8526 19.9161V17.0056H45.4571L46.3314 18.8769H46.5184L47.3927 17.0056H47.9972V19.9161H47.6217V17.421L47.6258 17.3791H47.6176L46.7678 19.2084H46.0806L45.2308 17.3791H45.2226L45.2267 17.421V19.9161H44.8512H44.8526Z" fill="#F3F6FF"/>
<path d="M49.3309 19.084H49.7063C49.7375 19.1895 49.7863 19.2842 49.8568 19.3668C50.0127 19.5521 50.2404 19.6455 50.5399 19.6455C50.7785 19.6455 50.9601 19.5981 51.0834 19.5048C51.2068 19.41 51.2691 19.291 51.2691 19.1476C51.2691 19.0258 51.219 18.9284 51.1187 18.8566C51.0184 18.7849 50.8774 18.7227 50.6944 18.6699C50.6606 18.6591 50.6077 18.6442 50.5345 18.6239C50.4613 18.605 50.403 18.5887 50.361 18.5779C50.319 18.5671 50.2634 18.5495 50.1943 18.5278C50.1252 18.5062 50.0696 18.4859 50.0276 18.4669C49.9856 18.4494 49.9354 18.425 49.8771 18.3966C49.8188 18.3668 49.7728 18.3384 49.7375 18.3113C49.7023 18.2843 49.6657 18.2491 49.625 18.2099C49.5844 18.1693 49.5545 18.1273 49.5329 18.0827C49.5125 18.038 49.4935 17.988 49.4786 17.9325C49.4637 17.877 49.4556 17.8175 49.4556 17.7539C49.4556 17.5266 49.5518 17.3317 49.7429 17.168C49.9341 17.0043 50.1862 16.9231 50.4966 16.9231C50.9072 16.9231 51.219 17.0584 51.4291 17.3304C51.5185 17.4494 51.5822 17.5847 51.6202 17.7336H51.2447C51.2203 17.6565 51.1756 17.5793 51.1119 17.5049C50.9588 17.352 50.7541 17.2762 50.4952 17.2762C50.2865 17.2762 50.1238 17.3222 50.0059 17.4156C49.888 17.509 49.8283 17.6213 49.8283 17.7539C49.8283 17.8175 49.846 17.8757 49.8825 17.9284C49.9191 17.9812 49.9612 18.0245 50.0113 18.0597C50.0615 18.0949 50.1319 18.1287 50.2214 18.1639C50.3122 18.199 50.3908 18.2261 50.4613 18.245C50.5318 18.264 50.6226 18.2883 50.7365 18.3154C50.8639 18.3492 50.9764 18.3858 51.074 18.4277C51.1716 18.4697 51.2651 18.5224 51.3572 18.586C51.4494 18.6496 51.5185 18.7295 51.5673 18.8228C51.6161 18.9175 51.6405 19.0258 51.6405 19.1476C51.6405 19.3857 51.5416 19.5873 51.345 19.7524C51.1472 19.9175 50.8788 20 50.5372 20C50.0899 20 49.7551 19.8471 49.5329 19.5427C49.4353 19.4128 49.3675 19.2599 49.3282 19.0853L49.3309 19.084Z" fill="#F3F6FF"/>
<path d="M55.0724 19.6969C54.8678 19.4953 54.7661 19.2504 54.7661 18.9581C54.7661 18.6659 54.8678 18.4209 55.0724 18.2193C55.2771 18.0177 55.5292 17.9176 55.8288 17.9176C55.9209 17.9176 55.9738 17.9244 55.9873 17.9379V17.9338L55.9629 17.8959L55.6011 17.3547V17.0016H57.2885V17.3547H56.0389V17.3588L57.7263 19.9121H57.2885L56.8724 19.2504L56.8562 19.226H56.8521C56.7992 19.4506 56.684 19.6347 56.5038 19.7794C56.3248 19.9242 56.0998 19.9959 55.8315 19.9959C55.5319 19.9959 55.2798 19.8958 55.0751 19.6942L55.0724 19.6969ZM55.3449 18.4764C55.2229 18.5982 55.1619 18.7592 55.1619 18.9595C55.1619 19.1597 55.2229 19.3194 55.3449 19.4412C55.4669 19.563 55.6282 19.6238 55.8274 19.6238C56.0266 19.6238 56.1879 19.563 56.3113 19.4412C56.4333 19.3194 56.4943 19.1584 56.4943 18.9595C56.4943 18.7606 56.4333 18.5996 56.3113 18.4764C56.1893 18.3546 56.028 18.2938 55.8274 18.2938C55.6268 18.2938 55.4669 18.3546 55.3449 18.4764Z" fill="#F3F6FF"/>
<path d="M60.4114 19.9161L61.161 17.0056H62.3063L63.0558 19.9161H62.6804L62.4513 19.0637H61.0146L60.7855 19.9161H60.4101H60.4114ZM61.0986 18.7105H62.3686L62.0149 17.3588H61.4524L61.0986 18.7105Z" fill="#F3F6FF"/>
<path d="M64.3055 17.0056H65.5349C65.8629 17.0056 66.1245 17.0963 66.3224 17.2762C66.5189 17.4562 66.6179 17.6849 66.6179 17.9622C66.6179 18.2396 66.5189 18.4683 66.3224 18.6483C66.1245 18.8282 65.8629 18.9189 65.5349 18.9189H64.681V19.9175H64.3055V17.0056ZM64.681 18.5644H65.5349C65.7599 18.5644 65.9334 18.5102 66.0581 18.4006C66.1814 18.291 66.2438 18.1449 66.2438 17.9622C66.2438 17.7796 66.1814 17.6334 66.0581 17.5238C65.9347 17.4142 65.7599 17.3601 65.5349 17.3601H64.681V18.5657V18.5644Z" fill="#F3F6FF"/>
<path d="M67.9299 17.0056H69.1593C69.4873 17.0056 69.7489 17.0963 69.9468 17.2762C70.1433 17.4562 70.2422 17.6849 70.2422 17.9622C70.2422 18.2396 70.1433 18.4683 69.9468 18.6483C69.7489 18.8282 69.4873 18.9189 69.1593 18.9189H68.3054V19.9175H67.9299V17.0056ZM68.304 18.5644H69.1579C69.3829 18.5644 69.5564 18.5102 69.6811 18.4006C69.8044 18.291 69.8668 18.1449 69.8668 17.9622C69.8668 17.7796 69.8044 17.6334 69.6811 17.5238C69.5578 17.4142 69.3829 17.3601 69.1579 17.3601H68.304V18.5657V18.5644Z" fill="#F3F6FF"/>
<path d="M71.5543 19.9161V17.0056H71.9297V19.563H73.4505V19.9161H71.5543Z" fill="#F3F6FF"/>
<path d="M74.6365 19.9161V17.0056H75.012V19.9161H74.6365Z" fill="#F3F6FF"/>
<path d="M76.2603 19.9161L77.0098 17.0056H78.1552L78.9047 19.9161H78.5293L78.3002 19.0637H76.8634L76.6344 19.9161H76.2589H76.2603ZM76.9475 18.7105H78.2175L77.8637 17.3588H77.3012L76.9475 18.7105Z" fill="#F3F6FF"/>
<path d="M80.1557 19.9161V17.0056H80.6979L82.1306 19.4588H82.1387L82.1347 19.4168V17.0043H82.5101V19.9148H81.9679L80.5353 17.4616H80.5271L80.5312 17.5036V19.9107L80.1557 19.9148V19.9161Z" fill="#F3F6FF"/>
<path d="M84.2938 19.5643C84.0065 19.2747 83.8628 18.9067 83.8628 18.4602C83.8628 18.0137 84.0065 17.6456 84.2938 17.3561C84.5812 17.0665 84.9444 16.9217 85.3836 16.9217C85.8756 16.9217 86.2619 17.099 86.5452 17.4535C86.6699 17.6064 86.762 17.7823 86.8203 17.9812H86.4449C86.3866 17.8432 86.3134 17.7255 86.2239 17.628C86.0044 17.3926 85.7238 17.2749 85.3822 17.2749C85.0407 17.2749 84.7709 17.3845 84.5568 17.6037C84.3426 17.8229 84.2355 18.1084 84.2355 18.4602C84.2355 18.812 84.3426 19.0975 84.5568 19.3167C84.7709 19.5359 85.0461 19.6455 85.3822 19.6455C85.7184 19.6455 86.0166 19.5183 86.2443 19.2626C86.3364 19.157 86.4096 19.0285 86.4652 18.8756H86.8407C86.7742 19.0921 86.6767 19.2788 86.5492 19.4371C86.2578 19.8119 85.8688 19.9986 85.3836 19.9986C84.9444 19.9986 84.5812 19.8539 84.2938 19.5643Z" fill="#F3F6FF"/>
<path d="M88.1744 19.9161V17.0056H90.2156V17.3588H88.5498V18.2735H89.9039V18.6266H88.5498V19.563H90.2156V19.9161H88.1744Z" fill="#F3F6FF"/>
<path d="M91.3813 19.084H91.7568C91.7879 19.1895 91.8367 19.2842 91.9072 19.3668C92.0631 19.5521 92.2908 19.6455 92.5903 19.6455C92.8289 19.6455 93.0105 19.5981 93.1339 19.5048C93.2572 19.41 93.3195 19.291 93.3195 19.1476C93.3195 19.0258 93.2694 18.9284 93.1691 18.8566C93.0688 18.7849 92.9278 18.7227 92.7449 18.6699C92.711 18.6591 92.6581 18.6442 92.5849 18.6239C92.5117 18.605 92.4534 18.5887 92.4114 18.5779C92.3694 18.5671 92.3138 18.5495 92.2447 18.5278C92.1756 18.5062 92.12 18.4859 92.078 18.4669C92.036 18.4494 91.9858 18.425 91.9275 18.3966C91.8693 18.3668 91.8232 18.3384 91.7879 18.3113C91.7527 18.2843 91.7161 18.2491 91.6754 18.2099C91.6348 18.1693 91.6049 18.1273 91.5833 18.0827C91.5629 18.038 91.5439 17.988 91.529 17.9325C91.5141 17.877 91.506 17.8175 91.506 17.7539C91.506 17.5266 91.6022 17.3317 91.7934 17.168C91.9845 17.0043 92.2366 16.9231 92.547 16.9231C92.9576 16.9231 93.2694 17.0584 93.4795 17.3304C93.5689 17.4494 93.6326 17.5847 93.6706 17.7336H93.2952C93.2708 17.6565 93.226 17.5793 93.1623 17.5049C93.0092 17.352 92.8045 17.2762 92.5456 17.2762C92.3369 17.2762 92.1742 17.3222 92.0563 17.4156C91.9384 17.509 91.8787 17.6213 91.8787 17.7539C91.8787 17.8175 91.8964 17.8757 91.933 17.9284C91.9696 17.9812 92.0116 18.0245 92.0617 18.0597C92.1119 18.0949 92.1824 18.1287 92.2718 18.1639C92.3626 18.199 92.4412 18.2261 92.5117 18.245C92.5822 18.264 92.673 18.2883 92.7869 18.3154C92.9143 18.3492 93.0268 18.3858 93.1244 18.4277C93.222 18.4697 93.3155 18.5224 93.4076 18.586C93.4998 18.6496 93.5689 18.7295 93.6177 18.8228C93.6665 18.9175 93.6909 19.0258 93.6909 19.1476C93.6909 19.3857 93.592 19.5873 93.3954 19.7524C93.1976 19.9175 92.9292 20 92.5876 20C92.1403 20 91.8055 19.8471 91.5833 19.5427C91.4857 19.4128 91.4179 19.2599 91.3786 19.0853L91.3813 19.084Z" fill="#F3F6FF"/>
<path d="M39.2005 6.65584L31.9518 5.51925C31.9518 5.51925 30.2941 5.14579 30.3375 4.08091C30.3957 3.01603 31.2307 2.13923 32.8016 1.99445C33.2191 1.95115 33.6514 1.92274 34.1421 1.92274C35.6981 1.92274 37.6581 2.23936 40.3255 3.5911L41.09 2.18118C41.09 2.18118 37.8898 0.51282 34.6043 0.51282C33.5661 0.51282 32.5143 0.671132 31.5492 1.11765C30.4391 1.64941 29.6177 2.68588 29.4741 3.90907C29.4741 3.96725 29.4591 4.02409 29.4591 4.08227C29.4591 4.08227 29.2138 5.85211 31.045 6.71538C31.3906 6.88857 31.7512 6.9887 32.1253 7.04688L36.1169 7.62195L39.2588 8.14018C39.2588 8.14018 40.8013 8.35532 40.6861 9.34849C40.4692 11.3632 37.8614 11.2333 35.0502 11.1616C32.2405 11.1034 29.6597 9.95332 29.6597 9.95332L29.1122 11.2915C29.1122 11.2915 31.0572 12.4863 35.0204 12.6013C40.0355 12.7596 41.319 11.0047 41.5928 9.29166C41.5928 9.29166 42.0821 7.14837 39.2005 6.65855V6.65584Z" fill="#F3F6FF"/>
<path d="M42.1404 1.36121H46.2487V12.4687H47.9348V1.36121H52.0417V0.51282H42.1404V1.36121Z" fill="#F3F6FF"/>
<path d="M54.7363 0.51282H53.0217V12.4687H54.7363V0.51282Z" fill="#F3F6FF"/>
<path d="M66.4972 10.2956L57.8795 0.51282H56.4807V12.4687H58.1099V2.25425L67.1451 12.4687H68.1264V0.51282H66.4972V10.2956Z" fill="#F3F6FF"/>
<path d="M71.2114 10.9871V6.87234H79.2327C79.2273 6.76003 79.2259 6.64772 79.2259 6.53542C79.2259 6.36357 79.2314 6.19309 79.2422 6.0253H71.2114V1.99445H80.6857C80.9649 1.61559 81.2848 1.26243 81.6413 0.940396C81.808 0.790204 81.9801 0.646776 82.1618 0.51282H69.4968V12.4701H82.0045C81.4664 12.0425 80.9934 11.5445 80.599 10.9871H71.2114Z" fill="#F3F6FF"/>
<path d="M90.8107 1.29761C89.8456 0.769907 88.5336 0.51282 87.3381 0.51282C83.7205 0.51282 80.8809 2.90914 80.8809 6.53406C80.8809 10.159 83.7923 12.5702 87.3381 12.5702C90.8839 12.5702 93.8807 10.2442 93.8807 6.53406C93.8807 4.32312 92.7855 2.3679 90.8107 1.29761ZM90.4515 10.4431C89.6437 10.8288 88.3899 11.0277 87.3666 11.0277C86.3432 11.0277 85.248 10.8274 84.4267 10.4431C82.2363 9.38773 81.0679 6.70455 82.4952 4.60727C83.5755 2.99574 85.4934 2.39632 87.3666 2.39632C89.2397 2.39632 91.2146 2.92402 92.3531 4.60727C92.8289 5.29193 93.0593 5.77769 93.0593 6.61931C93.0593 7.46093 92.8289 8.01705 92.3531 8.70306C91.8923 9.38773 91.258 10.044 90.4515 10.4445V10.4431Z" fill="#F3F6FF"/>
<path d="M87.5536 3.82247C87.5536 5.32034 86.3134 6.53406 84.8008 6.51918C86.3134 6.53406 87.5387 7.75996 87.5238 9.25918C87.5387 7.76131 88.7775 6.54759 90.2915 6.54759C88.7789 6.54759 87.5536 5.32034 87.5536 3.82247Z" fill="#F3F6FF"/>
<path d="M27.7093 0.566944V12.5147H25.9947V0.566944H27.7093Z" fill="#F3F6FF"/>
<path d="M6.8576 0.51282H0.0981445V12.4687H1.81275V8.84379H6.8576C9.5237 8.84379 11.8591 7.63548 11.8591 4.68574C11.8591 1.73601 9.53861 0.51282 6.8576 0.51282ZM7.20459 8.00893H1.81275V1.99445H7.20323C9.19163 1.99445 10.8208 2.79954 10.8208 5.00101C10.8208 7.20249 9.19298 8.00758 7.20323 8.00758L7.20459 8.00893Z" fill="#F3F6FF"/>
<path d="M24.886 4.68574C24.886 1.98092 22.9342 0.727962 20.5419 0.539882C20.3264 0.522292 20.1068 0.51282 19.8845 0.51282H11.7778C12.2427 0.936337 12.6235 1.43292 12.9068 1.99581H20.2301C20.3345 1.99581 20.4389 1.99716 20.5419 2.00257C22.3866 2.08511 23.8477 2.91861 23.8477 5.00237C23.8477 7.20384 22.2185 8.01028 20.2301 8.01028H12.5219C12.3064 8.31473 12.0597 8.59211 11.7818 8.84514H19.8831C20.3589 8.84514 20.7926 8.81537 21.2087 8.74366L23.1687 12.4701H24.8833L22.678 8.29714C24.1337 7.56376 24.8833 6.34057 24.8833 4.68574H24.886Z" fill="#F3F6FF"/>
<path d="M94.9894 2.23801C95.3337 2.23801 95.6048 2.13111 95.8013 1.91597C95.9992 1.70083 96.0981 1.43563 96.0981 1.119C96.0981 0.802381 95.9992 0.53447 95.8013 0.320682C95.6034 0.106894 95.3337 0 94.9894 0C94.6451 0 94.3768 0.106894 94.1789 0.320682C93.9796 0.53447 93.8807 0.799675 93.8807 1.119C93.8807 1.43833 93.9796 1.70083 94.1789 1.91597C94.3768 2.13111 94.6479 2.23801 94.9894 2.23801ZM94.2927 0.414045C94.4622 0.228672 94.6953 0.135309 94.9894 0.135309C95.2835 0.135309 95.5167 0.228672 95.6875 0.414045C95.8582 0.599418 95.9436 0.834856 95.9436 1.119C95.9436 1.40315 95.8582 1.63453 95.6875 1.82126C95.5167 2.00663 95.2835 2.09999 94.9894 2.09999C94.6953 2.09999 94.4622 2.00663 94.2927 1.82126C94.1233 1.63588 94.0379 1.4018 94.0379 1.119C94.0379 0.836209 94.1233 0.599418 94.2927 0.414045Z" fill="#F3F6FF"/>
<path d="M94.7251 1.24755H94.9799L95.3635 1.68865H95.5235V1.6643L95.1548 1.24755C95.2659 1.23402 95.3513 1.18666 95.4109 1.10818C95.4719 1.0297 95.499 0.945809 95.495 0.859211C95.4909 0.77126 95.4543 0.692781 95.3838 0.621068C95.3147 0.550707 95.2198 0.515527 95.1019 0.515527H94.5801V1.69001H94.7251V1.24755ZM94.7251 0.656248H95.1033C95.167 0.656248 95.2198 0.672485 95.2618 0.703606C95.3039 0.73608 95.3296 0.773967 95.3405 0.818618C95.3513 0.86327 95.35 0.909275 95.3405 0.95528C95.3296 1.00129 95.3012 1.04053 95.2578 1.07165C95.2144 1.10277 95.1602 1.119 95.0965 1.119H94.7278V0.656248H94.7251Z" fill="#F3F6FF"/>
</svg>
