<svg width="72" height="24" viewBox="0 0 72 24" fill="none" xmlns="http://www.w3.org/2000/svg">
<path d="M20.034 13.8952L20.1125 13.8592L20.0482 13.8808L20.034 13.8952Z" fill="#F3F6FF"/>
<path d="M13.1354 17.0515L13.0807 17.1931C13.0997 17.1451 13.1187 17.0971 13.1425 17.0515H13.1354ZM14.2514 16.5402C14.2514 16.5402 14.2514 16.5402 14.2514 16.545L19.8007 14.0057L14.2538 16.5426L14.2514 16.5402ZM23.0608 12.3759C23.0655 12.3903 23.0655 12.4071 23.0679 12.4239C23.0679 12.4071 23.0632 12.3927 23.0584 12.3759H23.0608Z" fill="#F3F6FF"/>
<path d="M24.0388 10.5614L21.307 4.48414L19.9054 5.12498L19.5033 5.3098L19.2272 5.43461L17.8257 6.07545L20.4813 11.9823L16.1718 13.9384C15.4698 14.2577 14.8464 14.7017 14.3133 15.2609C13.816 15.7818 13.421 16.3818 13.1402 17.0467C13.1188 17.0947 13.0973 17.1403 13.0783 17.1883L12.2954 19.1492C12.2312 19.3196 12.274 19.5116 12.4073 19.6341C12.4882 19.7133 12.5976 19.7541 12.7071 19.7541C12.769 19.7541 12.8308 19.7421 12.8903 19.7133L21.2404 15.8706C22.2684 15.4001 22.9609 14.4353 23.087 13.3192C23.5534 13.0768 23.908 12.6759 24.096 12.1767C24.2935 11.6487 24.2744 11.0726 24.0412 10.5566L24.0388 10.5614ZM14.2514 16.5402C14.4251 16.2714 14.6274 16.0194 14.8487 15.7842C15.3152 15.2945 15.8625 14.9057 16.4764 14.6273L20.7431 12.6903C20.7431 12.7047 20.7478 12.7215 20.7478 12.7359C20.7526 12.7671 20.7526 12.8008 20.7526 12.8344C20.7526 13.2616 20.5146 13.672 20.1101 13.864L14.2467 16.5474C14.2467 16.5474 14.2467 16.5474 14.2467 16.5426L14.2514 16.5402ZM22.3612 13.0648C22.3184 13.9912 21.7734 14.8073 20.9334 15.1913L13.2734 18.7196L13.716 17.6131L20.3956 14.5577L20.4599 14.5361L20.4742 14.5193C21.3594 14.068 21.7449 12.9808 21.3308 12.0615L18.8108 6.45468L19.5366 6.12346L22.147 11.9319C22.3065 12.2895 22.3802 12.6687 22.3588 13.0552V13.0672L22.3612 13.0648ZM23.3963 11.9175C23.325 12.1119 23.2131 12.2799 23.068 12.4191C23.068 12.4047 23.0632 12.3879 23.0608 12.3735C23.0584 12.3591 23.0537 12.3423 23.0513 12.3255C23.0465 12.2943 23.0394 12.2631 23.0323 12.2319C23.0204 12.1791 23.0061 12.1239 22.9894 12.0711C22.9799 12.0303 22.968 11.9895 22.9514 11.9487C22.9371 11.8983 22.918 11.8479 22.899 11.7975C22.8776 11.7375 22.8514 11.6775 22.8252 11.6175L20.2148 5.80663L20.9358 5.47541L23.363 10.8686C23.5129 11.1998 23.5248 11.5719 23.3963 11.9151V11.9175Z" fill="#F3F6FF"/>
<path d="M20.0196 11.4735L16.2479 3.03683C15.7839 1.99515 14.8297 1.2919 13.7231 1.15989C13.4852 0.689457 13.0901 0.32943 12.5976 0.139816C12.074 -0.0617985 11.5029 -0.0449972 10.9913 0.18782L4.95422 2.91682L5.7038 4.60415L5.88703 5.01938L6.51525 6.43548L12.3834 3.78329L14.3038 8.13961C14.6155 8.84766 15.0557 9.48131 15.6078 10.0189C16.1242 10.5254 16.7191 10.9262 17.3735 11.2094C17.4115 11.2286 17.4496 11.2454 17.4877 11.2598L17.6257 11.315L19.4485 12.0663H19.4556C19.508 12.0879 19.5627 12.0975 19.6151 12.0975C19.7341 12.0975 19.8507 12.0495 19.9363 11.9559C20.0601 11.8239 20.0886 11.6319 20.0148 11.4711L20.0196 11.4735ZM11.2959 0.87187C11.6243 0.720659 11.9931 0.713459 12.3334 0.840668C12.5262 0.915074 12.6951 1.03028 12.8331 1.17669C12.7689 1.18629 12.7046 1.19829 12.6404 1.2151C12.6261 1.2199 12.6118 1.2199 12.5976 1.2271C12.5547 1.2343 12.5119 1.2463 12.4714 1.2583C12.4381 1.2679 12.4072 1.2775 12.3739 1.2895C12.2597 1.3255 12.1454 1.36871 12.0336 1.41911L6.26301 4.0281L5.93701 3.29605L11.2959 0.87187ZM16.1289 9.47891C15.6459 9.00607 15.2627 8.45163 14.9891 7.83238L13.0854 3.52167C13.0854 3.52167 13.102 3.51687 13.1092 3.51687C13.1473 3.51207 13.183 3.51207 13.221 3.51207C13.271 3.51207 13.3186 3.51687 13.3662 3.52167C13.3709 3.52167 13.3781 3.52167 13.3852 3.52167C13.4542 3.53127 13.5209 3.54567 13.5851 3.56967C13.597 3.56967 13.6065 3.57447 13.616 3.58167C13.647 3.59127 13.6779 3.60327 13.7065 3.62007C13.7374 3.63447 13.7683 3.65128 13.7969 3.66808C13.8611 3.70648 13.9206 3.74968 13.9777 3.80249C14.0729 3.88649 14.1515 3.9897 14.2157 4.10731V4.18172L14.28 4.24172L16.8761 10.0837C16.6096 9.90614 16.3597 9.70212 16.1265 9.47651L16.1289 9.47891ZM17.9374 10.6334L14.9653 3.9441V3.86249L14.8987 3.79769C14.4537 2.90002 13.3781 2.50879 12.4667 2.92162L12.0883 3.09443L6.89599 5.43941L6.56998 4.70735L12.3429 2.09836C12.6975 1.93995 13.083 1.86554 13.4637 1.88715H13.4709C14.3894 1.93515 15.1961 2.48959 15.5721 3.34165L19.0321 11.0798L17.9398 10.631L17.9374 10.6334Z" fill="#F3F6FF"/>
<path d="M17.3783 11.2094V11.2142L17.4925 11.2622C17.4544 11.2478 17.414 11.231 17.3783 11.2118V11.2094ZM13.7993 3.66808C13.8636 3.70648 13.9231 3.75209 13.9802 3.80249C13.9254 3.74969 13.8636 3.70408 13.7993 3.66808ZM13.0854 3.51927C13.0854 3.51927 13.1021 3.51927 13.1092 3.51927C13.1021 3.51927 13.0926 3.51927 13.0854 3.51927Z" fill="#F3F6FF"/>
<path d="M7.36712 12.7768L7.24814 12.7288C7.28859 12.7456 7.32904 12.7624 7.3695 12.7816V12.7768H7.36712ZM11.6195 20.4837C11.6195 20.4837 11.6362 20.4837 11.6433 20.4837C11.6433 20.4837 11.6266 20.4837 11.6195 20.4837Z" fill="#F3F6FF"/>
<path d="M19.0249 19.4157L18.8417 18.998L18.2158 17.5795L12.3429 20.2197L10.4321 15.8586C10.1203 15.1505 9.68487 14.5169 9.13279 13.9745C8.61404 13.468 8.02151 13.0672 7.36949 12.7792C7.33142 12.76 7.28859 12.7432 7.24813 12.7264L7.09584 12.6616L5.2897 11.9151C5.12313 11.8479 4.93514 11.8863 4.8114 12.0183C4.68766 12.1479 4.65197 12.3399 4.72335 12.508L8.48078 20.9566C8.94242 21.9935 9.89189 22.6967 10.9984 22.8359C11.2364 23.3064 11.6314 23.6688 12.1216 23.8584C12.3667 23.952 12.6213 24 12.8759 24C13.1663 24 13.4566 23.94 13.7302 23.8152L19.7745 21.1006L19.0296 19.4133L19.0249 19.4157ZM8.61404 14.5145C9.09472 14.9873 9.48022 15.5418 9.7515 16.1634L11.6433 20.4813C11.6433 20.4813 11.6266 20.4861 11.6195 20.4861C11.5505 20.4933 11.4815 20.4933 11.4101 20.4861C11.3982 20.4861 11.3887 20.4861 11.3768 20.4813C11.3173 20.4765 11.2578 20.4645 11.1983 20.4477C11.165 20.4381 11.1341 20.4261 11.1007 20.4141C10.8223 20.3061 10.601 20.0949 10.4797 19.8165L7.86683 13.9025C8.13335 14.0801 8.38321 14.2841 8.61642 14.5121L8.61404 14.5145ZM9.16135 20.6542L5.71566 12.9064L6.81028 13.3576L9.79909 20.1237C10.0014 20.5845 10.3678 20.935 10.8342 21.115C10.9413 21.1558 11.0531 21.187 11.165 21.2086C11.2197 21.2206 11.2768 21.2278 11.3316 21.2326C11.6481 21.2614 11.9669 21.2086 12.2644 21.0742L17.8398 18.5684L18.1635 19.3029L12.3857 21.8998C12.0312 22.0583 11.6552 22.1279 11.2649 22.1087H11.2602C10.3416 22.0607 9.53495 21.5014 9.15897 20.6518L9.16135 20.6542ZM13.4256 23.1335C13.0949 23.2823 12.7236 23.2919 12.3881 23.1599C12.1977 23.0879 12.0264 22.9727 11.8908 22.8263C12.0098 22.8071 12.1287 22.7807 12.2453 22.7471C12.2906 22.7351 12.3358 22.7207 12.3762 22.7063C12.4309 22.6895 12.4833 22.6703 12.5333 22.6511C12.5856 22.6319 12.638 22.6103 12.6879 22.5863L18.4657 19.9917L18.7893 20.7238L13.4256 23.1335Z" fill="#F3F6FF"/>
<path d="M3.94528 11.0462C3.94052 11.111 3.94053 11.1782 3.95004 11.2455C3.9429 11.1782 3.9429 11.1134 3.94528 11.0462ZM3.95004 11.2455C3.95004 11.2455 3.95004 11.2599 3.95004 11.2671C3.95004 11.2671 3.94528 11.2527 3.94528 11.2455H3.95004ZM11.5886 6.95874H11.5934L11.6481 6.81713C11.6291 6.86513 11.61 6.91073 11.5862 6.95874H11.5886Z" fill="#F3F6FF"/>
<path d="M12.3382 4.37615C12.2073 4.25134 12.0169 4.21774 11.8575 4.29455L3.48125 8.07962C2.45325 8.54046 1.75126 9.50053 1.61562 10.619C1.14922 10.8566 0.789893 11.2551 0.601903 11.7519C0.399635 12.2799 0.413913 12.856 0.642356 13.372L3.33371 19.4685L5.41826 18.53L6.82461 17.8987L4.20941 11.9727L8.53318 10.0454C9.23517 9.73335 9.86577 9.29411 10.4036 8.73727C10.9009 8.21643 11.3031 7.61878 11.5886 6.95874C11.61 6.91073 11.6315 6.86513 11.6505 6.81713L12.0051 5.95067L12.4453 4.86339C12.5119 4.69057 12.4691 4.49856 12.3382 4.37375V4.37615ZM3.70969 18.4748L1.32293 13.0648C1.17301 12.7312 1.16587 12.3591 1.29437 12.0183C1.36814 11.8239 1.47998 11.6559 1.62752 11.5167C1.63942 11.5839 1.65132 11.6535 1.66559 11.7207C1.67749 11.7807 1.69415 11.8407 1.71319 11.9007C1.72508 11.9463 1.73936 11.9919 1.75364 12.0327C1.76554 12.0759 1.78457 12.1215 1.80123 12.1647C1.82027 12.2175 1.84169 12.2679 1.86548 12.3207L4.43785 18.1484L3.70969 18.4748ZM9.87053 8.21404C9.39937 8.69887 8.84967 9.0853 8.23335 9.35892L3.95241 11.2671C3.95241 11.2671 3.95241 11.2527 3.95241 11.2455C3.94527 11.1807 3.94289 11.1134 3.94765 11.0462C3.95241 10.9934 3.95955 10.9406 3.96907 10.8878C3.97383 10.8614 3.98097 10.835 3.99048 10.8086C4.00476 10.7582 4.0238 10.7078 4.04522 10.6574C4.09043 10.559 4.14754 10.4678 4.21655 10.3862C4.23559 10.3646 4.25224 10.3454 4.27128 10.3262C4.36647 10.2302 4.48069 10.1486 4.60919 10.091L10.4726 7.46038C10.2941 7.7316 10.0942 7.98122 9.87053 8.21404ZM3.36464 11.9031L5.84183 17.5195L5.11605 17.8435L2.54367 12.0159C2.38424 11.6583 2.31523 11.2791 2.33665 10.8854V10.8806C2.38662 9.94936 2.93869 9.1405 3.78108 8.76128L11.4649 5.29062L11.0151 6.3923L4.30697 9.40452C3.36464 9.82695 2.93869 10.943 3.36464 11.9007V11.9031Z" fill="#F3F6FF"/>
<path d="M27.5393 20.7046V12.9232H33.6573V15.0354H30.0212V16.3147H32.7768V18.1484H30.0212V20.7046H27.5393Z" fill="#F3F6FF"/>
<path d="M34.2617 14.9249H36.5771V18.0932C36.5771 18.65 36.815 18.926 37.2933 18.926C37.5503 18.926 37.7621 18.8348 37.9263 18.6548C38.0905 18.4724 38.1738 18.23 38.1738 17.9276V14.9249H40.4892V20.707H38.1738V19.9293H38.0643C37.962 20.1069 37.8216 20.2677 37.6455 20.407C37.2481 20.719 36.8198 20.875 36.3558 20.875C35.7014 20.875 35.1898 20.6686 34.8185 20.2581C34.4473 19.8477 34.2617 19.2549 34.2617 18.4844V14.9249Z" fill="#F3F6FF"/>
<path d="M41.4814 20.7046V14.9226H43.7968V15.7002H43.9063C44.0157 15.5298 44.1561 15.3738 44.3251 15.2322C44.7296 14.913 45.1579 14.7546 45.6148 14.7546C46.2692 14.7546 46.7808 14.961 47.1521 15.3714C47.5233 15.7818 47.7089 16.3747 47.7089 17.1451V20.7022H45.3935V17.534C45.3935 16.9771 45.1556 16.7011 44.6773 16.7011C44.4203 16.7011 44.2085 16.7923 44.0443 16.9723C43.8801 17.1547 43.7968 17.3972 43.7968 17.6996V20.7022H41.4814V20.7046Z" fill="#F3F6FF"/>
<path d="M27.5393 11.0871V3.30572H30.0188V8.86453H33.5454V11.0871H27.5393Z" fill="#F3F6FF"/>
<path d="M34.7091 10.4271C34.2284 9.87502 33.9881 9.13096 33.9881 8.19729C33.9881 7.26362 34.2284 6.51957 34.7091 5.96753C35.1898 5.41549 35.7775 5.13947 36.4676 5.13947C36.9673 5.13947 37.4052 5.29788 37.7788 5.6171C37.9406 5.75151 38.0715 5.90512 38.1762 6.08514H38.2857V5.30748H40.601V11.0895H38.2857V10.3118H38.1762C38.081 10.4967 37.9477 10.6575 37.7788 10.7895C37.4123 11.1015 36.9745 11.2575 36.4676 11.2575C35.7775 11.2575 35.1898 10.9815 34.7091 10.4295V10.4271ZM36.6366 7.34763C36.4486 7.55884 36.3558 7.84207 36.3558 8.19729C36.3558 8.55252 36.4486 8.83574 36.6366 9.04695C36.8246 9.25817 37.0602 9.36378 37.3481 9.36378C37.6051 9.36378 37.8264 9.25577 38.0096 9.04215C38.1929 8.82614 38.2857 8.54532 38.2857 8.19729C38.2857 7.84927 38.1929 7.56844 38.0096 7.35243C37.8264 7.13641 37.6051 7.03081 37.3481 7.03081C37.0625 7.03081 36.8246 7.13641 36.6366 7.34763Z" fill="#F3F6FF"/>
<path d="M41.5909 11.0871V5.30509H43.9063V6.08274H44.0158C44.1252 5.90513 44.2585 5.74912 44.4132 5.61471C44.7725 5.29548 45.1913 5.13707 45.6696 5.13707C46.1836 5.13707 46.6357 5.30268 47.026 5.63631C47.2021 5.79232 47.3377 5.95793 47.4329 6.13555H47.5424C47.6376 5.95793 47.7732 5.78992 47.9493 5.63631C48.3395 5.30268 48.7917 5.13707 49.3057 5.13707C49.9815 5.13707 50.5098 5.34349 50.8881 5.75392C51.2665 6.16435 51.4568 6.75719 51.4568 7.52765V11.0847H49.1415V7.91648C49.1415 7.64286 49.082 7.43404 48.9606 7.29483C48.8393 7.15322 48.6798 7.08362 48.4823 7.08362C48.2253 7.08362 48.0231 7.16522 47.8755 7.32843C47.728 7.49165 47.6542 7.72446 47.6542 8.02929V11.0871H45.3936V7.91888C45.3936 7.64526 45.3341 7.43644 45.2127 7.29723C45.0914 7.15562 44.9319 7.08602 44.732 7.08602C44.475 7.08602 44.2728 7.16762 44.1252 7.33083C43.9777 7.49405 43.9039 7.72686 43.9039 8.03168V11.0895H41.5886L41.5909 11.0871Z" fill="#F3F6FF"/>
<path d="M52.9488 10.4271C52.4681 9.87502 52.2278 9.13096 52.2278 8.19729C52.2278 7.26362 52.4681 6.51957 52.9488 5.96753C53.4295 5.41549 54.0173 5.13947 54.7074 5.13947C55.2071 5.13947 55.6449 5.29788 56.0185 5.6171C56.1803 5.75151 56.3112 5.90512 56.4159 6.08514H56.5254V5.30748H58.8408V11.0895H56.5254V10.3118H56.4159C56.3207 10.4967 56.1875 10.6575 56.0185 10.7895C55.6521 11.1015 55.2142 11.2575 54.7074 11.2575C54.0173 11.2575 53.4295 10.9815 52.9488 10.4295V10.4271ZM54.8787 7.34763C54.6907 7.55884 54.5979 7.84207 54.5979 8.19729C54.5979 8.55252 54.6907 8.83574 54.8787 9.04695C55.0667 9.25817 55.3023 9.36378 55.5902 9.36378C55.8472 9.36378 56.0685 9.25577 56.2517 9.04215C56.435 8.82614 56.5278 8.54532 56.5278 8.19729C56.5278 7.84927 56.435 7.56844 56.2517 7.35243C56.0685 7.13641 55.8472 7.03081 55.5902 7.03081C55.3046 7.03081 55.0667 7.13641 54.8787 7.34763Z" fill="#F3F6FF"/>
<path d="M60.3899 10.4271C59.9093 9.87502 59.6689 9.13096 59.6689 8.19729C59.6689 7.26362 59.9093 6.51957 60.3899 5.96753C60.8706 5.41549 61.4584 5.13947 62.1485 5.13947C62.6482 5.13947 63.0861 5.29788 63.4597 5.6171C63.6215 5.75151 63.7523 5.90512 63.8571 6.08514H63.9665V5.30748H66.2819V11.0895H63.9665V10.3118H63.8571C63.7619 10.4967 63.6286 10.6575 63.4597 10.7895C63.0932 11.1015 62.6553 11.2575 62.1485 11.2575C61.4584 11.2575 60.8706 10.9815 60.3899 10.4295V10.4271ZM62.3174 7.34763C62.1295 7.55884 62.0366 7.84207 62.0366 8.19729C62.0366 8.55252 62.1295 8.83574 62.3174 9.04695C62.5054 9.25817 62.741 9.36378 63.0289 9.36378C63.2859 9.36378 63.5072 9.25577 63.6905 9.04215C63.8737 8.82614 63.9665 8.54532 63.9665 8.19729C63.9665 7.84927 63.8737 7.56844 63.6905 7.35243C63.5072 7.13641 63.2859 7.03081 63.0289 7.03081C62.7434 7.03081 62.5054 7.13641 62.3174 7.34763Z" fill="#F3F6FF"/>
<path d="M66.9411 6.91799V5.24986H67.6573V4.02577H69.9727V5.24986H71.3505V6.91799H69.9727V9.41897H71.46V11.0871H67.6573V6.91799H66.9411Z" fill="#F3F6FF"/>
</svg>
