<svg width="61" height="24" viewBox="0 0 61 24" fill="none" xmlns="http://www.w3.org/2000/svg">
<path d="M28.2051 16.9129V16.156H29.8807V17.1253C29.8807 17.4378 29.8312 17.6754 29.7324 17.8372C29.6336 17.999 29.4657 18.1127 29.228 18.1782C28.9903 18.2437 28.6397 18.2768 28.1745 18.2768C27.7094 18.2768 27.3627 18.2374 27.1234 18.1584C26.8842 18.0795 26.7155 17.9453 26.6167 17.7575C26.5178 17.5688 26.4684 17.2918 26.4684 16.9248V15.7235C26.4684 15.3565 26.5178 15.0794 26.6167 14.8908C26.7155 14.7021 26.8842 14.5687 27.1234 14.4898C27.3627 14.4109 27.7133 14.3714 28.1745 14.3714C28.6358 14.3714 28.9786 14.4101 29.2233 14.4875C29.4673 14.5648 29.6383 14.6879 29.7348 14.8561C29.832 15.0242 29.8799 15.2649 29.8799 15.5783V15.6493H28.9268V15.5735C28.9268 15.4662 28.9103 15.3888 28.8766 15.3415C28.8429 15.2941 28.7746 15.261 28.6711 15.2404C28.5675 15.2199 28.402 15.2104 28.1745 15.2104C27.9941 15.2104 27.8592 15.2144 27.7706 15.2231C27.6819 15.2318 27.6082 15.2562 27.5501 15.2965C27.4913 15.3367 27.4552 15.3872 27.4419 15.448C27.4285 15.5088 27.4215 15.6011 27.4215 15.7259V16.9272C27.4215 17.0519 27.4278 17.1442 27.4419 17.205C27.4552 17.2658 27.4913 17.3163 27.5501 17.3565C27.609 17.3968 27.6819 17.4213 27.7706 17.4299C27.8592 17.4386 27.9941 17.4426 28.1745 17.4426C28.522 17.4426 28.7346 17.4276 28.8115 17.3968C28.8884 17.3668 28.9268 17.2776 28.9268 17.1292V16.9169H28.2043L28.2051 16.9129Z" fill="#F3F6FF"/>
<path d="M32.7509 18.2153L32.5352 17.5594H31.2409L31.0251 18.2153H30.007L31.3115 14.429H32.4653L33.7698 18.2153H32.7509ZM31.4919 16.8017H32.2841L31.888 15.6106L31.4919 16.8017Z" fill="#F3F6FF"/>
<path d="M37.1303 15.2365L35.1685 17.407H37.1303V18.2145H34.0201V17.407L35.9168 15.2365H34.1205V14.429H37.1303V15.2365Z" fill="#F3F6FF"/>
<path d="M40.1512 18.2153L39.9354 17.5594H38.6411L38.4254 18.2153H37.4072L38.7117 14.429H39.8656L41.1701 18.2153H40.1512ZM38.8914 16.8017H39.6836L39.2875 15.6106L38.8914 16.8017Z" fill="#F3F6FF"/>
<path d="M45.057 18.2153V16.0392L44.2043 18.2153H43.3014L42.4487 16.0392V18.2153H41.4957V14.429H42.7649L43.7532 17.014L44.7416 14.429H46.0108V18.2153H45.057Z" fill="#F3F6FF"/>
<path d="M46.5121 16.9224V15.7211C46.5121 15.3541 46.5615 15.0771 46.6603 14.8884C46.7592 14.6998 46.9278 14.5664 47.1671 14.4875C47.4063 14.4085 47.757 14.3691 48.2182 14.3691C48.6794 14.3691 49.0301 14.4085 49.2693 14.4875C49.5086 14.5664 49.6772 14.7006 49.7761 14.8884C49.8749 15.0771 49.9243 15.3549 49.9243 15.7211V16.9224C49.9243 17.2894 49.8749 17.5673 49.7761 17.7551C49.6772 17.9438 49.5086 18.0772 49.2693 18.1561C49.0301 18.235 48.6802 18.2745 48.2182 18.2745C47.7562 18.2745 47.4063 18.235 47.1671 18.1561C46.9278 18.0772 46.7592 17.943 46.6603 17.7551C46.5615 17.5665 46.5121 17.2894 46.5121 16.9224ZM47.4651 16.9224C47.4651 17.0471 47.4714 17.1395 47.4855 17.2002C47.4989 17.261 47.535 17.3115 47.5938 17.3518C47.6526 17.392 47.7256 17.4165 47.8142 17.4252C47.9029 17.4339 48.0378 17.4378 48.2182 17.4378C48.3986 17.4378 48.5335 17.4339 48.6222 17.4252C48.7108 17.4165 48.7846 17.392 48.8426 17.3518C48.9014 17.3115 48.9367 17.261 48.9509 17.2002C48.9642 17.1395 48.9712 17.0471 48.9712 16.9224V15.7211C48.9712 15.5964 48.9642 15.5041 48.9509 15.4433C48.9375 15.3825 48.9014 15.332 48.8426 15.2917C48.7838 15.2515 48.71 15.227 48.6222 15.2183C48.5335 15.2097 48.3986 15.2057 48.2182 15.2057C48.0378 15.2057 47.9029 15.2097 47.8142 15.2183C47.7256 15.227 47.6518 15.2515 47.5938 15.2917C47.535 15.332 47.4989 15.3825 47.4855 15.4433C47.4722 15.5041 47.4651 15.5964 47.4651 15.7211V16.9224Z" fill="#F3F6FF"/>
<path d="M51.3739 15.4938C51.3739 15.5814 51.4226 15.6524 51.5191 15.7085C51.6163 15.7637 51.7913 15.8253 52.0462 15.8924L53.0848 16.1805C53.5696 16.3186 53.8119 16.647 53.8119 17.1647C53.8119 17.6123 53.6904 17.909 53.448 18.0558C53.2056 18.2019 52.7514 18.2753 52.0862 18.2753C51.421 18.2753 50.959 18.1877 50.7213 18.0124C50.4836 17.8372 50.362 17.4994 50.355 16.9982H51.3081C51.3112 17.19 51.359 17.3108 51.4508 17.3613C51.5426 17.4118 51.7544 17.437 52.0854 17.437C52.3027 17.437 52.469 17.4228 52.5843 17.3944C52.6996 17.366 52.771 17.3336 52.7977 17.2981C52.8244 17.2626 52.8377 17.2129 52.8377 17.1489C52.8377 17.0582 52.7898 16.9856 52.6949 16.9319C52.5992 16.8782 52.4235 16.8159 52.1654 16.7448L51.1323 16.4567C50.8813 16.3896 50.6978 16.2815 50.5801 16.1339C50.4632 15.9855 50.4044 15.7843 50.4044 15.5285C50.4044 15.0778 50.5236 14.7716 50.7629 14.6098C51.0021 14.448 51.4406 14.3675 52.0799 14.3675C52.7192 14.3675 53.1907 14.4551 53.4346 14.6303C53.6786 14.8055 53.8041 15.1434 53.8112 15.6453H52.8581C52.8549 15.4567 52.8032 15.3367 52.7028 15.2846C52.6024 15.2325 52.3953 15.2065 52.0807 15.2065C51.8768 15.2065 51.7207 15.2199 51.6116 15.2468C51.5026 15.2736 51.4359 15.3059 51.4108 15.3423C51.3857 15.3794 51.3732 15.4299 51.3732 15.4938H51.3739Z" fill="#F3F6FF"/>
<path d="M55.1415 18.2153V15.2373H54.063V14.4298H57.1732V15.2373H56.0946V18.2153H55.1415Z" fill="#F3F6FF"/>
<path d="M59.441 18.2153L59.2253 17.5594H57.931L57.7153 18.2153H56.6971L58.0016 14.429H59.1555L60.46 18.2153H59.441ZM58.1812 16.8017H58.9735L58.5773 15.6106L58.1812 16.8017Z" fill="#F3F6FF"/>
<path d="M26.4519 22.79V19.2698H27.9541C28.2342 19.2698 28.4397 19.3329 28.5722 19.46C28.704 19.5871 28.7707 19.7568 28.7707 19.9691V20.917C28.7707 21.142 28.7032 21.3148 28.5675 21.4356C28.4326 21.5564 28.2436 21.6163 28.0004 21.6163H26.9179V22.79H26.4511H26.4519ZM26.9187 21.1941H27.9776C28.0804 21.1941 28.1604 21.168 28.2177 21.1167C28.2749 21.0654 28.304 21.0046 28.304 20.936V19.9501C28.304 19.7781 28.1949 19.692 27.9776 19.692H26.9187V21.1941Z" fill="#F3F6FF"/>
<path d="M31.5225 22.79H31.1028V21.0765C31.1028 20.9573 31.0997 20.8712 31.0934 20.8184C31.0871 20.7655 31.0675 20.7126 31.0353 20.6613C31.0024 20.61 30.9514 20.576 30.8816 20.5603C30.8118 20.5445 30.7145 20.5366 30.5898 20.5366H29.6571V22.7892H29.2374V19.269H29.6571V20.1372H30.6321C30.8188 20.1372 30.9742 20.1601 31.0989 20.2051C31.2236 20.2509 31.3138 20.3187 31.3719 20.4095C31.4291 20.5003 31.4691 20.5942 31.4911 20.6913C31.5131 20.7884 31.524 20.9076 31.524 21.048V22.7892L31.5225 22.79Z" fill="#F3F6FF"/>
<path d="M31.9421 21.8705V21.0394C31.9421 20.6605 32.0261 20.4079 32.1939 20.2816C32.3618 20.1546 32.6607 20.0914 33.0897 20.0914C33.5188 20.0914 33.8106 20.1546 33.9738 20.2816C34.137 20.4087 34.2185 20.6613 34.2185 21.0394V21.8705C34.2185 22.2493 34.137 22.5019 33.9738 22.6282C33.8106 22.7553 33.5157 22.8184 33.0897 22.8184C32.6638 22.8184 32.3618 22.7553 32.1939 22.6282C32.0261 22.5011 31.9421 22.2486 31.9421 21.8705ZM32.3626 21.9028C32.3626 22.131 32.4104 22.2746 32.5069 22.3322C32.6034 22.3898 32.8011 22.419 33.0992 22.419C33.3972 22.419 33.5777 22.3906 33.6663 22.3346C33.7549 22.2786 33.7989 22.1341 33.7989 21.9028V20.9644C33.7989 20.7544 33.7549 20.6234 33.6663 20.5697C33.5777 20.5169 33.3886 20.49 33.0992 20.49C32.8097 20.49 32.6073 20.5169 32.5093 20.5697C32.4112 20.6226 32.3626 20.7544 32.3626 20.9644V21.9028Z" fill="#F3F6FF"/>
<path d="M35.618 20.138V20.5366H35.1049V22.0757C35.1049 22.2857 35.2108 22.3898 35.4218 22.3898H35.8651V22.7884H35.3889C34.919 22.7884 34.6845 22.5509 34.6845 22.0749V19.2682H35.1042V20.1364H35.6172L35.618 20.138Z" fill="#F3F6FF"/>
<path d="M36.0988 21.8705V21.0394C36.0988 20.6605 36.1827 20.4079 36.3506 20.2816C36.5185 20.1546 36.8173 20.0914 37.2464 20.0914C37.6755 20.0914 37.9673 20.1546 38.1305 20.2816C38.2936 20.4087 38.3752 20.6613 38.3752 21.0394V21.8705C38.3752 22.2493 38.2936 22.5019 38.1305 22.6282C37.9673 22.7553 37.6724 22.8184 37.2464 22.8184C36.8205 22.8184 36.5185 22.7553 36.3506 22.6282C36.1827 22.5011 36.0988 22.2486 36.0988 21.8705ZM36.5185 21.9028C36.5185 22.131 36.5663 22.2746 36.6628 22.3322C36.7593 22.3898 36.957 22.419 37.2551 22.419C37.5531 22.419 37.7336 22.3906 37.8222 22.3346C37.9108 22.2786 37.9548 22.1341 37.9548 21.9028V20.9644C37.9548 20.7544 37.9108 20.6234 37.8222 20.5697C37.7336 20.5169 37.5445 20.49 37.2551 20.49C36.9656 20.49 36.7632 20.5169 36.6652 20.5697C36.5671 20.6226 36.5185 20.7544 36.5185 20.9644V21.9028Z" fill="#F3F6FF"/>
<path d="M38.7949 23.2502H39.2146C39.2146 23.4065 39.2546 23.5043 39.3361 23.5438C39.4169 23.5833 39.6162 23.6022 39.9331 23.6022C40.2131 23.6022 40.403 23.5714 40.5018 23.5106C40.6014 23.4499 40.6508 23.3031 40.6508 23.0718V22.79H39.6899C39.5001 22.79 39.344 22.7671 39.2208 22.7221C39.0977 22.6771 39.0067 22.6085 38.9478 22.5177C38.889 22.4269 38.8482 22.333 38.8263 22.2359C38.8043 22.1388 38.7933 22.0197 38.7933 21.8792V21.048C38.7933 20.9076 38.8043 20.7884 38.8263 20.6913C38.8482 20.5942 38.8882 20.5003 38.9478 20.4095C39.0067 20.3187 39.0977 20.2509 39.2208 20.2051C39.344 20.1601 39.5001 20.1372 39.6899 20.1372H41.0705V23.0615C41.0705 23.4341 40.9826 23.6835 40.8069 23.8098C40.6312 23.9369 40.3394 24 39.9323 24C39.6185 24 39.3761 23.97 39.2067 23.9108C39.0373 23.8516 38.9259 23.7711 38.8733 23.6693C38.8208 23.5675 38.7941 23.4278 38.7941 23.2494L38.7949 23.2502ZM40.6516 22.3914V20.5374H39.7284C39.6036 20.5374 39.5071 20.5453 39.4365 20.5611C39.3659 20.5768 39.315 20.61 39.2828 20.6621C39.2499 20.7134 39.231 20.7663 39.2248 20.8192C39.2185 20.872 39.2153 20.9581 39.2153 21.0773V21.8468C39.2153 21.966 39.2185 22.052 39.2248 22.1049C39.231 22.1578 39.2506 22.2115 39.2828 22.2643C39.3157 22.3172 39.3667 22.352 39.4365 22.3677C39.5064 22.3835 39.6036 22.3914 39.7284 22.3914H40.6516Z" fill="#F3F6FF"/>
<path d="M41.9577 21.1191V22.79H41.538V20.138H41.9577V20.4569C42.073 20.2438 42.2393 20.138 42.4566 20.138H42.881V20.5366H42.4189C42.2848 20.5366 42.175 20.5832 42.0879 20.6771C42.0008 20.771 41.9569 20.9178 41.9569 21.1183L41.9577 21.1191Z" fill="#F3F6FF"/>
<path d="M43.674 20.8239H43.2543C43.2669 20.5421 43.3563 20.3503 43.5226 20.2485C43.6889 20.1467 43.976 20.0962 44.3831 20.0962C44.7903 20.0962 45.1072 20.1593 45.2766 20.2864C45.446 20.4135 45.5308 20.666 45.5308 21.0441V22.79H44.0937C43.7297 22.79 43.4756 22.7269 43.3312 22.5998C43.1869 22.4727 43.1139 22.2707 43.1139 21.992C43.1139 21.7292 43.1869 21.5311 43.3328 21.3985C43.4787 21.2659 43.7125 21.1988 44.0325 21.1988H45.1103V21.011C45.1103 20.7828 45.0617 20.6392 44.966 20.5816C44.8695 20.524 44.6718 20.4948 44.3737 20.4948C44.0937 20.4948 43.9078 20.5137 43.816 20.5508C43.7242 20.5887 43.6772 20.6794 43.674 20.8231V20.8239ZM45.1111 22.3914V21.5982H44.0898C43.8748 21.5982 43.7297 21.6242 43.6536 21.6755C43.5775 21.7268 43.5391 21.8342 43.5391 21.9968C43.5391 22.1594 43.5767 22.2738 43.6513 22.3204C43.7258 22.367 43.878 22.3906 44.1086 22.3906H45.1119L45.1111 22.3914Z" fill="#F3F6FF"/>
<path d="M45.9975 20.138H47.3922C47.5789 20.138 47.7342 20.1609 47.8589 20.2059C47.9837 20.2517 48.0739 20.3195 48.1319 20.4103C48.1892 20.5011 48.2292 20.595 48.2511 20.6921C48.2731 20.7892 48.2841 20.9083 48.2841 21.0488V21.88C48.2841 22.0205 48.2731 22.1396 48.2511 22.2367C48.2292 22.3338 48.19 22.4277 48.1319 22.5185C48.0746 22.6093 47.9837 22.6771 47.8589 22.7229C47.7342 22.7687 47.5789 22.7908 47.3922 22.7908H46.4172V23.9645H45.9975V20.138ZM46.4172 22.3914H47.3498C47.4746 22.3914 47.571 22.3835 47.6416 22.3677C47.7122 22.352 47.7632 22.318 47.7954 22.2643C47.8283 22.2115 47.8472 22.1586 47.8534 22.1073C47.8597 22.056 47.8629 21.9707 47.8629 21.8515V21.082C47.8629 20.9628 47.8597 20.8768 47.8534 20.8239C47.8472 20.771 47.8276 20.7173 47.7954 20.6645C47.7624 20.6116 47.7115 20.5768 47.6416 20.5611C47.5718 20.5453 47.4746 20.5374 47.3498 20.5374H46.4172V22.3914Z" fill="#F3F6FF"/>
<path d="M51.0351 22.79H50.6154V21.0765C50.6154 20.9573 50.6123 20.8712 50.606 20.8184C50.5997 20.7655 50.5801 20.7126 50.5479 20.6613C50.515 20.61 50.464 20.576 50.3942 20.5603C50.3244 20.5445 50.2271 20.5366 50.1024 20.5366H49.1697V22.7892H48.75V19.269H49.1697V20.1372H50.1448C50.3314 20.1372 50.4868 20.1601 50.6115 20.2051C50.7362 20.2509 50.8264 20.3187 50.8845 20.4095C50.9417 20.5003 50.9817 20.5942 51.0037 20.6913C51.0257 20.7884 51.0366 20.9076 51.0366 21.048V22.7892L51.0351 22.79Z" fill="#F3F6FF"/>
<path d="M53.3115 22.0907H53.7311C53.7186 22.3725 53.6292 22.5643 53.4629 22.6653C53.2966 22.7671 53.0095 22.8176 52.6024 22.8176C52.1733 22.8176 51.8744 22.7545 51.7065 22.6274C51.5387 22.5003 51.4547 22.2478 51.4547 21.8697V21.0386C51.4547 20.6597 51.5387 20.4071 51.7065 20.2809C51.8744 20.1538 52.1733 20.0906 52.6024 20.0906C53.0314 20.0906 53.3232 20.1538 53.4864 20.2809C53.6496 20.4079 53.7311 20.6605 53.7311 21.0386V21.5406H51.8744V21.9021C51.8744 22.1302 51.9223 22.2738 52.0187 22.3314C52.1152 22.3891 52.3129 22.4183 52.611 22.4183C52.8879 22.4183 53.073 22.3985 53.1664 22.3599C53.2597 22.3204 53.3076 22.2312 53.3107 22.0899L53.3115 22.0907ZM51.8744 21.1893H53.3115V20.9644C53.3115 20.7544 53.2676 20.6234 53.1789 20.5697C53.0903 20.5169 52.9012 20.49 52.6118 20.49C52.3223 20.49 52.1199 20.5169 52.0219 20.5697C51.9238 20.6226 51.8752 20.7544 51.8752 20.9644V21.1893H51.8744Z" fill="#F3F6FF"/>
<path d="M22.4459 1.74118C22.7118 1.74118 22.9205 1.65751 23.0726 1.49097C23.2256 1.32364 23.3017 1.11685 23.3017 0.870589C23.3017 0.62433 23.2256 0.415168 23.0726 0.249416C22.9205 0.0828757 22.711 0 22.4459 0C22.1807 0 21.9736 0.0828757 21.8199 0.249416C21.6662 0.415957 21.5901 0.622751 21.5901 0.870589C21.5901 1.11843 21.6669 1.32364 21.8199 1.49097C21.9729 1.65751 22.1815 1.74118 22.4459 1.74118ZM21.9085 0.322031C22.0395 0.177591 22.2192 0.104976 22.4467 0.104976C22.6741 0.104976 22.8538 0.177591 22.9863 0.322031C23.1181 0.466472 23.184 0.649587 23.184 0.870589C23.184 1.09159 23.1181 1.27234 22.9863 1.41678C22.8546 1.56122 22.6749 1.63383 22.4467 1.63383C22.2184 1.63383 22.0395 1.56122 21.9085 1.41678C21.7775 1.27234 21.7117 1.09001 21.7117 0.870589C21.7117 0.651166 21.7768 0.466472 21.9085 0.322031Z" fill="#F3F6FF"/>
<path d="M22.2427 0.970829H22.4396L22.7361 1.31417H22.8593V1.29523L22.5745 0.970829C22.66 0.959779 22.7259 0.923472 22.773 0.861907C22.8193 0.801131 22.8412 0.73562 22.8381 0.667741C22.835 0.599073 22.8059 0.537508 22.7526 0.483047C22.6985 0.428585 22.6263 0.40096 22.5345 0.40096H22.1313V1.31417H22.2427V0.970829ZM22.2427 0.510672H22.5345C22.5832 0.510672 22.6239 0.523301 22.6569 0.547769C22.689 0.572237 22.7094 0.60223 22.7173 0.636959C22.7251 0.671687 22.7251 0.707206 22.7165 0.742724C22.7079 0.778242 22.6867 0.809024 22.6522 0.833492C22.6185 0.85796 22.5769 0.870589 22.5275 0.870589H22.2427V0.510672Z" fill="#F3F6FF"/>
<path d="M0.820013 3.71678L6.60987 5.48637C6.78871 5.54083 6.96992 5.40665 6.96992 5.21801V0.670898C6.96992 0.482258 7.15033 0.348078 7.32997 0.402539L21.9336 4.8652C22.0513 4.90071 22.1313 5.01043 22.1313 5.13355V9.85036C22.1313 10.039 21.9509 10.1732 21.7713 10.1187L7.32918 5.70579C7.15033 5.65133 6.96913 5.78551 6.96913 5.97415V17.2484C6.96913 17.4031 7.09386 17.5286 7.2476 17.5286H14.9005C15.0275 17.5286 15.0542 17.3478 14.9326 17.3107L11.507 16.2634C11.3894 16.2278 11.3094 16.1181 11.3094 15.995V11.2774C11.3094 11.0888 11.4898 10.9546 11.6694 11.009L21.9329 14.1457C22.0505 14.1812 22.1305 14.2909 22.1305 14.414V22.5509C22.1305 22.7056 22.0058 22.8311 21.8521 22.8311H7.2476C7.09386 22.8311 6.96913 22.7056 6.96913 22.5509V17.9059C6.96913 17.718 6.78871 17.5831 6.60987 17.6375L0.819228 19.4055C0.640379 19.46 0.459961 19.325 0.459961 19.1372V3.98513C0.459961 3.79649 0.640379 3.66231 0.820013 3.71678Z" fill="#F3F6FF"/>
</svg>
