<svg width="57" height="24" viewBox="0 0 57 24" fill="none" xmlns="http://www.w3.org/2000/svg">
<path d="M22.7335 13.789C22.6234 13.9741 22.2891 14.1851 22.1239 14.1851C21.846 14.1851 21.5681 13.9469 21.5681 13.0228V8.31955C21.5681 6.12708 20.29 5.17582 18.2645 5.17582C15.7384 5.17582 13.6065 6.33683 13.6065 7.71005C13.6065 8.21221 15.3553 8.5293 15.3553 8.13325C15.3553 6.78593 15.9324 5.73103 17.6824 5.73103C19.2647 5.73103 19.9307 6.65515 19.9307 8.08143V8.37261C19.9307 8.92658 19.6253 8.92658 17.904 9.27081C14.4891 9.9309 13.2397 10.8822 13.2397 12.4405C13.2397 13.8408 14.7106 14.6342 16.3217 14.6342C17.9328 14.6342 19.2923 13.9741 19.9307 12.7847V13.0746C19.9307 14.0518 20.7907 14.6342 21.7621 14.6342C22.2628 14.6342 22.6234 14.3442 22.9288 14L22.7348 13.789H22.7335ZM19.9295 11.4115C19.6516 13.103 17.8477 14.0271 16.7636 14.0271C15.6257 14.0271 14.8759 13.3202 14.8759 12.1838C14.8759 11.0475 15.8197 10.0641 17.9578 9.6681C19.0131 9.48426 19.5952 9.35101 19.9282 9.27205V11.4115H19.9295Z" fill="#F3F6FF"/>
<path d="M19.5652 15.5706C19.2635 15.8013 18.8829 16.0604 18.3547 16.3417C17.9528 16.5564 17.4333 16.8266 16.7523 17.0117C14.5817 17.6002 12.3259 17.0203 11.0178 15.1782C9.49181 13.0302 9.02238 9.70016 6.12317 8.85007C5.92914 8.79331 5.72134 8.75383 5.72134 8.75383C5.18181 8.64649 4.67482 8.65636 4.36813 8.65636C4.36813 8.56012 4.37188 8.4096 4.37313 8.32694C4.78999 8.32694 6.25712 8.3257 6.67397 8.3257C10.0877 8.3257 11.5999 6.61689 11.5999 4.32818C11.5999 2.03948 10.0877 0.330658 6.67397 0.330658H3.54944V13.0129C3.54944 13.1931 3.56571 13.4238 3.63081 13.6557C3.75223 13.9728 4.05267 14.2541 4.79249 14.2541V14.5848H0.666504V14.2541C1.89454 14.2541 1.91081 13.483 1.91081 13.0487V1.57187C1.91081 1.55583 1.91081 1.53855 1.91081 1.52251C1.9033 1.34484 1.85448 1.14374 1.75558 0.958665C1.75558 0.956198 1.75308 0.953729 1.75183 0.950028C1.58659 0.645279 1.2874 0.382478 0.814218 0.338061C0.792937 0.335593 0.770405 0.33436 0.749124 0.333126C0.722836 0.331893 0.695296 0.330658 0.666504 0.330658V0H6.84171C11.9604 0 13.2385 2.50832 13.2385 4.32818C13.2385 4.63663 13.1897 4.98826 13.0758 5.35224C12.9043 5.90745 12.5876 6.49597 12.0756 7.0154C11.2118 7.89264 9.7935 8.5737 7.5903 8.5737C7.5903 8.5737 7.58529 8.57493 7.57403 8.57493C7.56902 8.57493 7.56526 8.57493 7.55901 8.57493C7.52395 8.57863 7.46011 8.58233 7.38751 8.58233C7.50893 8.58233 7.69671 8.69954 7.80812 8.7489C7.94957 8.81059 8.08727 8.87721 8.22372 8.95001C9.55816 9.65697 10.4657 10.8056 11.0979 12.1382C11.521 13.029 11.8991 13.9592 12.5512 14.7032C13.7079 16.0209 15.3491 16.3368 17.0365 16.1406C17.4233 16.0962 17.8151 16.0579 18.1907 15.9531C18.4385 15.884 18.6776 15.7853 18.9105 15.6779C18.9355 15.6668 19.0807 15.6039 19.2472 15.5299C19.3111 15.5015 19.3824 15.4707 19.4412 15.4447C19.4826 15.4867 19.5226 15.5286 19.5639 15.5706" fill="#F3F6FF"/>
<path d="M39.4453 12.0456C38.8018 12.9438 37.2746 14.0012 35.8801 14.0012C33.8434 14.0012 32.8244 12.4688 32.8244 10.0913V9.61505H38.9884C39.6593 9.61505 39.7933 9.219 39.7933 8.87476C39.7933 7.15731 38.6404 5.17582 36.3082 5.17582C33.9761 5.17582 31.162 7.0512 31.162 10.4861C31.162 13.1807 33.1186 14.6342 35.263 14.6342C37.4073 14.6342 39.1236 13.2868 39.7933 12.4145C39.9009 12.2825 39.5792 11.8606 39.4453 12.0444M35.8263 5.73227C37.4349 5.73227 38.0508 7.31647 38.0508 8.92905C38.0508 9.22023 37.8642 9.27328 37.5688 9.27328H32.8782C33.1198 7.37076 34.2452 5.7335 35.8263 5.7335" fill="#F3F6FF"/>
<path d="M56.296 12.0456C55.6525 12.9438 54.1253 14.0012 52.7308 14.0012C50.6941 14.0012 49.6751 12.4688 49.6751 10.0913V9.61505H55.8391C56.5088 9.61505 56.644 9.219 56.644 8.87476C56.644 7.15731 55.4911 5.17582 53.1589 5.17582C50.8268 5.17582 48.0127 7.0512 48.0127 10.4861C48.0127 13.1807 49.9705 14.6342 52.1149 14.6342C54.2593 14.6342 55.9743 13.2868 56.6452 12.4145C56.7516 12.2825 56.4312 11.8606 56.2972 12.0444M52.677 5.73227C54.2856 5.73227 55.0066 7.32387 55.0066 8.93522C55.0066 9.2264 54.7149 9.27205 54.4195 9.27205H49.7289C49.9705 7.36952 51.0959 5.73227 52.677 5.73227Z" fill="#F3F6FF"/>
<path d="M31.182 4.7514C30.7326 4.81926 30.2907 4.88219 29.8551 4.93771C29.8551 4.94881 29.8589 5.10057 29.8589 5.11044C29.8589 5.17583 29.8614 5.23999 29.8626 5.28194C29.8626 5.28194 31.0944 5.33252 30.5887 6.48489L27.7045 13.0611C26.8195 11.0265 25.9357 8.99322 25.0506 6.95867C25.0506 6.95867 24.411 5.64591 25.5977 5.64591C25.5977 5.55708 25.5939 5.30168 25.5914 5.30168C24.9593 5.31402 24.3183 5.34733 23.6661 5.35103C23.2067 5.35226 22.7536 5.35103 22.3042 5.34733C22.1189 5.34609 21.9361 5.34363 21.7534 5.3424V5.68416C21.9324 5.68416 22.3617 5.82111 22.6209 6.00988C22.6634 6.04073 22.7047 6.07281 22.7448 6.10488C23.0252 6.33437 23.243 6.60334 23.3832 6.94264C23.6448 7.57558 23.919 8.20358 24.1969 8.82912C24.5562 9.63849 24.9154 10.4491 25.2747 11.2597C25.619 12.0333 25.962 12.8081 26.3062 13.583C26.4602 13.9284 26.6129 14.2739 26.7669 14.6194H27.4103L30.7764 6.95991C31.5413 5.16473 32.2686 4.92537 32.9596 4.80199V4.45159C32.3838 4.5577 31.7904 4.65763 31.182 4.75017" fill="#F3F6FF"/>
<path d="M47.6196 14.3097V14.6416H40.2164V14.3097C40.319 14.3097 40.4129 14.2998 40.5018 14.2801C40.7922 14.2184 41.0113 14.0605 41.1678 13.868C41.1678 13.868 41.169 13.8668 41.1715 13.8643C41.3731 13.6422 41.4507 13.372 41.4582 13.1191C41.4594 13.1018 41.4594 13.0858 41.4594 13.0697V3.70763C41.4594 3.17833 41.4357 2.90319 40.3967 2.8489V2.49727C40.6721 2.41337 41.0601 2.27519 41.4594 2.12713C42.1868 1.85816 42.9454 1.55711 43.0968 1.49172L43.0981 13.1178C43.1068 13.3708 43.1845 13.6422 43.386 13.8631C43.3872 13.8655 43.3885 13.8655 43.3897 13.8668C43.5187 14.0272 43.6927 14.1629 43.9155 14.2394C44.1383 14.1629 44.3136 14.0272 44.4425 13.8668C44.4438 13.8655 44.445 13.8655 44.4463 13.8631C44.6441 13.6471 44.7217 13.3831 44.7329 13.1364V2.25174C44.7329 2.2394 44.733 2.22953 44.7317 2.21719C44.7317 2.20979 44.7317 2.19869 44.7304 2.19129C44.7167 1.99758 44.6716 1.86309 44.5064 1.77426C44.3536 1.68913 44.0983 1.64348 43.6714 1.62127V1.24373C43.9318 1.16476 44.2936 0.989562 44.6716 0.846441C45.2612 0.588576 45.9447 0.266554 46.3728 0.0444693V13.0673C46.3728 13.0845 46.3728 13.1006 46.3741 13.1166C46.3816 13.3695 46.4592 13.641 46.662 13.8618C46.662 13.8618 46.6632 13.8631 46.6658 13.8655C46.8222 14.058 47.0425 14.2159 47.3317 14.2776C47.4206 14.2974 47.5157 14.3072 47.6171 14.3072" fill="#F3F6FF"/>
<path d="M12.197 23.9999C11.8615 23.9999 11.5748 23.8827 11.337 23.6508C11.0991 23.4163 10.979 23.1326 10.979 22.8019C10.979 22.4712 11.0979 22.1887 11.337 21.9518C11.5761 21.7162 11.8627 21.5977 12.197 21.5977V21.6039C12.5663 21.6039 12.8604 21.7667 13.0595 21.9543L12.7152 22.2936C12.57 22.1529 12.3985 22.0826 12.1982 22.0826C11.9979 22.0826 11.8239 22.1529 11.6825 22.2936C11.5398 22.4367 11.4684 22.607 11.4684 22.8031C11.4684 22.9993 11.5398 23.172 11.6825 23.3127C11.8252 23.4521 11.9967 23.5224 12.1982 23.5224C12.3998 23.5224 12.5738 23.4521 12.7165 23.3115L13.0607 23.6508C12.8642 23.8432 12.5713 23.9999 12.197 23.9999Z" fill="#F3F6FF"/>
<path d="M17.3945 21.9518C17.6336 22.1875 17.7538 22.4712 17.7538 22.8019C17.7538 23.1326 17.6336 23.4163 17.3945 23.6508C17.1567 23.8839 16.8688 23.9999 16.5333 23.9999C16.1965 23.9999 15.9099 23.8827 15.672 23.6508C15.4342 23.4163 15.3153 23.1326 15.3153 22.8019C15.3153 22.4712 15.4342 22.1887 15.672 21.9518C15.9111 21.7162 16.199 21.5977 16.5333 21.5977C16.8675 21.5977 17.1554 21.7162 17.3945 21.9518ZM16.0175 22.2886C15.8748 22.4318 15.8035 22.602 15.8035 22.7982C15.8035 22.9944 15.8748 23.1671 16.0175 23.3078C16.159 23.4484 16.3317 23.5175 16.5345 23.5175C16.7373 23.5175 16.9063 23.4472 17.0503 23.3078C17.1942 23.1683 17.2668 22.9981 17.2668 22.7982C17.2668 22.5983 17.1955 22.4305 17.0503 22.2886C16.9076 22.148 16.7361 22.0777 16.5345 22.0777C16.333 22.0777 16.159 22.148 16.0175 22.2886Z" fill="#F3F6FF"/>
<path d="M20.9472 23.5176C21.0799 23.5176 21.2276 23.409 21.2276 23.277C21.2276 23.0611 20.9334 23.0302 20.7669 22.9735C20.474 22.8748 20.2161 22.6379 20.2161 22.3159C20.2161 21.9173 20.5441 21.5953 20.9497 21.5953C21.319 21.5953 21.6244 21.8655 21.6745 22.2159L21.195 22.3159C21.195 22.1863 21.0849 22.0765 20.9522 22.0765C20.8195 22.0765 20.7081 22.1851 20.7081 22.3171C20.7081 22.5305 20.9822 22.5873 21.1487 22.6354C21.4517 22.7218 21.7196 22.9488 21.7196 23.2782C21.7196 23.6767 21.3565 24 20.9522 24C20.5804 24 20.2449 23.731 20.1898 23.3794L20.6693 23.2782C20.6693 23.4102 20.8145 23.5176 20.9509 23.5176L20.9484 23.5151L20.9472 23.5176Z" fill="#F3F6FF"/>
<path d="M25.4224 23.151L26.5979 21.5607V23.9839H26.1159V23.003L25.4224 23.9456L24.7289 23.003V23.9839H24.2457V21.5607L25.4224 23.151Z" fill="#F3F6FF"/>
<path d="M30.6625 21.6113V22.0851H29.6974V22.5626H30.4209V23.0364H29.6974V23.5138H30.6625V23.9864H29.2154V21.6113H30.6625Z" fill="#F3F6FF"/>
<path d="M34.766 21.6162V22.0875H34.1764V23.9827H33.6919V22.0875H33.1011V21.6162H34.766Z" fill="#F3F6FF"/>
<path d="M37.7754 21.6162H37.2934V23.9827H37.7754V21.6162Z" fill="#F3F6FF"/>
<path d="M41.5208 23.9999C41.1853 23.9999 40.8986 23.8827 40.6608 23.6508C40.4229 23.4163 40.3028 23.1326 40.3028 22.8019C40.3028 22.4712 40.4217 22.1887 40.6608 21.9518C40.8999 21.7162 41.1866 21.5977 41.5208 21.5977V21.6039C41.8901 21.6039 42.1842 21.7667 42.3833 21.9543L42.039 22.2936C41.8938 22.1529 41.7223 22.0826 41.522 22.0826C41.3217 22.0826 41.1477 22.1529 41.0063 22.2936C40.8636 22.4367 40.7922 22.607 40.7922 22.8031C40.7922 22.9993 40.8636 23.172 41.0063 23.3127C41.149 23.4521 41.3205 23.5224 41.522 23.5224C41.7236 23.5224 41.8976 23.4521 42.0403 23.3115L42.3845 23.6508C42.188 23.8432 41.8951 23.9999 41.5208 23.9999Z" fill="#F3F6FF"/>
<path d="M45.5817 23.5176C45.7144 23.5176 45.8621 23.409 45.8621 23.277C45.8621 23.0611 45.5679 23.0302 45.4014 22.9735C45.1085 22.8748 44.8506 22.6379 44.8506 22.3159C44.8506 21.9173 45.1786 21.5953 45.5842 21.5953C45.9535 21.5953 46.2589 21.8655 46.309 22.2159L45.8295 22.3159C45.8295 22.1863 45.7194 22.0765 45.5867 22.0765C45.454 22.0765 45.3426 22.1851 45.3426 22.3171C45.3426 22.5305 45.6167 22.5873 45.7832 22.6354C46.0862 22.7218 46.3528 22.9488 46.3528 23.2782C46.3528 23.6767 45.9898 24 45.5854 24C45.2136 24 44.8782 23.731 44.8231 23.3794L45.3025 23.2782C45.3025 23.4102 45.4477 23.5176 45.5829 23.5176L45.5804 23.5151L45.5817 23.5176Z" fill="#F3F6FF"/>
</svg>
