<svg width="78" height="24" viewBox="0 0 78 24" fill="none" xmlns="http://www.w3.org/2000/svg">
<path d="M28.7812 10.6658V14.719H26.3011V10.6978L22.1611 3.68001H24.9894L27.5336 8.37916L30.0779 3.68001H32.9062L28.7823 10.6658H28.7812Z" fill="#F3F6FF"/>
<path d="M40.1566 10.6978C40.1566 13.1423 38.4978 14.9236 35.9696 14.9236C33.4414 14.9236 31.7987 13.1412 31.7987 10.6978C31.7987 8.25444 33.4574 6.50292 35.9696 6.50292C38.4818 6.50292 40.1566 8.28535 40.1566 10.6978ZM33.9477 10.6978C33.9477 12.1167 34.7061 13.1423 35.9696 13.1423C37.2332 13.1423 38.0076 12.1178 38.0076 10.6978C38.0076 9.27784 37.2492 8.28535 35.9696 8.28535C34.69 8.28535 33.9477 9.31089 33.9477 10.6978Z" fill="#F3F6FF"/>
<path d="M49.0839 14.719H46.8558V13.347C46.3506 14.4034 45.4651 14.8927 44.3436 14.8927C42.5107 14.8927 41.3102 13.6625 41.3102 11.5027V6.70866H43.5383V11.1552C43.5383 12.2745 44.0755 12.9685 44.9599 12.9685C46.0814 12.9685 46.8558 12.1956 46.8558 10.7767V6.70866H49.0839V14.72V14.719Z" fill="#F3F6FF"/>
<path d="M53.6651 8.44312V11.7394C53.6651 12.5591 54.1542 13.0005 54.9607 13.0005C55.2929 13.0005 55.703 12.9536 56.2723 12.654V14.5303C55.7671 14.7978 55.1348 14.8767 54.6135 14.8767C52.7016 14.8767 51.438 13.7574 51.438 12.0538V8.44312H50.0004V6.70866H50.0324C50.9958 6.70866 51.4391 6.31422 51.4391 5.38356V4.31111H53.6672V6.70759H56.4325V8.44206H53.6672L53.6651 8.44312Z" fill="#F3F6FF"/>
<path d="M60.9015 14.9236C58.4053 14.9236 56.7465 13.1412 56.7465 10.6978C56.7465 8.25444 58.4053 6.50292 60.9015 6.50292C63.0655 6.50292 64.5672 7.74913 64.7883 9.75117H62.5923C62.4342 8.8834 61.866 8.30028 60.8705 8.30028C59.6219 8.30028 58.8956 9.29383 58.8956 10.6968C58.8956 12.0997 59.6229 13.1092 60.8705 13.1092C61.913 13.1092 62.4823 12.4632 62.6404 11.5325H64.8204C64.6463 13.5826 63.1456 14.9226 60.9025 14.9226L60.9015 14.9236Z" fill="#F3F6FF"/>
<path d="M73.7306 9.79914V14.719H71.5025V10.2725C71.5025 9.15311 70.9492 8.45912 70.0808 8.45912C68.9593 8.45912 68.1849 9.232 68.1849 10.6509V14.719H65.9568V3.68001H68.1849V8.19047C68.6901 7.03914 69.6066 6.50291 70.7601 6.50291C72.6721 6.50291 73.7306 7.84294 73.7306 9.79914Z" fill="#F3F6FF"/>
<path d="M75.4363 3.712H77.6665V5.77801H75.4363V3.712ZM75.4363 6.7076H77.6644V14.719H75.4363V6.7076Z" fill="#F3F6FF"/>
<path d="M27.836 21.32H27.2613L26.2744 18.4139H26.9238L27.5593 20.4533L28.1906 18.4139H28.8218L27.8349 21.32H27.836Z" fill="#F3F6FF"/>
<path d="M32.2472 21.4202C31.7997 21.4202 31.4547 21.288 31.2122 21.0236C30.9698 20.7592 30.848 20.3829 30.848 19.8925C30.848 19.4021 30.9698 19.0098 31.2144 18.7327C31.4579 18.4555 31.8029 18.3169 32.2472 18.3169C32.6916 18.3169 33.0344 18.4566 33.2758 18.7348C33.5172 19.013 33.6379 19.4032 33.6379 19.9053C33.6379 20.4074 33.5183 20.7774 33.2801 21.0343C33.0419 21.2912 32.698 21.4191 32.2472 21.4191V21.4202ZM32.2472 20.8999C32.4812 20.8999 32.6713 20.8157 32.8176 20.6484C32.9639 20.481 33.0366 20.2337 33.0366 19.9064C33.0366 19.5791 32.9682 19.3051 32.8326 19.125C32.6969 18.9448 32.5015 18.8563 32.2472 18.8563C31.993 18.8563 31.7922 18.9459 31.6555 19.125C31.5177 19.3041 31.4494 19.5653 31.4494 19.9064C31.4494 20.5684 31.7153 20.8999 32.2472 20.8999Z" fill="#F3F6FF"/>
<path d="M37.1232 21.32H36.5133V20.2219L35.505 18.415H36.2153L36.8295 19.5962L37.3956 18.415H38.0973L37.1243 20.2315V21.321L37.1232 21.32Z" fill="#F3F6FF"/>
<path d="M41.7833 21.32L41.5996 20.7208H40.5251L40.3189 21.32H39.6749L40.7141 18.4139H41.4202L42.4466 21.32H41.7833ZM41.4244 20.2219L41.0602 19.0663H41.0559L40.6832 20.2219H41.4244Z" fill="#F3F6FF"/>
<path d="M47.142 21.32H46.6379L46.6251 21.0311C46.5546 21.1537 46.4424 21.2496 46.2875 21.3178C46.1327 21.3861 45.9543 21.4202 45.7524 21.4202C45.3636 21.4202 45.0464 21.2667 44.8007 20.9586C44.5551 20.6505 44.4322 20.2859 44.4322 19.8627C44.4322 19.4139 44.5583 19.0439 44.8093 18.7529C45.0603 18.4629 45.4128 18.318 45.8656 18.318C46.2138 18.318 46.5076 18.4118 46.7468 18.5983C46.9861 18.7849 47.1164 19.0226 47.1367 19.3115H46.5225C46.5076 19.1772 46.436 19.0621 46.3078 18.9661C46.1797 18.8702 46.0312 18.8222 45.8646 18.8222C45.6157 18.8222 45.4192 18.916 45.2728 19.1026C45.1265 19.2891 45.0539 19.5514 45.0539 19.8904C45.0539 20.0599 45.0806 20.2187 45.1351 20.3669C45.1895 20.5162 45.2793 20.643 45.4042 20.7496C45.5303 20.8562 45.6819 20.9095 45.8603 20.9095C46.059 20.9095 46.2267 20.8445 46.3645 20.7144C46.5022 20.5844 46.5706 20.4277 46.5706 20.2443H45.9265V19.7582H47.141V21.321L47.142 21.32Z" fill="#F3F6FF"/>
<path d="M51.7553 21.32H49.5453V18.4139H51.6848V18.9214H50.1371V19.5429H51.5619V20.0546H50.1371V20.8029H51.7553V21.32Z" fill="#F3F6FF"/>
<path d="M55.719 19.2721C55.6902 18.9778 55.4968 18.8297 55.1401 18.8297C54.7834 18.8297 54.6189 18.9437 54.6189 19.1708C54.6189 19.2646 54.6541 19.3392 54.7246 19.3957C54.7951 19.4522 54.9105 19.5002 55.0707 19.5375C55.4979 19.6399 55.7852 19.7241 55.9348 19.7912C56.0779 19.8552 56.1901 19.9416 56.2702 20.0492C56.3503 20.1569 56.3909 20.3061 56.3909 20.4959C56.3909 20.8051 56.2862 21.0364 56.0768 21.1899C55.8675 21.3434 55.5855 21.4202 55.2288 21.4202C54.872 21.4202 54.5612 21.3381 54.339 21.1728C54.1169 21.0076 54.0026 20.7667 53.9972 20.449H54.5847C54.5879 20.5982 54.6477 20.7155 54.7641 20.8008C54.8805 20.8871 55.0376 20.9298 55.233 20.9298C55.4114 20.9298 55.5503 20.8935 55.6496 20.82C55.7489 20.7475 55.7991 20.6462 55.7991 20.5183C55.7991 20.4277 55.7671 20.3531 55.703 20.2955C55.6389 20.2369 55.5203 20.1889 55.3473 20.1516C54.9585 20.0674 54.6926 19.9927 54.5494 19.9288C54.2247 19.7827 54.0624 19.5439 54.0624 19.2113C54.0624 18.9427 54.1532 18.7273 54.3369 18.5632C54.5195 18.4 54.7834 18.318 55.1283 18.318C55.4734 18.318 55.7703 18.4054 55.9743 18.5802C56.1783 18.755 56.2873 18.9853 56.299 19.2721H55.719Z" fill="#F3F6FF"/>
<path d="M3.24808 7.2065C5.93652 8.79278 9.71336 9.44734 11.5719 12.1274C11.6349 12.218 11.7107 12.3225 11.7396 12.428C11.7802 12.4237 11.7769 12.3427 11.7759 12.3139C11.7428 11.2021 11.1852 10.4185 10.4172 9.6808C10.366 9.63176 10.1865 9.52836 10.194 9.458C10.7815 8.48363 11.3465 7.45062 12.1145 6.60098C13.0459 5.57118 14.3853 5.15222 15.7546 5.37502C16.0013 5.41553 16.2417 5.4763 16.4756 5.55625C15.3893 2.27602 12.3035 0 8.76808 0C5.29779 0 2.41923 2.14702 1.23149 5.08826C1.54765 6.0445 2.41069 6.71185 3.24808 7.2065Z" fill="#F3F6FF"/>
<path d="M5.52965 17.6922C5.67812 17.3724 5.83833 17.0493 5.95155 16.7167C5.70909 16.641 5.47197 16.5344 5.24019 16.431C3.9905 15.8735 2.71625 15.284 1.75281 14.3768L2.383 17.496C2.63934 18.7668 3.18728 19.916 3.94564 20.8839C4.51174 19.8392 5.03084 18.7636 5.52858 17.6911L5.52965 17.6922Z" fill="#F3F6FF"/>
<path d="M18.3021 14.2925L16.9563 7.63186C16.3101 8.30987 15.8454 9.19576 15.4406 10.0145C14.4077 12.105 13.6302 14.3139 12.498 16.3586C12.0803 17.1122 11.6029 17.8873 11.0122 18.5141C11.0293 18.2892 11.0614 18.061 11.0592 17.835C11.0176 13.622 6.56568 12.54 3.51195 11.0656C2.42248 10.54 1.27426 9.88656 0.72525 8.75228C0.703888 8.70751 0.68573 8.66167 0.666504 8.61583C0.690002 8.97722 0.734863 9.34074 0.809631 9.70746L0.945281 10.3791C3.52797 12.8065 8.95611 12.9877 10.1439 16.7167C10.6961 18.4512 10.036 20.2134 8.70938 21.385C7.88266 22.1152 6.87436 22.5054 5.82121 22.6259C7.12323 23.4979 8.68268 24 10.3425 24C15.4716 24 19.3157 19.3115 18.3021 14.2936V14.2925Z" fill="#F3F6FF"/>
</svg>
