<svg width="76" height="20" viewBox="0 0 76 20" fill="none" xmlns="http://www.w3.org/2000/svg">
<path d="M14.5285 0.000238487V3.62656L10.8753 6.83789V0.000238487H14.5285ZM24.8311 0.000238487C22.7821 0.000238487 20.9185 0.797549 19.5343 2.10591L19.5314 2.10206L9.83301 10.6275L9.75136 10.7092C9.71486 10.7457 9.67643 10.7793 9.63705 10.812L9.49776 10.9234C8.19421 11.934 5.86471 12.5065 4.35367 10.4123C4.23167 10.2433 4.05011 10.0454 3.9406 9.75816C3.80996 9.41619 3.75232 9.04923 3.75232 8.68324V0.000238487H0.0981445V8.11071C0.0981445 12.0857 3.33638 15.324 7.31524 15.324C9.0626 15.324 10.663 14.6996 11.9118 13.6669L12.1971 13.4143L18.6534 7.73799C18.6534 7.73799 22.5794 3.6525 24.8311 3.6525C27.858 3.6525 30.1289 6.9647 28.2067 10.1539C28.1942 10.1751 28.1788 10.1962 28.1625 10.2145C26.2153 12.444 23.3508 12.1856 21.8023 10.4777L19.0953 12.932V19.9993H22.7485V15.1866C23.419 15.3758 24.1202 15.4757 24.8311 15.4757C29.0953 15.4757 32.5698 12.0022 32.5698 7.73703C32.5698 3.4719 29.0953 0.000238487 24.8311 0.000238487Z" fill="#F3F6FF"/>
<path d="M41.7101 0C43.8369 0 45.6544 0.751201 47.1616 2.25456C48.6679 3.75793 49.4219 5.57253 49.4219 7.69933C49.4219 9.82613 48.6688 11.6436 47.1616 13.1508C45.6544 14.658 43.8379 15.4111 41.7101 15.4111C40.1789 15.4111 38.7927 15.0048 37.5526 14.1902L37.5401 20H33.9983L34.0108 7.69933C34.0108 5.58021 34.762 3.76753 36.2654 2.26033C37.7678 0.753122 39.5824 0 41.7101 0ZM41.7101 3.50528C40.5574 3.50528 39.5708 3.91451 38.7485 4.73199C37.9263 5.54947 37.5161 6.53891 37.5161 7.69933C37.5161 8.85975 37.9272 9.85111 38.7485 10.6724C39.5708 11.4947 40.5574 11.9049 41.7101 11.9049C42.8629 11.9049 43.8619 11.4938 44.6832 10.6724C45.5045 9.85111 45.9157 8.85975 45.9157 7.69933C45.9157 6.53891 45.5045 5.54947 44.6832 4.73199C43.8609 3.91451 42.8705 3.50528 41.7101 3.50528Z" fill="#F3F6FF"/>
<path d="M53.1134 13.1354C51.6119 11.6302 50.8617 9.81556 50.8617 7.69068C50.8617 5.5658 51.6119 3.75312 53.1134 2.25168C54.6148 0.75024 56.4275 0 58.5524 0C60.6773 0 62.4919 0.75024 63.9971 2.25168C65.5024 3.75312 66.2546 5.5658 66.2546 7.69068C66.2546 8.39097 66.1624 9.06724 65.977 9.71854H54.8819C55.7512 11.1671 56.9741 11.8915 58.5524 11.8915C59.4131 11.8915 60.1902 11.6542 60.8828 11.1796H65.4217C64.7618 12.4515 63.8262 13.4717 62.6148 14.2402C61.4035 15.0086 60.049 15.3929 58.5524 15.3929C56.4275 15.3929 54.6148 14.6407 53.1134 13.1354ZM58.5524 3.50144C56.7733 3.50144 55.4698 4.39481 54.6408 6.18156H62.4755C61.6465 4.39481 60.3391 3.50144 58.5524 3.50144Z" fill="#F3F6FF"/>
<path d="M75.6667 0V3.50913C75.5783 3.50144 75.49 3.49664 75.4016 3.49664C73.9222 3.49664 72.8569 3.98463 72.2056 4.96158C71.5543 5.93852 71.2287 7.07397 71.2287 8.36791V15.3919H67.6955V8.18732C67.6955 5.96061 68.3949 4.03938 69.7935 2.42363C71.1922 0.807877 73.0615 0 75.4016 0H75.6667Z" fill="#F3F6FF"/>
</svg>
