<svg width="49" height="24" viewBox="0 0 49 24" fill="none" xmlns="http://www.w3.org/2000/svg">
<path d="M0.666504 22.9319V18.9863H2.62771C3.28503 18.9863 3.77699 19.3981 3.77699 19.9694C3.77699 20.3415 3.60005 20.6209 3.30819 20.7929C3.72573 20.9475 4.00023 21.2733 4.00023 21.7818C4.00023 22.502 3.47438 22.9311 2.53676 22.9311H0.666504V22.9319ZM1.73558 20.6102H2.32427C2.53594 20.6102 2.68477 20.4614 2.68477 20.2729C2.68477 20.0843 2.53594 19.9471 2.32427 19.9471H1.73558V20.6102ZM1.73558 21.9711H2.47889C2.7137 21.9711 2.87907 21.8049 2.87907 21.6049C2.87907 21.4048 2.71288 21.2386 2.47889 21.2386H1.73558V21.9703V21.9711Z" fill="#F3F6FF"/>
<path d="M5.39519 19.9749V20.4834C5.53823 20.1287 5.83506 19.9063 6.29891 19.9112V20.9745C5.68127 20.9175 5.44728 21.1349 5.44728 21.6781V22.9299H4.41211V19.9741H5.39519V19.9749Z" fill="#F3F6FF"/>
<path d="M6.29785 21.4452C6.29785 20.5357 6.92706 19.8726 7.67616 19.8726C8.03665 19.8726 8.31694 20.0445 8.51124 20.3182V19.9751H9.51169V22.931H8.51124V22.5763C8.31694 22.8508 8.03665 23.0219 7.67616 23.0219C6.92706 23.0219 6.29785 22.353 6.29785 21.4435V21.4452ZM7.90436 22.057C8.2417 22.057 8.51041 21.7883 8.51041 21.451C8.51041 21.1136 8.2417 20.8449 7.90436 20.8449C7.56702 20.8449 7.30409 21.1194 7.30409 21.451C7.30409 21.7999 7.56702 22.057 7.90436 22.057Z" fill="#F3F6FF"/>
<path d="M11.044 19.9749V20.3751C11.2557 20.0551 11.5641 19.8716 11.913 19.8716C12.4736 19.8716 12.8796 20.2147 12.8796 21.1465V22.9308H11.8444V21.3069C11.8444 20.9464 11.7071 20.7811 11.4674 20.7811C11.2276 20.7811 11.0498 20.958 11.044 21.3301V22.9308H10.0146V19.9749H11.044Z" fill="#F3F6FF"/>
<path d="M15.3034 22.9318V22.5713C15.0975 22.8516 14.7999 23.0227 14.4518 23.0227C13.72 23.0227 13.0908 22.3538 13.0908 21.4443C13.0908 20.5348 13.72 19.8717 14.4518 19.8717C14.8007 19.8717 15.0975 20.0437 15.3034 20.329V18.7563H16.3096V22.9301H15.3034V22.9318ZM14.6973 22.057C15.0347 22.057 15.3034 21.7883 15.3034 21.4509C15.3034 21.1136 15.0347 20.8449 14.6973 20.8449C14.36 20.8449 14.0971 21.1194 14.0971 21.4509C14.0971 21.8056 14.3658 22.057 14.6973 22.057Z" fill="#F3F6FF"/>
<path d="M17.2816 18.6372C17.6131 18.6372 17.8703 18.8886 17.8703 19.2094C17.8703 19.5302 17.6131 19.7923 17.2816 19.7923C16.95 19.7923 16.6929 19.5351 16.6929 19.2094C16.6929 18.8836 16.95 18.6372 17.2816 18.6372ZM16.7673 19.975H17.7967V22.9309H16.7673V19.975Z" fill="#F3F6FF"/>
<path d="M19.3287 19.9749V20.3751C19.5404 20.0551 19.8488 19.8716 20.1977 19.8716C20.7583 19.8716 21.1642 20.2147 21.1642 21.1465V22.9308H20.1291V21.3069C20.1291 20.9464 19.9918 20.7811 19.752 20.7811C19.5123 20.7811 19.3345 20.958 19.3287 21.3301V22.9308H18.2993V19.9749H19.3287Z" fill="#F3F6FF"/>
<path d="M21.4617 22.8854H22.4969C22.5481 23.0508 22.6912 23.1368 22.9086 23.1368C23.246 23.1368 23.4973 22.9482 23.4973 22.3306V22.2736C23.303 22.5654 23.0054 22.7482 22.6564 22.7482C21.9818 22.7482 21.3931 22.1537 21.3931 21.3128C21.3931 20.4719 21.9818 19.8774 22.6564 19.8774C23.0054 19.8774 23.3022 20.066 23.4973 20.3578V19.975H24.5209V22.1991C24.5209 23.5774 23.7437 24 22.9318 24C22.1653 24 21.6056 23.6113 21.4625 22.8854H21.4617ZM22.9533 21.8734C23.2509 21.8734 23.4965 21.6278 23.4965 21.3128C23.4965 20.9978 23.2509 20.7522 22.9533 20.7522C22.6391 20.7522 22.3985 21.0094 22.3985 21.3128C22.3985 21.6162 22.6383 21.8734 22.9533 21.8734Z" fill="#F3F6FF"/>
<path d="M28.4704 19.9174V22.8617H27.3956V19.9174H26.2231V18.917H29.642V19.9174H28.4696H28.4704Z" fill="#F3F6FF"/>
<path d="M29.0649 21.3758C29.0649 20.5126 29.7909 19.8032 30.6946 19.8032C31.5983 19.8032 32.3069 20.5126 32.3069 21.3758C32.3069 22.239 31.5809 22.9542 30.6946 22.9542C29.8082 22.9542 29.0649 22.2506 29.0649 21.3758ZM30.6888 21.9703C31.0146 21.9703 31.2717 21.7247 31.2717 21.3816C31.2717 21.0385 31.0088 20.7929 30.6888 20.7929C30.3688 20.7929 30.1001 21.0559 30.1001 21.3816C30.1001 21.7074 30.3573 21.9703 30.6888 21.9703Z" fill="#F3F6FF"/>
<path d="M36.0235 18.8423C36.9959 18.8423 37.802 19.517 38.0187 20.4314H36.8983C36.7379 20.0767 36.4237 19.8824 36.0235 19.8824C35.4233 19.8824 34.9942 20.3397 34.9942 20.9118C34.9942 21.484 35.4233 21.9412 36.0235 21.9412C36.4237 21.9412 36.7379 21.7469 36.8983 21.3922H38.0187C37.8012 22.3017 36.9951 22.9813 36.0235 22.9813C34.8511 22.9813 33.897 22.0669 33.897 20.9118C33.897 19.7567 34.8519 18.8423 36.0235 18.8423Z" fill="#F3F6FF"/>
<path d="M39.0655 18.7104V20.3054C39.2598 20.0019 39.5798 19.8308 39.9461 19.8308C40.5009 19.8308 40.9928 20.1797 40.9928 21.1975V22.8842H39.9577V21.2777C39.9577 20.8775 39.803 20.7229 39.5459 20.7229C39.2888 20.7229 39.0713 20.8883 39.0655 21.3058V22.8842H38.0361V18.7104H39.0655Z" fill="#F3F6FF"/>
<path d="M41.6898 18.5908C42.0213 18.5908 42.2785 18.8422 42.2785 19.163C42.2785 19.4838 42.0213 19.7459 41.6898 19.7459C41.3582 19.7459 41.1011 19.4887 41.1011 19.163C41.1011 18.8372 41.3582 18.5908 41.6898 18.5908ZM41.1755 19.9286H42.2049V22.8845H41.1755V19.9286Z" fill="#F3F6FF"/>
<path d="M43.4625 19.9281V20.3282C43.6742 20.0083 43.9826 19.8247 44.3315 19.8247C44.8921 19.8247 45.298 20.1678 45.298 21.0997V22.8839H44.2629V21.2601C44.2629 20.8996 44.1256 20.7342 43.8858 20.7342C43.646 20.7342 43.4683 20.9111 43.4625 21.2832V22.8839H42.4331V19.9281H43.4625Z" fill="#F3F6FF"/>
<path d="M45.2456 21.3973C45.2456 20.4878 45.8748 19.8247 46.6239 19.8247C46.9844 19.8247 47.2647 19.9967 47.459 20.2704V19.9272H48.4594V22.8831H47.459V22.5284C47.2647 22.8029 46.9844 22.9741 46.6239 22.9741C45.8748 22.9741 45.2456 22.3052 45.2456 21.3957V21.3973ZM46.8521 22.0092C47.1895 22.0092 47.4582 21.7404 47.4582 21.4031C47.4582 21.0658 47.1895 20.797 46.8521 20.797C46.5148 20.797 46.2518 21.0715 46.2518 21.4031C46.2518 21.752 46.5148 22.0092 46.8521 22.0092Z" fill="#F3F6FF"/>
<path d="M12.4475 16.178H1.29575C0.94863 16.178 0.66748 15.8969 0.66748 15.5498V8.95297C0.66748 8.60586 0.94863 8.32471 1.29575 8.32471H12.4475C14.6158 8.32471 16.3741 10.0831 16.3741 12.2514C16.3741 14.4197 14.6158 16.178 12.4475 16.178Z" fill="#F3F6FF"/>
<path d="M12.4475 8.01055H1.29575C0.94863 8.01055 0.66748 7.7294 0.66748 7.38229V0.785493C0.66748 0.438376 0.94863 0.157227 1.29575 0.157227H12.4475C14.6158 0.157227 16.3741 1.91559 16.3741 4.08389C16.3741 6.25219 14.6158 8.01055 12.4475 8.01055Z" fill="#F3F6FF"/>
<path d="M32.0807 0.786278V12.172C32.0807 14.3168 30.3946 16.1254 28.2506 16.1772C27.1292 16.2039 26.109 15.7594 25.3771 15.0283C24.6671 14.3183 24.2274 13.3359 24.2274 12.2514V8.8006C24.2274 8.53751 24.4402 8.32469 24.7033 8.32469H26.281C26.3682 8.32469 26.4381 8.25479 26.4381 8.16762C26.4381 8.08045 26.3682 8.01055 26.281 8.01055H20.3007C18.1332 8.01055 16.374 6.25298 16.374 4.08389C16.374 2.99935 16.8138 2.01689 17.5238 1.30695C18.2353 0.597013 19.2169 0.157227 20.3007 0.157227H31.4524C31.7995 0.157227 32.0807 0.438376 32.0807 0.785493V0.786278Z" fill="#F3F6FF"/>
<path d="M40.3149 8.51301C40.3149 8.60018 40.3848 8.67007 40.472 8.67007H47.8777C48.1784 8.67007 48.3873 8.91353 48.3489 9.21117C47.8258 13.3145 44.2581 16.4669 39.9827 16.331C35.6508 16.1936 32.1459 12.625 32.0815 8.29154C32.0139 3.72405 35.6964 0 40.2482 0C44.7999 0 48.4156 3.36908 48.4156 7.87924C48.4156 8.14233 48.2028 8.35515 47.9397 8.35515H40.4712C40.384 8.35515 40.3141 8.42505 40.3141 8.51222L40.3149 8.51301Z" fill="#F3F6FF"/>
</svg>
