<svg width="121" height="16" viewBox="0 0 121 16" fill="none" xmlns="http://www.w3.org/2000/svg">
<path d="M4.95281 7.98137V5.68607H9.60372V10.2729H4.95281V7.97764V7.98137ZM0 0H45.9931C71.2884 0 121 0.029809 121 0.029809C120.992 0.0447136 120.549 0.655799 120.014 1.38612L119.04 2.71262H46.188C16.9947 2.71262 2.35794 2.7238 2.35412 2.74616C2.35412 2.76479 2.32736 2.79832 2.30443 2.82441C2.26622 2.86167 2.2624 3.77084 2.27004 8.03726C2.27768 12.5906 2.28533 13.2091 2.33119 13.2389C2.36176 13.2576 4.16556 13.2725 7.04324 13.2725H11.7018L12.1413 13.7084C12.382 13.9469 12.5808 14.1593 12.5808 14.1779C12.5808 14.1966 12.5884 14.2077 12.5999 14.1966C12.6228 14.1742 13.9986 15.5268 13.9986 15.5752C13.9986 15.5939 14.0062 15.605 14.0177 15.5939C14.0368 15.5752 14.2432 15.7653 14.3846 15.9255L14.4495 16H0V0Z" fill="white"/>
<path d="M15.0725 9.97485C15.0725 13.5743 17.2431 15.8882 21.1374 15.8882C22.517 15.8882 23.4227 15.5305 24.0341 15.2771L24.0265 12.8924C23.6329 13.2129 22.4787 13.6414 21.4698 13.6414C19.2686 13.6414 18.1297 12.0987 18.1297 9.79599C18.1297 7.49325 19.5399 6.31952 21.3437 6.31952C22.7615 6.31952 23.4647 6.77038 23.7972 6.99022L24.1832 4.47508C23.4724 4.32976 22.7348 4.00932 21.0991 4.00932C17.7285 4.00932 15.0648 6.0326 15.0648 9.97112L15.0725 9.97485Z" fill="white"/>
<path d="M30.7678 13.7569C29.1092 13.7569 28.3029 12.1733 28.3029 9.97485C28.3029 7.12436 29.4647 6.20028 30.8901 6.20028C32.4608 6.20028 33.1984 7.67583 33.1984 9.85189C33.1984 12.6577 32.2697 13.7569 30.7678 13.7569ZM25.2685 9.89287C25.1997 13.5929 27.2367 15.959 30.7143 15.8919C33.9436 15.8323 36.1601 14.0661 36.2366 9.93759C36.3054 6.24499 34.2914 3.92361 30.9474 4.01677C27.6723 4.10992 25.3488 5.76805 25.2685 9.89287Z" fill="white"/>
<path d="M37.4671 15.7764L40.1919 15.769L40.6582 9.58733L40.8607 6.24127L41.6327 9.67676L43.3524 15.8361H45.9626L47.5447 9.67676L48.2785 6.24127L48.4581 9.58733L49.0008 15.769H51.8364L50.3307 4.13973H46.467L45.1982 10.1053L44.7702 12.8179L44.2352 10.1053L42.8021 4.13973H38.8314L37.4671 15.7764Z" fill="white"/>
<path d="M56.4835 11.5659L57.5306 7.92175L57.9242 6.41639L58.3102 7.92175L59.4032 11.5659H56.4835ZM52.1918 15.769H55.2835L55.9026 13.6004H60.0147L60.6643 15.769H63.7942L59.6592 4.06148H56.2962L52.1918 15.769Z" fill="white"/>
<path d="M64.9866 15.769H67.6579V10.7387L67.2948 7.78388L68.1547 9.53889L71.9725 15.769H74.9419V4.13973H72.2668V9.25943L72.5839 12.2143L71.7661 10.5189L67.7458 4.13973H64.9866V15.769Z" fill="white"/>
<path d="M80.4335 11.5659L81.4807 7.92175L81.8743 6.41639L82.2603 7.92175L83.3533 11.5659H80.4335ZM76.1419 15.769H79.2336L79.8527 13.6004H83.9647L84.6144 15.769H87.7443L83.6093 4.06148H80.2463L76.1419 15.769Z" fill="white"/>
<path d="M88.2564 10.0158C88.2564 13.7233 90.5111 15.8919 94.027 15.8919C96.6983 15.8919 97.4588 15.1504 98.3799 15.1132V9.24453H94.0041V11.3237L95.6856 11.4467V13.4811C95.3073 13.6339 94.8028 13.7271 93.9812 13.7271C92.2156 13.7271 91.2717 12.0689 91.2717 9.81462C91.2717 7.56032 92.4334 6.30089 94.478 6.30089C96.0563 6.30089 97.0499 6.59898 97.669 6.91197L97.7455 4.48253C96.855 4.31486 96.0869 4.02422 94.3595 4.02422C90.9506 4.02422 88.2564 5.71961 88.2564 10.0233V10.0158Z" fill="white"/>
<path d="M100.616 15.769H108.534V13.5445H103.539V10.884H107.032V8.76758H103.539V6.30834H108.068V4.13973H100.616V15.769Z" fill="white"/>
<path d="M113.414 9.6395V6.20773C113.777 6.10713 114.236 6.06987 114.668 6.06987C116.215 6.06987 116.59 6.88589 116.59 7.7578C116.59 8.8272 116.062 9.69166 114.862 9.69166C114.477 9.69911 113.724 9.67676 113.414 9.6395ZM110.471 15.769H113.414V11.6591C113.941 11.6591 114.35 11.6516 114.683 11.6292C115.642 11.6889 115.913 13.5631 116.54 14.9455C116.766 15.4485 116.834 15.6088 116.964 15.769H120.217L119.727 14.9269C118.929 13.5668 118.489 11.7932 117.541 11.0517C118.688 10.5338 119.414 9.49418 119.414 7.70564C119.414 4.78808 117.106 4.01304 115.023 4.01304C113.334 4.01304 112.306 4.136 111.477 4.136H110.46V15.7653L110.471 15.769Z" fill="white"/>
</svg>
