<svg width="97" height="20" viewBox="0 0 97 20" fill="none" xmlns="http://www.w3.org/2000/svg">
<path d="M12.4754 7.81423L10.1258 7.88213C9.92506 7.8882 9.73265 7.97187 9.59043 8.11617L1.22343 16.6046C0.915088 16.9175 0.915088 17.4232 1.22343 17.736L2.89539 19.4325C3.20373 19.7454 3.7021 19.7454 4.01044 19.4325L12.3774 10.9428C12.5197 10.7985 12.6021 10.6045 12.6081 10.4008L12.6774 8.01916C12.681 7.90396 12.5878 7.81059 12.4742 7.81301L12.4754 7.81423Z" fill="#F3F6FF"/>
<path d="M20.3763 15.1992V4.79961C20.3763 4.35943 20.0214 3.99927 19.5876 3.99927H16.9093C16.8041 3.99927 16.6559 3.93743 16.5819 3.86224L16.5687 3.84891C16.4946 3.77372 16.4337 3.62336 16.4337 3.51664V0.80034C16.4337 0.360153 16.0787 0 15.6449 0H5.39677C4.96294 0 4.60799 0.360153 4.60799 0.80034V3.52392C4.60799 3.63063 4.54704 3.781 4.47295 3.85618L4.46578 3.86346C4.39168 3.93864 4.24348 4.00049 4.13831 4.00049H1.45528C1.02145 4.00049 0.666504 4.36064 0.666504 4.80083V11.1999C0.666504 11.6401 1.02145 12.0002 1.45528 12.0002H3.82041C4.25424 12.0002 4.60919 11.6401 4.60919 11.1999V4.47826C4.60919 4.37155 4.67014 4.22118 4.74424 4.146C4.82311 4.06597 4.97967 4.00049 5.09202 4.00049H15.9688C16.0739 4.00049 16.2221 4.06233 16.2962 4.13751L16.2986 4.13994C16.3727 4.21512 16.4337 4.36549 16.4337 4.4722V15.5145C16.4337 15.6212 16.3727 15.7715 16.2986 15.8467L16.2831 15.8625C16.209 15.9377 16.0608 15.9995 15.9556 15.9995H9.33826C8.90443 15.9995 8.54948 16.3597 8.54948 16.7999V19.1997C8.54948 19.6398 8.90443 20 9.33826 20H15.6449C16.0787 20 16.4337 19.6398 16.4337 19.1997V16.47C16.4337 16.3633 16.4946 16.2129 16.5687 16.1378C16.6428 16.0626 16.791 16.0007 16.8962 16.0007H19.5864C20.0202 16.0007 20.3751 15.6406 20.3751 15.2004L20.3763 15.1992Z" fill="#F3F6FF"/>
<path d="M30.3556 16.4034H27.3881V5.87165H23.6545V3.36634H34.1082V5.87165H30.3556V16.4034Z" fill="#F3F6FF"/>
<path d="M37.9194 5.71637H35.1432V3.36628H37.9194V5.71637ZM37.9194 16.4191H35.1432V6.86231H37.9194V16.4203V16.4191Z" fill="#F3F6FF"/>
<path d="M49.8108 16.4191V10.533C49.8108 10.054 49.7021 9.68775 49.4858 9.43552C49.2682 9.18329 48.9754 9.05718 48.605 9.05718C48.2345 9.05718 47.8998 9.18693 47.5999 9.44522C47.2999 9.70473 47.1493 10.0794 47.1493 10.5718V16.4191H44.3731V10.5524C44.3731 9.96908 44.2703 9.56527 44.0671 9.33851C43.8627 9.11175 43.5245 8.99897 43.0525 8.99897C42.1717 8.99897 41.7318 9.50343 41.7318 10.5136V16.4191H38.9556V6.86231H41.5789V8.06645C42.1023 7.09513 42.9891 6.60887 44.2404 6.60887C44.8654 6.60887 45.3758 6.70951 45.7725 6.9096C46.1681 7.1109 46.5314 7.4565 46.8637 7.94883C47.3357 7.05512 48.1783 6.60887 49.3913 6.60887C50.3355 6.60887 51.0956 6.91324 51.6692 7.52198C52.2441 8.13072 52.5309 8.86922 52.5309 9.73625V16.4191H49.8108Z" fill="#F3F6FF"/>
<path d="M62.6201 12.3592H56.3409C56.3792 12.9679 56.568 13.4663 56.9062 13.8544C57.2444 14.2424 57.6747 14.4376 58.1982 14.4376C58.5555 14.4376 58.871 14.36 59.1459 14.2048C59.4207 14.0496 59.5893 13.8483 59.6526 13.6021H62.5053C62.2245 14.5735 61.7142 15.3277 60.9732 15.8649C60.2334 16.4021 59.3526 16.6713 58.3308 16.6713C55.153 16.6713 53.5635 14.936 53.5635 11.4655C53.5635 9.97636 53.9686 8.79403 54.7789 7.91972C55.5892 7.04541 56.715 6.60887 58.1575 6.60887C59.6 6.60887 60.7198 7.05875 61.4787 7.95853C62.2376 8.8583 62.6177 10.1898 62.6177 11.9505V12.358L62.6201 12.3592ZM59.8426 10.67C59.8044 10.0612 59.6323 9.60529 59.3251 9.30092C59.0192 8.99654 58.6164 8.84497 58.1193 8.84497C57.6221 8.84497 57.2385 9.00018 56.9325 9.31062C56.6266 9.62105 56.4473 10.0746 56.3959 10.67H59.8426Z" fill="#F3F6FF"/>
<path d="M66.6225 16.4033H63.655V3.36506H69.284C70.5604 3.36506 71.5751 3.74098 72.328 4.4916C73.0809 5.24344 73.4574 6.24629 73.4574 7.50258C73.4574 8.75887 73.0845 9.75323 72.3376 10.4844C71.5906 11.2169 70.5724 11.5819 69.284 11.5819H66.6225V16.4033ZM66.6225 9.17359H68.9578C69.5709 9.17359 70.0393 9.02201 70.3644 8.71764C70.6895 8.41327 70.8532 8.00218 70.8532 7.48439C70.8532 6.96659 70.6907 6.59795 70.3644 6.29964C70.0393 6.00255 69.5697 5.85339 68.9578 5.85339H66.6225V9.1748V9.17359Z" fill="#F3F6FF"/>
<path d="M77.2698 16.4191H74.4935V3.36506H77.2698V16.4191Z" fill="#F3F6FF"/>
<path d="M86.8821 16.4191H84.2588V15.2537C83.684 16.1996 82.7721 16.6713 81.5208 16.6713C80.5755 16.6713 79.8034 16.3706 79.2047 15.7679C78.6047 15.1652 78.3048 14.3988 78.3048 13.4663V6.86109H81.081V12.8442C81.081 13.881 81.5591 14.3988 82.5175 14.3988C83.1043 14.3988 83.519 14.2085 83.7616 13.8253C84.0042 13.4433 84.125 12.8503 84.125 12.0475V6.86109H86.8821V16.4191Z" fill="#F3F6FF"/>
<path d="M96.3988 9.75687H93.7946C93.7181 8.92864 93.2078 8.51392 92.2625 8.51392C91.8155 8.51392 91.4773 8.5891 91.2478 8.73704C91.0184 8.8862 90.9036 9.07658 90.9036 9.31062C90.9036 9.54466 91.0124 9.7314 91.2287 9.87328C91.445 10.0164 91.7773 10.1449 92.2243 10.2613C93.7946 10.6627 94.777 10.961 95.1726 11.155C96.1681 11.634 96.6665 12.4307 96.6665 13.5439C96.6665 14.5153 96.3283 15.2792 95.6519 15.8358C94.9754 16.3924 93.9357 16.6713 92.5314 16.6713C91.1271 16.6713 89.95 16.373 89.1528 15.7776C88.3545 15.1822 87.9434 14.3722 87.9183 13.3499H90.7519C90.7519 13.738 90.9084 14.052 91.2216 14.2921C91.5335 14.5322 91.9781 14.6511 92.5517 14.6511C93.4959 14.6511 93.9679 14.3528 93.9679 13.7574C93.9679 13.5245 93.8747 13.3463 93.6907 13.2238C93.5054 13.1013 93.1827 12.9813 92.7238 12.8649C91.3709 12.5277 90.4459 12.2367 89.9476 11.9905C88.8242 11.4206 88.2625 10.573 88.2625 9.44522C88.2625 8.59031 88.5851 7.90396 89.2293 7.38617C89.8735 6.86837 90.9049 6.60887 92.3211 6.60887C93.7373 6.60887 94.6754 6.8708 95.3268 7.39587C95.9781 7.92094 96.3355 8.70673 96.3988 9.75566V9.75687Z" fill="#F3F6FF"/>
</svg>
