<svg width="47" height="24" viewBox="0 0 47 24" fill="none" xmlns="http://www.w3.org/2000/svg">
<path d="M43.964 15.1856C43.7764 15.1856 43.6011 15.097 43.4879 14.9456C43.4224 14.8581 43.3147 14.7224 43.1649 14.5442C43.156 14.5329 43.146 14.5217 43.1371 14.5116C43.0717 14.7695 42.994 15.0308 42.9019 15.2954C42.1683 17.3239 40.5557 18.8803 38.8044 20.0588C38.2994 20.3997 37.7489 20.7305 37.204 21.0041C37.1385 21.0378 36.9554 21.1342 36.8922 21.1645C36.6014 21.2957 36.2252 21.4784 35.9311 21.5928C34.334 22.2522 32.6537 22.7164 30.9424 22.953C32.3707 22.9205 33.7935 22.6839 35.1742 22.3105C35.8556 22.1255 36.5681 21.8855 37.2207 21.6164C37.4338 21.5199 37.6735 21.4257 37.8843 21.3259C38.3072 21.1185 38.7689 20.8886 39.1684 20.6419C41.3648 19.3603 43.2048 17.5684 44.0172 15.1844H43.9629L43.964 15.1856Z" fill="#F3F6FF"/>
<path d="M36.6602 3.82651C39.0785 5.05997 41.2849 6.82382 42.4713 9.03732L42.5944 9.1887L43.267 8.33873C43.3058 8.2894 43.348 8.2423 43.3913 8.19857C42.378 6.36968 40.7599 4.83347 38.9387 3.65495C31.1632 -1.33608 18.9951 -1.22058 11.3829 4.03284C10.3385 4.77291 9.37851 5.64194 8.59164 6.64329C10.3651 4.84244 12.6247 3.60785 14.9665 2.74443C21.7442 0.320123 30.1988 0.552239 36.6602 3.82539V3.82651Z" fill="#F3F6FF"/>
<path d="M5.68723 5.32797C5.86702 5.37507 6.03905 5.42889 6.20108 5.48944C6.33537 5.5399 6.44524 5.59485 6.53847 5.65764C7.44852 4.7404 8.51396 3.97677 9.62489 3.33425C10.1498 3.04495 10.7192 2.76013 11.273 2.52914L11.698 2.35085L12.1298 2.18938C12.4083 2.08397 12.7202 1.97969 13.0032 1.88886C14.0353 1.5704 15.0941 1.30801 16.1662 1.1656C14.7623 1.19924 13.365 1.43584 12.011 1.81149L11.5582 1.94156L11.1109 2.0907C10.7647 2.20395 10.3407 2.36655 10.0044 2.50895C9.7958 2.60651 9.56052 2.69734 9.35409 2.79938L8.92903 3.01467C8.80251 3.07859 8.62716 3.16493 8.50952 3.24118C7.49736 3.81194 6.5196 4.50492 5.67725 5.32685C5.68057 5.32685 5.6839 5.32797 5.68834 5.32909L5.68723 5.32797Z" fill="#F3F6FF"/>
<path d="M36.6114 18.6449C30.5595 23.2714 20.894 23.9117 13.8322 21.5693C10.4861 20.4468 7.13111 18.5742 5.19669 15.513C4.77718 14.8379 4.45866 14.108 4.26111 13.3488H3.65626C3.6052 13.4789 3.55415 13.6123 3.50421 13.7503C3.44761 13.905 3.38435 14.0844 3.31554 14.2851C3.57635 15.0936 3.95702 15.8651 4.42203 16.5738C6.5196 19.7011 9.95451 21.65 13.4438 22.787C21.1992 25.3055 32.5916 24.0844 37.9998 17.4013C37.5647 17.8498 37.1019 18.2658 36.6125 18.6449H36.6114Z" fill="#F3F6FF"/>
<path d="M0.459961 14.5845C0.631984 14.1293 0.838411 13.5978 1.08035 12.99C1.32229 12.3822 1.58643 11.7285 1.87277 11.0288C2.1591 10.3291 2.45653 9.62041 2.76285 8.90052C3.07027 8.18063 3.37103 7.48204 3.66624 6.80252C3.81385 6.46387 4.0003 6.21943 4.22559 6.07029C4.45089 5.92115 4.75165 5.84715 5.12899 5.84715C5.2433 5.84715 5.38092 5.86733 5.54074 5.90882C5.70055 5.95031 5.85149 5.9974 5.99576 6.05123C6.13893 6.10505 6.23549 6.16112 6.28432 6.2183C6.36645 6.36744 6.49297 6.62983 6.66499 7.0066C6.83701 7.38336 7.03567 7.82965 7.26096 8.34658C7.48626 8.86351 7.72154 9.41633 7.96681 10.0039C8.21208 10.5915 8.45403 11.1746 8.69153 11.7543C8.92903 12.334 9.14212 12.8689 9.33079 13.3612C9.51946 13.8534 9.67039 14.2616 9.78581 14.5834H7.5251C7.42633 14.2941 7.322 14.0026 7.21213 13.7088C7.10115 13.415 6.97685 13.0943 6.83701 12.7467H3.26116C3.15461 12.9945 3.05029 13.2602 2.94819 13.5406C2.84608 13.822 2.72511 14.1696 2.58527 14.5834H0.459961V14.5845ZM4.75942 8.88818C4.62846 9.21898 4.49528 9.56322 4.35988 9.91868C4.22448 10.2741 4.10351 10.5937 3.99697 10.8741H6.13449C6.06124 10.6677 5.97246 10.4311 5.87035 10.1665C5.76825 9.90186 5.66504 9.63499 5.56293 9.36587C5.46083 9.09675 5.36427 8.85118 5.27438 8.62691C5.18448 8.40377 5.11456 8.22997 5.06573 8.1055C4.99248 8.29612 4.88927 8.55627 4.75831 8.88706L4.75942 8.88818Z" fill="#F3F6FF"/>
<path d="M10.5205 10.6128C10.5205 9.80991 10.7602 9.18758 11.2397 8.74465C11.7191 8.30173 12.3884 8.08083 13.2485 8.08083C13.8544 8.08083 14.3361 8.18175 14.6923 8.38471C15.0486 8.58767 15.2262 8.85006 15.2262 9.173C15.2262 9.33896 15.1807 9.51276 15.0908 9.69442C15.0009 9.87607 14.8943 10.0252 14.7711 10.1407C14.6158 10.0577 14.4315 9.99157 14.2185 9.94223C14.0054 9.89289 13.8045 9.86822 13.6169 9.86822C12.8711 9.86822 12.4993 10.2618 12.4993 11.0479V14.5856H10.5216V10.6139L10.5205 10.6128Z" fill="#F3F6FF"/>
<path d="M18.9974 14.7583C18.3503 14.7583 17.7643 14.6092 17.2405 14.312C16.7167 14.0138 16.3005 13.6135 15.9942 13.1077C15.6868 12.6031 15.5336 12.0402 15.5336 11.4201C15.5336 10.8 15.6868 10.227 15.9942 9.72582C16.3016 9.2257 16.7167 8.82651 17.2405 8.52824C17.7643 8.22997 18.3503 8.08083 18.9974 8.08083C19.6444 8.08083 20.2404 8.22997 20.7598 8.52824C21.2803 8.82651 21.6931 9.2257 22.0005 9.72582C22.308 10.227 22.4611 10.7911 22.4611 11.4201C22.4611 12.0492 22.308 12.6031 22.0005 13.1077C21.6931 13.6123 21.2803 14.0138 20.7598 14.312C20.2393 14.6103 19.6522 14.7583 18.9974 14.7583ZM20.0284 10.3089C19.7576 10.0151 19.4147 9.86822 18.9962 9.86822C18.5778 9.86822 18.2349 10.0151 17.9641 10.3089C17.6933 10.6027 17.559 10.9727 17.559 11.4201C17.559 11.8675 17.6944 12.2376 17.9641 12.5314C18.2349 12.8252 18.5778 12.9721 18.9962 12.9721C19.4147 12.9721 19.7576 12.8252 20.0284 12.5314C20.2992 12.2376 20.4335 11.8675 20.4335 11.4201C20.4335 10.9727 20.2981 10.6027 20.0284 10.3089Z" fill="#F3F6FF"/>
<path d="M23.6287 8.05616C23.6287 7.20395 23.8539 6.5547 24.3045 6.10729C24.7551 5.661 25.4055 5.43674 26.2578 5.43674C26.593 5.43674 26.9004 5.47038 27.179 5.53654C27.4575 5.6027 27.674 5.68119 27.8304 5.77202C28.109 5.93797 28.2477 6.16897 28.2477 6.46724C28.2477 6.64889 28.2 6.81934 28.1068 6.97632C28.0125 7.13331 27.8837 7.25329 27.7195 7.33627C27.6129 7.23647 27.4553 7.15461 27.2467 7.08845C27.038 7.0223 26.8272 6.98866 26.6141 6.98866C26.2945 6.98866 26.047 7.075 25.8705 7.2488C25.694 7.42261 25.6064 7.66706 25.6064 7.98103V8.25463H26.9703C27.6495 8.25463 27.9903 8.55291 27.9903 9.14833C27.9903 9.31429 27.9658 9.48585 27.917 9.66302C27.8682 9.84131 27.8105 9.99157 27.745 10.116H25.6075V14.5845H23.6298V8.05616H23.6287Z" fill="#F3F6FF"/>
<path d="M31.262 14.5845H29.2843V6.31922C29.2843 6.02992 29.3742 5.81014 29.5551 5.661C29.7349 5.51187 29.9891 5.43786 30.3165 5.43786C30.4807 5.43786 30.6439 5.45468 30.8081 5.4872C30.9724 5.52084 31.1233 5.56569 31.2631 5.624V14.5856L31.262 14.5845Z" fill="#F3F6FF"/>
<path d="M35.6603 14.7583C35.0055 14.7583 34.4295 14.617 33.9345 14.3367C33.4384 14.0553 33.0522 13.665 32.7736 13.1638C32.495 12.6637 32.3563 12.0817 32.3563 11.4201C32.3563 10.7586 32.5017 10.1889 32.7925 9.68881C33.0832 9.1887 33.4828 8.79511 33.99 8.50918C34.4972 8.22324 35.0754 8.08083 35.7224 8.08083C36.2629 8.08083 36.7457 8.17614 37.1718 8.36677C37.598 8.55739 37.9332 8.81754 38.1796 9.14833C38.4248 9.47912 38.548 9.85589 38.548 10.2775C38.548 10.9649 38.2794 11.465 37.7434 11.779C37.2074 12.0941 36.3406 12.251 35.1453 12.251C34.9899 12.251 34.859 12.2488 34.7524 12.2443C34.6459 12.2398 34.5471 12.2342 34.4572 12.2253C34.506 12.482 34.6781 12.6884 34.9733 12.8453C35.2685 13.0023 35.6403 13.0808 36.0909 13.0808C36.2551 13.0808 36.4427 13.0618 36.6558 13.0248C36.8689 12.9878 37.0708 12.9384 37.264 12.8756C37.456 12.814 37.598 12.7534 37.6879 12.6951L38.376 14.0855C38.1873 14.21 37.9398 14.3233 37.6324 14.4264C37.325 14.5296 36.9998 14.6103 36.6558 14.6686C36.3117 14.7269 35.9799 14.755 35.6603 14.755V14.7583ZM35.7091 9.62041C35.3329 9.62041 35.0154 9.74712 34.7569 9.99942C34.4994 10.2517 34.3695 10.5724 34.3695 10.9615C34.435 10.9694 34.5027 10.9739 34.5726 10.9739H34.7635C35.435 10.9739 35.9166 10.9144 36.2074 10.7933C36.4982 10.6733 36.6436 10.4973 36.6436 10.2663C36.6436 10.0757 36.5581 9.92093 36.3861 9.80094C36.2141 9.68096 35.9888 9.62041 35.7102 9.62041H35.7091Z" fill="#F3F6FF"/>
<path d="M46.4577 14.5845H43.964C43.8907 14.4847 43.7753 14.3423 43.6199 14.1562C43.4645 13.97 43.2925 13.7693 43.1039 13.554C42.9152 13.3387 42.7354 13.1358 42.5634 12.9463C42.3336 13.2277 42.0961 13.5215 41.8509 13.8276C41.6056 14.1338 41.4047 14.3861 41.2493 14.5845H38.8665C38.932 14.5015 39.083 14.3132 39.3216 14.0194C39.5591 13.7256 39.8498 13.3701 40.1939 12.9519C40.5379 12.5336 40.8986 12.0974 41.2749 11.6422L39.7267 9.94223C39.4403 9.61929 39.2972 9.3098 39.2972 9.01153C39.2972 8.76372 39.3959 8.57533 39.5924 8.44638C39.7888 8.31855 40.0263 8.25351 40.3049 8.25351C40.4691 8.25351 40.6389 8.2737 40.8143 8.31519C40.9907 8.35668 41.1273 8.40153 41.226 8.45199L42.6022 10.1396L43.732 8.71214C43.863 8.54618 44.0183 8.42844 44.1992 8.35892C44.379 8.28827 44.5677 8.25351 44.7641 8.25351C45.0427 8.25351 45.3091 8.31182 45.5621 8.42732C45.8163 8.54282 45.9916 8.67177 46.0904 8.81193C45.935 8.98574 45.6542 9.31877 45.2491 9.81104C44.8441 10.3033 44.379 10.8684 43.8552 11.5054L46.46 14.5834L46.4577 14.5845Z" fill="#F3F6FF"/>
<path d="M15.1098 19.2323V19.549C15.1098 19.6074 15.1354 19.6454 15.1932 19.6454C15.2403 19.6454 15.278 19.6183 15.278 19.5585V19.3098C15.278 19.2377 15.3183 19.2106 15.3869 19.2106C15.4367 19.2106 15.4784 19.2269 15.4905 19.2323V19.5204C15.4905 19.6047 15.5026 19.6454 15.5887 19.6454H15.6828V19.8357H15.5497C15.4811 19.8357 15.4299 19.8017 15.3963 19.7678C15.3654 19.7922 15.3197 19.8493 15.1946 19.8493C15.0937 19.8493 15.0345 19.8112 15.0036 19.7691C14.9726 19.8167 14.9121 19.8493 14.8354 19.8493C14.8018 19.8493 14.752 19.8425 14.7211 19.8167C14.6821 20.0572 14.5072 20.1483 14.3095 20.1483C14.093 20.1483 13.906 20.026 13.906 19.7243C13.906 19.5435 13.9531 19.496 14.0446 19.496C14.097 19.496 14.1374 19.5231 14.1481 19.5326C14.1266 19.6237 14.1239 19.6835 14.1239 19.7161C14.1239 19.8778 14.1965 19.9512 14.3149 19.9512C14.4427 19.9512 14.5167 19.8765 14.5167 19.7012V19.3098C14.5167 19.2377 14.557 19.2106 14.6256 19.2106C14.6754 19.2106 14.7171 19.2269 14.7292 19.2323V19.549C14.7292 19.6074 14.7547 19.6454 14.8126 19.6454C14.8596 19.6454 14.8973 19.6183 14.8973 19.5585V19.3098C14.8973 19.2377 14.9377 19.2106 15.0063 19.2106C15.056 19.2106 15.0977 19.2269 15.1098 19.2323Z" fill="#F3F6FF"/>
<path d="M16.4047 18.8409L16.0133 19.2242C16.2433 19.235 16.3872 19.3845 16.3872 19.6291V19.8357H15.6421V19.6454H16.1653V19.6346C16.1653 19.4497 16.0402 19.394 15.9043 19.394C15.8357 19.394 15.7806 19.4076 15.755 19.4199C15.7443 19.4131 15.7012 19.3764 15.7012 19.3179C15.7012 19.2704 15.7268 19.2445 15.7927 19.1752L16.1034 18.8491C16.1612 18.7906 16.2043 18.7662 16.2675 18.7662C16.3415 18.7662 16.3832 18.8097 16.4047 18.8409Z" fill="#F3F6FF"/>
<path d="M17.2745 18.7893V19.5068C17.2745 19.5924 17.2866 19.6454 17.3727 19.6454H17.4709V19.8357H17.3364C17.2665 19.8357 17.2073 19.818 17.171 19.7596C17.1347 19.818 17.0674 19.8357 16.9988 19.8357H16.5106V19.6454H16.6625V19.3139C16.6625 19.2377 16.7042 19.2106 16.7728 19.2106C16.8253 19.2106 16.8643 19.2282 16.8764 19.2337V19.6454H16.9638C17.0486 19.6454 17.0607 19.5924 17.0607 19.5068V18.8695C17.0607 18.7934 17.1037 18.7662 17.1723 18.7662C17.2221 18.7662 17.2624 18.7838 17.2745 18.7893Z" fill="#F3F6FF"/>
<path d="M17.4311 19.8357V19.6454H17.6059C17.5871 19.6074 17.571 19.5476 17.571 19.5109C17.571 19.322 17.7256 19.197 17.9045 19.197C18.109 19.197 18.2394 19.322 18.2394 19.5408V19.8357H17.4311ZM17.9045 19.6454H18.0269V19.5653C18.0269 19.4756 18.0148 19.3859 17.9072 19.3859C17.8265 19.3859 17.7835 19.4402 17.7835 19.515C17.7835 19.5897 17.8359 19.6454 17.9045 19.6454ZM17.8144 19.0461C17.8144 18.9904 17.8561 18.9456 17.9139 18.9456C17.9718 18.9456 18.0162 18.9904 18.0162 19.0461C18.0162 19.1046 17.9718 19.1494 17.9139 19.1494C17.8561 19.1494 17.8144 19.1046 17.8144 19.0461Z" fill="#F3F6FF"/>
<path d="M19.0286 19.5843V19.7582C19.0286 20.0586 18.8766 20.1686 18.6803 20.1686C18.613 20.1686 18.5269 20.151 18.4852 20.1265L18.5363 19.9607C18.5673 19.9757 18.6238 19.9879 18.6668 19.9879C18.7569 19.9879 18.804 19.9403 18.8134 19.8357H18.6883C18.4799 19.8357 18.3507 19.7093 18.3507 19.5231C18.3507 19.3261 18.4987 19.197 18.6856 19.197C18.7946 19.197 18.9022 19.2364 18.9627 19.3193C19.0044 19.3777 19.0286 19.4593 19.0286 19.5843ZM18.8175 19.6454V19.568C18.8175 19.394 18.7273 19.3818 18.683 19.3818C18.6117 19.3818 18.5619 19.428 18.5619 19.5204C18.5619 19.5965 18.6184 19.6454 18.6897 19.6454H18.8175Z" fill="#F3F6FF"/>
<path d="M19.2752 19.8805V19.3125C19.2752 19.2364 19.3223 19.2106 19.3923 19.2106C19.4366 19.2106 19.4676 19.2255 19.4891 19.231V19.8602C19.4891 20.0885 19.3533 20.1564 19.2066 20.1564C19.1232 20.1564 19.0452 20.1252 19.0237 20.1143L19.0748 19.9526C19.1004 19.9675 19.1488 19.9757 19.1851 19.9757C19.2322 19.9757 19.2752 19.9499 19.2752 19.8805Z" fill="#F3F6FF"/>
<path d="M19.8565 19.8357H19.6427V18.8695C19.6427 18.7934 19.6857 18.7662 19.7543 18.7662C19.8041 18.7662 19.8444 18.7838 19.8565 18.7893V19.8357ZM19.6144 18.6914V18.6208H19.683C19.6655 18.6031 19.6588 18.5814 19.6588 18.5555C19.6588 18.4862 19.7153 18.4482 19.7799 18.4482C19.8296 18.4482 19.87 18.4631 19.87 18.4944C19.87 18.508 19.8619 18.5216 19.8471 18.5338C19.8364 18.5284 19.8162 18.5175 19.7906 18.5175C19.7583 18.5175 19.7382 18.5338 19.7382 18.561C19.7382 18.6031 19.7718 18.6208 19.8095 18.6208H19.8821V18.6914H19.6144Z" fill="#F3F6FF"/>
</svg>
