<svg width="144" height="24" viewBox="0 0 144 24" fill="none" xmlns="http://www.w3.org/2000/svg">
<path d="M25.1229 7.17542H19.5925L9.88034 24H8.10338C7.49776 24 6.93843 23.6768 6.63602 23.1525L5.72879 21.5805V21.5773L14.0319 7.19378L14.0423 7.17702L17.6927 0.847453C17.9951 0.323181 18.5545 0 19.1601 0H19.9995C20.6043 0 21.1636 0.322383 21.4668 0.846655L25.1221 7.17542H25.1229Z" fill="#F3F6FF"/>
<path d="M14.0207 7.17542H8.49356L2.95205 16.7703L0.686768 12.8459C0.384359 12.3216 0.384359 11.6752 0.686768 11.151L6.63522 0.847453C6.93763 0.323181 7.49697 0 8.10258 0H8.90129C9.50611 0 10.0655 0.322383 10.3687 0.846655L14.0207 7.17542Z" fill="#F3F6FF"/>
<path d="M27.4193 11.151C27.7225 11.6752 27.7225 12.3216 27.4193 12.8459L22.3573 21.6132V21.6164L22.3102 21.701L21.4676 23.1541C21.1644 23.6768 20.6059 23.9992 20.0019 23.9992H15.4306L25.1333 7.19138L27.4193 11.1502V11.151Z" fill="#F3F6FF"/>
<path d="M141.677 8.86953C142.23 8.86953 142.666 8.69717 142.984 8.35164C143.301 8.00612 143.46 7.5776 143.46 7.06769C143.46 6.55779 143.301 6.12528 142.984 5.78135C142.666 5.43742 142.231 5.26506 141.677 5.26506C141.124 5.26506 140.694 5.43742 140.374 5.78135C140.055 6.12528 139.895 6.5538 139.895 7.06769C139.895 7.58159 140.054 8.00612 140.374 8.35164C140.694 8.69717 141.128 8.86953 141.677 8.86953ZM140.557 5.93137C140.83 5.63213 141.203 5.48211 141.677 5.48211C142.151 5.48211 142.526 5.63213 142.801 5.93137C143.076 6.23062 143.213 6.60965 143.213 7.0669C143.213 7.52414 143.076 7.89839 142.801 8.19763C142.526 8.49687 142.151 8.64689 141.677 8.64689C141.203 8.64689 140.83 8.49687 140.557 8.19763C140.283 7.89839 140.147 7.52095 140.147 7.0669C140.147 6.61285 140.283 6.23062 140.557 5.93137Z" fill="#F3F6FF"/>
<path d="M141.253 7.27437H141.663L142.28 7.98537H142.537V7.94627L141.944 7.27437C142.122 7.25123 142.259 7.17702 142.356 7.04934C142.454 6.92326 142.498 6.7884 142.492 6.64716C142.485 6.50592 142.426 6.37824 142.314 6.26413C142.202 6.15082 142.051 6.09416 141.86 6.09416H141.021V7.98537H141.253V7.27437ZM141.253 6.32159H141.86C141.962 6.32159 142.047 6.34712 142.115 6.39819C142.182 6.44926 142.224 6.51071 142.24 6.58332C142.257 6.65594 142.256 6.72855 142.238 6.80277C142.22 6.87698 142.175 6.94002 142.104 6.99029C142.034 7.04136 141.947 7.0669 141.845 7.0669H141.253V6.32159Z" fill="#F3F6FF"/>
<path d="M46.7855 11.7869V11.6281C47.7821 11.5579 48.4739 11.2531 48.9135 10.7815C49.35 10.3171 49.5423 9.68666 49.5423 8.9597C49.5423 7.1052 48.2353 6.0782 45.8128 6.0782H31.752V17.921H46.1495C48.801 17.921 50.0386 16.649 50.0386 14.6333C50.0386 13.043 48.9773 11.9465 46.7863 11.7869H46.7855ZM34.4034 8.46416H45.4777C46.4671 8.46416 46.8908 8.81926 46.8908 9.6308C46.8908 10.4423 46.4854 10.7807 45.5128 10.7807H34.4034V8.46336V8.46416ZM45.8312 15.5358H34.4034V12.9727H45.8312C46.9091 12.9727 47.3512 13.3071 47.3512 14.2447C47.3512 15.1823 46.9091 15.5358 45.8312 15.5358Z" fill="#F3F6FF"/>
<path d="M61.029 8.46416V6.0782H51.0088V17.921H61.029V15.535H53.6603V13.1475H60.7649V10.7807H53.6603V8.46336H61.029V8.46416Z" fill="#F3F6FF"/>
<path d="M81.5618 8.46496H79.0619V17.9226H76.4104V8.46496H65.4966C65.3793 8.46496 65.3322 8.47054 65.2213 8.50565C64.8957 8.60939 64.7329 8.87352 64.6907 8.94773C64.5686 9.16398 64.563 9.36587 64.563 9.45604C64.563 10.1439 64.9532 10.3921 65.9426 10.5692L69.2659 11.0999C71.9174 11.5236 72.8717 12.8139 72.8717 14.4394C72.8717 16.3665 71.3684 18.0989 67.6054 18.0989C63.8425 18.0989 62.0025 16.6841 62.0025 13.9271V13.8218H64.6524V14.1402C64.6524 15.235 65.2013 15.6771 67.6054 15.6771C69.7247 15.6771 70.2202 15.3587 70.2202 14.5639C70.2202 13.8393 69.8133 13.5744 68.5948 13.3621L65.2715 12.885C63.1507 12.5482 61.8948 11.4885 61.8948 9.56218C61.8948 9.40577 61.9115 8.92459 62.1333 8.35244C62.2323 8.09629 62.7557 6.83389 64.1114 6.30403C64.3771 6.20029 64.8167 6.06942 65.3952 6.0798H80.4495L81.5626 8.46575L81.5618 8.46496Z" fill="#F3F6FF"/>
<path d="M92.3998 6.0782V17.921H89.7499V11.9106L89.8034 10.7807L89.8369 10.0561L89.493 10.7807L88.9552 11.9106L86.4785 17.2148H82.8935L80.4191 11.9106L79.8901 10.7807H82.6437L84.467 14.6868H85.0311L88.7956 6.0782H92.3998Z" fill="#F3F6FF"/>
<path d="M101.969 6.0782H98.1855L93.0078 17.921H95.9761L97.1075 15.3044H103.029L104.142 17.921H107.182L101.969 6.0782ZM98.132 12.9185L99.0568 10.7807L99.2475 10.3386L99.9704 8.50007H100.167L100.891 10.3386L102.004 12.9185H98.132Z" fill="#F3F6FF"/>
<path d="M117.485 14.7403C117.043 13.908 116.635 13.3438 115.577 13.0613V12.9193C117.317 12.7525 118.377 12.0152 118.757 10.7815C118.863 10.436 118.916 10.0529 118.916 9.6316C118.916 7.37013 117.256 6.079 114.339 6.079H107.799V17.9218H110.45V13.6263H112.199C113.579 13.6263 114.021 13.9279 114.496 14.8472L116.123 17.9226H119.198L117.484 14.7419L117.485 14.7403ZM114.322 11.6281H110.452V8.46416H114.322C115.578 8.46416 116.143 8.87113 116.143 10.0378C116.143 10.3338 116.112 10.5796 116.045 10.7815C115.832 11.4231 115.276 11.6281 114.322 11.6281Z" fill="#F3F6FF"/>
<path d="M138.151 6.0782H134.971L131.826 10.7807H122.68V6.0782H120.03V17.921H122.68V13.3606H131.861L134.917 17.921H138.098L134.033 11.9106L138.151 6.0782Z" fill="#F3F6FF"/>
</svg>
