<svg width="64" height="24" viewBox="0 0 64 24" fill="none" xmlns="http://www.w3.org/2000/svg">
<path d="M25.4327 11.0165L21.2483 5.77057C20.7771 5.22891 20.2523 4.99838 19.4971 4.99838H18.6132V5.42217H18.8143C19.5359 5.42217 19.844 5.77057 19.844 6.58957V13.412H20.5121V7.03157L25.7236 13.5454H26.1189V4.99751H25.4319V11.0156H25.4336L25.4327 11.0165Z" fill="#F3F6FF"/>
<path d="M35.5597 12.6892C35.3689 12.4976 35.2239 12.1969 35.0107 11.7298L32.2608 4.99924H31.7646L28.2051 13.412H28.9655L29.9511 11.0338H33.3182L33.6159 11.793C33.8973 12.5964 34.3599 12.9968 34.6966 13.191C35.1307 13.4397 35.5347 13.4692 35.8014 13.4692C36.0007 13.4692 36.1803 13.4484 36.3184 13.4094L36.3822 13.3912V12.9977L36.3028 12.989C35.9705 12.9518 35.747 12.8616 35.5588 12.6909V12.6892H35.5597ZM32.9971 10.3622H30.2127L31.6299 7.06364L32.9954 10.3622H32.9971Z" fill="#F3F6FF"/>
<path d="M43.2328 5.32858C43.0153 5.11018 42.7003 4.99751 42.2998 4.99751H37.2479V5.42131H37.601C38.2595 5.42131 38.3838 5.83124 38.3838 6.58871V13.4111H39.6776V9.47297H42.481V8.8013H39.6776V5.66831H41.5601C42.5458 5.66831 43.0257 6.11291 43.0257 7.0255V7.1139H43.4477V6.09297C43.4477 5.78791 43.3795 5.53484 43.2423 5.33897L43.2319 5.32684L43.2337 5.32858H43.2328Z" fill="#F3F6FF"/>
<path d="M52.438 4.99751H51.1441V8.74497H47.6071V6.58957C47.6071 5.91617 47.5337 5.52964 47.3594 5.29824C47.1444 5.03478 46.7543 4.99924 46.4013 4.99924H45.1757V5.42304H45.5287C46.1873 5.42304 46.3115 5.83297 46.3115 6.59044V13.4128H47.6054V9.41837H51.1424V11.8225C51.1424 12.4734 51.2184 12.8417 51.4065 13.093C51.6059 13.3591 51.9149 13.4137 52.3482 13.4137H53.554V12.9899H53.2199C52.5614 12.9899 52.4362 12.58 52.4362 11.8225L52.438 11.8208V4.99751Z" fill="#F3F6FF"/>
<path d="M63.3814 12.9873C63.0491 12.95 62.8256 12.8599 62.6374 12.6892C62.4467 12.4976 62.3017 12.1969 62.0885 11.7298L59.3386 4.99924H58.8423L55.2828 13.412H56.0432L57.0289 11.0338H60.3959L60.6937 11.793C60.975 12.5964 61.4377 12.9968 61.7743 13.191C62.2084 13.4397 62.6124 13.4692 62.8791 13.4692C63.0785 13.4692 63.258 13.4484 63.3961 13.4094L63.46 13.3912V12.9977L63.3806 12.989V12.9873H63.3814ZM60.0774 10.3622H57.293L58.7102 7.06364L60.0757 10.3622H60.0774Z" fill="#F3F6FF"/>
<path d="M28.256 18.8901C28.0963 19.0401 27.8564 19.1146 27.5361 19.1146H26.9639V20.3314H26.6791V17.4783H27.5361C27.8538 17.4783 28.092 17.5529 28.2534 17.7028C28.4148 17.8527 28.4951 18.0512 28.4951 18.2982C28.4951 18.5452 28.4148 18.7393 28.2551 18.8893H28.2568L28.256 18.8901ZM28.2033 18.2982C28.2033 18.1084 28.1515 17.9628 28.0454 17.8657C27.9392 17.7687 27.77 17.7193 27.537 17.7193H26.9648V18.8702H27.537C27.9815 18.8702 28.2033 18.6804 28.2033 18.2982Z" fill="#F3F6FF"/>
<path d="M31.2993 17.7115V18.7775H32.3774V19.0141H31.2993V20.0965H32.4982V20.3331H31.0154V17.4757H32.4982V17.7123H31.2993V17.7115Z" fill="#F3F6FF"/>
<path d="M36.5747 20.3305L35.8713 19.1389H35.3465V20.3305H35.0617V17.4775H35.9161C36.2338 17.4775 36.4737 17.5537 36.6377 17.7063C36.8017 17.8588 36.8837 18.0581 36.8837 18.3069C36.8837 18.5131 36.8242 18.6899 36.7059 18.8355C36.5877 18.9811 36.4142 19.0747 36.1846 19.1198L36.9165 20.3323H36.5756V20.3305H36.5747ZM35.3465 18.9066H35.9187C36.1406 18.9066 36.308 18.8529 36.4211 18.7437C36.5333 18.6345 36.5894 18.4889 36.5894 18.3069C36.5894 18.1249 36.5359 17.9749 36.4271 17.8727C36.3184 17.7713 36.1483 17.7201 35.9144 17.7201H35.3448V18.9083L35.3465 18.9066Z" fill="#F3F6FF"/>
<path d="M41.0595 17.4775V17.7141H39.8071V18.7801H40.8635V19.0167H39.8071V20.3305H39.5223V17.4775H41.0595Z" fill="#F3F6FF"/>
<path d="M43.856 17.4775V19.2732C43.856 19.5557 43.9233 19.7655 44.0571 19.9015C44.1909 20.0376 44.3747 20.1052 44.6069 20.1052C44.8391 20.1052 45.0229 20.0376 45.1541 19.9033C45.2853 19.7689 45.3509 19.5592 45.3509 19.2732V17.4775H45.6357V19.2689C45.6357 19.6311 45.5399 19.9033 45.3492 20.0844C45.1584 20.2673 44.9098 20.3583 44.6043 20.3583C44.2987 20.3583 44.0502 20.2673 43.8594 20.0844C43.6687 19.9015 43.5729 19.6294 43.5729 19.2689V17.4775H43.8577H43.856Z" fill="#F3F6FF"/>
<path d="M51.1554 17.5147V20.3314H50.8705V18.0833L49.8702 20.3314H49.663L48.6627 18.0911V20.3314H48.3778V17.5147H48.6791L49.764 19.9561L50.8489 17.5147H51.1554Z" fill="#F3F6FF"/>
<path d="M54.1953 17.7115V18.7775H55.2733V19.0141H54.1953V20.0965H55.3941V20.3331H53.9113V17.4757H55.3941V17.7123H54.1953V17.7115Z" fill="#F3F6FF"/>
<path d="M13.6702 11.7384C13.6702 11.722 13.6702 11.7046 13.6684 11.6882C13.6443 11.046 13.4423 10.4124 13.0591 9.86817C13.0401 9.83956 13.0202 9.8127 12.9987 9.7841L6.96978 1.76052C6.74882 1.46672 6.5995 1.12958 6.53131 0.773385C6.57188 0.887785 6.64697 0.985718 6.74537 1.05418C6.74537 1.05158 6.74364 1.04898 6.74364 1.04638C6.76522 1.06372 6.78593 1.07932 6.80924 1.09405C6.80924 1.09405 6.81096 1.09405 6.81096 1.09578C6.88778 1.13478 6.97409 1.15818 7.06645 1.15905C7.3858 1.16252 7.64646 0.905118 7.64991 0.586186C7.65164 0.376453 7.54375 0.191853 7.37889 0.0878535C7.37889 0.0878535 7.37717 0.0878535 7.37717 0.0861201C7.29949 0.0453869 7.21059 0.0211203 7.11737 0.0202536C7.07594 0.011587 7.03537 0.00552032 6.99481 0.00292032C6.87483 -0.00661299 6.75745 0.00725365 6.65042 0.0436536C6.39494 0.13032 6.19211 0.337453 6.07386 0.613919C6.07041 0.619986 6.06782 0.626919 6.06523 0.632986C6.02812 0.722252 6.00049 0.817585 5.98323 0.918985C5.98323 0.920718 5.98151 0.922452 5.98323 0.924185C5.97115 0.991785 5.96338 1.06112 5.96079 1.13305V1.14778C5.96252 1.18678 5.96511 1.22665 5.96856 1.26565C5.99532 1.57245 6.06091 1.87405 6.16535 2.16352C6.2836 2.49025 6.44932 2.79705 6.65733 3.07525L12.4299 10.7686C12.6154 11.0165 12.7492 11.293 12.8278 11.5833C12.8278 11.585 12.8295 11.5885 12.8295 11.5902C12.9218 11.9326 12.94 12.2922 12.877 12.6441L7.09838 4.94378L6.26375 3.82925C6.01689 3.50078 5.87534 3.11078 5.85549 2.69998L5.82873 2.16872L5.47917 2.79618L5.02345 3.61778C4.98461 3.68798 4.94749 3.76078 4.91297 3.83358C4.90865 3.84138 4.90606 3.84918 4.90261 3.85698C4.77314 4.13864 4.68165 4.43418 4.629 4.73404C4.58412 4.99491 4.56858 5.25838 4.58326 5.52184C4.61692 6.14411 4.81802 6.75511 5.18916 7.28204C5.20815 7.3089 5.228 7.3375 5.24872 7.36437L10.2747 14.0611L10.8555 13.0948L10.8771 13.0592C11.0057 12.7862 11.0972 12.5011 11.1507 12.2108C11.1542 12.1943 11.1568 12.177 11.1593 12.1605L11.4027 12.4864C11.4873 12.5999 11.5616 12.7186 11.6228 12.8426C11.6539 12.9024 11.6815 12.9622 11.7057 13.0246C11.9715 13.6754 11.9422 14.4182 11.6064 15.0569C11.5849 15.0994 11.5607 15.1418 11.5365 15.1834L10.9211 16.207L10.8555 16.1186L4.56686 7.73617L4.20435 7.25344C3.95836 6.9267 3.81594 6.53324 3.79609 6.12417L3.76934 5.59291L2.96318 7.04197C2.92089 7.11997 2.88119 7.19884 2.84407 7.2777C2.72842 7.52817 2.64383 7.78817 2.58945 8.0525C2.5299 8.34717 2.50746 8.64617 2.52386 8.9443C2.55752 9.56657 2.75776 10.1784 3.12977 10.7071C3.14875 10.734 3.16861 10.7617 3.18846 10.7894L3.2765 10.9064L8.21353 17.4853L8.33782 17.279C8.57172 16.8899 8.59675 16.4236 8.42154 16.0215C8.37925 15.9253 8.32573 15.8308 8.26014 15.7442L3.73136 9.71043C3.33605 9.18263 3.17551 8.52137 3.27477 7.8835L3.2834 7.83497L9.33903 15.9071C9.42448 16.0215 9.49957 16.142 9.56258 16.2668C9.59365 16.3266 9.62127 16.3872 9.64544 16.4496C9.91214 17.1005 9.8828 17.8415 9.54704 18.4802C9.52547 18.5227 9.5013 18.566 9.47627 18.6067L8.86087 19.6311L8.79527 19.5427L6.66337 16.701L6.65733 16.6932L2.58341 11.2618L2.50746 11.1595L2.14581 10.6776C1.89982 10.3509 1.75741 9.95743 1.73669 9.54837L1.70994 9.0171L0.905512 10.4662C0.72771 10.7868 0.602558 11.1274 0.531782 11.4767C0.482584 11.7202 0.457554 11.9672 0.460143 12.2142V12.2602C0.460143 12.2766 0.460143 12.294 0.46187 12.3104C0.486037 12.9526 0.688006 13.5862 1.07123 14.1304C1.09022 14.159 1.11007 14.1859 1.13165 14.2145L7.16139 22.2389C7.38235 22.5327 7.53167 22.8699 7.59985 23.2261C7.55929 23.1117 7.48419 23.0137 7.3858 22.9453C7.36508 22.9305 7.34351 22.9175 7.32107 22.9063L7.31934 22.9045C7.24252 22.8655 7.15621 22.8421 7.06386 22.8413C6.7445 22.8378 6.48384 23.0952 6.48039 23.4141C6.47866 23.6239 6.58655 23.8085 6.75141 23.9125C6.75141 23.9125 6.75313 23.9125 6.75313 23.9142C6.77558 23.9281 6.79974 23.9411 6.82477 23.9515C6.87052 23.9844 6.9154 23.9887 6.94216 23.9905C6.95079 23.9905 6.95942 23.9922 6.96805 23.9922C6.99481 23.9965 7.02329 23.9991 7.05091 24C7.05954 24 7.06904 23.9983 7.07767 23.9983H7.09752C7.1096 23.9983 7.12255 23.9965 7.13463 23.9965C7.45916 23.9749 7.68099 23.8301 7.68703 23.8258C7.89159 23.6889 8.00034 23.5077 8.05644 23.3855C8.05989 23.3795 8.06248 23.3725 8.06507 23.3665C8.07888 23.3344 8.08924 23.3067 8.09701 23.2867C8.1065 23.259 8.13153 23.1931 8.14793 23.0805V23.0753C8.16002 22.9929 8.16865 22.8846 8.16347 22.7494V22.7338C8.15052 22.4261 8.07111 22.0786 7.93474 21.7293C7.81132 21.413 7.64732 21.1105 7.44535 20.8271L6.99912 20.2326L6.75831 19.9102C6.88692 19.6355 6.97841 19.3486 7.03192 19.0565C7.03537 19.0418 7.03796 19.0245 7.04055 19.0097L8.63473 21.1339L10.0779 18.735C10.1909 18.5461 10.2781 18.3363 10.3472 18.1197C10.4162 17.9013 10.4654 17.6742 10.5025 17.4567L10.6941 17.7115L12.1364 15.3134C12.2503 15.1236 12.3384 14.9139 12.4066 14.6964C12.4756 14.478 12.5239 14.2526 12.5602 14.0342L12.7518 14.289L13.1652 13.6018C13.5027 13.0402 13.6702 12.4144 13.6702 11.7904V11.7384ZM10.4456 12.4803L10.1754 12.1215L10.1202 12.047L5.78903 6.27757C5.39631 5.74977 5.23664 5.09198 5.33589 4.45411C5.33848 4.43764 5.34107 4.42204 5.34453 4.40558L10.0382 10.6594C10.1098 10.76 10.1728 10.8648 10.2272 10.974C10.3368 11.1924 10.4119 11.4256 10.4516 11.6639C10.4965 11.9334 10.4956 12.209 10.4473 12.4803H10.4456ZM6.32848 19.3287L1.9309 13.4674L1.98441 13.5376C1.80833 13.2976 1.38282 12.6554 1.30514 12.4092C1.30341 12.4075 1.30341 12.404 1.30341 12.4023C1.18516 12.0314 1.15841 11.6353 1.22659 11.2496L2.35814 12.7602L5.91246 17.4965C5.91246 17.4965 5.91764 17.5052 5.91936 17.5087C5.98755 17.6049 6.04883 17.7054 6.10148 17.8085C6.21455 18.0313 6.29223 18.2687 6.33193 18.5123C6.37681 18.7818 6.37595 19.0574 6.32762 19.3295L6.32848 19.3287Z" fill="#F3F6FF"/>
</svg>
