<svg width="64" height="24" viewBox="0 0 64 24" fill="none" xmlns="http://www.w3.org/2000/svg">
<path d="M0.797445 10.838C0.762298 11.2588 0.731285 11.8865 0.705097 12.299C0.678909 12.7115 0.666504 13.1011 0.666504 13.47C0.666504 13.8735 0.701651 14.2022 0.771257 14.4569C0.840863 14.7109 0.953886 14.8292 1.11239 14.8119C1.2516 14.7946 1.35636 14.6541 1.42734 14.3911C1.49557 14.1275 1.6017 13.7939 1.74091 13.3918C1.86289 13.0229 2.00348 12.6146 2.15992 12.1675C2.31774 11.7204 2.47832 11.2989 2.6451 10.9044C2.8105 10.5106 2.9759 10.1722 3.14267 9.89261C3.30807 9.61163 3.4528 9.45383 3.57478 9.41923C3.7326 9.36525 3.83735 9.51543 3.88973 9.86631C3.9421 10.2172 4.01171 10.6075 4.09992 11.0373C4.18676 11.4671 4.32666 11.8623 4.51894 12.2208C4.71052 12.5807 5.01651 12.7516 5.43621 12.7343C5.838 12.717 6.26459 12.5419 6.72013 12.2083C6.94411 12.0436 7.14948 11.8706 7.33486 11.6886C7.33486 11.6886 7.33532 11.6881 7.33624 11.6872C7.52645 11.5024 7.69598 11.3072 7.84622 11.1024C7.88137 11.0152 7.88619 10.9536 7.86001 10.919C7.84278 10.8954 7.81039 10.8954 7.76283 10.9217C7.74147 10.9328 7.71666 10.9494 7.68978 10.9716C7.53334 11.1128 7.36243 11.2615 7.17842 11.4187C6.99579 11.5771 6.80765 11.7211 6.61606 11.8533C6.4231 11.9848 6.23564 12.0893 6.05233 12.1682C5.86832 12.2471 5.70637 12.2782 5.56715 12.2609C5.35834 12.2436 5.19156 12.1294 5.06958 11.9183C4.9476 11.7086 4.85042 11.4588 4.78082 11.1688C4.71121 10.8788 4.64988 10.5764 4.59819 10.2601C4.54581 9.94521 4.47483 9.66423 4.38799 9.41923C4.30116 9.17285 4.18745 8.98945 4.04824 8.86556C3.90765 8.74307 3.7071 8.72576 3.44453 8.81297C3.25294 8.88286 3.05653 9.09395 2.8546 9.44553C2.65406 9.79641 2.46109 10.2075 2.27846 10.6816C2.09583 11.155 1.92009 11.6422 1.7547 12.1426C1.58792 12.6423 1.44388 13.0776 1.3219 13.4458C1.3219 13.0769 1.35291 12.6333 1.41425 12.1163C1.47489 11.5993 1.54519 11.0768 1.62444 10.5508C1.70301 10.0248 1.78088 9.54242 1.85945 9.10364C1.93801 8.66486 1.99521 8.34858 2.02967 8.15618C2.06482 7.9624 2.04346 7.82606 1.96351 7.74785C1.88495 7.66895 1.79329 7.62951 1.68854 7.62951C1.58378 7.62951 1.48316 7.66065 1.38737 7.72224C1.29158 7.78453 1.22542 7.87589 1.19096 7.99839C1.12135 8.34927 1.05037 8.77075 0.982141 9.26143C0.911157 9.75281 0.850511 10.2795 0.798134 10.8408" fill="#F3F6FF"/>
<path d="M24.4041 4.84803C24.2504 4.68055 24.003 4.54421 23.6619 4.43901C23.3207 4.33312 22.9162 4.24661 22.4489 4.17602C21.9824 4.10612 21.4565 4.05767 20.8707 4.0293C20.2863 4.00162 19.6661 3.98777 19.0107 3.98777C17.7006 3.98777 15.2106 4.0293 13.8309 4.11373C13.9846 2.71434 13.9777 1.42015 13.8103 0.230463C13.8103 0.174405 13.7792 0.122498 13.7172 0.0726686C13.6538 0.0235308 13.5883 0 13.518 0C13.3788 0 13.2886 0.104504 13.2472 0.314205C13.0239 1.58833 12.8565 2.88321 12.7448 4.19747C11.9509 4.25422 11.1776 4.31305 10.4251 4.37672C9.67182 4.4397 8.98197 4.50614 8.35551 4.57604C7.72837 4.64594 7.17704 4.71169 6.70359 4.77536C6.23013 4.83834 5.86005 4.89094 5.5961 4.93316C5.52649 4.947 5.47412 4.98506 5.43897 5.04804C5.40451 5.11171 5.39349 5.17746 5.40727 5.24805C5.42105 5.31795 5.44931 5.37678 5.49066 5.42523C5.53201 5.47506 5.58921 5.49236 5.65812 5.47782C5.90898 5.4363 6.26735 5.38301 6.73391 5.32003C7.20116 5.25705 7.74423 5.1913 8.36447 5.12071C8.98472 5.05081 9.66355 4.98091 10.4023 4.9117C11.1411 4.8418 11.9013 4.77813 12.6814 4.72207C12.6118 5.46398 12.5484 6.2232 12.4926 6.99971C12.4367 7.77623 12.3954 8.56382 12.3678 9.36109C12.1873 9.78188 11.9874 10.1902 11.7724 10.5888C11.556 10.9889 11.3465 11.3384 11.1453 11.6387C10.9426 11.9398 10.7552 12.182 10.5801 12.3633C10.4065 12.5461 10.2562 12.6367 10.1315 12.6367C10.0474 12.6367 9.99159 12.5627 9.96403 12.4166C9.93646 12.2692 9.92268 12.1017 9.92268 11.9121C9.92268 11.7225 9.9337 11.5412 9.95438 11.3667C9.97505 11.191 9.98539 11.0754 9.98539 11.02C9.98539 10.9501 9.99642 10.8595 10.0171 10.7466C10.0378 10.6352 10.0481 10.5231 10.0481 10.411C10.0481 10.2989 10.0316 10.202 9.99642 10.1175C9.96196 10.0331 9.88822 9.99089 9.77726 9.99089C9.70697 9.99089 9.62013 10.0504 9.51538 10.1694C9.41131 10.2892 9.29622 10.4463 9.1708 10.6421C9.08741 10.3342 8.9544 10.1805 8.77384 10.1805C8.62015 10.1805 8.45338 10.2615 8.27144 10.4221C8.10052 10.5743 7.93857 10.7612 7.78695 10.9806C7.77731 10.9937 7.76835 11.0076 7.75939 11.0207C7.63947 11.1993 7.53472 11.3896 7.44651 11.5917C7.44651 11.5917 7.44628 11.5919 7.44582 11.5924C7.41618 11.6588 7.38793 11.7266 7.36243 11.7965C7.25837 12.0768 7.2053 12.3426 7.2053 12.5952C7.2053 12.735 7.23424 12.8672 7.28938 12.9938C7.3452 13.1198 7.43548 13.1821 7.56022 13.1821C7.68496 13.1821 7.83933 13.0886 8.02058 12.899C8.20114 12.7094 8.37895 12.4935 8.55331 12.2478C8.72698 12.0035 8.88755 11.7626 9.03365 11.5238C9.17976 11.2858 9.28106 11.1169 9.3362 11.0193C9.3362 11.1598 9.3293 11.3453 9.31552 11.5758C9.30174 11.8069 9.30863 12.0311 9.3362 12.2478C9.36376 12.4651 9.42372 12.6506 9.514 12.8042C9.60497 12.9585 9.74694 13.0354 9.94266 13.0354C10.1522 13.0354 10.3603 12.9475 10.5698 12.7731C11.0371 12.382 11.1701 12.0983 11.1969 12.0595C11.4051 11.7585 11.6077 11.4187 11.8034 11.0408C11.9978 10.6629 12.1797 10.2781 12.3465 9.88638C12.2769 11.6076 12.27 12.9281 12.3258 14.5448C12.3816 16.1608 12.5201 17.5851 12.7434 18.8163C12.8406 19.307 12.935 19.6427 13.026 19.824C13.1163 20.0067 13.1955 20.0904 13.2665 20.0759C13.3775 20.0621 13.4581 19.9811 13.507 19.8344C13.556 19.6869 13.5725 19.5361 13.5594 19.3831C13.5442 19.2288 13.5098 19.0931 13.454 18.9734C13.3981 18.8551 13.3292 18.8156 13.2458 18.8585C13.2169 18.7879 13.2045 18.7153 13.2045 18.6371C13.2045 18.5589 13.1962 18.4806 13.1838 18.3955C13.0853 17.682 13.0122 16.9013 12.9633 16.0549C12.9143 15.2078 12.8868 13.4575 12.8799 12.5329C12.873 11.609 12.8826 11.8796 12.9116 10.9141C12.9391 9.94798 12.9812 8.98252 13.0363 8.01638C13.1893 7.52708 13.2872 7.16996 13.3292 6.94573C13.5098 6.21904 13.6566 5.44876 13.7682 4.63695C14.6324 4.56705 16.6303 4.51445 17.4739 4.47915C18.3167 4.44455 19.1148 4.42655 19.8673 4.42655C20.9555 4.42655 21.8948 4.47638 22.6901 4.57397C23.4841 4.67155 24.0064 4.84042 24.2573 5.07711C24.3131 5.11863 24.3683 5.10895 24.4248 5.04527C24.4806 4.98229 24.4737 4.91655 24.4041 4.84595V4.84803ZM8.38515 11.8699C8.14118 12.2685 7.92134 12.5668 7.727 12.762C7.68496 12.6782 7.69529 12.5135 7.75801 12.2685C7.82141 12.0242 7.91169 11.7751 8.03023 11.5238C8.14808 11.2719 8.28109 11.0477 8.42719 10.8518C8.57398 10.6553 8.70975 10.5508 8.83517 10.5369C8.93235 10.5369 9.01573 10.6068 9.08603 10.7459C8.86274 11.0961 8.62911 11.4706 8.38515 11.8692V11.8699ZM13.3182 5.9083C13.2555 6.33462 13.1893 6.77271 13.1197 7.21979C13.1197 7.24748 13.1059 7.29039 13.0784 7.34644C13.1197 6.89798 13.159 6.4502 13.1935 6.00311C13.2279 5.55534 13.2741 5.10687 13.3292 4.65978H13.496C13.4402 5.06534 13.3816 5.48198 13.3182 5.90899V5.9083ZM13.6325 3.02163C13.6118 3.3995 13.5877 3.77046 13.5601 4.1338C13.476 4.1338 13.4133 4.14211 13.3713 4.15457C13.4126 3.74901 13.4588 3.35383 13.507 2.96903C13.556 2.58354 13.6083 2.20912 13.6642 1.84578C13.6642 2.25134 13.6531 2.64306 13.6325 3.02094V3.02163Z" fill="#F3F6FF"/>
<path d="M39.0737 14.5572C38.6381 14.9164 38.2012 15.2092 37.7594 15.4334C37.3184 15.6583 36.8807 15.8348 36.4459 15.9629C36.0103 16.0916 35.5823 16.1816 35.1606 16.2328C34.7381 16.284 34.3288 16.3158 33.9325 16.329C33.1648 16.3546 32.417 16.3262 31.6879 16.2432C30.9581 16.1587 30.2296 16.0632 29.5012 15.9539C28.7727 15.8445 28.0263 15.7455 27.2662 15.6549C26.5054 15.5649 25.7032 15.5206 24.8589 15.5206C24.3862 15.5206 23.8996 15.54 23.4014 15.5781C23.4014 13.3689 23.3979 11.1702 23.391 8.98045C23.3848 6.7907 23.3938 4.58504 23.42 2.36346C23.4324 2.20912 23.5027 2.04233 23.6302 1.86239C23.7583 1.68314 24.0071 1.56687 24.3786 1.51566V1.22637C23.8031 1.21322 23.176 1.20699 22.4986 1.20699C21.8211 1.20699 21.194 1.21322 20.6185 1.22637V1.51566C20.9893 1.56687 21.2284 1.66999 21.338 1.82363C21.4462 1.97797 21.5268 2.15722 21.5778 2.36346C21.6033 4.48192 21.6157 6.55678 21.6157 8.58527C21.6157 10.6138 21.6033 12.6886 21.5778 14.8078C21.5268 15.0126 21.4469 15.1926 21.338 15.3462C21.2284 15.5005 20.9893 15.603 20.6185 15.6542V15.9622H22.8438C23.5468 15.9753 24.1829 16.0335 24.7521 16.1359C25.3214 16.2383 25.8617 16.3539 26.3737 16.4826C26.8844 16.6106 27.3772 16.7525 27.8513 16.9062C28.3241 17.0605 28.8196 17.1955 29.3378 17.3103C29.8554 17.4266 30.4088 17.5228 30.9973 17.5996C31.5845 17.6771 32.2433 17.7028 32.9732 17.6771C34.3543 17.6391 35.5562 17.3526 36.5789 16.819C37.6016 16.2868 38.4844 15.5767 39.226 14.6908L39.073 14.5565L39.0737 14.5572Z" fill="#F3F6FF"/>
<path d="M36.3342 1.24159V1.48659C36.5975 1.52673 36.7622 1.63954 36.829 1.82225C36.8945 2.00496 36.8408 2.21951 36.6685 2.46312L32.8967 7.80945L29.0339 2.41744C28.8616 2.18352 28.7955 1.98489 28.8361 1.82225C28.8761 1.65961 29.0436 1.55234 29.3378 1.50112V1.24159H25.8396V1.48659C26.0429 1.48659 26.2173 1.52189 26.3641 1.59248C26.5116 1.66446 26.6453 1.75373 26.7672 1.86031C26.8892 1.96759 26.9947 2.08455 27.087 2.2112C27.178 2.33854 27.269 2.46243 27.3599 2.58562L31.6334 8.54236C31.6334 9.16316 31.6389 9.78188 31.6486 10.3985C31.6589 11.0152 31.6486 11.6332 31.6183 12.2547C31.5976 12.4173 31.5363 12.5571 31.435 12.6748C31.3336 12.7917 31.1359 12.8762 30.8423 12.926V13.1558H33.8236V12.926C33.5293 12.8755 33.3315 12.7814 33.2309 12.6443C33.1289 12.5059 33.0731 12.3765 33.0634 12.2547C33.0531 11.5827 33.051 10.9204 33.0559 10.2691C33.0607 9.61786 33.0634 8.95553 33.0634 8.28352L37.0627 2.587C37.286 2.27141 37.5403 2.0188 37.8235 1.83056C38.1074 1.64231 38.3962 1.52812 38.6905 1.48728V1.24229H36.3335L36.3342 1.24159Z" fill="#F3F6FF"/>
<path d="M49.0796 1.24159V1.47137C49.4339 1.48175 49.693 1.58141 49.8549 1.76965C50.0169 1.9579 50.0934 2.22504 50.0838 2.57108L49.9769 10.6961C49.8446 10.3501 49.6344 9.99642 49.3457 9.63516C49.0569 9.27389 48.7275 8.90432 48.3574 8.52714C47.9866 8.15134 47.5862 7.76861 47.1548 7.38174C46.7241 6.99487 46.2961 6.60246 45.8695 6.2052C45.4539 5.81833 45.0591 5.40377 44.6835 4.96015C44.3079 4.51722 43.9709 4.07498 43.6725 3.63204C43.3727 3.18842 43.1239 2.75864 42.9268 2.34131C42.729 1.92329 42.5953 1.55718 42.5243 1.2409H40.1674V1.60771C40.492 1.62847 40.7345 1.72467 40.8972 1.89769C41.0591 2.0714 41.1356 2.33577 41.126 2.69289L41.004 11.8263C40.9937 12.1931 40.8944 12.463 40.707 12.636C40.5195 12.8097 40.2687 12.9059 39.9544 12.926V13.1558H42.4637V12.926C42.1087 12.9156 41.8379 12.8173 41.6504 12.6284C41.463 12.4402 41.3734 12.173 41.3844 11.8263L41.5209 2.64721C41.5919 2.91159 41.7256 3.2341 41.9234 3.61682C42.1211 3.99815 42.3672 4.39818 42.6614 4.81619C42.9557 5.23352 43.2872 5.65154 43.658 6.06817C44.0281 6.48619 44.4105 6.86199 44.8068 7.19903C45.4154 7.70771 46.0129 8.23992 46.6014 8.79497C47.1886 9.34933 47.722 9.89192 48.1982 10.4214C48.6744 10.9508 49.0707 11.4526 49.3849 11.9259C49.6992 12.3986 49.8867 12.8042 49.948 13.1399H50.3126L50.48 2.57039C50.48 2.20359 50.5793 1.93437 50.7771 1.76066C50.9748 1.58763 51.2305 1.49074 51.5448 1.47067V1.2409H49.081L49.0796 1.24159Z" fill="#F3F6FF"/>
<path d="M60.0187 8.89117C59.925 9.16662 59.7989 9.38878 59.6425 9.55764C59.486 9.72721 59.2724 9.8587 59.0022 9.95282C58.7314 10.0469 58.3944 10.112 57.9912 10.148C57.5881 10.1833 57.0843 10.2047 56.4813 10.213C56.1677 10.213 55.8858 10.2165 55.635 10.2248C55.3834 10.2331 55.1023 10.2283 54.7887 10.213C54.7804 9.88292 54.7749 9.50851 54.7708 9.09188C54.7673 8.67455 54.7652 8.24753 54.7652 7.81152V5.40931L56.7755 5.39754C57.0257 5.41277 57.2373 5.49651 57.4096 5.64531C57.5819 5.79411 57.688 5.97197 57.7273 6.17683H57.903L57.9147 4.2999H57.7273C57.7038 4.44178 57.6611 4.56497 57.5977 4.67155C57.535 4.77744 57.4585 4.86672 57.3682 4.938C57.2779 5.00859 57.1808 5.06119 57.0746 5.09718C56.9678 5.13178 56.8686 5.15047 56.7749 5.15047L54.7646 5.16224C54.7646 4.79266 54.7666 4.46323 54.7701 4.17602C54.7749 3.88881 54.7763 3.6099 54.7763 3.33791C54.7763 3.06592 54.7783 2.78701 54.7818 2.4998C54.7852 2.21258 54.788 1.88454 54.788 1.51358C54.9362 1.50597 55.074 1.50182 55.1987 1.50182H55.575C55.7004 1.50182 55.83 1.50459 55.963 1.50805C56.096 1.51151 56.2408 1.51358 56.3986 1.51358C56.9313 1.52189 57.393 1.54542 57.7852 1.58487C58.1766 1.62432 58.5081 1.68107 58.7789 1.75581C59.0498 1.83056 59.2627 1.92883 59.4192 2.05064C59.5756 2.17314 59.69 2.31709 59.7596 2.48111L60.0181 2.44651L59.7245 1.25405H56.3745C56.0767 1.25405 55.808 1.25198 55.5695 1.24851C55.3297 1.24505 55.0692 1.24229 54.788 1.24229L53.5537 1.25405H53.072V1.45545C53.2201 1.46306 53.3359 1.48313 53.4179 1.51427C53.5006 1.54611 53.5592 1.58071 53.5944 1.62016C53.6302 1.6603 53.6509 1.70529 53.6591 1.7565C53.6667 1.80772 53.6709 1.86101 53.6709 1.91568V9.54034C53.6709 9.7452 53.6392 9.91061 53.5764 10.0359C53.5137 10.1618 53.3463 10.2442 53.072 10.2836V10.4608H59.9822L60.2999 8.89117H60.0174H60.0187Z" fill="#F3F6FF"/>
<path d="M56.5495 11.627C56.4351 11.7861 56.309 11.9301 56.1718 12.0595C56.0354 12.1876 55.892 12.3052 55.7411 12.4111C56.0774 12.6333 56.3462 12.8949 56.5488 13.1959C56.646 13.0181 56.7611 12.8706 56.8934 12.7502C57.0257 12.6305 57.1794 12.5177 57.3565 12.4111C57.0126 12.1896 56.7432 11.9287 56.5488 11.627H56.5495Z" fill="#F3F6FF"/>
<path d="M6.93721 22.3182H7.58503C7.91996 22.3182 8.08467 22.4864 8.08467 22.739C8.08467 22.912 7.98406 23.0802 7.6884 23.1128C8.03781 23.1501 8.1591 23.3252 8.1591 23.5335C8.1591 23.8131 7.95993 23.9765 7.60226 23.9765H6.93721V22.3182ZM7.09986 22.4615V23.0525H7.52576C7.75732 23.0525 7.91996 22.9833 7.91996 22.7584C7.91996 22.5335 7.75732 22.4615 7.53334 22.4615H7.09986ZM7.09986 23.1958V23.8311H7.57538C7.8538 23.8311 7.99439 23.737 7.99439 23.5121C7.99439 23.2872 7.80487 23.1958 7.55126 23.1958H7.09986Z" fill="#F3F6FF"/>
<path d="M11.2362 23.9751V22.3182H11.3989V23.9751H11.2362Z" fill="#F3F6FF"/>
<path d="M14.465 23.1439C14.465 22.6664 14.7799 22.2933 15.2479 22.2933C15.7158 22.2933 16.0307 22.6671 16.0307 23.1439C16.0307 23.6207 15.7158 24 15.2479 24C14.7799 24 14.465 23.6263 14.465 23.1439ZM15.8633 23.1439C15.8633 22.7432 15.6393 22.4442 15.2499 22.4442C14.8605 22.4442 14.6345 22.7432 14.6345 23.1439C14.6345 23.5446 14.8585 23.8464 15.2499 23.8464C15.6414 23.8464 15.8633 23.5495 15.8633 23.1439Z" fill="#F3F6FF"/>
<path d="M19.0272 23.1439C19.0272 22.6567 19.3008 22.2933 19.7805 22.2933C20.1595 22.2933 20.3959 22.5086 20.4924 22.8352L20.3497 22.9314C20.2884 22.6449 20.1182 22.4442 19.7832 22.4442C19.3939 22.4442 19.1975 22.7363 19.1975 23.1439C19.1975 23.5515 19.3946 23.8436 19.7832 23.8436C20.1182 23.8436 20.2884 23.6429 20.3497 23.3564L20.4924 23.4526C20.3966 23.7792 20.1602 23.9945 19.7805 23.9945C19.3001 23.9945 19.0272 23.6311 19.0272 23.1439Z" fill="#F3F6FF"/>
<path d="M23.4427 23.1439C23.4427 22.6664 23.7577 22.2933 24.2256 22.2933C24.6935 22.2933 25.0085 22.6671 25.0085 23.1439C25.0085 23.6207 24.6935 24 24.2256 24C23.7577 24 23.4427 23.6263 23.4427 23.1439ZM24.8417 23.1439C24.8417 22.7432 24.6177 22.4442 24.2284 22.4442C23.839 22.4442 23.6129 22.7432 23.6129 23.1439C23.6129 23.5446 23.8369 23.8464 24.2284 23.8464C24.6198 23.8464 24.8417 23.5495 24.8417 23.1439Z" fill="#F3F6FF"/>
<path d="M27.9829 23.5668L28.1084 23.4581C28.1869 23.7425 28.4557 23.8464 28.6721 23.8464C28.874 23.8464 29.0511 23.7647 29.0511 23.5543C29.0511 23.3591 28.9161 23.2899 28.6645 23.2304L28.4846 23.191C28.2531 23.1363 28.0312 23.0352 28.0312 22.7459C28.0312 22.4567 28.2848 22.2961 28.5632 22.2961C28.8664 22.2961 29.0925 22.4324 29.189 22.6816L29.0539 22.7902C28.9774 22.5577 28.8003 22.449 28.5611 22.449C28.362 22.449 28.2014 22.5529 28.2014 22.7335C28.2014 22.9141 28.322 22.9882 28.5363 23.0401L28.7307 23.0871C28.9843 23.1467 29.2131 23.2456 29.2131 23.5495C29.2131 23.8533 28.9739 23.9972 28.6714 23.9972C28.3689 23.9972 28.0877 23.8733 27.9816 23.5668H27.9829Z" fill="#F3F6FF"/>
<path d="M32.273 23.9751V22.3182H32.4501L32.9325 23.2207L33.0752 23.5197L33.2178 23.2207L33.7002 22.3182H33.8774V23.9751H33.7175V22.9169L33.7319 22.548L33.5741 22.8892L33.153 23.6706H32.9952L32.5741 22.8892L32.4143 22.548L32.4342 22.9169V23.9751H32.2716H32.273Z" fill="#F3F6FF"/>
<path d="M37.0716 23.9751V22.3182H38.1798V22.4615H37.2343V23.0574H38.0199V23.2034H37.2343V23.8318H38.1798V23.9751H37.0716Z" fill="#F3F6FF"/>
<path d="M41.5512 23.9751V22.4615H41.0143V22.3182H42.2507V22.4615H41.7138V23.9751H41.5512Z" fill="#F3F6FF"/>
<path d="M45.1362 23.9751V22.3182H45.2989V23.9751H45.1362Z" fill="#F3F6FF"/>
<path d="M48.3643 23.1439C48.3643 22.6567 48.6379 22.2933 49.1175 22.2933C49.4966 22.2933 49.733 22.5086 49.8295 22.8352L49.6868 22.9314C49.6255 22.6449 49.4552 22.4442 49.1203 22.4442C48.7309 22.4442 48.5345 22.7363 48.5345 23.1439C48.5345 23.5515 48.7316 23.8436 49.1203 23.8436C49.4552 23.8436 49.6255 23.6429 49.6868 23.3564L49.8295 23.4526C49.7337 23.7792 49.4973 23.9945 49.1175 23.9945C48.6372 23.9945 48.3643 23.6311 48.3643 23.1439Z" fill="#F3F6FF"/>
<path d="M52.7991 23.5668L52.9245 23.4581C53.0031 23.7425 53.2718 23.8464 53.4882 23.8464C53.6902 23.8464 53.8673 23.7647 53.8673 23.5543C53.8673 23.3591 53.7322 23.2899 53.4806 23.2304L53.3008 23.191C53.0692 23.1363 52.8473 23.0352 52.8473 22.7459C52.8473 22.4567 53.1009 22.2961 53.3793 22.2961C53.6826 22.2961 53.9086 22.4324 54.0051 22.6816L53.87 22.7902C53.7935 22.5577 53.6164 22.449 53.3773 22.449C53.1781 22.449 53.0175 22.5529 53.0175 22.7335C53.0175 22.9141 53.1381 22.9882 53.3525 23.0401L53.5468 23.0871C53.8004 23.1467 54.0292 23.2456 54.0292 23.5495C54.0292 23.8533 53.7901 23.9972 53.4875 23.9972C53.185 23.9972 52.9038 23.8733 52.7977 23.5668H52.7991Z" fill="#F3F6FF"/>
<path d="M62.6562 2.82369C62.9698 2.82369 63.2165 2.72542 63.3963 2.52887C63.5769 2.33162 63.6665 2.08801 63.6665 1.79803C63.6665 1.50805 63.5769 1.26166 63.3963 1.06581C63.2165 0.869946 62.9698 0.771671 62.6562 0.771671C62.3426 0.771671 62.098 0.869946 61.9174 1.06581C61.7362 1.26166 61.6459 1.50597 61.6459 1.79803C61.6459 2.09009 61.7362 2.33231 61.9174 2.52887C62.098 2.72542 62.3447 2.82369 62.6562 2.82369ZM62.0208 1.15093C62.1758 0.980679 62.3874 0.894861 62.6562 0.894861C62.925 0.894861 63.1372 0.979987 63.293 1.15093C63.4487 1.32118 63.5266 1.53711 63.5266 1.79734C63.5266 2.05756 63.4487 2.27072 63.293 2.44097C63.1372 2.61122 62.925 2.69704 62.6562 2.69704C62.3874 2.69704 62.1758 2.61192 62.0208 2.44097C61.8657 2.27072 61.7885 2.05548 61.7885 1.79734C61.7885 1.53919 61.8657 1.32118 62.0208 1.15093Z" fill="#F3F6FF"/>
<path d="M62.6479 1.91568L62.998 2.32055H63.1434V2.2984L62.8071 1.91568C62.9077 1.90253 62.9863 1.86031 63.0407 1.78765C63.0959 1.71567 63.1214 1.63885 63.1179 1.55857C63.1138 1.47829 63.08 1.40562 63.0173 1.34056C62.9539 1.2762 62.8678 1.24367 62.7596 1.24367H62.2833V2.32055H62.415V1.91568H62.6479ZM62.4157 1.37309H62.7603C62.8181 1.37309 62.8664 1.38762 62.9043 1.41669C62.9422 1.44576 62.9663 1.48105 62.9753 1.52258C62.9849 1.56341 62.9842 1.60563 62.9739 1.64785C62.9636 1.69006 62.9387 1.72605 62.8981 1.75512C62.8581 1.78419 62.8092 1.79872 62.7513 1.79872H62.4157V1.37309Z" fill="#F3F6FF"/>
</svg>
