<svg width="44" height="24" viewBox="0 0 44 24" fill="none" xmlns="http://www.w3.org/2000/svg">
<path d="M36.9611 9.25791C36.3666 10.4304 35.2811 11.3649 34.3374 12.3436C35.721 12.7152 37.2609 13.0449 38.2961 13.9094C39.4982 14.9131 40.6873 16.5552 40.5529 18.1484C40.3787 20.2176 38.0523 22.3503 35.6756 21.4729C33.7866 20.7757 34.267 19.3828 33.9065 17.8894C33.5784 16.5335 32.4865 15.2967 31.2536 14.5142C29.0357 15.5677 26.7263 16.507 24.3115 17.0177C19.0941 18.1218 12.7182 17.6763 9.06414 14.6686C9.0042 14.6195 8.19173 13.9504 8.68909 14.0397C9.06576 14.1072 9.66519 14.4112 10.0735 14.5303C17.8466 16.8013 27.5242 15.0385 34.8883 10.5784C35.5889 10.1538 36.2175 9.62463 36.9611 9.25469V9.25791ZM36.8923 16.4137C36.7773 15.5484 36.4857 14.6332 35.9 13.9609C35.6262 13.6472 34.5659 12.8422 34.1179 12.7948C33.7412 12.7546 33.4634 13.2017 33.1313 13.3835C33.4812 13.5033 33.8247 13.5395 34.1778 13.6754C35.1491 14.0477 35.8311 14.8857 36.3496 15.6529C36.5189 15.9038 36.6031 16.2826 36.8923 16.4145V16.4137Z" fill="#F3F6FF"/>
<path d="M28.2508 18.8882C28.3788 18.848 28.4071 18.9035 28.4816 18.9582C29.5679 19.7543 30.4371 21.329 30.0086 22.6792C29.5987 23.9692 27.4691 24.6013 27.0163 23.2293C26.77 22.4846 27.6643 21.9337 27.9778 21.2992C28.0831 21.0861 28.2864 20.4267 28.2816 20.2288L28.2516 18.8882H28.2508Z" fill="#F3F6FF"/>
<path d="M43.077 12.991C42.7643 13.2572 42.1754 13.3706 41.7825 13.2966C41.3005 13.2057 41.2276 12.7288 40.9222 12.4723C40.8169 12.3838 40.1819 12.0895 40.1835 12.0445C40.8364 11.4365 42.3447 11.2009 43.094 11.5547C43.6051 11.796 43.4957 12.6348 43.077 12.9918V12.991Z" fill="#F3F6FF"/>
<path d="M0.589491 13.4985C0.862475 13.1535 1.2675 13.365 1.39062 13.6834C1.88151 14.7932 3.08361 15.8154 4.37967 15.1656C5.51535 14.5857 6.26545 13.3682 6.78631 12.2656C7.30716 11.1558 7.51858 9.85945 7.04471 8.80032C6.61458 7.80633 5.57529 7.04957 4.43152 7.6479C4.0346 7.86503 3.54452 8.13846 3.29503 8.52126C3.13059 8.80595 3.11439 9.14854 3.06336 9.45816C2.86652 10.7063 3.11358 11.9214 3.0828 13.1511C3.0828 13.632 3.00341 14.215 2.36834 14.0759C1.69277 13.8459 1.50403 12.4329 1.39386 11.7686C1.0018 9.24022 1.07471 6.57992 1.534 3.98154C1.73813 2.94171 1.90095 1.83995 2.4056 0.870892C2.55222 0.563687 2.87138 0.335294 3.20592 0.341727C3.82318 0.340119 3.58259 1.16121 3.55748 1.58824C3.44651 2.3659 3.23185 3.14115 3.13707 3.91962C3.05121 4.60882 2.99693 5.30767 2.95481 5.99928C2.95238 6.07166 2.9297 6.31373 2.97101 6.31534C3.63525 4.64099 4.09454 2.80178 5.17513 1.28988C5.49348 0.881347 5.83613 0.443057 6.31486 0.231552C6.73527 0.0473894 7.19619 0.117355 7.40356 0.500959C7.75673 1.18936 7.59473 2.08765 7.39627 2.85807C7.02365 4.13193 6.43556 5.43474 5.56152 6.49306C5.29178 6.80831 5.25452 6.92814 5.71867 6.91527C8.30189 6.94583 9.37277 9.83292 8.38128 12.1764C7.63928 14.1217 5.93576 16.158 3.78996 16.24C2.68345 16.277 1.32015 15.8829 0.718288 14.9066C0.507677 14.5463 0.335138 13.9408 0.579771 13.5105L0.587871 13.4993L0.589491 13.4985ZM6.05484 4.06599C6.50279 3.22881 6.94507 2.41335 7.12409 1.47887C7.33065 0.393196 6.83086 0.00717939 6.16095 1.11698C5.2367 2.60636 4.49632 4.20109 3.94711 5.84166C3.82561 6.20194 3.71301 6.56625 3.60932 6.92733C3.49673 7.29968 3.50888 7.44685 3.83695 7.0922C4.70369 6.17541 5.44812 5.179 6.04593 4.08126L6.05403 4.06599H6.05484Z" fill="#F3F6FF"/>
<path d="M9.47321 10.6765C9.41408 9.55144 9.38654 8.22773 9.87094 7.1115C10.0232 6.711 10.5384 6.53086 10.8859 6.6531C11.0763 6.72146 11.1589 6.92653 11.2035 7.12275C11.4619 8.38455 11.018 9.81281 11.2747 11.0979C11.2918 11.5981 11.8077 12.5366 11.2229 12.8776C10.9831 13.0071 10.6972 12.9468 10.476 12.8535C9.68382 12.5085 9.52668 11.5016 9.47321 10.6918V10.6765ZM11.0082 2.89587C11.3233 3.15643 11.4602 3.70329 11.4813 4.15123C11.4878 4.39571 11.4651 5.07606 11.2132 5.09778C10.9937 5.06078 10.8406 4.84606 10.6356 4.77047C10.4129 4.66431 10.148 4.6426 9.95438 4.48578C9.61497 4.21396 9.56799 3.54567 9.88633 3.15724C10.1496 2.83073 10.6875 2.64496 10.9977 2.88783L11.009 2.89668L11.0082 2.89587Z" fill="#F3F6FF"/>
<path d="M17.3606 8.23899C17.1775 6.70457 16.2468 6.02985 14.7385 6.30649C14.3399 6.36841 13.9584 6.41827 13.6093 6.62254C12.4153 7.40744 11.9309 9.06651 11.8798 10.3605V10.3749C11.8774 11.3939 12.3902 12.7867 13.3776 13.0521C14.3683 13.2476 15.4983 12.8141 16.2605 12.0445C16.2605 12.0437 16.2605 12.0429 16.2622 12.0429C16.3788 11.9254 16.4874 11.7984 16.5846 11.6657C17.12 10.851 17.3492 9.46861 17.3654 9.36889C17.3654 9.36487 17.3654 9.36326 17.3654 9.36326C17.4043 8.98448 17.4051 8.60007 17.3598 8.2406L17.3606 8.23899ZM14.5538 7.70098C14.6008 7.36965 14.6494 6.96835 15.0147 6.88793C15.7575 6.73272 15.9479 6.97478 16.1804 7.60367C16.4776 8.34434 16.5368 9.20644 16.3902 10.0324C16.348 10.3275 16.1787 10.4698 15.9122 10.3524C15.3258 10.1168 14.8333 9.60211 14.6478 8.97724L14.6437 8.96196C14.5222 8.56871 14.4971 8.1272 14.5538 7.69937V7.70098ZM15.1103 12.4281C14.8867 12.5881 14.6081 12.7956 14.3416 12.7457L14.3294 12.7425C13.525 12.3131 13.5963 10.4168 13.6806 9.52169C13.6919 9.45092 13.6976 9.28204 13.7672 9.28686C13.9001 9.38497 13.9876 9.63589 14.1115 9.76375C14.506 10.2479 15.09 10.5519 15.7672 10.7376C16.088 10.8156 16.1966 10.9902 16.0248 11.3151C15.8102 11.7598 15.5153 12.1241 15.1103 12.4289V12.4281Z" fill="#F3F6FF"/>
<path d="M20.2111 0.226726C20.3537 0.379525 20.3764 0.60068 20.3691 0.819423C20.3108 2.89828 20.0086 5.51757 20.1771 7.53772C20.2281 7.85377 20.3966 7.58598 20.4922 7.43961C20.7223 7.07611 20.9985 6.74719 21.3184 6.51237C21.9624 6.02422 23.0074 5.8296 23.5987 6.28397C24.0742 6.60807 24.271 7.27475 24.3326 7.87549C24.5149 9.47505 24.1925 11.2765 23.1273 12.5913C22.8543 12.9291 22.5772 13.1864 22.2071 13.4245C21.6125 13.8113 20.2459 14.4949 19.8053 13.7582C19.7753 13.6553 19.8652 13.5588 20.0191 13.5097C20.4331 13.402 20.8681 13.4727 21.2439 13.2291C22.1447 12.6516 22.7036 11.4992 23.0098 10.4924C23.2917 9.4091 23.4124 8.10468 23.1078 7.07692C22.9612 6.66195 22.5351 6.40943 22.1074 6.596C21.3735 6.92814 20.9839 8.17385 20.7061 8.90728C20.608 9.20001 20.506 9.49354 20.4363 9.79351C20.2646 10.3886 20.4112 11.4445 19.7867 11.7501C19.0609 12.03 18.7652 11.2049 18.5846 10.6291C18.1893 9.24183 18.3407 7.42755 18.3391 6.1175C18.378 4.44878 18.4477 2.70286 18.5975 1.09044C18.6728 0.278195 19.6368 -0.347474 20.2022 0.216272L20.2119 0.226726H20.2111Z" fill="#F3F6FF"/>
<path d="M29.1094 5.10984C29.0956 4.86134 29.128 4.33137 28.9361 4.27829C28.5602 4.37882 28.2176 5.294 28.0369 5.64061C27.5177 6.74639 27.0236 7.8771 26.6283 9.02871C26.4501 9.6013 26.5262 10.2567 26.2678 10.8108C26.0839 11.151 25.4497 11.2137 25.2075 11.0022C24.9361 10.7425 24.8883 10.2849 24.8413 9.90047C24.7798 9.06008 24.8923 8.22612 24.9693 7.37206C25.0203 6.9217 25.0949 6.46331 25.2382 6.02422C25.3638 5.67921 25.4926 5.29078 25.8045 5.07284C26.2176 4.81791 26.7911 4.83882 26.7814 5.37925C26.8389 6.08131 26.514 7.12275 26.4695 7.82C26.4881 7.86342 26.5343 7.75003 26.5618 7.69052C26.8292 7.03912 27.1167 6.37083 27.3946 5.73792C27.6368 5.18865 27.8846 4.60319 28.3131 4.16088C28.6785 3.77004 29.3751 3.48294 29.7818 3.8199C30.0223 4.04508 30.0515 4.45683 30.0693 4.79781C30.1155 6.18747 30.0661 7.54818 30.1325 8.90647C30.1657 9.41553 30.2086 9.94389 30.3431 10.432C30.3933 10.7055 30.5918 10.9741 30.6299 11.2137C30.638 11.336 30.4598 11.4132 30.3091 11.4116C30.0118 11.4293 29.8044 11.2443 29.6821 11.003C28.7976 9.24906 29.0381 7.14447 29.1078 5.12512V5.10984H29.1094Z" fill="#F3F6FF"/>
<path d="M30.8437 7.87147C30.787 6.79464 30.7611 5.52802 31.2244 4.45924C31.3702 4.07564 31.8627 3.90354 32.1965 4.02095C32.3787 4.08689 32.4581 4.28232 32.5011 4.4705C32.7481 5.67761 32.3229 7.04555 32.5691 8.27518C32.5853 8.75448 33.0786 9.65197 32.5197 9.97847C32.2896 10.1031 32.0167 10.0444 31.8044 9.95515C31.0462 9.62543 30.8956 8.66119 30.8453 7.88594V7.87066L30.8437 7.87147ZM32.6282 0.549211C32.8 0.839528 32.7878 1.27541 32.591 1.59306C32.4525 1.81502 32.2038 1.92842 31.9851 2.05548C31.8401 2.14073 31.7097 2.25412 31.5906 2.37636C31.4375 2.53961 31.2423 2.71573 31.1475 2.43506C30.9093 1.82146 31.0235 0.324839 31.8895 0.219489C32.1722 0.193754 32.4719 0.311168 32.6218 0.537952L32.629 0.550015L32.6282 0.549211Z" fill="#F3F6FF"/>
<path d="M37.4099 4.05633C37.3961 3.80784 37.4285 3.27787 37.2366 3.22479C36.8607 3.32531 36.5181 4.2405 36.3374 4.58711C35.8182 5.69288 35.3241 6.82359 34.9288 7.97521C34.7505 8.5478 34.8267 9.20322 34.5683 9.75732C34.3844 10.0975 33.7501 10.1602 33.5079 9.94872C33.2366 9.68896 33.1888 9.23137 33.1418 8.84696C33.0802 8.00657 33.1928 7.17262 33.2698 6.31855C33.3208 5.8682 33.3953 5.40981 33.5387 4.97071C33.6643 4.62571 33.7931 4.23728 34.1049 4.01934C34.5181 3.76441 35.0916 3.78532 35.0819 4.32574C35.1394 5.02781 34.8137 6.06925 34.77 6.76649C34.791 6.80751 34.8332 6.69814 34.8623 6.63702C35.1296 5.98561 35.4172 5.31732 35.6942 4.68442C35.9364 4.13515 36.1843 3.54969 36.6128 3.10738C36.9782 2.71653 37.6748 2.42943 38.0814 2.7664C38.322 2.99157 38.3512 3.40332 38.369 3.7443C38.4152 5.13396 38.3658 6.49467 38.4322 7.85297C38.4654 8.36203 38.5083 8.89039 38.6428 9.37854C38.6938 9.65358 38.8874 9.91012 38.9295 10.1602C38.9376 10.2825 38.7594 10.3597 38.6088 10.3581C38.3115 10.3758 38.1041 10.1908 37.9818 9.94952C37.0972 8.19556 37.3386 6.09096 37.4075 4.07161V4.05633H37.4099Z" fill="#F3F6FF"/>
<path d="M39.0462 7.0922C39.0907 5.87222 39.4666 4.34263 40.6339 3.65825C41.256 3.30923 42.1341 3.11461 42.6808 3.54084C43.1256 3.8963 43.0624 4.51071 42.761 5.01012C42.4808 5.50711 42.1292 5.89635 41.7056 6.24135C41.5184 6.39576 41.3078 6.52845 41.1053 6.65471C40.9636 6.74639 40.8356 6.86058 40.7837 7.01982C40.693 7.39457 40.7781 7.92696 40.9287 8.26311C41.3872 9.05525 42.2661 7.91731 42.7643 7.30048C42.8923 7.1115 43.1968 6.83565 43.3815 6.89919C43.5055 6.94824 43.4609 7.08496 43.3953 7.20639C42.8348 8.15615 41.7469 9.12924 40.7416 9.26676C39.367 9.4083 38.9927 8.31378 39.0454 7.10667V7.09059L39.0462 7.0922ZM40.8194 6.40701C40.9093 6.43114 41.0324 6.31373 41.1126 6.2502C41.7963 5.66152 42.5075 4.73026 42.2191 3.84C42.1608 3.68158 42.0134 3.62126 41.8538 3.68479C41.2066 3.92123 40.8817 5.24414 40.774 6.14485C40.7651 6.2317 40.7521 6.36761 40.8137 6.4046L40.8194 6.40701Z" fill="#F3F6FF"/>
<path d="M17.3671 9.36165C17.3671 9.36165 17.3671 9.36326 17.3671 9.36728C17.3509 9.467 17.1216 10.8494 16.5862 11.6641C16.489 11.8121 16.3812 11.9415 16.2638 12.0413C16.263 12.0413 16.2638 12.0421 16.2622 12.0429C15.4732 12.7055 16.7603 10.4771 16.7603 10.4771L17.3679 9.36085L17.3671 9.36165Z" fill="#F3F6FF"/>
</svg>
