<svg width="68" height="24" viewBox="0 0 68 24" fill="none" xmlns="http://www.w3.org/2000/svg">
<path d="M26.6032 13.6849C25.9408 13.6849 25.3093 13.633 24.708 13.5292C24.1067 13.4254 23.5749 13.2418 23.1111 12.9777C22.6473 12.7136 22.2689 12.3532 21.9758 11.8965C21.6827 11.4398 21.5021 10.8575 21.4364 10.1502H24.0198C24.0954 10.452 24.2208 10.6972 24.396 10.8853C24.5713 11.0742 24.7745 11.2179 25.0064 11.3164C25.2383 11.4158 25.4913 11.4812 25.7655 11.5143C26.0397 11.5474 26.3192 11.564 26.6032 11.564C26.8495 11.564 27.0882 11.5519 27.3201 11.5286C27.552 11.5053 27.7597 11.4601 27.9448 11.3947C28.1291 11.3285 28.2787 11.2367 28.392 11.1193C28.5053 11.0019 28.5619 10.8485 28.5619 10.6596C28.5619 10.4241 28.4645 10.2405 28.2711 10.1081C28.077 9.97645 27.8194 9.87262 27.4976 9.79738C27.1758 9.72214 26.8117 9.6612 26.4046 9.6138C25.9974 9.5664 25.5812 9.50546 25.1552 9.43022C24.7291 9.35498 24.3129 9.25567 23.9058 9.13303C23.4986 9.01039 23.1345 8.83584 22.8127 8.61012C22.4909 8.38366 22.2334 8.09173 22.0392 7.7336C21.8451 7.37547 21.7484 6.9278 21.7484 6.3906C21.7484 5.72174 21.8972 5.19131 22.1956 4.80007C22.494 4.40883 22.8626 4.10713 23.303 3.89495C23.7434 3.68278 24.2117 3.5466 24.708 3.48491C25.205 3.42396 25.6567 3.39312 26.0631 3.39312C26.7067 3.39312 27.305 3.44954 27.8587 3.5624C28.4124 3.67526 28.8951 3.86185 29.3067 4.12067C29.7184 4.38024 30.0515 4.71655 30.3076 5.13187C30.5629 5.54643 30.7193 6.06031 30.776 6.67274H28.1926C28.1548 6.42747 28.0649 6.22959 27.9229 6.07912C27.7809 5.92864 27.6079 5.81052 27.4047 5.7255C27.2007 5.64048 26.9809 5.58405 26.7445 5.55621C26.5081 5.52762 26.2807 5.51408 26.0631 5.51408C25.8267 5.51408 25.5971 5.53063 25.375 5.56374C25.1529 5.59684 24.9565 5.64875 24.7858 5.71948C24.6158 5.7902 24.4783 5.87973 24.3741 5.98808C24.2699 6.09642 24.2177 6.2311 24.2177 6.39135C24.2177 6.68328 24.3854 6.89319 24.7216 7.02034C25.0577 7.1475 25.4785 7.25132 25.9846 7.33108C26.4907 7.41158 27.0368 7.49886 27.6238 7.59291C28.2107 7.68695 28.7568 7.8427 29.2629 8.05938C29.769 8.27607 30.1905 8.58755 30.5259 8.99233C30.8621 9.39787 31.0298 9.95388 31.0298 10.6604C31.0298 11.33 30.8855 11.8642 30.5969 12.2652C30.3084 12.6662 29.9443 12.9724 29.5039 13.1838C29.0635 13.396 28.5861 13.5322 28.0702 13.5939C27.5543 13.6548 27.0648 13.6857 26.601 13.6857L26.6032 13.6849Z" fill="#F3F6FF"/>
<path d="M34.5513 13.6631C33.7 13.6631 33.0844 13.475 32.7059 13.0973C32.3275 12.7204 32.1379 12.1079 32.1379 11.2593V3.38484H34.466V11.0614C34.466 11.2307 34.4947 11.3443 34.5513 11.4007C34.608 11.4571 34.7213 11.4857 34.892 11.4857H38.4974V13.6631H34.5513Z" fill="#F3F6FF"/>
<path d="M42.9829 13.6849C42.4625 13.6849 41.973 13.5954 41.5137 13.4163C41.0545 13.2373 40.6549 12.9852 40.3142 12.6602C39.9735 12.3352 39.7038 11.9371 39.5052 11.4654C39.3065 10.9944 39.2068 10.4708 39.2068 9.89594C39.2068 9.32112 39.3065 8.78617 39.5052 8.3197C39.7038 7.85322 39.9735 7.45747 40.3142 7.13244C40.6549 6.80741 41.0545 6.55537 41.5137 6.3763C41.9722 6.19723 42.4625 6.1077 42.9829 6.1077C43.5034 6.1077 44.0027 6.19272 44.4522 6.362C44.9016 6.53129 45.2944 6.77882 45.6306 7.1046C45.9667 7.42963 46.2288 7.82087 46.4184 8.27832C46.6073 8.73576 46.7024 9.25641 46.7024 9.84026V10.0946C46.7024 10.1886 46.6979 10.2736 46.6881 10.3489C46.6881 10.4429 46.6836 10.5377 46.6737 10.6318H41.5636C41.658 11.0185 41.8287 11.3172 42.0742 11.5294C42.3205 11.7415 42.6226 11.8476 42.9829 11.8476C43.2292 11.8476 43.4513 11.8002 43.6499 11.7062C43.8486 11.6121 44.014 11.4707 44.147 11.2818H46.5597C46.4554 11.5737 46.3021 11.8642 46.0981 12.1516C45.8942 12.439 45.6441 12.6955 45.3458 12.922C45.0474 13.1485 44.7022 13.3321 44.3094 13.4735C43.9166 13.615 43.4739 13.6857 42.9822 13.6857L42.9829 13.6849ZM44.3169 8.99082C44.2316 8.71771 44.0873 8.47469 43.8841 8.26252C43.6802 8.05035 43.3803 7.94426 42.9829 7.94426C42.6513 7.94426 42.3658 8.03605 42.1241 8.21963C41.8831 8.40321 41.7101 8.66053 41.6059 8.99007H44.3169V8.99082Z" fill="#F3F6FF"/>
<path d="M51.3994 13.6849C50.8789 13.6849 50.3894 13.5954 49.9302 13.4163C49.4709 13.2373 49.0713 12.9852 48.7306 12.6602C48.3899 12.3352 48.1203 11.9371 47.9216 11.4654C47.7229 10.9944 47.6232 10.4708 47.6232 9.89594C47.6232 9.32112 47.7229 8.78617 47.9216 8.3197C48.1203 7.85322 48.3899 7.45747 48.7306 7.13244C49.0713 6.80741 49.4709 6.55537 49.9302 6.3763C50.3887 6.19723 50.8789 6.1077 51.3994 6.1077C51.9198 6.1077 52.4191 6.19272 52.8686 6.362C53.318 6.53129 53.7108 6.77882 54.047 7.1046C54.3831 7.42963 54.6452 7.82087 54.8349 8.27832C55.0237 8.73576 55.1189 9.25641 55.1189 9.84026V10.0946C55.1189 10.1886 55.1143 10.2736 55.1045 10.3489C55.1045 10.4429 55.1 10.5377 55.0902 10.6318H49.98C50.0744 11.0185 50.2452 11.3172 50.4907 11.5294C50.7369 11.7415 51.0391 11.8476 51.3994 11.8476C51.6456 11.8476 51.8677 11.8002 52.0664 11.7062C52.265 11.6121 52.4305 11.4707 52.5634 11.2818H54.9761C54.8719 11.5737 54.7185 11.8642 54.5146 12.1516C54.3106 12.439 54.0606 12.6955 53.7622 12.922C53.4638 13.1485 53.1186 13.3321 52.7258 13.4735C52.333 13.615 51.8904 13.6857 51.3986 13.6857L51.3994 13.6849ZM52.7341 8.99082C52.6488 8.71771 52.5045 8.47469 52.3013 8.26252C52.0974 8.05035 51.7975 7.94426 51.4001 7.94426C51.0685 7.94426 50.783 8.03605 50.5413 8.21963C50.2995 8.40321 50.1273 8.66053 50.0231 8.99007H52.7341V8.99082Z" fill="#F3F6FF"/>
<path d="M56.2821 3.38484H58.6102V8.96901H59.4049L61.2782 6.48088H64.0316L61.3349 10.0156L64.2023 13.6631H61.3636L59.3195 11.0335H58.6102V13.6631H56.2821V3.38484Z" fill="#F3F6FF"/>
<path d="M66.2751 13.6277C65.8491 13.6277 65.5107 13.5119 65.2599 13.2816C65.0091 13.0507 64.8837 12.7234 64.8837 12.299C64.8837 11.8747 65.0091 11.5474 65.2599 11.3164C65.5107 11.0854 65.8491 10.9703 66.2751 10.9703C66.7011 10.9703 67.0388 11.0862 67.2903 11.3164C67.5411 11.5474 67.6665 11.8747 67.6665 12.299C67.6665 12.7234 67.5411 13.0507 67.2903 13.2816C67.0395 13.5126 66.7011 13.6277 66.2751 13.6277Z" fill="#F3F6FF"/>
<path d="M23.7532 17.1241H24.7782V20.5203H24.1142V18.2233C24.1142 18.1571 24.1142 18.0645 24.1165 17.9457C24.118 17.8268 24.1188 17.735 24.1188 17.6703L23.4729 20.5211H22.7802L22.1389 17.6703C22.1389 17.735 22.1397 17.8268 22.1412 17.9457C22.1427 18.0645 22.1435 18.1571 22.1435 18.2233V20.5203H21.4795V17.1241H22.5166L23.1375 19.795L23.7539 17.1241H23.7532Z" fill="#F3F6FF"/>
<path d="M28.673 17.1241H29.479L30.6853 20.5203H29.9126L29.6875 19.8221H28.432L28.2009 20.5203H27.4553L28.673 17.1241ZM28.6262 19.2368H29.4994L29.0688 17.9005L28.6262 19.2368Z" fill="#F3F6FF"/>
<path d="M35.565 17.2113C35.6904 17.2655 35.7969 17.3445 35.8846 17.4483C35.9571 17.5341 36.0137 17.6297 36.056 17.7343C36.0983 17.8388 36.1195 17.9577 36.1195 18.0916C36.1195 18.2526 36.0787 18.4114 35.9971 18.5671C35.9155 18.7229 35.7803 18.8335 35.5922 18.8974C35.7494 18.9606 35.8611 19.0502 35.9269 19.166C35.9926 19.2819 36.0251 19.4587 36.0251 19.6972V19.9252C36.0251 20.0802 36.0311 20.1855 36.0439 20.2412C36.0628 20.3285 36.1066 20.3932 36.1754 20.4345V20.5196H35.389C35.3671 20.4443 35.352 20.3834 35.343 20.3375C35.3241 20.2419 35.3143 20.1449 35.3127 20.0448L35.3082 19.7288C35.3052 19.5121 35.2674 19.3677 35.1957 19.2954C35.1231 19.2232 34.9879 19.1871 34.79 19.1871H34.0943V20.5188H33.3979V17.1226H35.0287C35.2621 17.1271 35.4412 17.1564 35.5665 17.2098L35.565 17.2113ZM34.092 17.7139V18.6266H34.8588C35.0113 18.6266 35.1254 18.6085 35.2017 18.5717C35.3362 18.5069 35.4041 18.3798 35.4041 18.1894C35.4041 17.9833 35.3392 17.8456 35.2085 17.7749C35.1352 17.735 35.0257 17.7147 34.8792 17.7147H34.0928L34.092 17.7139Z" fill="#F3F6FF"/>
<path d="M39.073 17.1241H39.774V18.5235L41.0914 17.1241H42.0122L40.6125 18.5212L42.084 20.5211H41.1677L40.117 19.0381L39.774 19.385V20.5211H39.073V17.1241Z" fill="#F3F6FF"/>
<path d="M47.2644 17.7252H45.4598V18.4468H47.1163V19.0366H45.4598V19.9101H47.3475V20.5211H44.7633V17.1248H47.2644V17.726V17.7252Z" fill="#F3F6FF"/>
<path d="M52.6404 17.1241V17.7252H51.6199V20.5203H50.903V17.7252H49.878V17.1241H52.6404Z" fill="#F3F6FF"/>
<path d="M55.9671 20.5203H55.2593V17.1241H55.9671V20.5203Z" fill="#F3F6FF"/>
<path d="M58.8822 17.1241H59.6292L60.9829 19.4926V17.1241H61.6469V20.5203H60.9345L59.5461 18.1104V20.5203H58.8822V17.1241Z" fill="#F3F6FF"/>
<path d="M66.868 18.1834C66.8144 17.9517 66.6822 17.7892 66.4722 17.6974C66.3551 17.647 66.2244 17.6214 66.0809 17.6214C65.8067 17.6214 65.5809 17.7245 65.4041 17.9306C65.2273 18.1368 65.139 18.4468 65.139 18.8606C65.139 19.2744 65.2349 19.5731 65.426 19.7461C65.6171 19.9192 65.8347 20.0057 66.0787 20.0057C66.3227 20.0057 66.5138 19.9372 66.6663 19.801C66.8189 19.6641 66.9134 19.485 66.9489 19.2638H66.1602V18.6973H67.5804V20.5203H67.1082L67.0365 20.096C66.899 20.2562 66.7759 20.3698 66.6663 20.4353C66.4783 20.5497 66.2471 20.6076 65.9722 20.6076C65.5204 20.6076 65.1503 20.4518 64.8617 20.1404C64.5611 19.8274 64.4108 19.3985 64.4108 18.8553C64.4108 18.3121 64.5626 17.8652 64.8663 17.5334C65.1699 17.2016 65.5718 17.036 66.0719 17.036C66.5054 17.036 66.8537 17.1451 67.1166 17.3641C67.3794 17.583 67.5305 17.8561 67.569 18.1834H66.868Z" fill="#F3F6FF"/>
<path d="M11.4405 8.21741H14.8873C15.1389 8.21741 15.3398 8.00674 15.3247 7.75695C15.0731 3.58726 11.3484 0.22562 7.13712 0.0006582C6.88406 -0.0128847 6.67709 0.184239 6.67784 0.437039C6.67935 1.2466 6.68162 2.94021 6.68238 3.73247C6.68238 3.96269 6.86065 4.1553 7.09028 4.17035C9.31261 4.31556 10.8166 5.65706 11.0092 7.81865C11.0288 8.04286 11.2139 8.21666 11.4405 8.21666V8.21741Z" fill="#F3F6FF"/>
<path d="M7.16582 15.7826H3.71901C3.46747 15.7826 3.26654 15.9933 3.28165 16.243C3.53319 20.4127 7.25797 23.7744 11.4692 23.9993C11.7223 24.0129 11.9292 23.8158 11.9285 23.563C11.927 22.7534 11.9247 21.0598 11.924 20.2675C11.924 20.0373 11.7457 19.8447 11.5161 19.8296C9.29372 19.6844 7.78976 18.3429 7.59714 16.1814C7.5775 15.9571 7.39243 15.7833 7.16582 15.7833V15.7826Z" fill="#F3F6FF"/>
<path d="M9.29073 9.91253C9.29073 9.91253 9.29073 9.91554 9.29073 9.9193C6.85538 9.91253 5.18599 8.5432 4.9828 6.25671C4.9624 6.031 4.76902 5.85945 4.54165 5.85945H1.10467C0.853127 5.85945 0.652196 6.07012 0.667303 6.31991C0.92791 10.6416 4.91859 14.0943 9.31566 14.0882C9.31566 14.0882 9.31566 14.0852 9.31566 14.0815C11.751 14.0882 13.4204 15.4576 13.6236 17.7441C13.644 17.9698 13.8374 18.1413 14.0647 18.1413H17.5017C17.7533 18.1413 17.9542 17.9307 17.9391 17.6809C17.6785 13.3592 13.6878 9.90651 9.29073 9.91253Z" fill="#F3F6FF"/>
</svg>
