<svg width="33" height="32" viewBox="0 0 33 32" fill="none" xmlns="http://www.w3.org/2000/svg">
<path d="M0.5 16C0.5 7.16344 7.66344 0 16.5 0C25.3366 0 32.5 7.16344 32.5 16C32.5 24.8366 25.3366 32 16.5 32C7.66344 32 0.5 24.8366 0.5 16Z" fill="url(#paint0_linear_913_1857)"/>
<path d="M16.5 1C24.7843 1 31.5 7.71573 31.5 16C31.5 24.2843 24.7843 31 16.5 31C8.21573 31 1.5 24.2843 1.5 16C1.5 7.71573 8.21573 1 16.5 1Z" stroke="#F3F6FF" stroke-opacity="0.15" stroke-width="2"/>
<path d="M10.9519 10.4519L11.3055 10.8055L11.3055 10.8055L10.9519 10.4519ZM22.0481 10.4519L21.6945 10.8055L21.6945 10.8055L22.0481 10.4519ZM22.0481 21.5481L21.6945 21.1945L21.6945 21.1945L22.0481 21.5481ZM10.9519 21.5481L11.3055 21.1945L11.3055 21.1945L10.9519 21.5481ZM12.9621 18.1252C12.7716 17.9252 12.4551 17.9175 12.2552 18.1079C12.0552 18.2984 12.0475 18.6149 12.2379 18.8148L12.6 18.47L12.9621 18.1252ZM13.3429 19.25L12.9808 19.5948C13.0752 19.6939 13.206 19.75 13.3429 19.75C13.4797 19.75 13.6106 19.6939 13.7049 19.5948L13.3429 19.25ZM15.5621 17.6448C15.7525 17.4449 15.7448 17.1284 15.5448 16.9379C15.3449 16.7475 15.0284 16.7552 14.8379 16.9552L15.2 17.3L15.5621 17.6448ZM12.9621 13.5752C12.7716 13.3752 12.4551 13.3675 12.2552 13.5579C12.0552 13.7484 12.0475 14.0649 12.2379 14.2648L12.6 13.92L12.9621 13.5752ZM13.3429 14.7L12.9808 15.0448C13.0752 15.1439 13.206 15.2 13.3429 15.2C13.4797 15.2 13.6106 15.1439 13.7049 15.0448L13.3429 14.7ZM15.5621 13.0948C15.7525 12.8949 15.7448 12.5784 15.5448 12.3879C15.3449 12.1975 15.0284 12.2052 14.8379 12.4052L15.2 12.75L15.5621 13.0948ZM17.15 13.55C16.8739 13.55 16.65 13.7739 16.65 14.05C16.65 14.3261 16.8739 14.55 17.15 14.55V14.05V13.55ZM20.4 14.55C20.6761 14.55 20.9 14.3261 20.9 14.05C20.9 13.7739 20.6761 13.55 20.4 13.55V14.05V14.55ZM17.15 18.1C16.8739 18.1 16.65 18.3239 16.65 18.6C16.65 18.8761 16.8739 19.1 17.15 19.1V18.6V18.1ZM20.4 19.1C20.6761 19.1 20.9 18.8761 20.9 18.6C20.9 18.3239 20.6761 18.1 20.4 18.1V18.6V19.1ZM10 16H10.5C10.5 14.4538 10.5011 13.3444 10.6145 12.5005C10.7261 11.6709 10.9379 11.173 11.3055 10.8055L10.9519 10.4519L10.5984 10.0984C10.014 10.6827 9.74989 11.4268 9.62345 12.3672C9.49894 13.2933 9.5 14.4821 9.5 16H10ZM10.9519 10.4519L11.3055 10.8055C11.673 10.4379 12.1709 10.2261 13.0005 10.1145C13.8444 10.0011 14.9538 10 16.5 10V9.5V9C14.9821 9 13.7933 8.99894 12.8672 9.12345C11.9268 9.24989 11.1827 9.51402 10.5984 10.0984L10.9519 10.4519ZM16.5 9.5V10C18.0462 10 19.1555 10.0011 19.9995 10.1145C20.8291 10.2261 21.327 10.4379 21.6945 10.8055L22.0481 10.4519L22.4016 10.0984C21.8173 9.51401 21.0732 9.24989 20.1328 9.12345C19.2067 8.99894 18.0179 9 16.5 9V9.5ZM22.0481 10.4519L21.6945 10.8055C22.0621 11.173 22.2739 11.6709 22.3855 12.5005C22.4989 13.3444 22.5 14.4538 22.5 16H23H23.5C23.5 14.4821 23.5011 13.2933 23.3765 12.3672C23.2501 11.4268 22.986 10.6827 22.4016 10.0983L22.0481 10.4519ZM23 16H22.5C22.5 17.5462 22.4989 18.6555 22.3855 19.4995C22.2739 20.3291 22.0621 20.827 21.6945 21.1945L22.0481 21.5481L22.4016 21.9016C22.986 21.3173 23.2501 20.5732 23.3765 19.6328C23.5011 18.7067 23.5 17.5179 23.5 16H23ZM22.0481 21.5481L21.6945 21.1945C21.327 21.5621 20.8291 21.7739 19.9995 21.8855C19.1555 21.9989 18.0462 22 16.5 22V22.5V23C18.0179 23 19.2067 23.0011 20.1328 22.8765C21.0732 22.7501 21.8173 22.486 22.4016 21.9016L22.0481 21.5481ZM16.5 22.5V22C14.9538 22 13.8444 21.9989 13.0005 21.8855C12.1709 21.7739 11.673 21.5621 11.3055 21.1945L10.9519 21.5481L10.5983 21.9016C11.1827 22.486 11.9268 22.7501 12.8672 22.8765C13.7933 23.0011 14.9821 23 16.5 23V22.5ZM10.9519 21.5481L11.3055 21.1945C10.9379 20.827 10.7261 20.3291 10.6145 19.4995C10.5011 18.6555 10.5 17.5462 10.5 16H10H9.5C9.5 17.5179 9.49894 18.7067 9.62345 19.6328C9.74989 20.5732 10.014 21.3173 10.5984 21.9016L10.9519 21.5481ZM12.6 18.47L12.2379 18.8148L12.9808 19.5948L13.3429 19.25L13.7049 18.9052L12.9621 18.1252L12.6 18.47ZM13.3429 19.25L13.7049 19.5948L15.5621 17.6448L15.2 17.3L14.8379 16.9552L12.9808 18.9052L13.3429 19.25ZM12.6 13.92L12.2379 14.2648L12.9808 15.0448L13.3429 14.7L13.7049 14.3552L12.9621 13.5752L12.6 13.92ZM13.3429 14.7L13.7049 15.0448L15.5621 13.0948L15.2 12.75L14.8379 12.4052L12.9808 14.3552L13.3429 14.7ZM17.15 14.05V14.55H20.4V14.05V13.55H17.15V14.05ZM17.15 18.6V19.1H20.4V18.6V18.1H17.15V18.6Z" fill="#F3F6FF"/>
<defs>
<linearGradient id="paint0_linear_913_1857" x1="16.5" y1="0" x2="16.5" y2="32" gradientUnits="userSpaceOnUse">
<stop stop-color="#0C3EFF"/>
<stop offset="1" stop-color="#10339F"/>
</linearGradient>
</defs>
</svg>
