<svg width="33" height="32" viewBox="0 0 33 32" fill="none" xmlns="http://www.w3.org/2000/svg">
<path d="M0.5 16C0.5 7.16344 7.66344 0 16.5 0C25.3366 0 32.5 7.16344 32.5 16C32.5 24.8366 25.3366 32 16.5 32C7.66344 32 0.5 24.8366 0.5 16Z" fill="url(#paint0_linear_819_729)"/>
<path d="M16.5 1C24.7843 1 31.5 7.71573 31.5 16C31.5 24.2843 24.7843 31 16.5 31C8.21573 31 1.5 24.2843 1.5 16C1.5 7.71573 8.21573 1 16.5 1Z" stroke="#F3F6FF" stroke-opacity="0.15" stroke-width="2"/>
<path d="M22.9319 18.75C22.9979 18.8646 23.0159 19.0007 22.9818 19.1285C22.9477 19.2563 22.8643 19.3653 22.75 19.4318L16.75 22.9318C16.6735 22.9764 16.5866 22.9999 16.4981 22.9999C16.4096 22.9999 16.3227 22.9764 16.2463 22.9318L10.2463 19.4318C10.1336 19.3641 10.0521 19.2547 10.0194 19.1274C9.9868 19 10.0056 18.8649 10.0719 18.7514C10.1381 18.6378 10.2464 18.5549 10.3733 18.5206C10.5002 18.4863 10.6356 18.5033 10.75 18.5681L16.5 21.9212L22.25 18.5681C22.3646 18.502 22.5007 18.4841 22.6285 18.5182C22.7563 18.5523 22.8654 18.6356 22.9319 18.75ZM22.25 15.5681L16.5 18.9212L10.75 15.5681C10.6362 15.5114 10.505 15.5002 10.3832 15.5368C10.2614 15.5735 10.1581 15.6551 10.0944 15.7652C10.0307 15.8752 10.0113 16.0054 10.0402 16.1293C10.0691 16.2531 10.1441 16.3613 10.25 16.4318L16.25 19.9318C16.3265 19.9764 16.4134 19.9999 16.5019 19.9999C16.5904 19.9999 16.6773 19.9764 16.7537 19.9318L22.7537 16.4318C22.8114 16.3992 22.862 16.3555 22.9025 16.3032C22.9431 16.2509 22.9729 16.191 22.9902 16.1271C23.0075 16.0632 23.0119 15.9965 23.0032 15.9308C22.9945 15.8652 22.9728 15.8019 22.9394 15.7448C22.9061 15.6876 22.8617 15.6376 22.8089 15.5977C22.756 15.5577 22.6958 15.5287 22.6317 15.5123C22.5675 15.4959 22.5007 15.4923 22.4352 15.5019C22.3697 15.5115 22.3068 15.534 22.25 15.5681ZM10 13C10.0002 12.9124 10.0234 12.8264 10.0673 12.7506C10.1111 12.6748 10.1742 12.6119 10.25 12.5681L16.25 9.06808C16.3265 9.02349 16.4134 9 16.5019 9C16.5904 9 16.6773 9.02349 16.7537 9.06808L22.7537 12.5681C22.8292 12.6121 22.8918 12.6752 22.9354 12.7509C22.9789 12.8267 23.0018 12.9126 23.0018 13C23.0018 13.0873 22.9789 13.1732 22.9354 13.249C22.8918 13.3247 22.8292 13.3878 22.7537 13.4318L16.7537 16.9318C16.6773 16.9764 16.5904 16.9999 16.5019 16.9999C16.4134 16.9999 16.3265 16.9764 16.25 16.9318L10.25 13.4318C10.1742 13.388 10.1111 13.3251 10.0673 13.2493C10.0234 13.1735 10.0002 13.0875 10 13ZM11.4925 13L16.5 15.9212L21.5075 13L16.5 10.0787L11.4925 13Z" fill="#F3F6FF"/>
<defs>
<linearGradient id="paint0_linear_819_729" x1="16.5" y1="0" x2="16.5" y2="32" gradientUnits="userSpaceOnUse">
<stop stop-color="#0C3EFF"/>
<stop offset="1" stop-color="#10339F"/>
</linearGradient>
</defs>
</svg>
