<svg width="32" height="32" viewBox="0 0 32 32" fill="none" xmlns="http://www.w3.org/2000/svg">
<path d="M0 16C0 7.16344 7.16344 0 16 0C24.8366 0 32 7.16344 32 16C32 24.8366 24.8366 32 16 32C7.16344 32 0 24.8366 0 16Z" fill="url(#paint0_linear_913_1638)"/>
<path d="M16 1C24.2843 1 31 7.71573 31 16C31 24.2843 24.2843 31 16 31C7.71573 31 1 24.2843 1 16C1 7.71573 7.71573 1 16 1Z" stroke="#F3F6FF" stroke-opacity="0.15" stroke-width="2"/>
<path d="M16 13C15.4067 13 14.8267 13.176 14.3333 13.5056C13.84 13.8353 13.4555 14.3038 13.2284 14.852C13.0013 15.4002 12.9419 16.0034 13.0577 16.5853C13.1734 17.1672 13.4592 17.7018 13.8787 18.1213C14.2983 18.5409 14.8328 18.8266 15.4148 18.9424C15.9967 19.0581 16.5999 18.9987 17.1481 18.7717C17.6963 18.5446 18.1648 18.1601 18.4944 17.6667C18.8241 17.1734 19 16.5934 19 16C18.9992 15.2046 18.6829 14.4421 18.1204 13.8796C17.558 13.3172 16.7954 13.0009 16 13ZM16 18C15.6045 18 15.2178 17.8827 14.8889 17.663C14.56 17.4432 14.3036 17.1308 14.1523 16.7654C14.0009 16.3999 13.9613 15.9978 14.0385 15.6098C14.1156 15.2219 14.3061 14.8655 14.5858 14.5858C14.8655 14.3061 15.2219 14.1156 15.6098 14.0385C15.9978 13.9613 16.3999 14.0009 16.7654 14.1523C17.1308 14.3036 17.4432 14.56 17.663 14.8889C17.8827 15.2178 18 15.6045 18 16C18 16.5305 17.7893 17.0392 17.4142 17.4142C17.0392 17.7893 16.5305 18 16 18ZM21.5 16.135C21.5025 16.045 21.5025 15.955 21.5 15.865L22.4325 14.7C22.4814 14.6389 22.5153 14.5671 22.5313 14.4904C22.5474 14.4138 22.5452 14.3344 22.525 14.2588C22.3719 13.6842 22.1432 13.1326 21.845 12.6182C21.806 12.5509 21.7517 12.4936 21.6866 12.451C21.6215 12.4083 21.5473 12.3815 21.47 12.3725L19.9875 12.2075C19.9259 12.1425 19.8634 12.08 19.8 12.02L19.625 10.5338C19.616 10.4564 19.5891 10.3822 19.5463 10.3171C19.5036 10.252 19.4462 10.1978 19.3788 10.1588C18.8644 9.86081 18.3127 9.63256 17.7382 9.48003C17.6625 9.45982 17.5832 9.45766 17.5065 9.47372C17.4299 9.48979 17.3581 9.52363 17.2969 9.57253L16.135 10.5C16.045 10.5 15.955 10.5 15.865 10.5L14.7 9.5694C14.6389 9.52051 14.5671 9.48666 14.4904 9.4706C14.4138 9.45453 14.3344 9.45669 14.2588 9.4769C13.6842 9.63005 13.1326 9.85871 12.6182 10.1569C12.5509 10.196 12.4936 10.2502 12.451 10.3153C12.4083 10.3804 12.3815 10.4546 12.3725 10.5319L12.2075 12.0169C12.1425 12.079 12.08 12.1415 12.02 12.2044L10.5338 12.375C10.4564 12.384 10.3822 12.411 10.3171 12.4537C10.252 12.4965 10.1978 12.5539 10.1588 12.6213C9.86087 13.1358 9.63242 13.6874 9.4794 14.2619C9.45928 14.3376 9.45722 14.417 9.47339 14.4936C9.48957 14.5703 9.52353 14.642 9.57253 14.7032L10.5 15.865C10.5 15.955 10.5 16.045 10.5 16.135L9.5694 17.3C9.52051 17.3612 9.48666 17.433 9.4706 17.5096C9.45453 17.5863 9.45669 17.6656 9.4769 17.7413C9.63005 18.3158 9.85871 18.8675 10.1569 19.3819C10.196 19.4492 10.2502 19.5065 10.3153 19.5491C10.3804 19.5917 10.4546 19.6186 10.5319 19.6275L12.0144 19.7925C12.0765 19.8575 12.139 19.92 12.2019 19.98L12.375 21.4663C12.384 21.5436 12.411 21.6178 12.4537 21.6829C12.4965 21.7481 12.5539 21.8023 12.6213 21.8413C13.1358 22.1392 13.6874 22.3676 14.2619 22.5207C14.3376 22.5408 14.417 22.5428 14.4936 22.5267C14.5703 22.5105 14.642 22.4765 14.7032 22.4275L15.865 21.5C15.955 21.5025 16.045 21.5025 16.135 21.5L17.3 22.4325C17.3612 22.4814 17.433 22.5153 17.5096 22.5313C17.5863 22.5474 17.6656 22.5452 17.7413 22.525C18.3159 22.3722 18.8676 22.1435 19.3819 21.845C19.4492 21.806 19.5065 21.7517 19.5491 21.6866C19.5917 21.6215 19.6186 21.5473 19.6275 21.47L19.7925 19.9875C19.8575 19.9259 19.92 19.8634 19.98 19.8L21.4663 19.625C21.5436 19.616 21.6178 19.5891 21.6829 19.5463C21.7481 19.5036 21.8023 19.4462 21.8413 19.3788C22.1392 18.8643 22.3676 18.3126 22.5207 17.7382C22.5408 17.6625 22.5428 17.5831 22.5267 17.5064C22.5105 17.4298 22.4765 17.358 22.4275 17.2969L21.5 16.135ZM20.4938 15.7288C20.5044 15.9095 20.5044 16.0906 20.4938 16.2713C20.4863 16.395 20.5251 16.517 20.6025 16.6138L21.4894 17.7219C21.3876 18.0453 21.2573 18.3591 21.1 18.6594L19.6875 18.8194C19.5645 18.8331 19.4509 18.8918 19.3688 18.9844C19.2485 19.1197 19.1203 19.2478 18.985 19.3682C18.8925 19.4503 18.8337 19.5639 18.82 19.6869L18.6632 21.0982C18.3628 21.2555 18.0491 21.3858 17.7257 21.4875L16.6169 20.6007C16.5282 20.5298 16.418 20.4912 16.3044 20.4913H16.2744C16.0937 20.5019 15.9126 20.5019 15.7319 20.4913C15.6082 20.4842 15.4863 20.5229 15.3894 20.6L14.2782 21.4875C13.9547 21.3858 13.641 21.2555 13.3407 21.0982L13.1807 19.6875C13.167 19.5645 13.1082 19.4509 13.0157 19.3688C12.8803 19.2485 12.7522 19.1203 12.6319 18.985C12.5497 18.8925 12.4362 18.8337 12.3132 18.82L10.9019 18.6625C10.7445 18.3622 10.6142 18.0485 10.5125 17.725L11.3994 16.6163C11.4768 16.5195 11.5156 16.3975 11.5082 16.2738C11.4975 16.0931 11.4975 15.912 11.5082 15.7313C11.5156 15.6076 11.4768 15.4855 11.3994 15.3888L10.5125 14.2782C10.6143 13.9547 10.7446 13.641 10.9019 13.3407L12.3125 13.1807C12.4355 13.167 12.5491 13.1082 12.6313 13.0157C12.7516 12.8803 12.8797 12.7522 13.015 12.6319C13.108 12.5497 13.167 12.4358 13.1807 12.3125L13.3375 10.9019C13.6378 10.7445 13.9516 10.6142 14.275 10.5125L15.3838 11.3994C15.4805 11.4768 15.6026 11.5156 15.7263 11.5082C15.907 11.4975 16.0881 11.4975 16.2688 11.5082C16.3924 11.5152 16.5144 11.4765 16.6113 11.3994L17.7219 10.5125C18.0453 10.6143 18.3591 10.7446 18.6594 10.9019L18.8194 12.3125C18.8331 12.4355 18.8918 12.5491 18.9844 12.6313C19.1197 12.7516 19.2478 12.8797 19.3682 13.015C19.4503 13.1076 19.5639 13.1664 19.6869 13.18L21.0982 13.3369C21.2555 13.6372 21.3858 13.951 21.4875 14.2744L20.6007 15.3832C20.5225 15.4807 20.4837 15.604 20.4919 15.7288H20.4938Z" fill="#F3F6FF"/>
<defs>
<linearGradient id="paint0_linear_913_1638" x1="16" y1="0" x2="16" y2="32" gradientUnits="userSpaceOnUse">
<stop stop-color="#0C3EFF"/>
<stop offset="1" stop-color="#10339F"/>
</linearGradient>
</defs>
</svg>
