<svg width="54" height="44" viewBox="0 0 54 44" fill="none" xmlns="http://www.w3.org/2000/svg">
<path d="M5.47718 0H25.7427V14.2407C25.7427 18.2573 25.195 21.9087 24.0996 25.195C23.1259 28.3596 21.6653 31.1591 19.7178 33.5934C17.7704 36.0277 15.3361 38.1577 12.4149 39.9834C9.61549 41.6874 6.39004 43.0263 2.73859 44L0 37.4274C4.62517 35.7234 8.15491 33.5325 10.5892 30.8548C13.1452 28.177 14.6058 24.769 14.9709 20.6307H5.47718V0Z" fill="#F3F6FF"/>
<path d="M32.8632 0H53.1287V14.2407C53.1287 18.2573 52.581 21.9087 51.4856 25.195C50.5118 28.3596 49.0513 31.1591 47.1038 33.5934C45.1564 36.0277 42.7221 38.1577 39.8009 39.9834C37.0015 41.6874 33.776 43.0263 30.1246 44L27.386 37.4274C32.0112 35.7234 35.5409 33.5325 37.9752 30.8548C40.5312 28.177 41.9918 24.769 42.3569 20.6307H32.8632V0Z" fill="#F3F6FF"/>
</svg>
