<svg width="32" height="32" viewBox="0 0 32 32" fill="none" xmlns="http://www.w3.org/2000/svg">
<path d="M0 16C0 7.16344 7.16344 0 16 0C24.8366 0 32 7.16344 32 16C32 24.8366 24.8366 32 16 32C7.16344 32 0 24.8366 0 16Z" fill="url(#paint0_linear_913_1705)"/>
<path d="M16 1C24.2843 1 31 7.71573 31 16C31 24.2843 24.2843 31 16 31C7.71573 31 1 24.2843 1 16C1 7.71573 7.71573 1 16 1Z" stroke="#F3F6FF" stroke-opacity="0.15" stroke-width="2"/>
<path d="M21.8341 14.5069C21.7034 14.5288 21.5866 14.6017 21.5096 14.7097C21.4326 14.8176 21.4016 14.9517 21.4235 15.0825C21.4743 15.3857 21.4998 15.6926 21.4998 16C21.501 17.3464 21.0061 18.646 20.1098 19.6506C19.5521 18.8426 18.768 18.2174 17.856 17.8538C18.3459 17.4679 18.7034 16.939 18.8787 16.3406C19.0541 15.7421 19.0386 15.1039 18.8344 14.5147C18.6302 13.9255 18.2475 13.4146 17.7395 13.0529C17.2315 12.6913 16.6234 12.497 15.9998 12.497C15.3762 12.497 14.7681 12.6913 14.2601 13.0529C13.752 13.4146 13.3693 13.9255 13.1651 14.5147C12.961 15.1039 12.9455 15.7421 13.1208 16.3406C13.2962 16.939 13.6536 17.4679 14.1435 17.8538C13.2315 18.2174 12.4474 18.8426 11.8898 19.6506C11.1865 18.8581 10.7271 17.8793 10.5668 16.8319C10.4065 15.7845 10.5522 14.7131 10.9864 13.7465C11.4205 12.78 12.1246 11.9594 13.014 11.3834C13.9034 10.8075 14.9402 10.5007 15.9998 10.5C16.3072 10.5 16.6141 10.5255 16.9173 10.5763C17.0475 10.5968 17.1805 10.5651 17.2875 10.4881C17.3944 10.411 17.4666 10.2949 17.4883 10.1649C17.5101 10.0349 17.4796 9.90154 17.4036 9.79389C17.3275 9.68623 17.2121 9.61296 17.0823 9.59001C15.7244 9.36158 14.3291 9.57059 13.0978 10.1869C11.8665 10.8031 10.8629 11.7948 10.2319 13.0186C9.6009 14.2425 9.37518 15.6352 9.58732 16.9957C9.79946 18.3562 10.4385 19.614 11.4121 20.5877C12.3858 21.5613 13.6436 22.2003 15.0041 22.4125C16.3646 22.6246 17.7573 22.3989 18.9811 21.7679C20.205 21.1369 21.1966 20.1333 21.8129 18.902C22.4292 17.6707 22.6382 16.2754 22.4098 14.9175C22.3879 14.7867 22.3149 14.67 22.207 14.593C22.099 14.516 21.9649 14.485 21.8341 14.5069ZM13.9998 15.5C13.9998 15.1044 14.1171 14.7178 14.3368 14.3889C14.5566 14.06 14.869 13.8036 15.2344 13.6522C15.5999 13.5009 16.002 13.4613 16.39 13.5384C16.7779 13.6156 17.1343 13.8061 17.414 14.0858C17.6937 14.3655 17.8842 14.7219 17.9613 15.1098C18.0385 15.4978 17.9989 15.8999 17.8475 16.2654C17.6962 16.6308 17.4398 16.9432 17.1109 17.1629C16.782 17.3827 16.3953 17.5 15.9998 17.5C15.4693 17.5 14.9606 17.2893 14.5856 16.9142C14.2105 16.5391 13.9998 16.0304 13.9998 15.5ZM12.6298 20.3438C12.9915 19.7781 13.4898 19.3125 14.0787 18.99C14.6677 18.6676 15.3283 18.4985 15.9998 18.4985C16.6712 18.4985 17.3319 18.6676 17.9208 18.99C18.5098 19.3125 19.0081 19.7781 19.3698 20.3438C18.4062 21.0931 17.2204 21.5 15.9998 21.5C14.7791 21.5 13.5933 21.0931 12.6298 20.3438ZM22.8535 10.8538L20.8535 12.8538C20.8071 12.9002 20.7519 12.9371 20.6912 12.9623C20.6305 12.9874 20.5655 13.0004 20.4998 13.0004C20.4341 13.0004 20.369 12.9874 20.3083 12.9623C20.2476 12.9371 20.1925 12.9002 20.146 12.8538L19.146 11.8538C19.0996 11.8073 19.0627 11.7522 19.0376 11.6915C19.0124 11.6308 18.9995 11.5657 18.9995 11.5C18.9995 11.4343 19.0124 11.3693 19.0376 11.3086C19.0627 11.2479 19.0996 11.1927 19.146 11.1463C19.2398 11.0524 19.3671 10.9997 19.4998 10.9997C19.5655 10.9997 19.6305 11.0127 19.6912 11.0378C19.7519 11.063 19.8071 11.0998 19.8535 11.1463L20.4998 11.7931L22.146 10.1463C22.1925 10.0998 22.2476 10.063 22.3083 10.0378C22.369 10.0127 22.4341 9.99973 22.4998 9.99973C22.5655 9.99973 22.6305 10.0127 22.6912 10.0378C22.7519 10.063 22.8071 10.0998 22.8535 10.1463C22.9 10.1927 22.9368 10.2479 22.962 10.3086C22.9871 10.3693 23.0001 10.4343 23.0001 10.5C23.0001 10.5657 22.9871 10.6308 22.962 10.6915C22.9368 10.7522 22.9 10.8073 22.8535 10.8538Z" fill="#F3F6FF"/>
<defs>
<linearGradient id="paint0_linear_913_1705" x1="16" y1="0" x2="16" y2="32" gradientUnits="userSpaceOnUse">
<stop stop-color="#0C3EFF"/>
<stop offset="1" stop-color="#10339F"/>
</linearGradient>
</defs>
</svg>
