<svg width="264" height="66" viewBox="0 0 264 66" fill="none" xmlns="http://www.w3.org/2000/svg">
<path d="M19.4798 0H18.1285L0 45.8554H3.683L17.425 11.1113H17.73L31.469 45.8554H37.6083L19.4798 0Z" fill="#F3F6FF"/>
<path d="M137.86 0H136.51L118.381 45.8554H122.063L135.803 11.1113H136.11L149.85 45.8554H155.989L137.86 0Z" fill="#F3F6FF"/>
<path d="M46.7622 0L46.647 28.2997C46.647 30.9802 47.0112 33.2062 47.7366 34.9745C48.462 36.746 49.4209 38.1625 50.6071 39.2273C51.7932 40.292 53.1351 41.0392 54.6294 41.4688C56.1238 41.8984 57.6368 42.1132 59.1717 42.1132C60.8497 42.1132 62.4749 41.8829 64.0533 41.4221C65.6285 40.9613 67.0295 40.1954 68.2593 39.1214C69.4859 38.0473 70.4697 36.6308 71.2045 34.8686C71.9392 33.1097 72.3096 30.921 72.3096 28.2997L72.4217 0H76.167L76.0518 27.6832C76.0518 30.7934 75.6378 33.4894 74.8096 35.7715C73.9815 38.0535 72.8047 39.9402 71.2791 41.4345C69.7537 42.9289 67.9138 44.0404 65.7531 44.7657C63.5925 45.4911 61.1953 45.8554 58.5552 45.8554C55.9152 45.8554 53.5211 45.4911 51.3729 44.7657C49.2247 44.0404 47.3817 42.9352 45.8469 41.4501C44.312 39.9651 43.1321 38.0847 42.3009 35.8026C41.4727 33.5206 41.0586 30.8152 41.0586 27.6832L41.1738 0H46.7591H46.7622Z" fill="#F3F6FF"/>
<path d="M83.7949 0H96.2885C98.8881 0 101.164 0.277081 103.119 0.828131C105.071 1.37918 106.706 2.18552 108.013 3.2378C109.324 4.29009 110.31 5.5821 110.974 7.10449C111.64 8.62999 111.97 10.3547 111.97 12.2756C111.97 13.5459 111.765 14.7165 111.356 15.7906C110.949 16.8646 110.395 17.8359 109.7 18.7077C109.003 19.5762 108.206 20.3546 107.307 21.0395C106.407 21.7244 105.476 22.3097 104.514 22.7892C103.552 23.2717 102.562 23.7605 101.59 24.0656C100.619 24.3707 100.208 24.5045 99.6912 24.6136V24.8283L114.283 45.8523H108.505L94.324 25.7468H89.3832V45.8523H83.798V0H83.7949ZM89.3801 3.74527V22.0077H95.4883C96.9205 22.0077 98.2747 21.7773 99.5543 21.3166C100.834 20.8559 101.958 20.2082 102.932 19.3676C103.904 18.5271 104.669 17.5059 105.233 16.298C105.797 15.0901 106.076 13.7513 106.076 12.2756C106.076 10.7999 105.849 9.59199 105.401 8.51481C104.95 7.44073 104.317 6.55033 103.499 5.84362C102.68 5.13691 101.702 4.61076 100.569 4.26518C99.4328 3.91649 98.1907 3.74215 96.8395 3.74215H89.3801V3.74527Z" fill="#F3F6FF"/>
<path d="M244.967 0H243.616L225.475 45.8554H229.161L242.909 11.1113H243.218L256.968 45.8554H263.108L244.967 0Z" fill="#F3F6FF"/>
<path d="M166.926 37.1694H167.39L180.376 0H184.058L168.006 45.8554H164.23L146.102 0H152.241L166.929 37.1694H166.926Z" fill="#F3F6FF"/>
<path d="M194.416 0V45.8554H188.83V0H194.416Z" fill="#F3F6FF"/>
<path d="M199.935 0H232.562L233.384 4.35858L218.658 3.74527V45.8586H213.074V3.74527L199.17 4.35858L199.935 0Z" fill="#F3F6FF"/>
<path d="M32.3029 51.3739V65.2018H31.2971L24.0855 53.628V65.2018H22.9805V51.3739H23.989L31.1978 62.9476V51.3739H32.3029Z" fill="#F3F6FF"/>
<path d="M42.5954 64.816C41.8983 64.4136 41.3499 63.8542 40.9557 63.1378C40.5617 62.4213 40.3633 61.5946 40.3633 60.6577V51.3739H41.4683V60.6191C41.4683 61.3686 41.6144 62.0272 41.9037 62.5949C42.1931 63.1626 42.6037 63.6035 43.1382 63.9176C43.6729 64.2346 44.2873 64.3916 44.9846 64.3916C45.6817 64.3916 46.2989 64.2346 46.8308 63.9176C47.3654 63.6007 47.776 63.1598 48.0654 62.5949C48.3547 62.03 48.5007 61.3714 48.5007 60.6191V51.3739H49.6058V60.6577C49.6058 61.5918 49.4074 62.4185 49.0133 63.1378C48.6192 63.857 48.0709 64.4164 47.3737 64.816C46.6765 65.2183 45.8801 65.4194 44.9846 65.4194C44.0889 65.4194 43.2926 65.2183 42.5954 64.816Z" fill="#F3F6FF"/>
<path d="M65.5038 51.3739V52.421H61.5521V65.2018H60.4664V52.421H56.5176V51.3739H65.5038Z" fill="#F3F6FF"/>
<path d="M77.4259 59.3047C77.9467 59.233 78.4234 59.087 78.8588 58.861C79.4898 58.5303 79.9804 58.0646 80.3303 57.4583C80.6775 56.8521 80.8539 56.1605 80.8539 55.3834C80.8539 54.6063 80.6775 53.9119 80.3303 53.3001C79.9804 52.6884 79.4926 52.2144 78.8671 51.8781C78.2416 51.542 77.5223 51.3739 76.7039 51.3739H72.5566V65.2018H73.6617V59.3542H76.2574L80.1429 65.2018H81.405L77.4259 59.3047ZM73.6617 52.421H76.646C77.2522 52.421 77.7952 52.545 78.2746 52.7958C78.7569 53.0465 79.1261 53.3965 79.3824 53.8429C79.6387 54.2893 79.7654 54.8047 79.7654 55.3834C79.7654 56.2927 79.4816 57.0175 78.9084 57.5576C78.3352 58.0977 77.5802 58.365 76.646 58.365H73.6617V52.421Z" fill="#F3F6FF"/>
<path d="M88.4395 51.3739H89.5445V65.2018H88.4395V51.3739Z" fill="#F3F6FF"/>
<path d="M100.268 64.4881C99.1929 63.8681 98.3525 63.0193 97.7379 61.9391C97.1261 60.8588 96.8203 59.6464 96.8203 58.3044C96.8203 56.9624 97.1261 55.7279 97.7379 54.6394C98.3497 53.5536 99.1929 52.6993 100.268 52.0821C101.34 51.4621 102.536 51.1534 103.853 51.1534C105.261 51.1534 106.518 51.4924 107.617 52.1703C108.716 52.8482 109.557 53.7878 110.136 54.9838L109.168 55.3999C108.681 54.3858 107.975 53.595 107.055 53.03C106.132 52.4652 105.065 52.1813 103.855 52.1813C102.723 52.1813 101.709 52.4459 100.813 52.9722C99.9177 53.4985 99.2095 54.226 98.6886 55.1546C98.1678 56.0833 97.9088 57.1332 97.9088 58.3044C97.9088 59.4756 98.1678 60.4868 98.6886 61.4155C99.2095 62.3442 99.9204 63.0717 100.821 63.598C101.723 64.1244 102.734 64.3888 103.853 64.3888C105.104 64.3888 106.187 64.105 107.101 63.5401C108.016 62.9752 108.711 62.165 109.185 61.1096L110.171 61.545C109.604 62.7961 108.769 63.7551 107.664 64.4192C106.559 65.0833 105.286 65.4167 103.853 65.4167C102.536 65.4167 101.34 65.1081 100.268 64.4881Z" fill="#F3F6FF"/>
<path d="M119.895 64.4991C118.81 63.8873 117.956 63.0385 117.339 61.95C116.719 60.8644 116.41 59.6436 116.41 58.285C116.41 56.9265 116.719 55.7086 117.339 54.6201C117.959 53.5343 118.81 52.6856 119.895 52.071C120.982 51.4593 122.211 51.1534 123.58 51.1534C124.95 51.1534 126.157 51.4593 127.245 52.071C128.331 52.6829 129.185 53.5315 129.802 54.6201C130.42 55.7086 130.731 56.9293 130.731 58.285C130.731 59.6408 130.422 60.8616 129.802 61.95C129.182 63.0385 128.331 63.8873 127.245 64.4991C126.16 65.1108 124.936 65.4167 123.58 65.4167C122.224 65.4167 120.982 65.1108 119.895 64.4991ZM126.691 63.609C127.606 63.0881 128.328 62.3634 128.855 61.4375C129.381 60.5089 129.645 59.459 129.645 58.2878C129.645 57.1167 129.381 56.0667 128.855 55.1381C128.328 54.2095 127.606 53.4847 126.691 52.9639C125.776 52.443 124.737 52.184 123.58 52.184C122.423 52.184 121.381 52.443 120.458 52.9639C119.535 53.4847 118.813 54.2095 118.287 55.1381C117.76 56.0667 117.495 57.1167 117.495 58.2878C117.495 59.459 117.76 60.5089 118.287 61.4375C118.813 62.3662 119.538 63.091 120.458 63.609C121.379 64.1298 122.42 64.3888 123.58 64.3888C124.74 64.3888 125.776 64.1298 126.691 63.609Z" fill="#F3F6FF"/>
<path d="M138.814 64.468C137.984 63.837 137.412 62.9083 137.094 61.682L138.103 61.3845C138.368 62.3986 138.819 63.1536 139.466 63.6468C140.112 64.1401 140.856 64.3881 141.699 64.3881C142.344 64.3881 142.917 64.2751 143.419 64.0519C143.92 63.8287 144.303 63.5145 144.573 63.1123C144.843 62.7099 144.978 62.2525 144.978 61.7399C144.978 60.9105 144.673 60.2518 144.061 59.7641C143.449 59.2764 142.595 58.863 141.503 58.5186C140.674 58.243 139.982 57.9482 139.428 57.6395C138.875 57.3308 138.433 56.9285 138.105 56.4353C137.775 55.942 137.612 55.3385 137.612 54.6276C137.612 53.9552 137.786 53.3544 138.136 52.8199C138.486 52.2853 138.977 51.8746 139.608 51.5853C140.239 51.296 140.958 51.1499 141.76 51.1499C142.76 51.1499 143.647 51.4255 144.416 51.9794C145.185 52.5333 145.722 53.349 146.026 54.4292L145.017 54.6855C144.752 53.8284 144.336 53.1946 143.763 52.7786C143.189 52.3625 142.534 52.1558 141.798 52.1558C141.178 52.1558 140.638 52.2605 140.178 52.4726C139.718 52.6821 139.354 52.977 139.092 53.3517C138.827 53.7265 138.698 54.1591 138.698 54.6441C138.698 55.1842 138.83 55.6306 139.092 55.9889C139.356 56.3443 139.707 56.6337 140.147 56.8569C140.588 57.0801 141.164 57.3061 141.876 57.5292C143.165 57.9509 144.187 58.491 144.937 59.1496C145.686 59.8082 146.064 60.6569 146.064 61.6986C146.064 62.4233 145.879 63.0681 145.51 63.6331C145.141 64.2007 144.625 64.6361 143.959 64.9475C143.294 65.2562 142.539 65.4104 141.696 65.4104C140.602 65.4104 139.64 65.0936 138.811 64.4625L138.814 64.468Z" fill="#F3F6FF"/>
<path d="M166.467 65.2018H165.359L163.855 53.7685L159.729 64.4109H159.413L155.298 53.7299L153.785 65.2018H152.678L154.515 51.3739H155.502L159.572 62.154L163.662 51.3739H164.629L166.467 65.2018Z" fill="#F3F6FF"/>
<path d="M180.982 64.1546V65.2018H173.754V51.3739H180.765V52.421H174.859V57.5355H180.213V58.5634H174.859V64.1546H180.982Z" fill="#F3F6FF"/>
<path d="M196.137 51.3739V52.421H192.185V65.2018H191.099V52.421H187.15V51.3739H196.137Z" fill="#F3F6FF"/>
<path d="M203.189 51.3739H204.295V65.2018H203.189V51.3739Z" fill="#F3F6FF"/>
<path d="M215.008 64.4881C213.932 63.8681 213.092 63.0193 212.477 61.9391C211.866 60.8588 211.561 59.6464 211.561 58.3044C211.561 56.9624 211.866 55.7279 212.477 54.6394C213.089 53.5536 213.932 52.6993 215.008 52.0821C216.079 51.4621 217.276 51.1534 218.592 51.1534C220.001 51.1534 221.257 51.4924 222.357 52.1703C223.456 52.8482 224.296 53.7878 224.875 54.9838L223.908 55.3999C223.42 54.3858 222.715 53.595 221.794 53.03C220.871 52.4652 219.805 52.1813 218.595 52.1813C217.462 52.1813 216.449 52.4459 215.553 52.9722C214.657 53.4985 213.95 54.226 213.429 55.1546C212.908 56.0833 212.649 57.1332 212.649 58.3044C212.649 59.4756 212.908 60.4868 213.429 61.4155C213.95 62.3442 214.66 63.0717 215.561 63.598C216.463 64.1244 217.474 64.3888 218.592 64.3888C219.843 64.3888 220.927 64.105 221.842 63.5401C222.757 62.9752 223.45 62.165 223.925 61.1096L224.911 61.545C224.344 62.7961 223.509 63.7551 222.403 64.4192C221.299 65.0833 220.025 65.4167 218.592 65.4167C217.276 65.4167 216.079 65.1081 215.008 64.4881Z" fill="#F3F6FF"/>
<path d="M232.878 64.468C232.049 63.837 231.475 62.9083 231.158 61.682L232.167 61.3845C232.431 62.3986 232.884 63.1536 233.531 63.6468C234.176 64.1401 234.919 64.3881 235.763 64.3881C236.408 64.3881 236.981 64.2751 237.482 64.0519C237.984 63.8287 238.367 63.5145 238.637 63.1123C238.907 62.7099 239.042 62.2525 239.042 61.7399C239.042 60.9105 238.736 60.2518 238.124 59.7641C237.512 59.2764 236.658 58.863 235.568 58.5186C234.738 58.243 234.046 57.9482 233.493 57.6395C232.938 57.3308 232.498 56.9285 232.17 56.4353C231.839 55.942 231.676 55.3385 231.676 54.6276C231.676 53.9552 231.85 53.3544 232.2 52.8199C232.549 52.2853 233.04 51.8746 233.671 51.5853C234.302 51.296 235.021 51.1499 235.823 51.1499C236.824 51.1499 237.711 51.4255 238.48 51.9794C239.249 52.5333 239.786 53.349 240.089 54.4292L239.081 54.6855C238.816 53.8284 238.4 53.1946 237.827 52.7786C237.254 52.3625 236.598 52.1558 235.862 52.1558C235.242 52.1558 234.702 52.2605 234.242 52.4726C233.781 52.6821 233.418 52.977 233.156 53.3517C232.892 53.7265 232.762 54.1591 232.762 54.6441C232.762 55.1842 232.894 55.6306 233.156 55.9889C233.421 56.3443 233.77 56.6337 234.212 56.8569C234.653 57.0801 235.228 57.3061 235.939 57.5292C237.229 57.9509 238.252 58.491 239.001 59.1496C239.75 59.8082 240.128 60.6569 240.128 61.6986C240.128 62.4233 239.943 63.0681 239.574 63.6331C239.205 64.2007 238.69 64.6361 238.022 64.9475C237.359 65.2562 236.604 65.4104 235.76 65.4104C234.666 65.4104 233.705 65.0936 232.875 64.4625L232.878 64.468Z" fill="#F3F6FF"/>
</svg>
