<svg width="142" height="66" viewBox="0 0 142 66" fill="none" xmlns="http://www.w3.org/2000/svg">
<g clip-path="url(#clip0_2041_1319)">
<mask id="mask0_2041_1319" style="mask-type:luminance" maskUnits="userSpaceOnUse" x="-1" y="0" width="142" height="66">
<path d="M140.449 0H-0.00195312V65.5542H140.449V0Z" fill="white"/>
</mask>
<g mask="url(#mask0_2041_1319)">
<path d="M0.631239 62.4919C0.914759 63.1724 1.33531 63.7205 1.89289 64.127C2.45049 64.5333 3.1262 64.7364 3.92006 64.7364C4.33115 64.7364 4.70446 64.6656 5.04468 64.5333C5.38018 64.3963 5.66842 64.212 5.90941 63.971C6.14568 63.73 6.33469 63.4465 6.47172 63.1204C6.60875 62.7944 6.67491 62.4447 6.67491 62.0619C6.67491 61.6792 6.62293 61.3437 6.51897 61.0413C6.41502 60.7435 6.24964 60.4695 6.02282 60.2191C5.796 59.9686 5.49831 59.7324 5.13446 59.5103C4.77061 59.2882 4.33588 59.0613 3.82555 58.8345C3.35775 58.6172 2.93246 58.4093 2.54499 58.2061C2.15751 58.0029 1.83147 57.7809 1.56213 57.5399C1.29278 57.2941 1.08015 57.0153 0.928935 56.6988C0.777724 56.3821 0.702119 56.0088 0.702119 55.5741C0.702119 55.1394 0.782449 54.7756 0.938386 54.4164C1.09432 54.062 1.31168 53.7501 1.58103 53.4902C1.85037 53.2303 2.17169 53.0272 2.54027 52.8712C2.90884 52.72 3.31049 52.6444 3.74522 52.6444C4.46347 52.6444 5.0683 52.8145 5.56919 53.15C6.07007 53.4855 6.48117 53.9533 6.80722 54.5487L6.23546 54.8747C5.93304 54.3408 5.58809 53.9486 5.20061 53.6887C4.81314 53.4288 4.32643 53.2965 3.74049 53.2965C3.41444 53.2965 3.1073 53.3532 2.81906 53.4666C2.53082 53.58 2.28037 53.7407 2.07246 53.9391C1.85982 54.1376 1.69444 54.3786 1.56685 54.6621C1.44399 54.9456 1.37784 55.2527 1.37784 55.5882C1.37784 55.9238 1.43927 56.2215 1.56685 56.4672C1.68971 56.7176 1.874 56.9444 2.11971 57.1429C2.36543 57.3461 2.66312 57.5351 3.0128 57.7194C3.3672 57.9037 3.76885 58.0927 4.2272 58.2912C4.77061 58.5322 5.23842 58.7731 5.63535 59.0141C6.03227 59.2598 6.35832 59.5292 6.61348 59.8221C6.86865 60.1151 7.05766 60.4459 7.17579 60.8097C7.29392 61.1736 7.35535 61.5941 7.35535 62.0714C7.35535 62.5487 7.26557 63.007 7.09547 63.4087C6.92063 63.8103 6.67964 64.1553 6.3725 64.4388C6.06062 64.7271 5.69677 64.9539 5.28094 65.1145C4.86512 65.2799 4.41149 65.3602 3.92006 65.3602C2.94191 65.3602 2.12444 65.1192 1.46289 64.6373C0.801349 64.1553 0.309918 63.5268 -0.00195312 62.7566L0.631239 62.4778V62.4919Z" fill="#F3F6FF"/>
<path d="M18.9473 65.1624V52.886H19.6136V58.4855L25.4588 52.886H26.3707L20.6579 58.2776L26.6495 65.1624H25.7376L20.2042 58.7312L19.6183 59.251V65.1624H18.952H18.9473Z" fill="#F3F6FF"/>
<path d="M41.5801 65.1624V52.886H42.2464V65.1624H41.5801Z" fill="#F3F6FF"/>
<path d="M65.2285 52.8841H65.9137V65.5527H65.8475L56.8127 54.1552V65.1605H56.1465V52.4589H56.1937L65.2285 63.8421V52.8841Z" fill="#F3F6FF"/>
<path d="M75.0605 59.0417C75.0605 58.1393 75.2259 57.3028 75.5567 56.5279C75.8874 55.7482 76.3364 55.0725 76.9081 54.5007C77.4799 53.9242 78.1462 53.4754 78.9211 53.1493C79.6913 52.8233 80.5183 52.6578 81.3972 52.6578C82.191 52.6578 82.914 52.776 83.5709 53.017C84.2277 53.2579 84.7852 53.5509 85.2388 53.9101V54.7275C84.7852 54.3354 84.2182 54.0046 83.5472 53.7257C82.8714 53.4469 82.139 53.3099 81.3499 53.3099C80.5608 53.3099 79.8236 53.4564 79.1432 53.7494C78.4675 54.0424 77.8721 54.444 77.3665 54.9543C76.8608 55.4647 76.464 56.0696 76.1757 56.7689C75.8874 57.4682 75.7457 58.229 75.7457 59.0417C75.7457 59.8545 75.8874 60.5964 76.1757 61.2862C76.464 61.9809 76.8608 62.5858 77.3665 63.0961C77.8721 63.6064 78.4627 64.0081 79.1432 64.301C79.8189 64.594 80.5561 64.7405 81.3499 64.7405C82.1438 64.7405 82.8762 64.6177 83.4905 64.3672C84.1048 64.1167 84.6765 63.7624 85.2105 63.3087V64.1404C84.7238 64.5232 84.1567 64.8208 83.5189 65.0429C82.8809 65.265 82.1532 65.3784 81.3357 65.3784C80.4568 65.3784 79.6346 65.2178 78.8785 64.8964C78.1178 64.575 77.4563 64.1309 76.8892 63.5591C76.3269 62.9874 75.878 62.3211 75.5567 61.5509C75.2354 60.7806 75.07 59.9443 75.07 59.0417H75.0605Z" fill="#F3F6FF"/>
<path d="M99.2783 52.366H99.3111L104.537 65.1622H103.791L102.146 61.0606H96.3811L94.7232 65.1622H93.9902L99.2828 52.366H99.2783ZM101.887 60.4274L100.422 56.7464C100.228 56.2691 100.034 55.7919 99.8455 55.3146C99.6561 54.8374 99.4667 54.3554 99.2828 53.864C99.0989 54.3554 98.9095 54.8374 98.711 55.3146C98.5171 55.7919 98.3141 56.2738 98.1065 56.7653L96.6224 60.4321H101.881L101.887 60.4274Z" fill="#F3F6FF"/>
<path d="M116.572 52.886C117.182 52.886 117.745 52.9569 118.259 53.0892C118.775 53.2262 119.219 53.4247 119.597 53.694C119.97 53.9587 120.263 54.2989 120.475 54.7053C120.688 55.1116 120.792 55.5889 120.792 56.1276C120.792 56.6238 120.712 57.0726 120.546 57.4601C120.386 57.8524 120.154 58.1925 119.856 58.476C119.559 58.7643 119.2 59.0006 118.789 59.1755C118.378 59.355 117.924 59.4778 117.437 59.544L121.459 65.1624H120.627L116.705 59.5771H115.987V65.1624H115.32V52.886H116.572ZM115.987 58.977H116.671C117.159 58.977 117.617 58.9203 118.043 58.8022C118.468 58.6887 118.831 58.5186 119.143 58.2824C119.45 58.0507 119.696 57.7579 119.866 57.4034C120.041 57.049 120.126 56.6285 120.126 56.1418C120.126 55.6976 120.041 55.3101 119.866 54.9841C119.692 54.658 119.45 54.3886 119.143 54.1713C118.836 53.954 118.468 53.7885 118.037 53.6799C117.607 53.5712 117.139 53.5192 116.63 53.5192H115.996V58.9722L115.987 58.977Z" fill="#F3F6FF"/>
<path d="M140.447 52.886V53.524H135.221V58.1311H140.234V58.769H135.221V64.5339H140.447V65.1719H134.555V52.8955H140.447V52.886Z" fill="#F3F6FF"/>
<path d="M20.4161 0H20.5909L40.3711 46.0576H35.093L29.9329 33.7009H10.441L5.16281 46.0576H-0.00195312L20.4161 0ZM28.0758 29.1788L24.2484 20.0117C23.5916 18.424 22.9441 16.8599 22.3062 15.3147C21.6684 13.7696 21.0209 12.2007 20.3641 10.6178C19.7073 12.2433 19.0316 13.8263 18.3369 15.3762C17.6423 16.9261 16.9619 18.4901 16.3051 20.0732L12.4162 29.1836H28.0806L28.0758 29.1788Z" fill="#F3F6FF"/>
<path d="M39.9863 22.1141H45.2077L51.9461 37.9345L61.6518 15.9335H66.8733L51.9461 47.5647H51.828L39.9863 22.1141Z" fill="#F3F6FF"/>
<path d="M69.0234 19.0289H73.6637V34.6886C73.6637 37.3206 74.1457 39.3006 75.1144 40.633C76.0784 41.9656 77.685 42.6319 79.9295 42.6319C82.174 42.6319 83.7381 41.9467 84.7446 40.5716C85.7511 39.1966 86.2519 37.2356 86.2519 34.6839V19.0242H90.8922V34.8634C90.8922 36.6779 90.6701 38.3223 90.226 39.7919C89.7817 41.2615 89.1061 42.5184 88.194 43.5628C87.282 44.6071 86.1433 45.4103 84.7729 45.9726C83.3978 46.5349 81.7866 46.8138 79.9295 46.8138C76.4091 46.8138 73.7109 45.8167 71.835 43.8273C69.959 41.8333 69.0234 38.8469 69.0234 34.8634V19.0242V19.0289Z" fill="#F3F6FF"/>
<path d="M98.1914 19.0285H102.831V22.3929H102.945C103.795 21.1172 104.674 20.1154 105.586 19.3783C106.493 18.6458 107.647 18.2772 109.041 18.2772C110.435 18.2772 111.961 18.7214 113.506 19.6098L111.361 23.8437C110.392 23.149 109.328 22.7994 108.171 22.7994C106.545 22.7994 105.25 23.494 104.287 24.8879C103.318 26.2819 102.836 28.4272 102.836 31.3285V46.062H98.196V19.0285H98.1914Z" fill="#F3F6FF"/>
<path d="M127.748 18.2738C129.761 18.2738 131.556 18.6235 133.144 19.3181C134.728 20.0127 136.065 20.9909 137.147 22.2478C138.229 23.5048 139.051 24.9744 139.613 26.6566C140.176 28.3387 140.454 30.1674 140.454 32.1379V33.4137H119.399C119.436 34.7652 119.668 36.0127 120.094 37.1562C120.519 38.295 121.1 39.2731 121.833 40.0859C122.565 40.8987 123.458 41.5365 124.502 41.9996C125.546 42.4627 126.727 42.6942 128.041 42.6942C129.898 42.6942 131.453 42.2879 132.71 41.4798C133.966 40.667 135.058 39.4858 135.984 37.9406L139.812 40.2607C138.574 42.3493 136.991 43.9701 135.054 45.1325C133.121 46.295 130.721 46.8761 127.862 46.8761C125.849 46.8761 124.034 46.5265 122.409 45.8319C120.783 45.1372 119.394 44.1591 118.232 42.9022C117.069 41.6453 116.171 40.1379 115.533 38.38C114.896 36.6223 114.574 34.6801 114.574 32.549C114.574 30.4179 114.896 28.5467 115.533 26.8078C116.171 25.0689 117.069 23.5615 118.232 22.2856C119.389 21.0098 120.774 20.0222 122.381 19.3276C123.982 18.633 125.773 18.2833 127.743 18.2833L127.748 18.2738ZM119.687 29.5862H135.696C135.502 27.578 134.708 25.8863 133.319 24.5113C131.93 23.1409 130.092 22.451 127.81 22.451C125.527 22.451 123.798 23.1173 122.385 24.4498C120.972 25.7823 120.074 27.4976 119.687 29.5815V29.5862Z" fill="#F3F6FF"/>
</g>
</g>
<defs>
<clipPath id="clip0_2041_1319">
<rect width="141.124" height="65.5542" fill="white"/>
</clipPath>
</defs>
</svg>
