<svg width="329" height="66" viewBox="0 0 329 66" fill="none" xmlns="http://www.w3.org/2000/svg">
<g clip-path="url(#clip0_2041_1185)">
<mask id="mask0_2041_1185" style="mask-type:luminance" maskUnits="userSpaceOnUse" x="0" y="0" width="329" height="66">
<path d="M328.333 0H0V65.5542H328.333V0Z" fill="white"/>
</mask>
<g mask="url(#mask0_2041_1185)">
<path d="M259.945 41.1739H267.84C277.333 41.1739 283.702 35.145 283.702 26.0699V19.7642C283.702 19.0058 284.256 18.4519 285.019 18.4519H288.692V11.6604H282.041C280.584 11.6604 279.48 12.7639 279.48 14.2211C279.48 16.786 280.516 20.0454 280.516 20.0454H279.412C278.577 15.3331 273.941 10.8296 267.15 10.8296C258.143 10.8296 251.91 16.9266 251.91 26.0699C251.91 31.1956 254.168 35.3581 257.734 37.9956V38.9498H256.899C253.916 38.9498 251.841 40.407 251.841 43.1082C251.841 45.8094 253.921 47.403 256.899 47.403H258.837V48.5151C255.65 48.8602 250.039 50.9391 250.039 56.0647C250.039 61.608 257.734 65.5533 268.607 65.5533C279.48 65.5533 287.03 61.1221 287.03 55.0935C287.03 49.0645 279.203 44.6336 268.534 44.6336H259.945C258.697 44.6336 257.585 44.1521 257.585 42.8995C257.585 41.6469 258.697 41.1739 259.945 41.1739ZM267.84 16.9947C273.451 16.9947 277.473 20.7356 277.473 26.0699C277.473 31.4043 273.451 35.0045 267.84 35.0045C262.229 35.0045 258.143 31.332 258.143 26.0699C258.143 20.808 262.161 16.9947 267.84 16.9947ZM268.534 50.1084C274.904 50.1084 280.17 52.1153 280.17 55.0935C280.17 58.0716 275.181 60.0826 268.534 60.0826C261.888 60.0826 256.895 58.0757 256.895 55.0935C256.895 52.1109 261.743 50.1084 268.534 50.1084Z" fill="#F3F6FF"/>
<path d="M321.34 11.7948L313.264 33.7414C311.974 36.9326 311.821 38.6709 311.821 38.6879L311.812 38.8117H310.534L310.525 38.6879C310.525 38.6879 310.372 36.9368 309.081 33.7414L301.009 11.7948H294.016L305.66 43.9073C305.971 44.7636 306.785 45.3345 307.697 45.3345H309.261L305.66 55.0021C305.21 56.2973 303.987 58.4829 300.897 58.4829H294.656V64.5927H300.621C308.599 64.5927 311.339 58.6705 311.997 56.8511L328.348 11.7948H321.357H321.34Z" fill="#F3F6FF"/>
<path d="M36.1727 16.4372C35.6915 14.4347 34.9883 12.5984 34.0723 10.9154C33.1604 9.23673 32.0443 7.73274 30.7194 6.40767C29.3983 5.08262 27.9029 3.95353 26.2413 3.03324C24.5796 2.10868 22.7518 1.40568 20.7706 0.919963C18.7852 0.429991 16.6634 0.187134 14.4052 0.187134H0V45.5075H14.4095C16.6676 45.5075 18.7852 45.2647 20.7749 44.7832C22.7561 44.2932 24.5839 43.5903 26.2456 42.6658C27.9072 41.7413 29.4027 40.6163 30.7235 39.2913C32.0487 37.9662 33.1604 36.4666 34.0767 34.7837C34.9883 33.1048 35.6915 31.2643 36.1771 29.2618C36.6586 27.2593 36.9056 25.1204 36.9056 22.8495C36.9056 20.5786 36.6628 18.444 36.1771 16.4372H36.1727ZM29.9736 27.6299C29.637 29.1126 29.1598 30.4633 28.525 31.6818C27.8944 32.9047 27.119 33.9867 26.1944 34.9368C25.2699 35.8869 24.2132 36.6839 23.0245 37.34C21.8401 37.9876 20.5235 38.4818 19.0834 38.8184C17.6433 39.1594 16.0882 39.3254 14.4138 39.3254H6.28018V6.36933H14.4095C16.0839 6.36933 17.6391 6.53975 19.0792 6.87634C20.5192 7.21719 21.8358 7.70717 23.0202 8.35904C24.209 9.00667 25.2656 9.80341 26.1902 10.7578C27.1147 11.7079 27.8902 12.7986 28.5207 14.0129C29.1598 15.2357 29.637 16.5864 29.9695 18.0648C30.2975 19.5432 30.4636 21.1367 30.4636 22.8495C30.4636 24.5623 30.2975 26.16 29.9695 27.6342L29.9736 27.6299Z" fill="#F3F6FF"/>
<path d="M72.1632 21.1787C71.4174 19.0058 70.3568 17.1524 68.9763 15.6228C67.6 14.089 65.9385 12.9088 63.9869 12.0737C62.0355 11.2471 59.8543 10.8296 57.4385 10.8296C55.0227 10.8296 52.7518 11.2557 50.7408 12.1035C48.7213 12.9599 46.9957 14.1614 45.5555 15.7166C44.1154 17.2717 43.0033 19.1421 42.2193 21.3236C41.4312 23.5008 41.0391 25.9208 41.0391 28.5752C41.0391 31.2297 41.4397 33.6796 42.2364 35.8737C43.033 38.0723 44.158 39.9469 45.6108 41.5105C47.068 43.0741 48.8147 44.2841 50.8472 45.1407C52.8838 45.997 55.1462 46.4274 57.6387 46.4274C59.6112 46.4274 61.4435 46.1504 63.1435 45.5963C64.8435 45.051 66.3559 44.2544 67.6894 43.2105C69.0231 42.1666 70.1478 40.9011 71.0808 39.3972C72.0098 37.8974 72.6959 36.2059 73.1389 34.3186H66.9353C66.5264 35.3881 66.032 36.3252 65.4441 37.1389C64.8605 37.9529 64.1829 38.6302 63.4245 39.1755C62.6661 39.7211 61.8142 40.1386 60.8726 40.407C59.9307 40.6839 58.9083 40.8203 57.7963 40.8203C56.1686 40.8203 54.7117 40.5389 53.4079 39.981C52.1083 39.4186 51.0007 38.6176 50.0888 37.5693C49.1769 36.5213 48.474 35.2517 47.984 33.7645C47.6859 32.8741 47.4813 31.9114 47.362 30.8845H73.1815C73.2241 30.4327 73.2497 30.0194 73.2668 29.6361C73.2838 29.2526 73.2879 28.8691 73.2879 28.4772C73.2879 25.7845 72.9172 23.3516 72.1717 21.1787H72.1632ZM47.4769 25.5246C47.5921 24.8215 47.7497 24.1526 47.9499 23.5221C48.427 22.0181 49.1046 20.7441 49.9865 19.6917C50.8728 18.6394 51.9422 17.8384 53.2075 17.276C54.4689 16.7135 55.8831 16.4324 57.4682 16.4324C59.0532 16.4324 60.374 16.705 61.5628 17.2461C62.7513 17.7872 63.757 18.5797 64.5707 19.6193C65.3888 20.6589 66.0108 21.9371 66.4368 23.4539C66.6158 24.1015 66.7607 24.7917 66.8586 25.5246H47.4813H47.4769Z" fill="#F3F6FF"/>
<path d="M99.4005 11.7466V17.6561H97.888C95.4167 17.6561 93.346 17.8819 91.6716 18.3378C89.9971 18.7894 88.6508 19.4796 87.6369 20.3957C86.6186 21.316 85.8943 22.4706 85.4554 23.8639C85.0165 25.2571 84.7951 26.8932 84.7951 28.7721V45.5079H78.5957V11.7466H84.7951V22.509C85.1699 20.8814 85.7152 19.4157 86.4269 18.1163C87.1683 16.7571 88.0843 15.6067 89.1834 14.6609C90.2785 13.7193 91.5525 12.9949 93.0009 12.4965C94.4539 11.9937 96.0728 11.7466 97.871 11.7466H99.4005Z" fill="#F3F6FF"/>
<path d="M156.567 26.6325V45.5113H150.364V26.6325C150.364 24.9368 150.206 23.4541 149.882 22.1844C149.563 20.9147 149.077 19.8496 148.434 18.9975C147.795 18.1453 146.985 17.5062 146.018 17.0759C145.047 16.6499 143.918 16.4326 142.635 16.4326C141.233 16.4326 139.985 16.6754 138.89 17.1611C137.791 17.6468 136.862 18.3498 136.095 19.2744C135.328 20.199 134.744 21.3323 134.344 22.6744C133.939 24.0165 133.739 25.5376 133.739 27.2418V45.5113H127.535V26.6325C127.535 24.9368 127.378 23.4541 127.054 22.1844C126.734 20.9147 126.249 19.8496 125.61 18.9975C124.966 18.1453 124.157 17.5062 123.19 17.0759C122.218 16.6499 121.089 16.4326 119.807 16.4326C118.405 16.4326 117.161 16.6754 116.061 17.1611C114.962 17.6468 114.033 18.3498 113.266 19.2744C112.504 20.199 111.916 21.3323 111.515 22.6744C111.111 24.0165 110.91 25.5376 110.91 27.2418V45.5113H104.707V11.7458H110.91V21.1704C111.285 19.6025 111.814 18.1922 112.495 16.9438C113.203 15.6401 114.05 14.5408 115.035 13.6376C116.019 12.7343 117.135 12.0398 118.375 11.5541C119.615 11.0684 120.953 10.8256 122.393 10.8256C123.914 10.8256 125.303 11.094 126.555 11.6308C127.812 12.1677 128.907 12.9431 129.849 13.9656C130.786 14.9839 131.566 16.2323 132.184 17.7022C132.776 19.1082 133.198 20.6975 133.458 22.4699C133.773 20.723 134.263 19.1423 134.923 17.7406C135.614 16.2749 136.466 15.0308 137.48 14.004C138.498 12.9772 139.657 12.1932 140.956 11.6436C142.26 11.0982 143.679 10.8256 145.221 10.8256C146.998 10.8256 148.587 11.1877 149.989 11.912C151.395 12.6363 152.584 13.6802 153.559 15.0436C154.531 16.407 155.276 18.0644 155.792 20.02C156.308 21.9757 156.567 24.1784 156.567 26.6283V26.6325Z" fill="#F3F6FF"/>
<path d="M162.42 23.5987C162.778 22.0266 163.294 20.5822 163.967 19.2657C164.64 17.9491 165.458 16.769 166.425 15.7208C167.392 14.6727 168.483 13.7908 169.71 13.0664C170.937 12.3421 172.275 11.7882 173.728 11.4048C175.181 11.0213 176.736 10.8296 178.389 10.8296C180.042 10.8296 181.597 11.0213 183.05 11.4048C184.503 11.7882 185.846 12.3421 187.068 13.0664C188.295 13.7908 189.386 14.677 190.353 15.7208C191.316 16.769 192.138 17.9491 192.812 19.2657C193.485 20.5822 194 22.0266 194.358 23.5987C194.716 25.1709 194.895 26.8453 194.895 28.622C194.895 30.3986 194.716 32.073 194.358 33.6455C194 35.2176 193.485 36.6663 192.812 37.987C192.138 39.3078 191.316 40.4922 190.345 41.5317C189.373 42.5714 188.278 43.4577 187.06 44.1862C185.841 44.9146 184.503 45.4729 183.046 45.8565C181.593 46.2398 180.038 46.4315 178.385 46.4315C176.732 46.4315 175.177 46.2398 173.724 45.8565C172.271 45.4729 170.933 44.919 169.71 44.1862C168.492 43.4577 167.397 42.5714 166.425 41.5317C165.454 40.4922 164.636 39.3078 163.958 37.987C163.285 36.6663 162.77 35.2176 162.412 33.6455C162.054 32.073 161.875 30.3986 161.875 28.622C161.875 26.8453 162.054 25.1709 162.412 23.5987H162.42ZM168.794 33.7093C169.267 35.2132 169.953 36.4913 170.848 37.5437C171.743 38.5961 172.825 39.4057 174.103 39.9725C175.377 40.5389 176.813 40.8203 178.406 40.8203C180 40.8203 181.431 40.5389 182.701 39.9766C183.971 39.4142 185.053 38.6047 185.939 37.5481C186.825 36.4913 187.507 35.2091 187.984 33.7048C188.457 32.2009 188.696 30.5009 188.696 28.6135C188.696 26.7261 188.457 25.0303 187.984 23.5221C187.511 22.0181 186.83 20.7399 185.939 19.6875C185.053 18.6351 183.971 17.8298 182.701 17.2674C181.431 16.705 180 16.4238 178.406 16.4238C176.813 16.4238 175.381 16.705 174.103 17.2674C172.825 17.8298 171.743 18.6351 170.848 19.6875C169.953 20.7399 169.271 22.0181 168.794 23.5221C168.321 25.0261 168.083 26.7261 168.083 28.6135C168.083 30.5009 168.321 32.1968 168.794 33.7048V33.7093Z" fill="#F3F6FF"/>
<path d="M206.41 45.5079H200.211V0H206.41V45.5079Z" fill="#F3F6FF"/>
<path d="M212.252 23.5987C212.61 22.0266 213.126 20.5822 213.799 19.2657C214.472 17.9491 215.29 16.769 216.257 15.7208C217.224 14.6727 218.315 13.7908 219.542 13.0664C220.769 12.3421 222.107 11.7882 223.56 11.4048C225.013 11.0213 226.568 10.8296 228.221 10.8296C229.874 10.8296 231.429 11.0213 232.882 11.4048C234.335 11.7882 235.677 12.3421 236.9 13.0664C238.123 13.7908 239.218 14.677 240.185 15.7208C241.148 16.769 241.97 17.9491 242.643 19.2657C243.317 20.5822 243.832 22.0266 244.19 23.5987C244.548 25.1709 244.727 26.8453 244.727 28.622C244.727 30.3986 244.548 32.073 244.19 33.6455C243.832 35.2176 243.317 36.6663 242.643 37.987C241.97 39.3078 241.148 40.4922 240.177 41.5317C239.205 42.5714 238.11 43.4577 236.892 44.1862C235.673 44.9146 234.335 45.4729 232.878 45.8565C231.425 46.2398 229.87 46.4315 228.217 46.4315C226.564 46.4315 225.009 46.2398 223.556 45.8565C222.103 45.4729 220.765 44.919 219.542 44.1862C218.324 43.4577 217.229 42.5714 216.257 41.5317C215.286 40.4922 214.468 39.3078 213.79 37.987C213.117 36.6663 212.602 35.2176 212.244 33.6455C211.886 32.073 211.707 30.3986 211.707 28.622C211.707 26.8453 211.886 25.1709 212.244 23.5987H212.252ZM218.626 33.7093C219.099 35.2132 219.785 36.4913 220.68 37.5437C221.575 38.5961 222.657 39.4057 223.935 39.9725C225.209 40.5389 226.645 40.8203 228.238 40.8203C229.832 40.8203 231.263 40.5389 232.533 39.9766C233.803 39.4142 234.885 38.6047 235.771 37.5481C236.657 36.4913 237.339 35.2091 237.816 33.7048C238.293 32.2009 238.528 30.5009 238.528 28.6135C238.528 26.7261 238.289 25.0303 237.816 23.5221C237.343 22.0181 236.661 20.7399 235.771 19.6875C234.885 18.6351 233.803 17.8298 232.533 17.2674C231.263 16.705 229.832 16.4238 228.238 16.4238C226.645 16.4238 225.213 16.705 223.935 17.2674C222.657 17.8298 221.575 18.6351 220.68 19.6875C219.785 20.7399 219.103 22.0181 218.626 23.5221C218.153 25.0261 217.915 26.7261 217.915 28.6135C217.915 30.5009 218.153 32.1968 218.626 33.7048V33.7093Z" fill="#F3F6FF"/>
<path d="M6.49676 53.4032C7.04212 53.5692 7.50229 53.8079 7.89 54.119C8.27345 54.43 8.57171 54.8092 8.78048 55.2566C8.98926 55.704 9.09576 56.2067 9.09576 56.7649H7.48951C7.48951 56.441 7.42134 56.147 7.28499 55.8828C7.14865 55.6229 6.95693 55.3971 6.70553 55.214C6.45842 55.0308 6.16017 54.89 5.81508 54.788C5.46996 54.6857 5.08649 54.6387 4.66897 54.6387C4.43462 54.6387 4.20027 54.6557 3.97021 54.6857C3.74013 54.7198 3.51859 54.7666 3.30556 54.8348C3.09252 54.903 2.89653 54.9838 2.71332 55.0861C2.53011 55.1884 2.37247 55.3078 2.24039 55.4483C2.10831 55.5888 2.00179 55.7422 1.9251 55.9213C1.84841 56.0959 1.81006 56.292 1.81006 56.5048C1.81006 56.6923 1.83989 56.8584 1.9038 56.9948C1.96345 57.1356 2.05292 57.2547 2.16796 57.357C2.28299 57.4593 2.4236 57.5445 2.59402 57.6213C2.76019 57.6936 2.95618 57.7577 3.16922 57.8129C3.38649 57.8682 3.62084 57.9152 3.87647 57.9579C4.1321 58.0005 4.41331 58.0472 4.7073 58.0898L5.28674 58.1751C5.60204 58.2218 5.92585 58.2774 6.25817 58.3327C6.5905 58.3923 6.91004 58.4691 7.22535 58.5628C7.53636 58.6566 7.83036 58.7801 8.1073 58.925C8.38425 59.0699 8.62709 59.2531 8.83587 59.4703C9.04464 59.6875 9.20653 59.9518 9.32585 60.2628C9.44514 60.5738 9.50478 60.9401 9.50478 61.362C9.50478 61.9458 9.38976 62.4529 9.15967 62.8832C8.92958 63.3133 8.60578 63.6755 8.19249 63.9609C7.77921 64.2467 7.28499 64.4595 6.70979 64.6044C6.13462 64.7449 5.5083 64.8175 4.81807 64.8175C4.06393 64.8175 3.39075 64.7364 2.79853 64.5703C2.20204 64.4042 1.69929 64.1614 1.28601 63.846C0.872723 63.5264 0.557436 63.1387 0.335881 62.6786C0.114328 62.2186 0.0078125 61.6944 0.0078125 61.1065H1.61407C1.61407 61.4516 1.68651 61.7668 1.83563 62.0396C1.98475 62.3165 2.19778 62.5508 2.47046 62.7424C2.74314 62.9341 3.07973 63.079 3.47171 63.1813C3.86368 63.2836 4.3068 63.3304 4.79252 63.3304C5.2143 63.3304 5.61057 63.2921 5.98549 63.2113C6.36041 63.1302 6.68851 63.0108 6.96969 62.8491C7.25089 62.6872 7.47672 62.4785 7.6429 62.2271C7.80905 61.9755 7.89 61.6774 7.89 61.3279C7.89 61.1236 7.86017 60.9445 7.79626 60.7911C7.73235 60.6376 7.64713 60.5101 7.5321 60.3992C7.41707 60.2884 7.27647 60.1946 7.11455 60.1179C6.95267 60.0412 6.76944 59.9774 6.56493 59.9218C6.36041 59.8666 6.13888 59.8198 5.90027 59.7813C5.66169 59.7431 5.41032 59.7005 5.14613 59.6579L4.41757 59.547C4.09803 59.5003 3.76996 59.4491 3.43764 59.3895C3.10531 59.3339 2.78149 59.2572 2.4662 59.1678C2.15092 59.0784 1.85693 58.9632 1.58425 58.8271C1.30731 58.6907 1.06871 58.5158 0.859941 58.3115C0.65543 58.1028 0.489266 57.8556 0.369966 57.5657C0.250669 57.2761 0.19102 56.931 0.19102 56.5304C0.19102 56.1556 0.246408 55.8146 0.352925 55.4994C0.45944 55.184 0.612822 54.903 0.808812 54.6516C1.0048 54.4003 1.23914 54.1827 1.51182 53.9911C1.7845 53.8035 2.09127 53.646 2.41934 53.5181C2.75167 53.3905 3.10531 53.2967 3.48876 53.2327C3.86794 53.1689 4.26421 53.1348 4.66897 53.1348C5.33789 53.1348 5.9429 53.22 6.48826 53.3861L6.49676 53.4032Z" fill="#F3F6FF"/>
<path d="M42.0978 64.5906H39.5926L33.9941 59.8484V64.5906H32.3496V53.3853H33.9941V58.4808L39.3583 53.3853H41.6677L35.4812 59.1114L42.0978 64.5906Z" fill="#F3F6FF"/>
<path d="M70.5331 64.5906H68.8887V53.3853H70.5331V64.5906Z" fill="#F3F6FF"/>
<path d="M107.155 53.3853V64.5906H104.484L98.8133 54.4332V64.5906H97.207V53.3853H100.117L105.549 63.1164V53.3853H107.155Z" fill="#F3F6FF"/>
<path d="M131.251 60.2417C131.324 60.6294 131.435 60.983 131.579 61.3026C131.724 61.6221 131.899 61.9076 132.108 62.1548C132.316 62.4017 132.555 62.6107 132.828 62.7809C133.096 62.9514 133.399 63.0793 133.722 63.1687C134.051 63.2583 134.4 63.301 134.779 63.301C135.239 63.301 135.657 63.2369 136.032 63.1049C136.407 62.9729 136.735 62.7809 137.02 62.5211C137.306 62.2612 137.544 61.9461 137.736 61.5624C137.928 61.1791 138.073 60.7402 138.166 60.2417H139.815C139.696 60.9575 139.496 61.5965 139.206 62.1674C138.916 62.7342 138.558 63.2157 138.124 63.6076C137.689 64.0038 137.191 64.3022 136.628 64.5109C136.066 64.7196 135.448 64.826 134.775 64.826C134.251 64.826 133.761 64.7623 133.292 64.6344C132.823 64.5065 132.398 64.3234 132.01 64.0847C131.618 63.8463 131.268 63.5564 130.957 63.2113C130.646 62.8662 130.382 62.4784 130.165 62.0481C129.948 61.618 129.782 61.145 129.666 60.6294C129.551 60.1182 129.496 59.5685 129.496 58.9891C129.496 58.4097 129.556 57.8644 129.666 57.3487C129.782 56.8331 129.948 56.3645 130.165 55.9298C130.382 55.4997 130.646 55.1076 130.957 54.7668C131.268 54.4217 131.622 54.1319 132.01 53.8932C132.402 53.6548 132.828 53.4716 133.292 53.3438C133.757 53.2159 134.251 53.1521 134.775 53.1521C135.448 53.1521 136.066 53.2541 136.628 53.4672C137.191 53.6759 137.693 53.9784 138.124 54.3706C138.558 54.7668 138.921 55.244 139.206 55.8107C139.496 56.3772 139.696 57.0163 139.815 57.7321H138.166C138.073 57.2338 137.928 56.7949 137.736 56.4113C137.544 56.028 137.306 55.7084 137.02 55.4527C136.735 55.1972 136.407 55.0011 136.032 54.8691C135.657 54.7369 135.239 54.6731 134.779 54.6731C134.4 54.6731 134.046 54.7157 133.722 54.8051C133.394 54.8944 133.096 55.0223 132.828 55.1928C132.56 55.3633 132.316 55.572 132.108 55.8192C131.899 56.0662 131.724 56.3516 131.579 56.6712C131.435 56.9907 131.328 57.3443 131.251 57.7321C131.175 58.1198 131.141 58.5375 131.141 58.9847C131.141 59.4321 131.179 59.8498 131.251 60.2375V60.2417Z" fill="#F3F6FF"/>
<path d="M168.396 53.3853H165.929L161.754 64.5906H163.462L164.502 61.7785H169.751L170.774 64.5906H172.521L168.396 53.3853ZM165.052 60.2917L167.144 54.6249L169.206 60.2917H165.052Z" fill="#F3F6FF"/>
<path d="M202.923 61.3652C202.795 61.0757 202.655 60.8243 202.505 60.6027C202.352 60.3854 202.19 60.202 202.011 60.053C201.837 59.9039 201.649 59.789 201.449 59.7164C201.283 59.6526 201.104 59.6141 200.912 59.6056C201.364 59.6014 201.773 59.5332 202.148 59.4013C202.548 59.2649 202.889 59.0647 203.175 58.8089C203.46 58.5532 203.677 58.2466 203.835 57.8885C203.988 57.5308 204.069 57.126 204.069 56.683C204.069 56.197 203.976 55.754 203.788 55.3492C203.605 54.9444 203.345 54.5993 203.008 54.3054C202.672 54.0158 202.271 53.7897 201.807 53.6281C201.347 53.4661 200.835 53.3853 200.277 53.3853H194.854V64.5906H196.498V60.232H198.91C199.233 60.232 199.51 60.2532 199.745 60.2917C199.979 60.3299 200.183 60.394 200.358 60.4833C200.529 60.5727 200.678 60.6879 200.797 60.8326C200.921 60.9775 201.027 61.1565 201.121 61.3696L202.561 64.5906H204.367L202.923 61.3652ZM200.064 58.7025H196.498V54.9103H200.056C200.435 54.9103 200.771 54.953 201.066 55.0341C201.36 55.1191 201.606 55.2384 201.807 55.3919C202.007 55.5494 202.16 55.7455 202.267 55.9757C202.369 56.2056 202.42 56.4654 202.42 56.7638C202.42 57.0622 202.369 57.3391 202.263 57.5819C202.156 57.8203 201.999 58.0249 201.798 58.191C201.594 58.353 201.347 58.4808 201.053 58.5702C200.763 58.6599 200.431 58.7025 200.064 58.7025Z" fill="#F3F6FF"/>
<path d="M235.945 63.0611V64.5906H228.217V53.3853H235.788V54.9103H229.866V58.238H235.315V59.7675H229.866V63.0611H235.945Z" fill="#F3F6FF"/>
</g>
</g>
<defs>
<clipPath id="clip0_2041_1185">
<rect width="328.359" height="65.5542" fill="white"/>
</clipPath>
</defs>
</svg>
