<svg width="1117" height="223" viewBox="0 0 1117 223" fill="none" xmlns="http://www.w3.org/2000/svg">
<g clip-path="url(#clip0_4260_3780)">
<path d="M884.276 140.064H911.133C943.425 140.064 965.093 119.555 965.093 88.6838V67.2331C965.093 64.6532 966.977 62.7691 969.571 62.7691H982.065V39.6661H959.44C954.483 39.6661 950.73 43.42 950.73 48.3768C950.73 57.102 954.252 68.1897 954.252 68.1897H950.498C947.657 52.1597 931.888 36.8398 908.785 36.8398C878.145 36.8398 856.941 57.5803 856.941 88.6838C856.941 106.12 864.623 120.28 876.754 129.252V132.498H873.913C863.767 132.498 856.709 137.455 856.709 146.644C856.709 155.833 863.782 161.254 873.913 161.254H880.508V165.037C869.666 166.211 850.578 173.283 850.578 190.719C850.578 209.576 876.754 222.997 913.742 222.997C950.73 222.997 976.412 207.923 976.412 187.415C976.412 166.906 949.788 151.833 913.495 151.833H884.276C880.029 151.833 876.246 150.195 876.246 145.934C876.246 141.673 880.029 140.064 884.276 140.064ZM911.133 57.8122C930.221 57.8122 943.903 70.5377 943.903 88.6838C943.903 106.83 930.221 119.077 911.133 119.077C892.045 119.077 878.145 106.584 878.145 88.6838C878.145 70.7841 891.813 57.8122 911.133 57.8122ZM913.495 170.457C935.163 170.457 953.078 177.284 953.078 187.415C953.078 197.546 936.105 204.387 913.495 204.387C890.885 204.387 873.899 197.56 873.899 187.415C873.899 177.269 890.392 170.457 913.495 170.457Z" fill="#F3F6FF"/>
<path d="M1093.12 40.123L1065.65 114.78C1061.26 125.636 1060.74 131.549 1060.74 131.607L1060.71 132.028H1056.36L1056.33 131.607C1056.33 131.607 1055.81 125.65 1051.42 114.78L1023.96 40.123H1000.17L1039.78 149.362C1040.84 152.275 1043.61 154.217 1046.71 154.217H1052.03L1039.78 187.104C1038.25 191.51 1034.09 198.945 1023.58 198.945H1002.35V219.729H1022.64C1049.78 219.729 1059.1 199.583 1061.34 193.394L1116.96 40.123H1093.18H1093.12Z" fill="#F3F6FF"/>
<path d="M123.051 55.9157C121.414 49.1036 119.022 42.8569 115.906 37.1318C112.804 31.4213 109.007 26.3051 104.5 21.7975C100.006 17.29 94.9192 13.4491 89.2667 10.3185C83.6141 7.17338 77.3963 4.78192 70.6568 3.12963C63.9027 1.46286 56.6848 0.636719 49.0032 0.636719H0V154.806H49.0177C56.6993 154.806 63.9027 153.98 70.6713 152.342C77.4108 150.675 83.6286 148.284 89.2812 145.139C94.9337 141.994 100.021 138.167 104.514 133.66C109.022 129.152 112.804 124.051 115.921 118.326C119.022 112.615 121.414 106.354 123.066 99.5417C124.704 92.7297 125.544 85.4538 125.544 77.7287C125.544 70.0035 124.718 62.7422 123.066 55.9157H123.051ZM101.963 93.9906C100.818 99.0344 99.1948 103.629 97.0353 107.774C94.8902 111.934 92.2524 115.615 89.1072 118.847C85.9621 122.079 82.3677 124.79 78.3239 127.022C74.2947 129.225 69.8161 130.906 64.9173 132.051C60.0184 133.211 54.7282 133.776 49.0322 133.776H21.3637V21.6671H49.0177C54.7137 21.6671 60.0039 22.2468 64.9028 23.3918C69.8016 24.5513 74.2802 26.2181 78.3094 28.4356C82.3532 30.6387 85.9476 33.349 89.0927 36.5956C92.2379 39.8277 94.8757 43.5381 97.0208 47.6688C99.1949 51.8285 100.818 56.423 101.949 61.4523C103.065 66.4816 103.63 71.9022 103.63 77.7287C103.63 83.5552 103.065 88.9903 101.949 94.0051L101.963 93.9906Z" fill="#F3F6FF"/>
<path d="M245.486 72.045C242.949 64.6532 239.341 58.3485 234.645 53.1452C229.963 47.9275 224.311 43.9128 217.672 41.072C211.034 38.2602 203.614 36.8398 195.396 36.8398C187.178 36.8398 179.453 38.2892 172.612 41.1735C165.742 44.0867 159.872 48.1739 154.973 53.4641C150.074 58.7543 146.291 65.117 143.624 72.5378C140.943 79.9441 139.609 88.1765 139.609 97.2061C139.609 106.236 140.972 114.57 143.682 122.034C146.392 129.513 150.219 135.89 155.161 141.209C160.118 146.528 166.06 150.644 172.974 153.558C179.902 156.471 187.598 157.935 196.077 157.935C202.787 157.935 209.02 156.993 214.803 155.108C220.586 153.253 225.731 150.543 230.267 146.992C234.804 143.441 238.63 139.136 241.804 134.02C244.964 128.918 247.298 123.164 248.805 116.744H227.702C226.311 120.382 224.629 123.57 222.629 126.338C220.644 129.107 218.339 131.411 215.759 133.266C213.179 135.122 210.281 136.542 207.078 137.455C203.874 138.397 200.396 138.861 196.613 138.861C191.076 138.861 186.12 137.904 181.685 136.006C177.264 134.093 173.496 131.368 170.394 127.802C167.292 124.237 164.901 119.918 163.234 114.859C162.22 111.83 161.524 108.555 161.118 105.062H248.95C249.095 103.525 249.182 102.119 249.24 100.815C249.298 99.5106 249.312 98.2061 249.312 96.8727C249.312 87.7127 248.051 79.4368 245.515 72.045H245.486ZM161.509 86.8286C161.901 84.4371 162.437 82.1616 163.118 80.0166C164.741 74.9003 167.046 70.5667 170.046 66.9867C173.061 63.4068 176.699 60.682 181.003 58.7688C185.294 56.8556 190.105 55.8991 195.497 55.8991C200.889 55.8991 205.382 56.8266 209.426 58.6673C213.469 60.508 216.89 63.2039 219.658 66.7403C222.441 70.2768 224.557 74.6249 226.006 79.7847C226.615 81.9877 227.108 84.3357 227.441 86.8286H161.524H161.509Z" fill="#F3F6FF"/>
<path d="M338.14 39.959V60.0617H332.995C324.588 60.0617 317.544 60.8299 311.848 62.3807C306.152 63.9171 301.572 66.265 298.123 69.3812C294.659 72.5118 292.195 76.4396 290.702 81.1791C289.209 85.9185 288.456 91.4841 288.456 97.8758V154.807H267.367V39.959H288.456V76.5701C289.731 71.0335 291.586 66.0476 294.007 61.6271C296.529 57.0036 299.645 53.0903 303.384 49.8727C307.109 46.6696 311.443 44.2056 316.37 42.5099C321.313 40.7996 326.82 39.959 332.937 39.959H338.14Z" fill="#F3F6FF"/>
<path d="M532.605 90.5978V154.819H511.502V90.5978C511.502 84.8293 510.966 79.7855 509.864 75.4664C508.777 71.1472 507.125 67.5238 504.936 64.6251C502.762 61.7263 500.008 59.5523 496.718 58.0884C493.414 56.6391 489.573 55.8999 485.21 55.8999C480.442 55.8999 476.195 56.726 472.47 58.3783C468.731 60.0306 465.571 62.422 462.963 65.5672C460.354 68.7123 458.368 72.5676 457.006 77.1331C455.629 81.6987 454.948 86.8729 454.948 92.6704V154.819H433.845V90.5978C433.845 84.8293 433.308 79.7855 432.207 75.4664C431.12 71.1472 429.468 67.5238 427.294 64.6251C425.105 61.7263 422.351 59.5523 419.061 58.0884C415.757 56.6391 411.916 55.8999 407.553 55.8999C402.785 55.8999 398.553 56.726 394.813 58.3783C391.074 60.0306 387.914 62.422 385.305 65.5672C382.711 68.7123 380.711 72.5676 379.348 77.1331C377.972 81.6987 377.29 86.8729 377.29 92.6704V154.819H356.188V39.9568H377.29V72.0169C378.566 66.6832 380.363 61.8858 382.682 57.6391C385.088 53.2041 387.972 49.4647 391.32 46.392C394.668 43.3193 398.466 40.9569 402.683 39.3046C406.901 37.6523 411.452 36.8262 416.351 36.8262C421.525 36.8262 426.25 37.7393 430.511 39.5655C434.787 41.3917 438.512 44.0295 441.715 47.508C444.903 50.972 447.556 55.2187 449.657 60.219C451.672 65.0019 453.107 70.4081 453.991 76.4374C455.063 70.495 456.73 65.1179 458.977 60.3494C461.325 55.3636 464.224 51.1314 467.673 47.6385C471.137 44.1455 475.079 41.4786 479.5 39.609C483.935 37.7538 488.761 36.8262 494.008 36.8262C500.052 36.8262 505.458 38.0581 510.226 40.5221C515.009 42.986 519.053 46.537 522.372 51.1749C525.677 55.8129 528.213 61.451 529.967 68.1036C531.721 74.7562 532.605 82.2494 532.605 90.5833V90.5978Z" fill="#F3F6FF"/>
<path d="M552.519 80.2774C553.737 74.9293 555.49 70.0159 557.78 65.5374C560.07 61.0588 562.853 57.0441 566.143 53.4786C569.433 49.9132 573.144 46.913 577.318 44.449C581.492 41.9851 586.043 40.1009 590.985 38.7965C595.928 37.4921 601.218 36.8398 606.842 36.8398C612.465 36.8398 617.755 37.4921 622.698 38.7965C627.64 40.1009 632.206 41.9851 636.365 44.449C640.539 46.913 644.25 49.9277 647.54 53.4786C650.815 57.0441 653.613 61.0588 655.903 65.5374C658.193 70.0159 659.947 74.9293 661.164 80.2774C662.381 85.6256 662.99 91.3216 662.99 97.3655C662.99 103.409 662.381 109.105 661.164 114.454C659.947 119.802 658.193 124.73 655.903 129.223C653.613 133.716 650.815 137.745 647.511 141.281C644.206 144.818 640.481 147.833 636.336 150.311C632.191 152.789 627.64 154.688 622.683 155.993C617.741 157.297 612.451 157.949 606.827 157.949C601.204 157.949 595.913 157.297 590.971 155.993C586.029 154.688 581.478 152.804 577.318 150.311C573.173 147.833 569.448 144.818 566.143 141.281C562.839 137.745 560.056 133.716 557.751 129.223C555.461 124.73 553.708 119.802 552.49 114.454C551.273 109.105 550.664 103.409 550.664 97.3655C550.664 91.3216 551.273 85.6256 552.49 80.2774H552.519ZM574.202 114.671C575.811 119.787 578.144 124.135 581.188 127.715C584.231 131.295 587.913 134.049 592.261 135.977C596.595 137.904 601.479 138.861 606.9 138.861C612.32 138.861 617.19 137.904 621.509 135.991C625.828 134.078 629.51 131.324 632.524 127.73C635.539 124.135 637.858 119.773 639.481 114.656C641.09 109.54 641.902 103.757 641.902 97.3365C641.902 90.9158 641.09 85.1473 639.481 80.0166C637.873 74.9003 635.554 70.5522 632.524 66.9722C629.51 63.3923 625.828 60.653 621.509 58.7398C617.19 56.8266 612.32 55.8701 606.9 55.8701C601.479 55.8701 596.609 56.8266 592.261 58.7398C587.913 60.653 584.231 63.3923 581.188 66.9722C578.144 70.5522 575.825 74.9003 574.202 80.0166C572.593 85.1328 571.781 90.9158 571.781 97.3365C571.781 103.757 572.593 109.526 574.202 114.656V114.671Z" fill="#F3F6FF"/>
<path d="M702.159 154.807H681.07V0H702.159V154.807Z" fill="#F3F6FF"/>
<path d="M722.035 80.2774C723.252 74.9293 725.006 70.0159 727.296 65.5374C729.586 61.0588 732.369 57.0441 735.659 53.4786C738.949 49.9132 742.659 46.913 746.834 44.449C751.008 41.9851 755.559 40.1009 760.501 38.7965C765.444 37.4921 770.734 36.8398 776.357 36.8398C781.981 36.8398 787.271 37.4921 792.213 38.7965C797.156 40.1009 801.721 41.9851 805.881 44.449C810.041 46.913 813.765 49.9277 817.055 53.4786C820.331 57.0441 823.128 61.0588 825.418 65.5374C827.708 70.0159 829.462 74.9293 830.68 80.2774C831.897 85.6256 832.506 91.3216 832.506 97.3655C832.506 103.409 831.897 109.105 830.68 114.454C829.462 119.802 827.708 124.73 825.418 129.223C823.128 133.716 820.331 137.745 817.027 141.281C813.722 144.818 809.997 147.833 805.852 150.311C801.707 152.789 797.156 154.688 792.199 155.993C787.257 157.297 781.966 157.949 776.343 157.949C770.719 157.949 765.429 157.297 760.487 155.993C755.544 154.688 750.993 152.804 746.834 150.311C742.688 147.833 738.964 144.818 735.659 141.281C732.354 137.745 729.572 133.716 727.267 129.223C724.977 124.73 723.223 119.802 722.006 114.454C720.788 109.105 720.18 103.409 720.18 97.3655C720.18 91.3216 720.788 85.6256 722.006 80.2774H722.035ZM743.717 114.671C745.326 119.787 747.66 124.135 750.703 127.715C753.747 131.295 757.428 134.049 761.777 135.977C766.11 137.904 770.995 138.861 776.415 138.861C781.836 138.861 786.706 137.904 791.025 135.991C795.344 134.078 799.025 131.324 802.04 127.73C805.055 124.135 807.374 119.773 808.997 114.656C810.62 109.54 811.418 103.757 811.418 97.3365C811.418 90.9158 810.606 85.1473 808.997 80.0166C807.388 74.9003 805.069 70.5522 802.04 66.9722C799.025 63.3923 795.344 60.653 791.025 58.7398C786.706 56.8266 781.836 55.8701 776.415 55.8701C770.995 55.8701 766.125 56.8266 761.777 58.7398C757.428 60.653 753.747 63.3923 750.703 66.9722C747.66 70.5522 745.341 74.9003 743.717 80.0166C742.109 85.1328 741.297 90.9158 741.297 97.3365C741.297 103.757 742.109 109.526 743.717 114.656V114.671Z" fill="#F3F6FF"/>
<path d="M22.1051 181.665C23.9603 182.23 25.5257 183.042 26.8446 184.1C28.149 185.158 29.1636 186.448 29.8738 187.97C30.584 189.492 30.9463 191.202 30.9463 193.101H25.4822C25.4822 191.999 25.2503 190.999 24.7865 190.1C24.3227 189.216 23.6705 188.448 22.8153 187.825C21.9747 187.202 20.9601 186.723 19.7862 186.376C18.6122 186.028 17.3077 185.868 15.8874 185.868C15.0902 185.868 14.293 185.926 13.5104 186.028C12.7277 186.144 11.9741 186.303 11.2494 186.535C10.5247 186.767 9.85798 187.042 9.23475 187.39C8.61152 187.738 8.07525 188.144 7.62595 188.622C7.17664 189.1 6.8143 189.622 6.55341 190.231C6.29253 190.825 6.16208 191.492 6.16208 192.216C6.16208 192.854 6.26354 193.419 6.48094 193.883C6.68386 194.362 6.98822 194.767 7.37955 195.115C7.77088 195.463 8.24917 195.753 8.82892 196.014C9.39418 196.26 10.0609 196.478 10.7856 196.666C11.5247 196.854 12.3219 197.014 13.1915 197.159C14.0611 197.304 15.0177 197.463 16.0178 197.608L17.9889 197.898C19.0615 198.057 20.163 198.246 21.2935 198.434C22.424 198.637 23.511 198.898 24.5836 199.217C25.6416 199.536 26.6417 199.956 27.5838 200.449C28.5259 200.942 29.352 201.565 30.0622 202.304C30.7724 203.043 31.3231 203.942 31.729 205C32.1348 206.058 32.3377 207.304 32.3377 208.739C32.3377 210.725 31.9464 212.45 31.1637 213.914C30.381 215.377 29.2795 216.609 27.8736 217.58C26.4677 218.552 24.7865 219.276 22.8298 219.769C20.8732 220.247 18.7426 220.494 16.3946 220.494C13.8292 220.494 11.5392 220.218 9.52462 219.653C7.4955 219.088 5.78525 218.262 4.37936 217.189C2.97347 216.102 1.90094 214.783 1.14726 213.218C0.393592 211.653 0.03125 209.87 0.03125 207.87H5.49537C5.49537 209.044 5.74177 210.116 6.24905 211.044C6.75632 211.986 7.48101 212.783 8.40861 213.435C9.3362 214.087 10.4812 214.58 11.8146 214.928C13.148 215.276 14.6554 215.435 16.3077 215.435C17.7425 215.435 19.0905 215.305 20.3659 215.03C21.6413 214.754 22.7574 214.348 23.7139 213.798C24.6705 213.247 25.4387 212.537 26.004 211.682C26.5692 210.826 26.8446 209.812 26.8446 208.623C26.8446 207.928 26.7431 207.319 26.5257 206.797C26.3083 206.275 26.0184 205.841 25.6271 205.464C25.2358 205.087 24.7575 204.768 24.2067 204.507C23.656 204.246 23.0327 204.029 22.337 203.84C21.6413 203.652 20.8877 203.493 20.076 203.362C19.2644 203.232 18.4093 203.087 17.5106 202.942L15.0322 202.565C13.9452 202.406 12.8292 202.232 11.6987 202.029C10.5682 201.84 9.46665 201.579 8.39411 201.275C7.32158 200.971 6.32151 200.579 5.39392 200.116C4.45183 199.652 3.64018 199.057 2.92999 198.362C2.23429 197.652 1.66904 196.811 1.26321 195.825C0.857391 194.84 0.654479 193.666 0.654479 192.303C0.654479 191.028 0.842897 189.868 1.20524 188.796C1.56758 187.723 2.08935 186.767 2.75606 185.912C3.42277 185.057 4.21993 184.317 5.14752 183.665C6.07512 183.027 7.11867 182.491 8.23468 182.056C9.36519 181.622 10.5682 181.303 11.8726 181.085C13.1625 180.868 14.5105 180.752 15.8874 180.752C18.1629 180.752 20.221 181.042 22.0762 181.607L22.1051 181.665Z" fill="#F3F6FF"/>
<path d="M143.208 219.722H134.686L115.641 203.59V219.722H110.047V181.604H115.641V198.938L133.889 181.604H141.745L120.7 201.083L143.208 219.722Z" fill="#F3F6FF"/>
<path d="M239.938 219.722H234.344V181.604H239.938V219.722Z" fill="#F3F6FF"/>
<path d="M364.522 181.604V219.722H355.435L336.144 185.169V219.722H330.68V181.604H340.579L359.058 214.707V181.604H364.522Z" fill="#F3F6FF"/>
<path d="M446.487 204.928C446.733 206.247 447.11 207.45 447.603 208.537C448.096 209.624 448.69 210.595 449.4 211.436C450.11 212.276 450.922 212.987 451.85 213.566C452.763 214.146 453.792 214.581 454.893 214.885C456.009 215.19 457.198 215.335 458.488 215.335C460.053 215.335 461.474 215.117 462.749 214.668C464.024 214.219 465.14 213.566 466.111 212.682C467.083 211.798 467.894 210.726 468.546 209.421C469.199 208.117 469.691 206.624 470.01 204.928H475.619C475.214 207.363 474.532 209.537 473.547 211.479C472.561 213.407 471.344 215.045 469.865 216.378C468.387 217.726 466.691 218.741 464.778 219.451C462.865 220.161 460.763 220.523 458.473 220.523C456.691 220.523 455.024 220.306 453.43 219.871C451.835 219.436 450.386 218.813 449.067 218.001C447.733 217.19 446.545 216.204 445.487 215.03C444.429 213.856 443.53 212.537 442.791 211.073C442.052 209.61 441.487 208.001 441.095 206.247C440.704 204.508 440.516 202.638 440.516 200.667C440.516 198.696 440.719 196.841 441.095 195.087C441.487 193.333 442.052 191.739 442.791 190.26C443.53 188.797 444.429 187.463 445.487 186.304C446.545 185.13 447.748 184.144 449.067 183.332C450.4 182.521 451.85 181.898 453.43 181.463C455.009 181.028 456.691 180.811 458.473 180.811C460.763 180.811 462.865 181.158 464.778 181.883C466.691 182.593 468.401 183.622 469.865 184.956C471.344 186.304 472.576 187.927 473.547 189.855C474.532 191.782 475.214 193.956 475.619 196.391H470.01C469.691 194.696 469.199 193.203 468.546 191.898C467.894 190.594 467.083 189.507 466.111 188.637C465.14 187.768 464.024 187.101 462.749 186.652C461.474 186.202 460.053 185.985 458.488 185.985C457.198 185.985 455.995 186.13 454.893 186.434C453.777 186.738 452.763 187.173 451.85 187.753C450.937 188.333 450.11 189.043 449.4 189.884C448.69 190.724 448.096 191.695 447.603 192.782C447.11 193.869 446.748 195.072 446.487 196.391C446.226 197.71 446.11 199.131 446.11 200.652C446.11 202.174 446.241 203.595 446.487 204.914V204.928Z" fill="#F3F6FF"/>
<path d="M572.846 181.604H564.454L550.25 219.722H556.062L559.598 210.156H577.455L580.933 219.722H586.876L572.846 181.604ZM561.468 205.098L568.585 185.821L575.599 205.098H561.468Z" fill="#F3F6FF"/>
<path d="M690.295 208.75C689.86 207.765 689.382 206.91 688.874 206.156C688.353 205.417 687.802 204.793 687.193 204.286C686.599 203.779 685.961 203.388 685.28 203.141C684.715 202.924 684.106 202.793 683.454 202.764C684.99 202.75 686.382 202.518 687.657 202.069C689.019 201.605 690.179 200.924 691.15 200.054C692.121 199.184 692.86 198.141 693.396 196.923C693.918 195.706 694.194 194.329 694.194 192.822C694.194 191.169 693.875 189.662 693.237 188.285C692.614 186.908 691.73 185.734 690.585 184.734C689.44 183.749 688.077 182.98 686.497 182.43C684.932 181.879 683.193 181.604 681.294 181.604H662.844V219.722H668.438V204.895H676.642C677.743 204.895 678.685 204.967 679.482 205.098C680.28 205.228 680.975 205.446 681.57 205.75C682.149 206.054 682.657 206.446 683.062 206.938C683.483 207.431 683.845 208.04 684.164 208.765L689.063 219.722H695.208L690.295 208.75ZM680.57 199.692H668.438V186.792H680.541C681.83 186.792 682.975 186.937 683.976 187.213C684.976 187.502 685.816 187.908 686.497 188.43C687.179 188.966 687.7 189.633 688.063 190.416C688.411 191.198 688.585 192.082 688.585 193.097C688.585 194.112 688.411 195.054 688.048 195.88C687.686 196.691 687.15 197.387 686.468 197.952C685.773 198.503 684.932 198.938 683.932 199.242C682.946 199.547 681.816 199.692 680.57 199.692Z" fill="#F3F6FF"/>
<path d="M802.635 214.519V219.722H776.344V181.604H802.099V186.792H781.953V198.112H800.49V203.315H781.953V214.519H802.635Z" fill="#F3F6FF"/>
</g>
<defs>
<clipPath id="clip0_4260_3780">
<rect width="1116.91" height="223" fill="white"/>
</clipPath>
</defs>
</svg>
