<svg width="196" height="66" viewBox="0 0 196 66" fill="none" xmlns="http://www.w3.org/2000/svg">
<g clip-path="url(#clip0_2041_1243)">
<mask id="mask0_2041_1243" style="mask-type:luminance" maskUnits="userSpaceOnUse" x="0" y="0" width="196" height="66">
<path d="M195.407 0H0V65.2603H195.407V0Z" fill="white"/>
</mask>
<g mask="url(#mask0_2041_1243)">
<path d="M69.1543 35.598V34.9418H83.2931C84.4541 34.9418 85.1614 35.2954 85.5661 35.7492C85.9708 36.2541 86.1221 36.9103 86.1221 37.6175V40.0928H85.4659C85.4659 37.4171 83.9512 36.2541 81.3246 36.2541H75.1639V44.8902H84.1025V46.2025H75.1639V55.4949H80.9199C83.9493 55.4949 85.5661 54.485 86.5759 51.8585L87.232 52.0098L86.0709 55.1412C85.7174 56.2021 84.9099 56.8071 83.5957 56.8071H72.1836V38.9298C72.1836 36.9103 71.83 35.596 69.8616 35.596H69.1543V35.598Z" fill="#F3F6FF"/>
<path d="M101.575 52.8193C101.575 54.2338 100.969 55.2946 99.9086 55.9999C98.8989 56.7582 97.3834 57.1609 95.7673 57.1609C93.1406 57.1609 91.4746 56.656 90.667 55.7975C89.8086 54.9901 89.8086 54.0295 89.8086 52.3124H90.4647C90.8184 54.4832 92.2822 55.7975 95.1111 55.7975C97.6354 55.7975 98.7475 54.8388 98.7475 53.4754C98.7475 52.112 97.7886 51.3537 95.7673 50.4953L93.7986 49.6878C91.2743 48.6781 89.8086 47.3657 89.8086 45.193C89.8086 43.7785 90.4136 42.7176 91.374 42.0124C92.333 41.2541 93.6962 40.9004 95.2625 40.9004C97.7868 40.9004 99.4038 41.4053 100.262 42.2128C101.07 43.0712 101.07 44.0299 101.07 45.6978H100.413C100.06 43.5762 98.5962 42.2128 95.9694 42.2128C93.7986 42.2128 92.6375 43.2225 92.6375 44.5348C92.6375 45.6958 93.5965 46.6565 95.2643 47.3618L97.2837 48.1692C100.113 49.3303 101.576 50.5424 101.576 52.8154L101.575 52.8193Z" fill="#F3F6FF"/>
<path d="M106.017 42.5683H103.695V41.256H106.017V38.2758L107.634 36.2562H108.998V41.256H112.937V42.5683H108.998V52.8193C108.998 54.8388 109.756 55.7995 111.32 55.7995C112.481 55.7995 113.137 55.4969 113.795 55.1434L114.098 55.7995C113.744 56.1021 113.339 56.4046 112.683 56.658C111.976 56.9605 111.118 57.1629 109.957 57.1629C107.634 57.1629 106.017 55.8505 106.017 52.8193V42.5683Z" fill="#F3F6FF"/>
<path d="M120.063 56.8111H117.083V45.1967C117.083 43.2282 116.781 41.9139 114.762 41.9139H114.105V41.2578H117.086C118.247 41.2578 119.005 41.358 119.459 41.965C119.913 42.5701 120.063 43.5818 120.063 45.1967V56.8111ZM119.861 37.7727C119.861 38.6822 119.256 39.2362 118.346 39.2362C117.337 39.2362 116.478 38.2775 116.478 37.1146C116.478 36.205 117.083 35.651 117.993 35.651C119.053 35.651 119.861 36.6097 119.861 37.7727Z" fill="#F3F6FF"/>
<path d="M137.332 56.8091H135.666L134.505 55.2945H134.303C133.949 55.6992 133.544 56.204 132.837 56.5576C132.13 56.9113 131.171 57.1627 129.857 57.1627C127.888 57.1627 126.372 56.204 125.362 54.7385C124.403 53.2748 123.898 51.2534 123.898 49.0315C123.898 46.8095 124.403 44.739 125.465 43.2753C126.474 41.8118 128.04 40.9022 130.162 40.9022C132.03 40.9022 133.293 41.4071 134.303 41.9119V38.9317C134.303 36.9122 134 35.5979 132.03 35.5979H131.323V34.9418H134.303C135.464 34.9418 136.272 35.093 136.728 35.649C137.181 36.254 137.332 37.3149 137.332 38.9317V56.8091ZM134.303 43.2243C133.293 42.7193 132.181 42.2145 131.171 42.2145C129.708 42.2145 128.647 42.9728 127.991 44.183C127.335 45.3951 127.032 47.1121 127.032 49.0315C127.032 50.9508 127.286 52.6168 127.991 53.8289C128.596 55.041 129.505 55.7973 130.869 55.7973C131.828 55.7973 132.535 55.595 133.091 55.1923C133.647 54.8386 133.949 54.3338 134.303 53.8289V43.2243Z" fill="#F3F6FF"/>
<path d="M153.446 56.8072H151.78L150.619 55.2926H150.467C149.76 56.1511 148.345 57.1609 145.821 57.1609C144.862 57.1609 143.699 56.8583 142.74 56.2022C141.782 55.4949 141.023 54.3339 141.023 52.5167C141.023 50.6995 141.982 49.5365 143.548 48.8312C145.114 48.126 147.184 47.8725 149.457 47.8725H150.467C150.467 45.5996 150.062 44.1359 149.457 43.2775C148.801 42.5191 147.943 42.2166 146.982 42.2166C145.114 42.2166 143.802 42.8728 143.346 45.0436H141.831C141.831 43.8825 141.831 42.8728 142.639 42.0634C143.043 41.6587 143.8 41.3561 144.709 41.1538C145.619 41.0025 146.577 40.9004 147.638 40.9004C149.101 40.9004 150.567 41.1538 151.677 42.1125C152.738 43.1222 153.446 44.8903 153.446 47.8686V56.8072ZM150.465 49.1828H149.456C146.121 49.1828 144.153 50.4952 144.153 52.5167C144.153 53.5776 144.557 54.3339 145.111 54.8898C145.668 55.3948 146.475 55.6482 147.282 55.6482C148.899 55.6482 149.757 54.6895 150.463 53.6797V49.1848L150.465 49.1828Z" fill="#F3F6FF"/>
<path d="M161.521 42.5663C162.379 41.7588 163.843 40.9004 165.814 40.9004C167.53 40.9004 168.994 41.3541 169.803 43.2225C170.965 41.7588 172.935 40.9004 174.803 40.9004C176.015 40.9004 177.176 41.1538 178.035 42.0614C178.842 42.971 179.399 44.4856 179.399 46.8588V56.8072H176.418V46.8588C176.418 43.5761 175.459 42.4151 173.792 42.4151C173.135 42.4151 172.428 42.7175 171.772 43.0712C171.167 43.525 170.611 44.0299 170.307 44.5348C170.458 45.0396 170.458 46.2007 170.458 46.8568V56.8053H167.478V46.8568C167.478 43.5741 166.519 42.4131 164.851 42.4131C163.488 42.4131 162.376 43.2205 161.517 44.1301V56.8053H158.537V45.1909C158.537 43.2225 158.234 41.9082 156.215 41.9082H155.559V41.252H158.539C160.256 41.252 161.014 41.7569 161.368 42.5643H161.519L161.521 42.5663Z" fill="#F3F6FF"/>
<path d="M195.408 56.8072H193.742L192.581 55.2926H192.43C191.722 56.1511 190.308 57.1609 187.784 57.1609C186.825 57.1609 185.662 56.8583 184.703 56.2022C183.744 55.4949 182.986 54.3339 182.986 52.5167C182.986 50.6995 183.945 49.5365 185.511 48.8312C187.076 48.124 189.147 47.8725 191.418 47.8725H192.427C192.427 45.5996 192.023 44.1359 191.418 43.2775C190.761 42.5191 189.903 42.2166 188.942 42.2166C187.074 42.2166 185.762 42.8728 185.307 45.0436H183.791C183.791 43.8825 183.791 42.8728 184.599 42.0634C185.004 41.6587 185.76 41.3561 186.67 41.1538C187.579 41.0025 188.538 40.9004 189.598 40.9004C191.064 40.9004 192.528 41.1538 193.638 42.1125C194.699 43.1222 195.406 44.8903 195.406 47.8686V56.8072H195.408ZM192.43 49.1828H191.42C188.088 49.1828 186.118 50.4952 186.118 52.5167C186.118 53.5776 186.522 54.3339 187.076 54.8898C187.633 55.3948 188.44 55.6482 189.247 55.6482C190.864 55.6482 191.722 54.6895 192.427 53.6797V49.1848L192.43 49.1828Z" fill="#F3F6FF"/>
<path d="M85.8559 15.3957C84.5711 15.3957 84.3491 16.1933 84.3491 17.3916V26.8784H88.2959V27.9864H77.3887C75.6147 27.9412 73.7976 27.2772 72.3792 26.124C70.9607 24.9708 69.9844 23.3756 69.9844 21.4248C69.9844 17.48 73.6207 14.9516 79.3395 14.9516H86.2999V15.3957H85.8559ZM81.0232 16.5469C79.2943 16.0145 77.3436 16.1029 75.7915 16.9457C74.2395 17.7884 73.1768 19.2952 73.1768 21.468C73.1768 23.0201 73.6207 24.3049 74.3731 25.2812C75.0824 26.2556 76.1471 26.8764 77.3887 26.8764H81.0251V16.5469H81.0232ZM76.988 10.8281C76.988 11.7141 76.2787 12.4685 75.3476 12.4685C74.4164 12.4685 73.7072 11.7141 73.7072 10.8281C73.7072 9.89685 74.4164 9.14246 75.3476 9.14246C76.2787 9.14246 76.988 9.89685 76.988 10.8281ZM81.1548 10.8281C81.1548 11.7141 80.4004 12.4685 79.4691 12.4685C78.538 12.4685 77.8288 11.7141 77.8288 10.8281C77.8288 9.89685 78.5831 9.14246 79.4691 9.14246C80.4004 9.14246 81.1548 9.89685 81.1548 10.8281Z" fill="#F3F6FF"/>
<path d="M104.784 17.0348C106.159 18.41 106.868 20.2705 106.868 22.5316C106.868 24.7928 106.114 26.6984 104.695 27.9852C103.277 29.3604 101.238 30.0243 98.7547 30.0243C96.4479 30.0243 94.4974 29.1816 93.2583 27.94C92.7254 27.4076 92.3266 26.832 92.0166 26.2544C91.6178 27.0088 91.0395 27.496 90.3307 27.718C89.9319 27.8516 89.5331 27.94 89.0891 27.9832H86.5176V26.8753H87.8928C88.7788 26.8753 89.5331 26.6984 90.1087 26.1209C90.6842 25.5452 91.0395 24.5688 91.1736 23.0168V22.4844C91.1736 20.1349 91.8398 18.4061 93.3898 16.9877C94.6741 15.7029 96.7588 14.9485 99.197 14.9485C101.503 14.9485 103.542 15.7912 104.784 17.0328V17.0348ZM95.7391 17.744C94.985 18.852 94.5427 20.0484 94.5427 22.0444C94.5427 24.3056 95.0747 25.5904 95.9177 26.8772C96.7606 28.1187 97.8238 28.7395 99.1988 28.7395C100.574 28.7395 101.681 28.2072 102.479 27.0991C103.322 26.0344 103.544 24.8832 103.544 22.9324C103.544 20.6712 103.189 19.296 102.348 18.0564C101.505 16.7716 100.442 16.1508 99.0674 16.1508C97.6915 16.1508 96.5404 16.6831 95.7409 17.746L95.7391 17.744Z" fill="#F3F6FF"/>
<path d="M114.317 9.23102C112.588 9.23102 112.411 10.0286 112.411 11.227V27.9865H109.086V8.78699L114.317 8.83217V9.23102Z" fill="#F3F6FF"/>
<path d="M125.131 16.5921C126.327 17.8337 126.993 19.5173 126.993 21.3365V22.3561C127.127 25.3716 128.634 26.8784 131.25 26.8784H131.915V27.9865H129.431C128.235 27.9413 127.614 27.6761 126.683 26.9217C126.195 26.5661 125.84 26.1673 125.529 25.5917C124.334 27.0553 122.471 27.9865 120.033 27.9865H114.756V26.8784H119.456C120.874 26.8784 121.938 26.3029 122.648 25.2833C123.357 24.2637 123.668 22.8885 123.668 21.3365C123.668 18.1442 122.293 16.105 119.41 16.105C117.325 16.105 115.819 16.8141 115.642 19.1638H115.067C115.067 17.0793 115.067 16.2817 115.821 15.6177C116.531 14.9085 117.948 14.6433 120.033 14.6433C122.118 14.6433 123.935 15.3977 125.131 16.5941V16.5921Z" fill="#F3F6FF"/>
<path d="M130.146 27.9843V26.8762H137.019V27.9843H130.146Z" fill="#F3F6FF"/>
<path d="M135.244 27.9843V26.8762H142.116V27.9843H135.244Z" fill="#F3F6FF"/>
<path d="M149.127 15.484C147.842 15.484 147.621 16.2817 147.621 17.48V26.8784H153.561V27.9864H140.35V26.8784H144.294V15.0401H149.571V15.484H149.127ZM145.536 10.8281C145.536 11.7141 144.826 12.4685 143.895 12.4685C142.965 12.4685 142.255 11.7141 142.255 10.8281C142.255 9.89685 142.965 9.14246 143.895 9.14246C144.826 9.14246 145.536 9.89685 145.536 10.8281ZM149.703 10.8281C149.703 11.7141 148.949 12.4685 148.017 12.4685C147.086 12.4685 146.377 11.7141 146.377 10.8281C146.377 9.89685 147.131 9.14246 148.017 9.14246C148.949 9.14246 149.703 9.89685 149.703 10.8281Z" fill="#F3F6FF"/>
<path d="M151.785 27.9843V26.8762H158.657V27.9843H151.785Z" fill="#F3F6FF"/>
<path d="M156.883 27.9843V26.8762H163.755V27.9843H156.883Z" fill="#F3F6FF"/>
<path d="M187.783 15.3468C186.408 15.3468 186.276 16.1444 186.276 17.3427V22.3975C186.276 23.9495 185.701 25.2795 184.681 26.2991C183.661 27.3639 182.243 27.9847 180.602 27.9847C179.894 27.9847 179.007 27.8078 178.208 27.4523C177.41 27.0967 176.656 26.5663 176.434 25.7235C175.591 27.1419 174.084 27.8511 172.532 27.8963C170.937 27.9414 169.296 27.3207 168.365 26.0338C167.3 27.0987 166.149 27.9847 164.375 27.9847H161.98V26.8767H162.601C163.532 26.8767 164.507 26.5663 165.262 25.8571C165.97 25.1478 166.458 24.0399 166.591 22.3995V15.7927H171.823V16.2367H171.424C170.049 16.2367 169.829 17.0343 169.829 18.2327V24.4387C169.829 25.8139 170.937 26.9218 172.312 26.9218C173.687 26.9218 174.618 25.8139 174.75 24.4387V15.3507H180.027V15.7947H179.583C178.298 15.7947 178.076 16.105 178.076 17.3015V24.7059C178.209 25.9022 179.229 26.8335 180.471 26.8335C181.846 26.8335 182.953 25.7686 182.953 24.3954V14.9087H188.185V15.3526H187.786L187.783 15.3468Z" fill="#F3F6FF"/>
<path d="M195.404 9.23102C193.675 9.23102 193.498 10.0286 193.498 11.227V27.9865H190.172V8.78699L195.404 8.83217V9.23102Z" fill="#F3F6FF"/>
<path d="M23.4445 43.2936C23.4425 43.4252 23.4425 43.5549 23.4425 43.6865C23.4425 43.8181 23.4425 43.9477 23.4445 44.0794V44.1108C23.4347 44.6767 23.4032 45.2385 23.3502 45.7925C23.2146 47.2482 22.9337 48.6607 22.5251 50.0182C21.5664 49.922 20.6136 49.8021 19.6686 49.6529C19.1834 49.5782 18.702 49.4957 18.2207 49.4072C17.2031 49.2206 16.1953 49.0006 15.2013 48.7531C14.8025 48.6568 14.4075 48.5527 14.0127 48.4446C12.9086 48.1441 11.8242 47.8081 10.7516 47.4368H10.7496C10.4726 47.3406 10.1956 47.2423 9.92053 47.1421C8.70845 46.6981 7.51597 46.2129 6.34707 45.6825C6.2174 45.6236 6.08774 45.5646 5.96005 45.5037C4.71453 44.9281 3.49651 44.3053 2.30796 43.6354C2.19402 42.8378 2.1174 42.0324 2.08008 41.2151V41.2112V41.2033C2.08794 41.0304 2.09579 40.8595 2.10561 40.6905C2.1174 40.5098 2.12723 40.3291 2.13901 40.1483C2.15276 39.9598 2.16652 39.7732 2.18027 39.5865C2.19402 39.4018 2.20974 39.2211 2.22545 39.0365C2.2392 38.899 2.25099 38.7595 2.2667 38.62C2.72641 38.9126 3.19397 39.1995 3.66743 39.4745C3.66743 39.4745 3.66808 39.4752 3.66939 39.4765L3.67332 39.4804C3.67528 39.4804 3.67725 39.4804 3.67725 39.4824C3.85799 39.5885 4.03873 39.6926 4.21946 39.7947C4.22339 39.7986 4.22732 39.7986 4.23125 39.8026C4.23321 39.8045 4.23911 39.8065 4.24107 39.8085C4.24107 39.8085 4.24304 39.8085 4.24304 39.8104C4.24304 39.8104 4.24434 39.8112 4.24696 39.8124C4.24696 39.8124 4.24893 39.8124 4.2509 39.8124C4.25286 39.8124 4.25286 39.8144 4.25482 39.8144C4.95224 40.2092 5.66143 40.5904 6.38242 40.9518C7.736 41.6316 9.1249 42.2484 10.5492 42.7985C10.565 42.8064 10.5807 42.8123 10.5983 42.8182C11.9912 43.3564 13.4155 43.8299 14.8693 44.2366C14.8693 44.2385 14.8751 44.2385 14.8771 44.2385C16.2621 44.6255 17.6687 44.9517 19.1008 45.211C19.1303 45.2189 19.1617 45.2228 19.1932 45.2287C19.1755 44.8534 19.1657 44.4763 19.1617 44.099V44.046C19.1617 43.9341 19.1637 43.826 19.1637 43.714C19.1637 43.6236 19.1617 43.5313 19.1598 43.439V43.3663C19.1441 42.498 19.0636 41.6473 18.926 40.8124C18.7905 39.9932 18.598 39.1975 18.3523 38.4235C18.3464 38.4019 18.3387 38.3783 18.3308 38.3548C18.0773 37.5571 17.767 36.7871 17.4074 36.0445H17.4054C17.0322 35.2743 16.6059 34.5377 16.1285 33.8383C15.1836 32.4493 14.0461 31.2038 12.7535 30.139C12.1464 29.6401 11.506 29.1822 10.838 28.7678C10.8361 28.7658 10.8321 28.7658 10.8321 28.7639C10.8282 28.7639 10.8282 28.7619 10.8243 28.7599C10.8184 28.756 10.8125 28.7521 10.8065 28.7481C10.8026 28.7481 10.8006 28.7442 10.7967 28.7422C10.5158 28.5674 10.229 28.4024 9.9363 28.2452C9.92841 28.2412 9.92252 28.2373 9.91464 28.2353C9.91273 28.2334 9.91074 28.2334 9.90684 28.2294C9.61807 28.0723 9.3253 27.927 9.0267 27.7855C7.82243 27.2394 6.47476 26.7718 4.96992 26.4044C5.12905 25.9585 5.29406 25.5125 5.46498 25.0705C5.80681 24.1766 6.17615 23.2946 6.56709 22.4263C7.22717 22.5775 7.87351 22.7602 8.50609 22.9744C9.23493 23.216 9.94808 23.4969 10.6416 23.8132C11.1111 24.0253 11.5708 24.2552 12.0206 24.5008C12.0206 24.5027 12.0246 24.5027 12.0285 24.5047C12.0324 24.5067 12.0344 24.5086 12.0383 24.5126C12.3507 24.6992 12.665 24.88 12.9833 25.0567C12.9852 25.0587 12.9892 25.0607 12.9911 25.0607C12.9951 25.0607 12.997 25.0646 13.001 25.0646C13.4685 25.3534 13.9223 25.6579 14.3663 25.9781C15.5922 26.8622 16.7237 27.87 17.7394 28.9838C18.6785 30.0133 19.5232 31.1331 20.254 32.3314H20.256C20.4309 32.6202 20.6018 32.913 20.7649 33.2115C21.4328 34.4295 21.9907 35.7163 22.4171 37.0601C22.8708 38.4785 23.1812 39.9558 23.3364 41.4823C23.3953 42.0776 23.4327 42.6807 23.4445 43.2877V43.2936Z" fill="#F3F6FF"/>
<path d="M35.4987 4.48993C34.5282 4.9457 33.5774 5.43683 32.6482 5.96137C32.6443 5.96333 32.6403 5.9653 32.6344 5.96922C32.6344 5.96922 32.6305 5.97119 32.6285 5.97316C32.3476 6.13032 32.0666 6.29338 31.7877 6.46036L31.7739 6.46822C31.6482 6.53109 31.5264 6.59002 31.3987 6.647C31.4105 6.65485 31.4203 6.66271 31.4321 6.6745C30.1473 7.45442 28.9076 8.29918 27.7152 9.20682C26.5227 8.30114 25.2792 7.45639 23.9944 6.67843C24.0081 6.6686 24.0179 6.66075 24.0317 6.64896C23.8882 6.58413 23.7448 6.51734 23.6053 6.44464C23.6014 6.44269 23.5956 6.43875 23.5917 6.43679C23.3519 6.29338 23.1103 6.15389 22.8667 6.01637C22.8667 6.01637 22.8667 6.01637 22.8647 6.01637C22.8608 6.01442 22.8549 6.01048 22.851 6.00851C21.9001 5.47024 20.9258 4.96927 19.9316 4.50172C20.1517 4.30919 20.3717 4.12256 20.5938 3.93789C21.5799 3.10886 22.5995 2.31714 23.6466 1.56472C24.1339 1.82011 24.6152 2.08336 25.0906 2.35643C25.0945 2.35643 25.0984 2.36037 25.1023 2.36429H25.1043C25.2615 2.47037 25.4265 2.56664 25.5974 2.65112C25.6053 2.65504 25.6151 2.65898 25.621 2.66487C25.6249 2.66487 25.6289 2.66879 25.6348 2.67076C26.34 3.08331 27.0335 3.51355 27.7132 3.96146C28.3733 3.52533 29.0412 3.10886 29.7249 2.70612C29.7268 2.70612 29.7327 2.70416 29.7347 2.70219C29.7347 2.70219 29.7386 2.70219 29.7406 2.70023C29.9685 2.59022 30.1866 2.46448 30.3929 2.32304C30.3929 2.32304 30.3929 2.32304 30.3949 2.32304C30.3968 2.32304 30.4007 2.31911 30.4027 2.31518C30.8565 2.05586 31.3142 1.80439 31.7798 1.56079C32.8309 2.31321 33.8524 3.10492 34.8425 3.93593C35.0645 4.11863 35.2826 4.30526 35.5007 4.49386L35.4987 4.48993Z" fill="#F3F6FF"/>
<path d="M46.8948 18.4882C45.7121 18.8143 44.5628 19.221 43.4549 19.7043C43.2408 19.7947 43.0305 19.8909 42.8203 19.9892C42.3311 20.219 41.8498 20.4606 41.3803 20.718C41.3803 20.718 41.3803 20.718 41.3783 20.718C41.3764 20.718 41.3783 20.718 41.3764 20.718C41.3744 20.718 41.3724 20.7199 41.3685 20.7219C41.3626 20.7239 41.3567 20.7278 41.3509 20.7298C41.3509 20.7298 41.3489 20.7298 41.347 20.7317C40.9677 20.938 40.5945 21.1541 40.2271 21.38C40.2271 21.38 40.2271 21.38 40.2252 21.38C40.2193 21.382 40.2134 21.3879 40.2075 21.3918C39.8323 21.6217 39.4629 21.8613 39.1035 22.1109C37.905 22.9321 36.7774 23.8514 35.7342 24.8592C34.6301 25.9221 33.6184 27.0812 32.7128 28.3266C32.6813 28.3699 32.6498 28.4111 32.6204 28.4563C31.6244 29.8453 30.76 31.3363 30.0469 32.9099C30.0233 32.959 30.0017 33.0101 29.9801 33.0593C29.3593 34.4521 28.8583 35.9039 28.489 37.4088C28.2316 37.4166 27.9723 37.4186 27.713 37.4186C27.4537 37.4186 27.2159 37.4166 26.9704 37.4107C26.5971 35.9039 26.0962 34.4521 25.4734 33.0612C25.4498 33.0101 25.4302 32.961 25.4066 32.9099C24.6915 31.3344 23.8232 29.8453 22.8252 28.4563C22.7957 28.4131 22.7663 28.3699 22.7348 28.3266C21.8292 27.0851 20.8155 25.9241 19.7095 24.8632C18.6663 23.8573 17.5387 22.9399 16.3383 22.1207C16.0456 21.9183 15.7489 21.7258 15.4464 21.5352C15.3776 21.492 15.3049 21.4488 15.2342 21.4036C15.2283 21.4016 15.2244 21.3957 15.2185 21.3938C15.1949 21.38 15.1753 21.3663 15.1518 21.3526C15.1498 21.3526 15.1458 21.3506 15.1439 21.3486C15.136 21.3447 15.1301 21.3408 15.1242 21.3348C14.8197 21.1502 14.5132 20.9714 14.1989 20.8025C14.0732 20.7258 13.9454 20.6472 13.8197 20.5686C13.9357 20.6433 14.0496 20.714 14.1675 20.7848C13.6607 20.5038 13.142 20.2406 12.6135 19.9951C12.4053 19.8988 12.1931 19.8026 11.9829 19.7122C10.873 19.2308 9.72365 18.8242 8.53906 18.4981C8.81017 18.0109 9.08917 17.5295 9.37595 17.0522C9.84945 16.2585 10.3444 15.4825 10.8592 14.7182C12.2638 15.1662 13.6233 15.7143 14.9317 16.3547C15.3697 16.5689 15.8039 16.7929 16.2303 17.0266C16.2557 17.0403 16.2833 17.0541 16.3089 17.0699C16.3089 17.0699 16.3108 17.0699 16.3128 17.0718C16.3186 17.0738 16.3225 17.0797 16.3284 17.0817C16.6291 17.2663 16.9355 17.4431 17.2459 17.6121C17.2518 17.614 17.2597 17.6199 17.2636 17.6219C17.2656 17.6219 17.2695 17.6239 17.2714 17.6258C17.741 17.9067 18.2007 18.2014 18.6525 18.5099C19.8391 19.3153 20.9648 20.2013 22.0237 21.164C23.1062 22.1423 24.1179 23.2012 25.0471 24.3268C25.0746 24.3603 25.104 24.3956 25.1316 24.431C26.0805 25.5881 26.9448 26.8179 27.7169 28.1086C28.4871 26.816 29.3514 25.5881 30.2964 24.429C30.3239 24.3917 30.3533 24.3583 30.3828 24.3229C31.312 23.1973 32.3218 22.1383 33.4023 21.1561C34.4612 20.1935 35.5849 19.3055 36.7715 18.5C37.19 18.2152 37.6162 17.9401 38.0504 17.6749C38.0504 17.6749 38.0504 17.6749 38.0524 17.6749C38.0583 17.673 38.0622 17.669 38.0681 17.6671C38.074 17.6651 38.0799 17.6612 38.0858 17.6572C38.463 17.4529 38.8323 17.2407 39.1957 17.0149C39.1957 17.0149 39.1977 17.0149 39.1997 17.0129C39.2036 17.0129 39.2075 17.009 39.2115 17.005C39.2115 17.005 39.2154 17.0031 39.2174 17.0011C39.6358 16.7712 40.0602 16.5512 40.4904 16.341C41.7988 15.7006 43.1563 15.1485 44.5628 14.7006C45.0796 15.4648 45.5765 16.2428 46.052 17.0364C46.3388 17.5138 46.6178 17.9912 46.8889 18.4784L46.8948 18.4882Z" fill="#F3F6FF"/>
<path d="M41.8991 11.1007C40.4964 11.6154 39.1409 12.2185 37.8305 12.9022C37.5653 13.0377 37.3041 13.1811 37.0448 13.3246C37.0448 13.3246 37.0428 13.3265 37.0408 13.3265C37.0408 13.3265 37.0349 13.3305 37.0329 13.3324C37.0329 13.3324 37.0329 13.3324 37.031 13.3324C37.031 13.3324 37.027 13.3344 37.0251 13.3344C37.0231 13.3344 37.0192 13.3383 37.0172 13.3403C36.6734 13.5308 36.3316 13.7292 35.9956 13.9316C35.9937 13.9316 35.9917 13.9336 35.9878 13.9336C35.9819 13.9355 35.9779 13.9395 35.972 13.9434C35.972 13.9434 35.9701 13.9434 35.9681 13.9434C35.3474 14.3186 34.7403 14.7115 34.147 15.124C34.1352 15.1319 34.1255 15.1398 34.1136 15.1476C32.9369 15.9649 31.8112 16.8529 30.7464 17.8057C29.8741 18.5856 29.0392 19.4107 28.2514 20.2751C28.0746 20.281 27.8998 20.283 27.723 20.283C27.5461 20.283 27.3792 20.283 27.2063 20.2771C26.4166 19.4107 25.5816 18.5875 24.7074 17.8076C23.6407 16.8568 22.5169 15.9708 21.3401 15.1516C21.3304 15.1437 21.3205 15.1378 21.3107 15.1319C20.6879 14.7017 20.0514 14.2931 19.4012 13.904C19.3992 13.904 19.3953 13.9021 19.3933 13.9001C19.3874 13.8962 19.3795 13.8923 19.3756 13.8884C19.0946 13.7194 18.8099 13.5543 18.523 13.3933C18.5211 13.3933 18.5152 13.3913 18.5132 13.3874C18.5073 13.3854 18.4994 13.3795 18.4955 13.3776C18.4955 13.3776 18.4955 13.3776 18.4935 13.3776C18.4935 13.3776 18.4915 13.3776 18.4896 13.3756C18.2048 13.2164 17.916 13.0613 17.6252 12.91C16.3148 12.2283 14.9573 11.6252 13.5547 11.1105C13.6057 11.0456 13.6568 10.9847 13.708 10.9219C13.7138 10.914 13.7197 10.9081 13.7236 10.9002C13.7275 10.8964 13.7315 10.8925 13.7354 10.8866C13.7531 10.8649 13.7688 10.8453 13.7845 10.8257C13.812 10.7922 13.8415 10.7569 13.869 10.7215C13.869 10.7215 13.8697 10.7209 13.8709 10.7195C13.9201 10.6606 13.9673 10.6017 14.0183 10.5428C14.0557 10.4995 14.091 10.4563 14.1263 10.4131C14.1676 10.3639 14.2108 10.3129 14.2541 10.2618C14.2638 10.25 14.2737 10.2382 14.2835 10.2245C14.2953 10.2108 14.3052 10.2009 14.317 10.1872C14.3759 10.1184 14.4328 10.0497 14.4937 9.98089C15.1636 9.19505 15.8571 8.43283 16.5742 7.69023C17.9749 8.27174 19.3324 8.93378 20.6447 9.66855C20.6447 9.66855 20.6584 9.67635 20.6624 9.68034C20.6742 9.68813 20.684 9.69402 20.6958 9.69991C20.9551 9.86297 21.2203 10.0162 21.4914 10.1616C21.4973 10.1636 21.5052 10.1695 21.5091 10.1714C21.5091 10.1714 21.5091 10.1714 21.5111 10.1714C22.4895 10.751 23.4403 11.3757 24.3616 12.0378C25.3576 12.7548 26.3183 13.5171 27.2397 14.3225C27.4047 14.464 27.5697 14.6113 27.7309 14.7587C27.8939 14.6113 28.0589 14.4659 28.2219 14.3225C29.1414 13.5151 30.1021 12.7528 31.098 12.0358C31.9919 11.3894 32.9172 10.7785 33.868 10.2108C33.868 10.2108 33.872 10.2108 33.8739 10.2088C33.8798 10.2068 33.8838 10.2029 33.8897 10.2009C33.8916 10.2009 33.8956 10.199 33.8975 10.197C34.2099 10.0319 34.5183 9.85518 34.8149 9.66656C34.8326 9.65677 34.8464 9.64689 34.8621 9.6371C34.87 9.6332 34.8759 9.62921 34.8817 9.62532C34.8856 9.62332 34.8915 9.61942 34.8955 9.61743C34.8975 9.61743 34.8994 9.61544 34.9034 9.61353C34.9034 9.61353 34.9053 9.61353 34.9073 9.61154C36.1882 8.89646 37.5143 8.25209 38.8796 7.68237C39.5986 8.42497 40.2961 9.18916 40.9679 9.97301C41.1271 10.1596 41.2842 10.3463 41.4394 10.5329C41.4845 10.5879 41.5318 10.6429 41.5769 10.6999C41.5926 10.7195 41.6064 10.7392 41.624 10.7569C41.6398 10.7765 41.6555 10.7962 41.6712 10.8158C41.7498 10.9101 41.8264 11.0044 41.901 11.0987L41.8991 11.1007Z" fill="#F3F6FF"/>
<path d="M37.2432 63.8604C36.3218 64.2277 35.3729 64.5441 34.4025 64.8053C33.7463 64.9801 33.0803 65.1314 32.4065 65.2552C31.7071 64.5598 31.0411 63.8309 30.4125 63.0706C29.4302 61.8821 28.5344 60.6169 27.7406 59.2869C26.947 60.6188 26.0531 61.8841 25.0729 63.0745C24.4462 63.8348 23.7802 64.5656 23.0828 65.2611C22.4089 65.1393 21.743 64.988 21.0868 64.8152C20.1163 64.5559 19.1674 64.2395 18.2461 63.8742C18.7588 63.4537 19.2539 63.0117 19.7312 62.55C20.8353 61.4872 21.8471 60.3242 22.7508 59.0806C23.7881 57.6544 24.6858 56.1201 25.4206 54.4954C26.0316 53.1457 26.5325 51.7332 26.9097 50.2736C27.1769 50.2795 27.446 50.2814 27.7152 50.2814C28 50.2814 28.2848 50.2795 28.5677 50.2736C28.945 51.7332 29.4459 53.1457 30.0588 54.4934C30.7956 56.1181 31.6953 57.6524 32.7326 59.0767C33.6383 60.3203 34.652 61.4794 35.758 62.5402C36.2354 63.0018 36.7324 63.4439 37.2452 63.8643L37.2432 63.8604Z" fill="#F3F6FF"/>
<path d="M17.7577 58.4278C16.742 59.5437 15.6124 60.5535 14.3885 61.4395C14.2628 61.5298 14.137 61.6182 14.0094 61.7047C12.7187 60.8874 11.5085 59.9602 10.3867 58.9327C11.2276 58.4455 12.0232 57.8935 12.7677 57.2766C14.0584 56.2118 15.1959 54.9643 16.1389 53.5754C16.5731 55.2374 17.1153 56.8581 17.7557 58.4258L17.7577 58.4278Z" fill="#F3F6FF"/>
<path d="M53.2288 39.0118C53.217 38.8723 53.2032 38.7368 53.1894 38.5992C53.0637 37.3046 52.8889 36.0257 52.6688 34.7625C52.6198 34.4737 52.5666 34.1889 52.5136 33.902C52.4822 33.7468 52.4527 33.5936 52.4213 33.4384C52.3997 33.3304 52.3781 33.2203 52.3525 33.1103C52.3486 33.0828 52.3408 33.0554 52.3369 33.0258C52.3349 33.0219 52.3349 33.016 52.3329 33.0121C52.3329 33.0042 52.331 32.9964 52.327 32.9886C52.3113 32.9139 52.2955 32.8353 52.2799 32.7606C52.2701 32.7214 52.2622 32.682 52.2543 32.6408C52.2366 32.5642 52.2189 32.4876 52.2033 32.4109C52.2033 32.409 52.2013 32.407 52.2013 32.4031C52.1679 32.2537 52.1345 32.1045 52.0991 31.9552C52.0952 31.9395 52.0912 31.9237 52.0873 31.9061C52.0794 31.8746 52.0736 31.8412 52.0638 31.8098C52.0579 31.7783 52.05 31.7489 52.0441 31.7174C52.0441 31.7155 52.0421 31.7135 52.0421 31.7115C52.0421 31.7096 52.0402 31.7076 52.0402 31.7076V31.7018V31.6959C52.0402 31.6959 52.0382 31.692 52.0382 31.69C52.0382 31.688 52.0382 31.688 52.0362 31.688V31.6841C52.0362 31.6841 52.0362 31.6802 52.0343 31.6782V31.6742C52.0303 31.6605 52.0284 31.6487 52.0244 31.635C52.0244 31.6291 52.0225 31.6232 52.0205 31.6153C52.0049 31.5485 51.9891 31.4798 51.9714 31.411C51.9694 31.4051 51.9694 31.3992 51.9675 31.3933C51.9381 31.2755 51.9086 31.1556 51.879 31.0377C51.8751 31.0259 51.8732 31.0122 51.8712 31.0024C51.8339 30.857 51.7966 30.7116 51.7573 30.5682C51.6552 30.1694 51.5471 29.7765 51.4331 29.3836C51.1502 28.3875 50.8359 27.4073 50.4941 26.4387C50.329 25.9751 50.1582 25.5154 49.9813 25.0576C49.6355 24.1598 49.2663 23.2758 48.8734 22.4055C48.2152 22.5588 47.5689 22.7434 46.9363 22.9536C46.2055 23.1973 45.4923 23.4821 44.7989 23.7984C44.3647 23.9949 43.9384 24.207 43.5219 24.4309C43.5219 24.4309 43.518 24.4368 43.514 24.4368C43.514 24.4368 43.5121 24.4382 43.5081 24.4408H43.5062C43.5043 24.4427 43.5023 24.4427 43.5023 24.4427C43.131 24.6687 42.7557 24.8848 42.3766 25.095C42.3746 25.097 42.3707 25.097 42.3687 25.099C42.3628 25.1029 42.3589 25.1048 42.353 25.1067H42.351C41.9169 25.3779 41.4925 25.6627 41.08 25.9633C39.8541 26.8474 38.7245 27.8571 37.7089 28.975C36.7698 30.0063 35.927 31.1281 35.1962 32.3264L35.1943 32.3284C35.0194 32.6172 34.8505 32.91 34.6874 33.2065C34.0194 34.4246 33.4674 35.7134 33.0391 37.0591C32.5873 38.4775 32.2788 39.9567 32.1256 41.4832C32.0667 42.0706 32.0313 42.6638 32.0195 43.2651V43.2906C32.0215 43.432 32.0234 43.5735 32.0234 43.7149C32.0234 43.8465 32.0215 43.9762 32.0195 44.1098C32.0293 44.6736 32.0628 45.2335 32.1158 45.7895C32.2553 47.2432 32.5362 48.6557 32.9468 50.0132C33.3868 51.4749 33.9782 52.8716 34.6992 54.1859C35.5381 55.7164 36.5577 57.1367 37.7265 58.4156C38.7422 59.5315 39.8738 60.5393 41.0997 61.4233C41.2254 61.5136 41.3531 61.604 41.4807 61.6905C42.7695 60.8713 43.9797 59.9421 45.0994 58.9146C44.2586 58.4294 43.461 57.8734 42.7145 57.2605C41.4218 56.1977 40.2824 54.9521 39.3375 53.5631C38.4672 52.2862 37.7619 50.8875 37.2491 49.3983C38.2687 49.2097 39.2746 48.9897 40.2706 48.7402C40.6694 48.642 41.0642 48.5398 41.4572 48.4318C42.5593 48.1292 43.6456 47.7933 44.7184 47.4201C44.9954 47.3238 45.2743 47.2255 45.5493 47.1234C46.7615 46.6794 47.952 46.1923 49.1209 45.6617C49.2505 45.6028 49.3802 45.5439 49.5079 45.483C50.7534 44.9074 51.9714 44.2807 53.16 43.6089C53.272 42.821 53.3466 42.0254 53.3839 41.218C53.3506 40.4774 53.2995 39.7426 53.2327 39.0098L53.2288 39.0118ZM49.0757 40.9351C47.7221 41.6188 46.3332 42.2357 44.9109 42.7877C44.8951 42.7936 44.8794 42.8014 44.8618 42.8053C43.4689 43.3455 42.0446 43.821 40.5928 44.2276C40.5908 44.2296 40.5869 44.2296 40.5849 44.2296C39.2019 44.6167 37.7933 44.9447 36.3631 45.208C36.3317 45.2139 36.3022 45.2198 36.2708 45.2237C36.2866 44.8386 36.2963 44.4516 36.3022 44.0627V44.0351C36.2983 43.9192 36.2963 43.8034 36.2963 43.6874C36.2963 43.5872 36.2983 43.485 36.3002 43.3849V43.3554C36.316 42.489 36.3946 41.6384 36.5321 40.8074L36.5341 40.8055C36.8091 39.1238 37.3257 37.5227 38.0428 36.0395H38.0448C38.418 35.2674 38.8463 34.5287 39.3217 33.8274C40.2667 32.4385 41.4021 31.191 42.6948 30.1262C43.2744 29.6469 43.8854 29.2048 44.5239 28.804C44.5277 28.8021 44.5336 28.7981 44.5395 28.7942C44.5395 28.7922 44.5435 28.7922 44.5435 28.7922C44.5454 28.7903 44.5474 28.7903 44.5494 28.7883C44.5494 28.7863 44.5533 28.7863 44.5553 28.7844H44.5572C44.8873 28.5761 45.2232 28.3797 45.567 28.197C45.567 28.195 45.5709 28.195 45.5749 28.1931C45.5788 28.1911 45.5827 28.1891 45.5867 28.1852C45.5886 28.1832 45.5926 28.1832 45.5945 28.1813C45.6004 28.1793 45.6024 28.1773 45.6063 28.1754C45.6083 28.1754 45.6103 28.1754 45.6103 28.1754C45.8735 28.0183 46.1308 27.8571 46.3882 27.6921C46.398 27.7196 46.4079 27.7432 46.4157 27.7707C46.899 29.1282 47.3233 30.5152 47.6828 31.9257V31.9296C48.0522 33.3775 48.3566 34.8489 48.5885 36.3479C48.5885 36.3636 48.5924 36.3774 48.5964 36.3911C48.8262 37.8842 48.9873 39.4007 49.0757 40.9351Z" fill="#F3F6FF"/>
<path d="M3.35347 6.77964C4.39468 6.77964 5.2139 6.45548 5.80915 5.80522C6.40637 5.15495 6.70499 4.3495 6.70499 3.3908C6.70499 2.43211 6.40637 1.61878 5.80915 0.970484C5.21193 0.32415 4.39271 0 3.35347 0C2.31423 0 1.50091 0.32415 0.901725 0.970484C0.300575 1.61681 0 2.42425 0 3.3908C0 4.35736 0.300575 5.15495 0.901725 5.80522C1.50091 6.45548 2.32012 6.77964 3.35347 6.77964ZM1.24552 1.25338C1.75827 0.689555 2.46157 0.408624 3.35347 0.408624C4.24538 0.408624 4.95064 0.691519 5.46732 1.25338C5.984 1.8172 6.24331 2.52836 6.24331 3.38884C6.24331 4.2493 5.98596 4.95261 5.46732 5.51643C4.95064 6.08025 4.24538 6.36119 3.35347 6.36119C2.46157 6.36119 1.75827 6.0783 1.24552 5.51643C0.73081 4.95261 0.475419 4.24341 0.475419 3.38884C0.475419 2.53426 0.732774 1.81523 1.24552 1.25338Z" fill="#F3F6FF"/>
<path d="M2.55333 3.78073H3.32343L4.48447 5.11858H4.96775V5.04392L3.85189 3.78073C4.18586 3.7375 4.44519 3.59803 4.62789 3.35835C4.81059 3.12064 4.89507 2.86721 4.88328 2.602C4.86953 2.33482 4.75755 2.09515 4.54931 1.88101C4.3391 1.66688 4.05424 1.56079 3.69473 1.56079H2.11523V5.11858H2.55333V3.78073ZM2.55333 1.98906H3.69473C3.88726 1.98906 4.04639 2.03621 4.17408 2.13247C4.29981 2.22874 4.37839 2.34465 4.40982 2.48217C4.44126 2.61772 4.43929 2.75524 4.4059 2.89472C4.3725 3.0342 4.28802 3.15207 4.15444 3.24833C4.02281 3.3446 3.85975 3.39175 3.66722 3.39175H2.55333V1.98906Z" fill="#F3F6FF"/>
</g>
</g>
<defs>
<clipPath id="clip0_2041_1243">
<rect width="195.781" height="65.2603" fill="white"/>
</clipPath>
</defs>
</svg>
