<svg width="231" height="66" viewBox="0 0 231 66" fill="none" xmlns="http://www.w3.org/2000/svg">
<g clip-path="url(#clip0_2041_1276)">
<path d="M21.7553 0V10.8766L10.8786 21.7533H0.00195312V10.8766L10.8786 0H21.7553Z" fill="#F3F6FF"/>
<path d="M43.5072 0V10.8766L32.6305 21.7533H21.7539V10.8766L32.6305 0H43.5072Z" fill="#F3F6FF"/>
<path d="M21.7553 21.7534V32.63L10.8786 43.5068H0.00195312V32.63L10.8786 21.7534H21.7553Z" fill="#F3F6FF"/>
<path d="M21.7553 43.5068V54.3835L10.8786 65.2601H0.00195312V54.3835L10.8786 43.5068H21.7553Z" fill="#F3F6FF"/>
<path d="M43.5072 21.7534V32.63L32.6305 43.5068H21.7539V32.63L32.6305 21.7534H43.5072Z" fill="#F3F6FF"/>
<path d="M65.961 40.1267H58.9238V5.92346H82.9434V11.7877H65.961V19.5304H80.9282V25.3947H65.961V40.1267Z" fill="#F3F6FF"/>
<path d="M107.812 27.9779C107.812 36.1402 103.025 41.2066 95.2865 41.2066C87.5465 41.2066 82.7598 36.1402 82.7598 27.7872C82.7598 19.4343 87.4988 14.3678 95.2384 14.3678C102.978 14.3678 107.812 19.3866 107.812 27.9747V27.9779ZM89.3265 27.7904C89.3265 32.6693 91.7198 35.9081 95.2865 35.9081C98.8522 35.9081 101.246 32.6248 101.246 27.8857C101.246 22.9115 98.9003 19.6758 95.2865 19.6758C91.6718 19.6758 89.3265 22.9115 89.3265 27.7936V27.7904Z" fill="#F3F6FF"/>
<path d="M116.963 14.3678V18.5761C119.49 16.0492 120.997 14.3678 124.001 14.3678C124.283 14.3678 124.423 14.3678 124.798 14.4155V21.0776C123.908 20.9377 123.438 20.89 122.735 20.89C118.889 20.89 116.963 22.8129 116.963 26.662V40.1259H110.396V14.3678H116.963Z" fill="#F3F6FF"/>
<path d="M132.632 14.7905V17.934C134.79 15.3055 136.666 14.3678 139.578 14.3678C142.721 14.3678 145.255 15.7282 146.475 18.1215C148.445 15.493 150.651 14.3678 153.887 14.3678C158.953 14.3678 161.957 17.276 161.957 22.2027V40.1259H155.39V23.2357C155.39 21.2174 154.03 19.9524 151.824 19.9524C149.008 19.9524 147.32 21.8276 147.32 24.9266V40.1259H140.754V23.2357C140.754 21.2174 139.393 19.9524 137.188 19.9524C134.372 19.9524 132.684 21.7831 132.684 24.9266V40.1259H126.117V14.7905H132.639H132.632Z" fill="#F3F6FF"/>
<path d="M181.467 40.1259V37.1223C179.592 39.9829 177.291 41.2035 173.868 41.2035C168.426 41.2035 165.375 38.06 165.375 32.4309V14.3678H171.942V31.0705C171.942 34.1186 173.349 35.6221 176.163 35.6221C179.399 35.6221 181.464 33.6515 181.464 30.6478V14.3678H188.031V40.1259H181.464H181.467Z" fill="#F3F6FF"/>
<path d="M198.504 14.3678V19.7616C199.96 16.3353 202.538 14.3678 205.541 14.3678C205.824 14.3678 205.964 14.3678 206.339 14.4155V21.0776C205.449 20.9377 204.979 20.89 204.276 20.89C200.43 20.89 198.504 22.8129 198.504 26.662V40.1259H191.938V14.3678H198.504Z" fill="#F3F6FF"/>
<path d="M229.704 40.1298H222.572C221.962 39.3797 221.821 38.9093 221.821 37.5966C219.476 40.0377 216.943 41.2105 214.127 41.2105C209.483 41.2105 206.432 38.1623 206.432 33.6108C206.432 29.0593 208.873 26.4784 213.891 25.6361L216.52 25.1657C218.677 24.8224 220.054 24.494 220.648 24.1804C221.351 23.7577 221.774 23.0552 221.774 22.2097C221.774 20.522 220.506 19.6765 217.973 19.6765C214.737 19.6765 213.656 20.522 213.329 23.1474H206.995C207.417 17.2831 210.984 14.3749 217.833 14.3749C224.682 14.3749 228.2 17.0034 228.2 22.1621V36.2363C228.2 37.5045 228.576 38.2545 229.701 39.332V40.1298H229.704ZM221.774 28.1662C221.024 28.5413 220.741 28.6366 219.006 28.964L216.752 29.3866C214.032 29.9492 212.998 30.8869 212.998 32.8576C212.998 34.8282 214.359 35.9057 216.564 35.9057C219.895 35.9057 221.771 33.7475 221.771 29.9461V28.163L221.774 28.1662Z" fill="#F3F6FF"/>
<path d="M61.6175 62.8945H72.0205V65.2625H58.9316V43.4679H61.6175V62.8945Z" fill="#F3F6FF"/>
<path d="M86.779 65.0007C85.9685 65.2042 85.6506 65.2614 85.1325 65.2614C83.5719 65.2614 82.8218 64.5971 82.647 63.0364C80.9434 64.5971 79.4114 65.2614 77.5042 65.2614C74.4403 65.2614 72.5332 63.5291 72.5332 60.7829C72.5332 58.8186 73.4294 57.49 75.1904 56.7367C76.1153 56.3617 76.6365 56.2441 80.0438 55.8119C82.0081 55.5512 82.5294 55.1761 82.558 54.1368V53.5011C82.558 52.0549 81.3724 51.2475 79.1762 51.2475C76.9798 51.2475 75.826 52.0867 75.6226 53.9334H73.1943C73.2515 52.4299 73.5407 51.5654 74.2336 50.7836C75.273 49.6552 77.037 49.0195 79.2619 49.0195C82.9903 49.0195 84.9545 50.4657 84.9545 53.1515V62.0511C84.9545 62.8012 85.4154 63.2367 86.2545 63.2367C86.3976 63.2367 86.5151 63.2367 86.7758 63.1795V65.0007H86.779ZM82.5612 57.1118C81.7507 57.4869 81.2612 57.6044 78.6898 57.9509C76.0899 58.326 75.0505 59.1365 75.0505 60.7257C75.0505 62.315 76.1471 63.154 78.0255 63.154C79.4399 63.154 80.6255 62.6932 81.6076 61.7969C82.3291 61.1326 82.5612 60.6399 82.5612 59.8325V57.1182V57.1118Z" fill="#F3F6FF"/>
<path d="M89.8958 43.4714V51.5066C91.0245 49.803 92.4956 49.021 94.5776 49.021C98.5956 49.021 101.049 52.0533 101.049 56.9672C101.049 61.881 98.4488 65.2597 94.4597 65.2597C92.3496 65.2597 90.8206 64.4206 89.6638 62.6598V65.2597H87.4961V43.4714H89.8958ZM89.8958 57.1419C89.8958 60.6954 91.542 63.0062 94.1135 63.0062C96.6849 63.0062 98.5349 60.6669 98.5349 57.2278C98.5349 53.6171 96.8027 51.2746 94.1135 51.2746C91.4242 51.2746 89.8958 53.5852 89.8958 57.1387V57.1419Z" fill="#F3F6FF"/>
<path d="M110.677 53.6759C110.62 52.0867 109.58 51.2475 107.645 51.2475C105.709 51.2475 104.437 52.1153 104.437 53.5297C104.437 54.5977 105.277 55.2334 107.241 55.6974L109.552 56.2473C112.556 56.9688 113.827 58.2115 113.827 60.4651C113.827 63.3829 111.398 65.2614 107.584 65.2614C103.77 65.2614 101.66 63.5863 101.545 60.09H104.088C104.231 61.1579 104.405 61.5935 104.781 62.0257C105.388 62.6614 106.485 63.0364 107.785 63.0364C109.895 63.0364 111.309 62.0829 111.309 60.6367C111.309 59.5688 110.645 58.9617 108.97 58.5549L106.717 58.005C103.135 57.1373 101.92 56.0121 101.92 53.641C101.92 50.8376 104.202 49.0195 107.727 49.0195C111.252 49.0195 113.188 50.6945 113.217 53.6728H110.674L110.677 53.6759Z" fill="#F3F6FF"/>
</g>
<defs>
<clipPath id="clip0_2041_1276">
<rect width="230.224" height="65.2603" fill="white"/>
</clipPath>
</defs>
</svg>
