<svg width="155" height="72" viewBox="0 0 155 72" fill="none" xmlns="http://www.w3.org/2000/svg">
<g clip-path="url(#clip0_2816_1083)">
<path d="M0.695452 68.6366C1.00685 69.384 1.46875 69.986 2.08116 70.4324C2.69358 70.8787 3.43574 71.1018 4.30765 71.1018C4.75917 71.1018 5.16918 71.024 5.54285 70.8787C5.91134 70.7282 6.22792 70.5258 6.49261 70.2611C6.75211 69.9964 6.95971 69.685 7.11021 69.3269C7.26072 68.9688 7.33338 68.5847 7.33338 68.1643C7.33338 67.744 7.27629 67.3755 7.16211 67.0433C7.04794 66.7163 6.86629 66.4153 6.61717 66.1403C6.36805 65.8652 6.04109 65.6057 5.64146 65.3618C5.24184 65.1179 4.76436 64.8687 4.20385 64.6196C3.69005 64.3809 3.22295 64.1525 2.79738 63.9294C2.3718 63.7062 2.0137 63.4623 1.71787 63.1976C1.42204 62.9277 1.1885 62.6215 1.02242 62.2738C0.85634 61.926 0.773301 61.516 0.773301 61.0386C0.773301 60.5611 0.86153 60.1615 1.0328 59.767C1.20407 59.3778 1.4428 59.0352 1.73863 58.7498C2.03446 58.4643 2.38737 58.2412 2.79219 58.0699C3.197 57.9038 3.63815 57.8208 4.11562 57.8208C4.90449 57.8208 5.5688 58.0076 6.11894 58.3761C6.66907 58.7446 7.12059 59.2584 7.4787 59.9123L6.85072 60.2704C6.51856 59.684 6.1397 59.2532 5.71412 58.9678C5.28855 58.6823 4.75398 58.537 4.11043 58.537C3.75232 58.537 3.41498 58.5993 3.09839 58.7238C2.78181 58.8484 2.50674 59.0249 2.27838 59.2428C2.04484 59.4608 1.86319 59.7255 1.72306 60.0369C1.58812 60.3483 1.51546 60.6856 1.51546 61.0541C1.51546 61.4226 1.58293 61.7496 1.72306 62.0195C1.858 62.2945 2.06041 62.5436 2.33028 62.7616C2.60016 62.9848 2.92712 63.1924 3.31118 63.3948C3.70043 63.5972 4.14157 63.8048 4.64499 64.0228C5.24184 64.2875 5.75564 64.5521 6.1916 64.8168C6.62755 65.0867 6.98566 65.3825 7.26591 65.7043C7.54617 66.0261 7.75377 66.3894 7.88351 66.789C8.01326 67.1886 8.08073 67.6505 8.08073 68.1747C8.08073 68.6989 7.98212 69.2023 7.79529 69.6435C7.60326 70.0846 7.33857 70.4635 7.00123 70.7749C6.65869 71.0915 6.25906 71.3406 5.80235 71.517C5.34564 71.6987 4.8474 71.7869 4.30765 71.7869C3.23333 71.7869 2.33547 71.5222 1.60888 70.9929C0.882289 70.4635 0.342536 69.7732 0 68.9273L0.695452 68.6211V68.6366Z" fill="#F3F6FF"/>
<path d="M20.8115 71.5689V58.0854H21.5433V64.2355L27.9633 58.0854H28.9649L22.6903 64.0072L29.2711 71.5689H28.2695L22.192 64.5054L21.5485 65.0763V71.5689H20.8167H20.8115Z" fill="#F3F6FF"/>
<path d="M45.6719 71.5689V58.0854H46.4037V71.5689H45.6719Z" fill="#F3F6FF"/>
<path d="M71.6479 58.0857H72.4005V72H72.3278L62.4046 59.4818V71.5692H61.6729V57.6187H61.7248L71.6479 70.1212V58.0857Z" fill="#F3F6FF"/>
<path d="M82.4424 64.848C82.4424 63.8568 82.624 62.9381 82.9873 62.087C83.3506 61.2306 83.8437 60.4885 84.4716 59.8605C85.0996 59.2273 85.8314 58.7343 86.6826 58.3762C87.5285 58.0181 88.4368 57.8364 89.4021 57.8364C90.274 57.8364 91.0681 57.9662 91.7895 58.2309C92.5109 58.4955 93.1233 58.8173 93.6215 59.2118V60.1096C93.1233 59.6789 92.5005 59.3156 91.7635 59.0093C91.0213 58.7031 90.2169 58.5526 89.3502 58.5526C88.4835 58.5526 87.6738 58.7135 86.9265 59.0353C86.1843 59.3571 85.5304 59.7982 84.9751 60.3587C84.4197 60.9192 83.9838 61.5836 83.6672 62.3517C83.3506 63.1198 83.1949 63.9554 83.1949 64.848C83.1949 65.7407 83.3506 66.5555 83.6672 67.3132C83.9838 68.0762 84.4197 68.7405 84.9751 69.301C85.5304 69.8615 86.1791 70.3027 86.9265 70.6244C87.6686 70.9462 88.4783 71.1071 89.3502 71.1071C90.2221 71.1071 91.0265 70.9722 91.7012 70.6971C92.3759 70.422 93.0039 70.0328 93.5904 69.5345V70.448C93.0558 70.8684 92.433 71.1953 91.7324 71.4392C91.0317 71.6832 90.2325 71.8077 89.3346 71.8077C88.3693 71.8077 87.4662 71.6313 86.6358 71.2784C85.8003 70.9254 85.0737 70.4376 84.4509 69.8096C83.8333 69.1816 83.3402 68.4498 82.9873 67.6039C82.6344 66.7579 82.4528 65.8393 82.4528 64.848H82.4424Z" fill="#F3F6FF"/>
<path d="M109.046 57.5146H109.082L114.822 71.569H114.002L112.196 67.0641H105.864L104.043 71.569H103.238L109.051 57.5146H109.046ZM111.911 66.3687L110.302 62.3257C110.089 61.8015 109.876 61.2774 109.669 60.7532C109.461 60.229 109.253 59.6996 109.051 59.1599C108.849 59.6996 108.641 60.229 108.423 60.7532C108.21 61.2774 107.987 61.8067 107.759 62.3465L106.129 66.3739H111.905L111.911 66.3687Z" fill="#F3F6FF"/>
<path d="M128.036 58.0854C128.706 58.0854 129.324 58.1633 129.889 58.3086C130.455 58.4591 130.943 58.6771 131.358 58.9729C131.768 59.2636 132.09 59.6372 132.323 60.0836C132.557 60.5299 132.671 61.0541 132.671 61.6457C132.671 62.1907 132.583 62.6837 132.401 63.1093C132.225 63.5401 131.97 63.9137 131.643 64.2251C131.317 64.5417 130.922 64.8012 130.471 64.9933C130.019 65.1905 129.521 65.3254 128.986 65.3981L133.403 71.5689H132.489L128.182 65.4344H127.393V71.5689H126.661V58.0854H128.036ZM127.393 64.7753H128.145C128.68 64.7753 129.183 64.713 129.651 64.5833C130.118 64.4587 130.517 64.2719 130.86 64.0124C131.197 63.758 131.467 63.4363 131.654 63.047C131.846 62.6578 131.939 62.1959 131.939 61.6613C131.939 61.1735 131.846 60.7479 131.654 60.3898C131.462 60.0317 131.197 59.7358 130.86 59.4971C130.522 59.2584 130.118 59.0767 129.645 58.9574C129.173 58.838 128.659 58.7809 128.099 58.7809H127.403V64.7701L127.393 64.7753Z" fill="#F3F6FF"/>
<path d="M154.261 58.0854V58.7861H148.521V63.8463H154.027V64.5469H148.521V70.8786H154.261V71.5793H147.789V58.0958H154.261V58.0854Z" fill="#F3F6FF"/>
<path d="M22.4257 0H22.6177L44.3428 50.5863H38.5457L32.8783 37.0146H11.4698L5.6726 50.5863H0L22.4257 0ZM30.8386 32.0479L26.6348 21.9794C25.9134 20.2356 25.2023 18.5177 24.5017 16.8206C23.8011 15.1235 23.09 13.4004 22.3686 11.6618C21.6472 13.4471 20.9051 15.1858 20.1421 16.8881C19.3792 18.5904 18.6319 20.3082 17.9105 22.0469L13.6392 32.0531H30.8438L30.8386 32.0479Z" fill="#F3F6FF"/>
<path d="M43.918 24.2889H49.6528L57.0537 41.6648L67.7138 17.5005H73.4487L57.0537 52.2419H56.924L43.918 24.2889Z" fill="#F3F6FF"/>
<path d="M75.8154 20.8997H80.9119V38.0992C80.9119 40.99 81.4413 43.1646 82.5053 44.6281C83.564 46.0917 85.3286 46.8235 87.7938 46.8235C90.259 46.8235 91.9769 46.0709 93.0824 44.5606C94.1878 43.0504 94.7379 40.8966 94.7379 38.094V20.8945H99.8345V38.2912C99.8345 40.2841 99.5905 42.0902 99.1027 43.7043C98.6148 45.3184 97.8727 46.6989 96.871 47.8459C95.8693 48.9929 94.6186 49.8751 93.1135 50.4927C91.6032 51.1103 89.8335 51.4166 87.7938 51.4166C83.9273 51.4166 80.9638 50.3215 78.9034 48.1365C76.843 45.9464 75.8154 42.6663 75.8154 38.2912V20.8945V20.8997Z" fill="#F3F6FF"/>
<path d="M107.853 20.8999H112.949V24.5951H113.074C114.008 23.1939 114.973 22.0936 115.975 21.284C116.971 20.4795 118.238 20.0747 119.769 20.0747C121.3 20.0747 122.976 20.5626 124.673 21.5383L122.317 26.1885C121.253 25.4255 120.085 25.0415 118.814 25.0415C117.028 25.0415 115.606 25.8044 114.548 27.3354C113.484 28.8665 112.954 31.2227 112.954 34.4093V50.5915H107.858V20.8999H107.853Z" fill="#F3F6FF"/>
<path d="M140.31 20.0693C142.521 20.0693 144.493 20.4534 146.237 21.2163C147.976 21.9792 149.445 23.0536 150.633 24.4341C151.822 25.8146 152.725 27.4287 153.342 29.2763C153.96 31.1239 154.266 33.1324 154.266 35.2966V36.6979H131.14C131.181 38.1822 131.436 39.5524 131.903 40.8083C132.37 42.0591 133.008 43.1334 133.813 44.0261C134.617 44.9188 135.598 45.6194 136.745 46.128C137.892 46.6366 139.189 46.8909 140.632 46.8909C142.672 46.8909 144.379 46.4446 145.76 45.5571C147.14 44.6644 148.339 43.367 149.356 41.6699L153.56 44.2181C152.201 46.5121 150.462 48.2922 148.334 49.5689C146.211 50.8457 143.575 51.484 140.435 51.484C138.224 51.484 136.231 51.1 134.446 50.3371C132.66 49.5741 131.135 48.4998 129.858 47.1193C128.581 45.7388 127.595 44.0832 126.894 42.1525C126.194 40.2219 125.841 38.0888 125.841 35.7481C125.841 33.4075 126.194 31.3523 126.894 29.4424C127.595 27.5325 128.581 25.8769 129.858 24.4756C131.129 23.0743 132.65 21.9896 134.415 21.2267C136.174 20.4638 138.141 20.0797 140.305 20.0797L140.31 20.0693ZM131.456 32.494H149.04C148.827 30.2883 147.955 28.4303 146.429 26.9201C144.903 25.415 142.885 24.6572 140.378 24.6572C137.871 24.6572 135.972 25.389 134.42 26.8526C132.868 28.3161 131.882 30.2001 131.456 32.4889V32.494Z" fill="#F3F6FF"/>
</g>
<defs>
<clipPath id="clip0_2816_1083">
<rect width="154.261" height="72" fill="white"/>
</clipPath>
</defs>
</svg>
