<svg width="238" height="72" viewBox="0 0 238 72" fill="none" xmlns="http://www.w3.org/2000/svg">
<path d="M58.0315 0.148978L38.6216 13.9957C38.3239 14.2077 38.2219 14.5871 38.3443 14.9297C38.5238 15.4313 38.6216 15.9697 38.6176 16.5284C38.6135 18.4454 37.4715 20.089 35.8401 20.8395C35.5586 20.97 35.3751 21.2473 35.3751 21.5573L35.3262 71.2055C35.3262 71.9804 36.3213 72.2945 36.7659 71.6623L68.1748 27.1368C68.3217 26.9288 68.3584 26.6596 68.2768 26.4189L59.2428 0.532362C59.0674 0.0347784 58.4638 -0.160992 58.0315 0.148978Z" fill="#F3F6FF"/>
<path d="M10.2879 0.148978L29.6977 13.9957C29.9954 14.2077 30.0974 14.5871 29.975 14.9297C29.7956 15.4313 29.6977 15.9697 29.7018 16.5284C29.7058 18.4454 30.8478 20.089 32.4793 20.8395C32.7607 20.97 32.9442 21.2473 32.9442 21.5573L32.9932 71.2055C32.9932 71.9804 31.998 72.2945 31.5534 71.6623L0.144496 27.1368C-0.00233159 26.9288 -0.0390386 26.6596 0.0425325 26.4189L9.07653 0.532362C9.2519 0.0347784 9.85553 -0.160992 10.2879 0.148978Z" fill="#F3F6FF"/>
<path d="M91.3842 43.3708L82.835 17.5801H89.3279L94.6474 35.1903L100.076 17.5801H106.203L97.6178 43.3708H91.3819H91.3842Z" fill="#F3F6FF"/>
<path d="M119.742 37.3178H125.135C124.547 39.3473 123.434 40.9432 121.796 42.1054C120.158 43.2676 118.115 43.8488 115.67 43.8488C112.759 43.8488 110.379 42.9078 108.533 41.0236C106.687 39.1417 105.764 36.8172 105.764 34.0524C105.764 31.2876 106.711 28.9899 108.607 27.0811C110.502 25.1724 112.88 24.2202 115.743 24.2202C118.606 24.2202 121.07 25.1254 122.842 26.9358C124.614 28.7463 125.502 31.0216 125.502 33.7596V35.4471H111.083C111.327 36.6451 111.854 37.5995 112.661 38.308C113.468 39.0187 114.496 39.3719 115.743 39.3719C117.628 39.3719 118.96 38.6879 119.742 37.3178ZM115.743 28.7329C114.666 28.7329 113.75 29.0078 112.992 29.5576C112.234 30.1074 111.684 30.8473 111.34 31.7771H120.108C119.471 29.7476 118.016 28.7329 115.743 28.7329Z" fill="#F3F6FF"/>
<path d="M147.808 32.4006H142.267C141.997 31.4708 141.496 30.731 140.763 30.1812C140.03 29.6314 139.136 29.3565 138.085 29.3565C136.715 29.3565 135.616 29.8035 134.784 30.6953C133.953 31.5893 133.537 32.7068 133.537 34.0524C133.537 35.3979 133.953 36.4797 134.784 37.3737C135.616 38.2678 136.715 38.7125 138.085 38.7125C139.136 38.7125 140.034 38.4309 140.781 37.8677C141.528 37.3044 142.035 36.5601 142.303 35.6303H147.806C147.464 38.004 146.411 39.9664 144.65 41.5198C142.889 43.0732 140.701 43.8488 138.083 43.8488C135.075 43.8488 132.634 42.9078 130.763 41.0236C128.893 39.1417 127.956 36.8038 127.956 34.0166C127.956 31.2295 128.893 28.9295 130.763 27.0454C132.634 25.1634 135.075 24.2202 138.083 24.2202C140.676 24.2202 142.857 24.9913 144.632 26.5313C146.404 28.0713 147.464 30.0292 147.806 32.4006H147.808Z" fill="#F3F6FF"/>
<path d="M175.621 24.2202C178.581 24.2202 181.008 25.1612 182.903 27.0454C184.799 28.9295 185.746 31.2518 185.746 34.0166C185.746 36.7814 184.805 39.1104 182.921 41.0057C181.037 42.9011 178.605 43.8488 175.621 43.8488C172.637 43.8488 170.172 42.9078 168.301 41.0236C166.431 39.1417 165.494 36.8038 165.494 34.0166C165.494 31.2295 166.431 28.9295 168.301 27.0454C170.172 25.1634 172.613 24.2202 175.621 24.2202ZM178.961 30.7131C178.105 29.8079 176.991 29.3565 175.621 29.3565C174.251 29.3565 173.145 29.8102 172.3 30.7131C171.457 31.6184 171.035 32.7314 171.035 34.0524C171.035 35.3733 171.457 36.4797 172.3 37.3737C173.145 38.2678 174.251 38.7125 175.621 38.7125C176.991 38.7125 178.105 38.2655 178.961 37.3737C179.817 36.4819 180.246 35.3733 180.246 34.0524C180.246 32.7314 179.817 31.6184 178.961 30.7131Z" fill="#F3F6FF"/>
<path d="M223.862 41.2427C222.639 42.9794 220.865 43.8466 218.542 43.8466C216.757 43.8466 215.29 43.3638 214.139 42.3983C212.99 41.4327 212.416 40.1408 212.416 38.5271C212.416 36.9134 212.948 35.5678 214.012 34.5643C215.076 33.5607 216.757 32.803 219.056 32.289L223.643 31.2608V31.0775C223.643 30.3936 223.41 29.8438 222.946 29.4258C222.481 29.0101 221.846 28.8022 221.039 28.8022C220.232 28.8022 219.541 29.0034 219.039 29.4079C218.538 29.8125 218.25 30.3444 218.176 31.0038H212.783C212.905 29.0727 213.737 27.4567 215.277 26.1603C216.817 24.864 218.775 24.2158 221.146 24.2158C223.739 24.2158 225.719 24.9065 227.089 26.2877C228.459 27.669 229.143 29.4482 229.143 31.6251V43.3661H223.86V41.2383L223.862 41.2427ZM223.643 35.6662V35.0426L220.525 35.7019C218.764 36.0931 217.883 36.7904 217.883 37.794C217.883 38.9182 218.592 39.4815 220.011 39.4815C221.014 39.4815 221.868 39.0903 222.579 38.3081C223.287 37.5258 223.643 36.6452 223.643 35.6662Z" fill="#F3F6FF"/>
<path d="M231.646 43.3702V17.5996H237.223V43.3702H231.646Z" fill="#F3F6FF"/>
<path d="M160.908 38.9317C160.126 38.9317 159.556 38.7484 159.203 38.3818C158.847 38.0153 158.671 37.4029 158.671 36.5468V29.6851H163.036V24.6964H153.141L158.669 20.7224V18.1274L153.092 18.1744V24.6941H150.303V29.6829H153.092V37.0207C153.092 41.5691 155.256 43.8444 159.585 43.8444C161.076 43.8444 162.348 43.5985 163.4 43.1113V38.2321C162.643 38.697 161.811 38.9294 160.906 38.9294L160.908 38.9317Z" fill="#F3F6FF"/>
<path d="M204.45 24.6965L209.917 20.7672V18.1768H204.341V43.3662H209.917V24.6965H204.45Z" fill="#F3F6FF"/>
<path d="M197.7 24.7144L193.764 30.1903V24.7144H188.188V43.3662H193.764V30.2909H201.839V24.7144H197.7Z" fill="#F3F6FF"/>
<path d="M94.0757 53.9988H92.0581C91.9758 53.038 91.6601 52.3312 91.1111 51.8782C90.5621 51.4116 89.8416 51.1783 88.9494 51.1783C88.1397 51.1783 87.4671 51.3704 86.9319 51.7547C86.3966 52.1253 86.129 52.64 86.129 53.2988C86.129 53.9576 86.3142 54.4379 86.6848 54.7399C87.0554 55.0418 87.625 55.3026 88.3936 55.5222L90.4729 56.1193C91.7081 56.4761 92.662 56.9428 93.3346 57.5192C94.0071 58.0819 94.3433 58.926 94.3433 60.0515C94.3433 61.4514 93.8767 62.5288 92.9434 63.2837C92.0101 64.0386 90.7886 64.416 89.2788 64.416C87.6456 64.416 86.328 64.0111 85.326 63.2013C84.3241 62.3778 83.7957 61.1357 83.7408 59.475H85.7378C85.7927 60.5593 86.1358 61.3622 86.7672 61.8837C87.3985 62.4053 88.222 62.6661 89.2377 62.6661C90.1984 62.6661 90.9533 62.4533 91.5023 62.0279C92.065 61.6024 92.3464 60.9848 92.3464 60.175C92.3464 59.8181 92.2777 59.5093 92.1405 59.2485C92.0032 58.9878 91.7905 58.7682 91.5023 58.5897C91.2278 58.4113 90.9533 58.2741 90.6788 58.178C90.418 58.0682 90.068 57.9515 89.6288 57.828L87.9201 57.3339C87.3436 57.1692 86.8632 57.0045 86.4789 56.8398C86.0946 56.6614 85.7035 56.4281 85.3055 56.1398C84.9212 55.8379 84.6329 55.4605 84.4408 55.0075C84.2486 54.5546 84.1526 54.0193 84.1526 53.4017C84.1526 52.2076 84.6123 51.2538 85.5319 50.5401C86.4515 49.8126 87.5975 49.4489 88.97 49.4489C90.4523 49.4489 91.6464 49.8332 92.5522 50.6018C93.4718 51.3704 93.9796 52.5027 94.0757 53.9988ZM96.9661 50.5401L98.8602 50.0871V53.7723H101.578V55.4605H98.8602V60.8132C98.8602 61.4857 98.9769 61.9798 99.2102 62.2955C99.4572 62.5974 99.9033 62.7484 100.548 62.7484C101.042 62.7484 101.55 62.5768 102.072 62.2337V63.9219C101.495 64.2513 100.857 64.416 100.157 64.416C98.0298 64.416 96.9661 63.2562 96.9661 60.9367V55.4605H95.2162V53.7723H96.9661V50.5401ZM110.491 59.7221V53.7723H112.385V64.1689H110.573V62.6866C109.818 63.8395 108.748 64.416 107.361 64.416C106.167 64.416 105.213 64.0386 104.5 63.2837C103.8 62.5288 103.45 61.5475 103.45 60.3397V53.7723H105.344V59.9073C105.344 60.7308 105.557 61.4034 105.982 61.9249C106.407 62.4327 107.018 62.6866 107.814 62.6866C108.651 62.6866 109.303 62.3984 109.77 61.822C110.25 61.2318 110.491 60.5318 110.491 59.7221ZM119.525 64.416C118.016 64.416 116.767 63.9013 115.778 62.8719C114.79 61.8288 114.296 60.5387 114.296 59.0015C114.296 57.4369 114.797 56.133 115.799 55.0899C116.801 54.0468 118.064 53.5252 119.587 53.5252C121.234 53.5252 122.538 54.1634 123.499 55.4399V48.9137H125.393V64.1689H123.602V62.3367C122.627 63.7229 121.268 64.416 119.525 64.416ZM119.916 62.6866C120.96 62.6866 121.824 62.3298 122.51 61.6161C123.21 60.8887 123.56 60.0103 123.56 58.9809C123.56 57.9378 123.21 57.0594 122.51 56.3457C121.824 55.6183 120.96 55.2546 119.916 55.2546C118.86 55.2546 117.981 55.6183 117.281 56.3457C116.595 57.0731 116.252 57.9515 116.252 58.9809C116.252 60.0103 116.595 60.8887 117.281 61.6161C117.981 62.3298 118.86 62.6866 119.916 62.6866ZM128.133 49.5519C128.38 49.2911 128.703 49.1607 129.101 49.1607C129.499 49.1607 129.821 49.2911 130.068 49.5519C130.315 49.7989 130.439 50.1009 130.439 50.4577C130.439 50.8146 130.315 51.1234 130.068 51.3841C129.821 51.6312 129.499 51.7547 129.101 51.7547C128.703 51.7547 128.38 51.6312 128.133 51.3841C127.886 51.1234 127.763 50.8146 127.763 50.4577C127.763 50.1009 127.886 49.7989 128.133 49.5519ZM128.154 64.1689V53.7723H130.048V64.1689H128.154ZM133.544 55.1105C134.601 54.0537 135.925 53.5252 137.517 53.5252C139.109 53.5252 140.427 54.0537 141.47 55.1105C142.527 56.1673 143.055 57.4506 143.055 58.9603C143.055 60.4838 142.527 61.7739 141.47 62.8308C140.427 63.8876 139.109 64.416 137.517 64.416C135.925 64.416 134.601 63.8876 133.544 62.8308C132.501 61.7739 131.979 60.4838 131.979 58.9603C131.979 57.4506 132.501 56.1673 133.544 55.1105ZM140.132 56.3457C139.432 55.632 138.56 55.2752 137.517 55.2752C136.474 55.2752 135.602 55.632 134.903 56.3457C134.203 57.0594 133.853 57.931 133.853 58.9603C133.853 60.0034 134.203 60.8818 134.903 61.5955C135.602 62.3092 136.474 62.6661 137.517 62.6661C138.56 62.6661 139.432 62.3092 140.132 61.5955C140.832 60.8818 141.182 60.0034 141.182 58.9603C141.182 57.931 140.832 57.0594 140.132 56.3457Z" fill="#F3F6FF"/>
</svg>
