<svg width="256" height="72" viewBox="0 0 256 72" fill="none" xmlns="http://www.w3.org/2000/svg">
<g clip-path="url(#clip0_2816_1101)">
<path d="M18.9414 0H17.6278L0.00390625 44.5789H3.58438L16.9438 10.802H17.2404L30.5969 44.5789H36.5653L18.9414 0Z" fill="#F3F6FF"/>
<path d="M134.025 0H132.712L115.088 44.5789H118.668L132.025 10.802H132.324L145.681 44.5789H151.649L134.025 0Z" fill="#F3F6FF"/>
<path d="M45.4637 0L45.3517 27.5119C45.3517 30.1178 45.7058 32.2818 46.411 34.0009C47.1162 35.7231 48.0484 37.1002 49.2016 38.1353C50.3547 39.1704 51.6592 39.8968 53.1119 40.3144C54.5647 40.7321 56.0356 40.9409 57.5278 40.9409C59.1591 40.9409 60.739 40.717 62.2735 40.269C63.8049 39.8211 65.1669 39.0765 66.3624 38.0324C67.5549 36.9882 68.5113 35.6111 69.2256 33.898C69.9399 32.188 70.3 30.0603 70.3 27.5119L70.409 0H74.05L73.938 26.9126C73.938 29.9362 73.5355 32.5572 72.7304 34.7757C71.9253 36.9942 70.7813 38.8284 69.2982 40.2811C67.8152 41.7339 66.0265 42.8144 63.926 43.5196C61.8255 44.2248 59.4951 44.5789 56.9285 44.5789C54.3619 44.5789 52.0345 44.2248 49.9461 43.5196C47.8577 42.8144 46.066 41.74 44.5739 40.2963C43.0817 38.8526 41.9347 37.0245 41.1266 34.806C40.3215 32.5875 39.9189 29.9574 39.9189 26.9126L40.0309 0H45.4607H45.4637Z" fill="#F3F6FF"/>
<path d="M81.4678 0H93.6136C96.1408 0 98.3532 0.269368 100.254 0.805078C102.152 1.34079 103.741 2.12468 105.012 3.14767C106.286 4.17067 107.245 5.42671 107.89 6.90672C108.538 8.38976 108.859 10.0665 108.859 11.9339C108.859 13.1688 108.659 14.3068 108.262 15.351C107.866 16.3951 107.327 17.3394 106.652 18.1869C105.974 19.0313 105.199 19.788 104.325 20.4538C103.45 21.1197 102.545 21.6887 101.61 22.1548C100.675 22.6239 99.7122 23.0991 98.7679 23.3957C97.8236 23.6923 97.4241 23.8224 96.9216 23.9284V24.1372L111.107 44.5759H105.49L91.7038 25.0301H86.9005V44.5759H81.4708V0H81.4678ZM86.8975 3.64101V21.3951H92.8357C94.228 21.3951 95.5445 21.1711 96.7885 20.7232C98.0324 20.2753 99.125 19.6457 100.072 18.8285C101.017 18.0114 101.761 17.0186 102.309 15.8443C102.857 14.67 103.129 13.3685 103.129 11.9339C103.129 10.4993 102.908 9.32498 102.472 8.27778C102.034 7.2336 101.419 6.36799 100.623 5.68095C99.8272 4.99391 98.8768 4.48241 97.7751 4.14645C96.6704 3.80747 95.4628 3.63798 94.1493 3.63798H86.8975V3.64101Z" fill="#F3F6FF"/>
<path d="M238.151 0H236.837L219.201 44.5789H222.785L236.15 10.802H236.45L249.818 44.5789H255.787L238.151 0Z" fill="#F3F6FF"/>
<path d="M162.284 36.1347H162.735L175.359 0H178.939L163.334 44.5789H159.663L142.039 0H148.008L162.287 36.1347H162.284Z" fill="#F3F6FF"/>
<path d="M189.002 0V44.5789H183.572V0H189.002Z" fill="#F3F6FF"/>
<path d="M194.376 0H226.095L226.894 4.23725L212.578 3.64101V44.582H207.149V3.64101L193.632 4.23725L194.376 0Z" fill="#F3F6FF"/>
<path d="M18.8826 56.5762V71.7637H17.7779L9.85723 59.0519V71.7637H8.64355V56.5762H9.75129L17.6689 69.2879V56.5762H18.8826Z" fill="#F3F6FF"/>
<path d="M30.1879 71.34C29.4222 70.8981 28.8199 70.2837 28.387 69.4968C27.9542 68.7098 27.7363 67.8019 27.7363 66.7728V56.5762H28.95V66.7304C28.95 67.5537 29.1104 68.277 29.4282 68.9005C29.746 69.524 30.197 70.0083 30.7841 70.3533C31.3713 70.7014 32.0462 70.8739 32.812 70.8739C33.5777 70.8739 34.2556 70.7014 34.8398 70.3533C35.4269 70.0052 35.8779 69.521 36.1957 68.9005C36.5135 68.2801 36.6739 67.5567 36.6739 66.7304V56.5762H37.8876V66.7728C37.8876 67.7988 37.6697 68.7068 37.2369 69.4968C36.804 70.2867 36.2018 70.9011 35.436 71.34C34.6703 71.7819 33.7956 72.0028 32.812 72.0028C31.8283 72.0028 30.9536 71.7819 30.1879 71.34Z" fill="#F3F6FF"/>
<path d="M55.3532 56.5762V57.7263H51.013V71.7637H49.8205V57.7263H45.4834V56.5762H55.3532Z" fill="#F3F6FF"/>
<path d="M68.4486 65.2868C69.0206 65.2081 69.5442 65.0477 70.0224 64.7995C70.7155 64.4363 71.2543 63.9248 71.6386 63.2589C72.02 62.5931 72.2137 61.8334 72.2137 60.9799C72.2137 60.1264 72.02 59.3637 71.6386 58.6918C71.2543 58.0199 70.7186 57.4993 70.0315 57.13C69.3445 56.7608 68.5545 56.5762 67.6556 56.5762H63.1006V71.7637H64.3143V65.3412H67.1653L71.4328 71.7637H72.819L68.4486 65.2868ZM64.3143 57.7263H67.5921C68.2579 57.7263 68.8542 57.8625 69.3808 58.1379C69.9105 58.4133 70.316 58.7977 70.5975 59.288C70.879 59.7783 71.0182 60.3443 71.0182 60.9799C71.0182 61.9787 70.7065 62.7747 70.0769 63.3679C69.4474 63.9611 68.6181 64.2547 67.5921 64.2547H64.3143V57.7263Z" fill="#F3F6FF"/>
<path d="M80.5439 56.5762H81.7576V71.7637H80.5439V56.5762Z" fill="#F3F6FF"/>
<path d="M93.5285 70.9832C92.3481 70.3022 91.425 69.37 90.75 68.1836C90.0781 66.9971 89.7422 65.6654 89.7422 64.1915C89.7422 62.7175 90.0781 61.3616 90.75 60.1661C91.422 58.9736 92.3481 58.0353 93.5285 57.3574C94.7058 56.6764 96.0194 56.3374 97.4661 56.3374C99.0127 56.3374 100.393 56.7097 101.6 57.4542C102.808 58.1988 103.731 59.2308 104.367 60.5444L103.304 61.0014C102.769 59.8876 101.994 59.019 100.983 58.3985C99.9691 57.7781 98.7978 57.4663 97.4691 57.4663C96.2252 57.4663 95.1114 57.7569 94.1277 58.335C93.1441 58.913 92.3663 59.7121 91.7942 60.732C91.2222 61.752 90.9377 62.9051 90.9377 64.1915C90.9377 65.4778 91.2222 66.5885 91.7942 67.6085C92.3663 68.6285 93.1471 69.4275 94.1368 70.0056C95.1265 70.5837 96.2373 70.8742 97.4661 70.8742C98.8402 70.8742 100.03 70.5625 101.034 69.942C102.039 69.3216 102.802 68.4317 103.323 67.2725L104.406 67.7507C103.783 69.1248 102.866 70.1781 101.652 70.9075C100.438 71.6369 99.0399 72.0031 97.4661 72.0031C96.0194 72.0031 94.7058 71.6642 93.5285 70.9832Z" fill="#F3F6FF"/>
<path d="M115.092 70.9919C113.9 70.3199 112.962 69.3877 112.284 68.1922C111.603 66.9998 111.264 65.659 111.264 64.1668C111.264 62.6747 111.603 61.337 112.284 60.1415C112.965 58.949 113.9 58.0168 115.092 57.3418C116.285 56.6699 117.635 56.334 119.139 56.334C120.643 56.334 121.969 56.6699 123.164 57.3418C124.357 58.0138 125.295 58.9459 125.973 60.1415C126.651 61.337 126.993 62.6778 126.993 64.1668C126.993 65.6559 126.654 66.9967 125.973 68.1922C125.292 69.3877 124.357 70.3199 123.164 70.9919C121.972 71.6638 120.628 71.9997 119.139 71.9997C117.65 71.9997 116.285 71.6638 115.092 70.9919ZM122.556 70.0143C123.561 69.4422 124.354 68.6462 124.932 67.6293C125.51 66.6093 125.8 65.4562 125.8 64.1699C125.8 62.8836 125.51 61.7304 124.932 60.7105C124.354 59.6905 123.561 58.8945 122.556 58.3225C121.551 57.7504 120.41 57.4659 119.139 57.4659C117.868 57.4659 116.724 57.7504 115.71 58.3225C114.696 58.8945 113.903 59.6905 113.325 60.7105C112.747 61.7304 112.456 62.8836 112.456 64.1699C112.456 65.4562 112.747 66.6093 113.325 67.6293C113.903 68.6493 114.699 69.4453 115.71 70.0143C116.721 70.5863 117.865 70.8708 119.139 70.8708C120.413 70.8708 121.551 70.5863 122.556 70.0143Z" fill="#F3F6FF"/>
<path d="M135.868 70.9591C134.957 70.2661 134.328 69.2461 133.979 67.8992L135.087 67.5724C135.378 68.6862 135.874 69.5155 136.585 70.0572C137.294 70.599 138.111 70.8714 139.037 70.8714C139.745 70.8714 140.375 70.7473 140.926 70.5021C141.476 70.257 141.897 69.9119 142.194 69.4701C142.49 69.0282 142.639 68.5258 142.639 67.9628C142.639 67.0518 142.303 66.3284 141.631 65.7927C140.959 65.257 140.021 64.803 138.822 64.4247C137.911 64.122 137.151 63.7982 136.543 63.4592C135.935 63.1202 135.45 62.6783 135.09 62.1366C134.727 61.5948 134.548 60.932 134.548 60.1511C134.548 59.4126 134.739 58.7528 135.124 58.1657C135.508 57.5785 136.047 57.1275 136.74 56.8097C137.433 56.492 138.223 56.3315 139.104 56.3315C140.202 56.3315 141.177 56.6342 142.021 57.2426C142.866 57.8509 143.456 58.7468 143.789 59.9332L142.681 60.2147C142.39 59.2734 141.933 58.5773 141.304 58.1203C140.674 57.6633 139.954 57.4363 139.146 57.4363C138.465 57.4363 137.872 57.5513 137.366 57.7843C136.861 58.0143 136.461 58.3382 136.174 58.7498C135.883 59.1614 135.741 59.6366 135.741 60.1693C135.741 60.7625 135.886 61.2528 136.174 61.6463C136.464 62.0367 136.849 62.3545 137.333 62.5997C137.817 62.8448 138.45 63.093 139.231 63.3381C140.647 63.8012 141.77 64.3944 142.593 65.1178C143.416 65.8411 143.831 66.7733 143.831 67.9174C143.831 68.7134 143.628 69.4216 143.223 70.0421C142.817 70.6656 142.251 71.1438 141.519 71.4858C140.789 71.8248 139.96 71.9942 139.034 71.9942C137.832 71.9942 136.776 71.6462 135.865 70.9531L135.868 70.9591Z" fill="#F3F6FF"/>
<path d="M166.24 71.7637H165.023L163.371 59.2063L158.84 70.8951H158.492L153.973 59.1639L152.311 71.7637H151.095L153.113 56.5762H154.197L158.667 68.4163L163.159 56.5762H164.221L166.24 71.7637Z" fill="#F3F6FF"/>
<path d="M182.184 70.6136V71.7637H174.245V56.5762H181.945V57.7263H175.459V63.3437H181.339V64.4726H175.459V70.6136H182.184Z" fill="#F3F6FF"/>
<path d="M198.824 56.5762V57.7263H194.484V71.7637H193.291V57.7263H188.954V56.5762H198.824Z" fill="#F3F6FF"/>
<path d="M206.572 56.5762H207.786V71.7637H206.572V56.5762Z" fill="#F3F6FF"/>
<path d="M219.557 70.9832C218.376 70.3022 217.453 69.37 216.778 68.1836C216.106 66.9971 215.771 65.6654 215.771 64.1915C215.771 62.7175 216.106 61.3616 216.778 60.1661C217.45 58.9736 218.376 58.0353 219.557 57.3574C220.734 56.6764 222.048 56.3374 223.494 56.3374C225.041 56.3374 226.421 56.7097 227.629 57.4542C228.836 58.1988 229.759 59.2308 230.395 60.5444L229.333 61.0014C228.797 59.8876 228.022 59.019 227.011 58.3985C225.997 57.7781 224.826 57.4663 223.497 57.4663C222.253 57.4663 221.14 57.7569 220.156 58.335C219.172 58.913 218.395 59.7121 217.823 60.732C217.251 61.752 216.966 62.9051 216.966 64.1915C216.966 65.4778 217.251 66.5885 217.823 67.6085C218.395 68.6285 219.175 69.4275 220.165 70.0056C221.155 70.5837 222.266 70.8742 223.494 70.8742C224.868 70.8742 226.058 70.5625 227.063 69.942C228.068 69.3216 228.83 68.4317 229.351 67.2725L230.434 67.7507C229.811 69.1248 228.894 70.1781 227.68 70.9075C226.467 71.6369 225.068 72.0031 223.494 72.0031C222.048 72.0031 220.734 71.6642 219.557 70.9832Z" fill="#F3F6FF"/>
<path d="M239.179 70.9591C238.268 70.2661 237.638 69.2461 237.29 67.8992L238.398 67.5724C238.688 68.6862 239.185 69.5155 239.896 70.0572C240.604 70.599 241.421 70.8714 242.348 70.8714C243.056 70.8714 243.685 70.7473 244.236 70.5021C244.787 70.257 245.208 69.9119 245.504 69.4701C245.801 69.0282 245.949 68.5258 245.949 67.9628C245.949 67.0518 245.613 66.3284 244.941 65.7927C244.269 65.257 243.331 64.803 242.133 64.4247C241.222 64.122 240.462 63.7982 239.854 63.4592C239.245 63.1202 238.761 62.6783 238.401 62.1366C238.038 61.5948 237.859 60.932 237.859 60.1511C237.859 59.4126 238.05 58.7528 238.434 58.1657C238.818 57.5785 239.357 57.1275 240.05 56.8097C240.743 56.492 241.533 56.3315 242.414 56.3315C243.513 56.3315 244.487 56.6342 245.332 57.2426C246.176 57.8509 246.766 58.7468 247.099 59.9332L245.992 60.2147C245.701 59.2734 245.244 58.5773 244.614 58.1203C243.985 57.6633 243.265 57.4363 242.456 57.4363C241.775 57.4363 241.182 57.5513 240.677 57.7843C240.171 58.0143 239.772 58.3382 239.484 58.7498C239.194 59.1614 239.052 59.6366 239.052 60.1693C239.052 60.7625 239.197 61.2528 239.484 61.6463C239.775 62.0367 240.159 62.3545 240.644 62.5997C241.128 62.8448 241.76 63.093 242.541 63.3381C243.958 63.8012 245.081 64.3944 245.904 65.1178C246.727 65.8411 247.142 66.7733 247.142 67.9174C247.142 68.7134 246.939 69.4216 246.533 70.0421C246.128 70.6656 245.562 71.1438 244.829 71.4858C244.1 71.8248 243.271 71.9942 242.344 71.9942C241.143 71.9942 240.087 71.6462 239.176 70.9531L239.179 70.9591Z" fill="#F3F6FF"/>
</g>
<defs>
<clipPath id="clip0_2816_1101">
<rect width="255.782" height="72" fill="white"/>
</clipPath>
</defs>
</svg>
