<svg width="232" height="72" viewBox="0 0 232 72" fill="none" xmlns="http://www.w3.org/2000/svg">
<g clip-path="url(#clip0_2816_1021)">
<path d="M139.158 50.3185C138.857 50.8311 137.948 51.4146 137.494 51.4146C136.738 51.4146 135.979 50.7566 135.979 48.1973V35.1811C135.979 29.1137 132.494 26.48 126.965 26.48C120.073 26.48 114.257 29.692 114.257 33.4946C114.257 34.8833 119.027 35.7629 119.027 34.6651C119.027 30.9353 120.601 28.0159 125.375 28.0159C129.69 28.0159 131.508 30.5751 131.508 34.5214V35.3266C131.508 36.8607 130.675 36.8607 125.979 37.8131C116.664 39.6399 113.256 42.2736 113.256 46.587C113.256 50.464 117.27 52.6579 121.663 52.6579C126.056 52.6579 129.766 50.8311 131.508 47.5393V48.3428C131.508 51.0492 133.855 52.6579 136.506 52.6579C137.87 52.6579 138.855 51.8544 139.687 50.9038L139.157 50.3185H139.158ZM131.51 43.7385C130.753 48.419 125.831 50.9782 122.875 50.9782C119.77 50.9782 117.725 49.0216 117.725 45.877C117.725 42.7325 120.302 40.0087 126.134 38.9127C129.011 38.4018 130.601 38.0365 131.51 37.8166V43.7385Z" fill="#F3F6FF"/>
<path d="M130.517 55.2502C129.693 55.8891 128.654 56.6043 127.217 57.3835C126.12 57.9757 124.704 58.7237 122.844 59.238C116.924 60.8657 110.768 59.2605 107.2 54.1628C103.037 48.2166 101.757 38.9994 93.8475 36.6497C93.3193 36.4938 92.7514 36.383 92.7514 36.383C91.2778 36.0852 89.896 36.1129 89.0614 36.1129C89.0614 35.8462 89.0701 35.4306 89.0753 35.1986C90.2129 35.1969 94.2146 35.1934 95.3522 35.1934C104.665 35.1934 108.789 30.4645 108.789 24.1304C108.789 17.7963 104.665 13.0674 95.3522 13.0674H86.8277V48.1698C86.8277 48.6668 86.871 49.3075 87.0493 49.9481C87.3801 50.826 88.1991 51.6035 90.2181 51.6035V52.5195H78.9629V51.6035C82.3117 51.6035 82.3585 49.4702 82.3585 48.2685V16.5011C82.3585 16.4578 82.3585 16.4111 82.3568 16.3643C82.3343 15.8726 82.2027 15.3167 81.9343 14.8024C81.9325 14.7955 81.9273 14.7886 81.9239 14.7799C81.4754 13.9349 80.6564 13.2094 79.3681 13.0865C79.3092 13.0795 79.2486 13.0761 79.1897 13.0709C79.117 13.0657 79.0425 13.0639 78.9646 13.0639V12.1479H95.8093C109.773 12.1479 113.26 19.0915 113.26 24.127C113.26 24.9806 113.125 25.952 112.817 26.9633C112.349 28.5009 111.485 30.1286 110.086 31.564C107.729 33.9917 103.861 35.8774 97.8491 35.8774C97.8491 35.8774 97.8335 35.8826 97.8058 35.8826C97.792 35.8826 97.7816 35.8843 97.766 35.8843C97.669 35.893 97.4959 35.9068 97.2985 35.9068C97.6309 35.9068 98.1418 36.2324 98.4448 36.3692C98.8309 36.5406 99.2067 36.7259 99.579 36.9267C103.219 38.8851 105.695 42.0643 107.421 45.7508C108.574 48.2148 109.606 50.7931 111.387 52.8502C114.541 56.4969 119.019 57.3714 123.624 56.8294C124.678 56.7047 125.746 56.6008 126.772 56.3082C127.449 56.116 128.098 55.8424 128.737 55.548C128.806 55.5169 129.203 55.342 129.656 55.1394C129.831 55.0615 130.025 54.9749 130.186 54.9022C130.297 55.0182 130.408 55.1342 130.52 55.2485L130.517 55.2502Z" fill="#F3F6FF"/>
<path d="M184.749 45.4926C182.995 47.9792 178.827 50.9038 175.025 50.9038C169.468 50.9038 166.689 46.6632 166.689 40.0832V38.7672H183.506C185.336 38.7672 185.701 37.6711 185.701 36.7188C185.701 31.9656 182.557 26.48 176.195 26.48C169.833 26.48 162.157 31.6712 162.157 41.1793C162.157 48.6372 167.494 52.6596 173.345 52.6596C179.196 52.6596 183.876 48.9298 185.703 46.5177C185.996 46.1524 185.118 44.9835 184.752 45.4944L184.749 45.4926ZM174.877 28.0176C179.265 28.0176 180.948 32.4037 180.948 36.8642C180.948 37.6694 180.437 37.8148 179.632 37.8148H166.836C167.494 32.5509 170.566 28.0176 174.879 28.0176H174.877Z" fill="#F3F6FF"/>
<path d="M230.717 45.4926C228.962 47.9792 224.795 50.9038 220.992 50.9038C215.435 50.9038 212.656 46.6632 212.656 40.0832V38.7672H229.473C231.3 38.7672 231.669 37.6711 231.669 36.7188C231.669 31.9656 228.523 26.48 222.163 26.48C215.803 26.48 208.123 31.6712 208.123 41.1793C208.123 48.6372 213.461 52.6596 219.312 52.6596C225.163 52.6596 229.84 48.9298 231.671 46.5177C231.962 46.1524 231.085 44.9835 230.72 45.4944L230.717 45.4926ZM220.843 28.0176C225.231 28.0176 227.198 32.421 227.198 36.8815C227.198 37.6867 226.402 37.8148 225.598 37.8148H212.802C213.46 32.5509 216.532 28.0176 220.845 28.0176H220.843Z" fill="#F3F6FF"/>
<path d="M162.21 25.3061C160.984 25.4949 159.777 25.668 158.591 25.8221C158.591 25.8533 158.6 26.2706 158.601 26.3018C158.603 26.4819 158.608 26.6602 158.61 26.7779C158.61 26.7779 161.969 26.9165 160.589 30.1078L152.723 48.31C150.309 42.6807 147.897 37.0514 145.483 31.4203C145.483 31.4203 143.739 27.7857 146.976 27.7857C146.976 27.5398 146.965 26.8351 146.958 26.8351C145.234 26.8697 143.485 26.9632 141.705 26.9719C140.453 26.9771 139.215 26.9736 137.991 26.9632C137.487 26.958 136.986 26.9546 136.489 26.9476V27.8948C136.976 27.8948 138.146 28.274 138.855 28.797C138.971 28.8835 139.083 28.9701 139.194 29.0619C139.958 29.6956 140.555 30.4402 140.936 31.3805C141.649 33.1328 142.396 34.8696 143.156 36.6029C144.136 38.8435 145.118 41.0876 146.098 43.3283C147.036 45.4703 147.973 47.6157 148.912 49.7576C149.331 50.7134 149.748 51.671 150.167 52.6268H151.921L161.104 31.4272C163.188 26.4593 165.173 25.7944 167.058 25.4533V24.4854C165.486 24.778 163.871 25.055 162.21 25.3113V25.3061Z" fill="#F3F6FF"/>
<path d="M207.048 51.7576V52.6753H186.851V51.7576C187.129 51.7576 187.387 51.7282 187.63 51.6745C188.421 51.5048 189.019 51.0684 189.448 50.5351C189.448 50.5351 189.451 50.5316 189.458 50.5247C190.009 49.9117 190.22 49.1602 190.243 48.4607C190.246 48.4139 190.246 48.3706 190.246 48.3222V22.4109C190.246 20.946 190.18 20.1841 187.348 20.0352V19.0621C188.099 18.83 189.157 18.4491 190.246 18.0387C192.231 17.2941 194.298 16.4613 194.712 16.2794L194.715 17.3461V48.4589C194.741 49.1585 194.951 49.91 195.503 50.523C195.507 50.5299 195.51 50.5299 195.514 50.5334C195.865 50.9767 196.341 51.3541 196.947 51.5637C197.553 51.3524 198.031 50.9767 198.385 50.5334C198.388 50.5299 198.392 50.5299 198.395 50.523C198.935 49.9239 199.146 49.1949 199.179 48.5126V18.3885C199.179 18.3556 199.179 18.3262 199.176 18.295C199.176 18.2725 199.176 18.2448 199.172 18.2223C199.136 17.6855 199.013 17.3149 198.563 17.069C198.146 16.8335 197.45 16.7054 196.284 16.6448V15.6007C196.996 15.3825 197.983 14.8977 199.013 14.5011C200.62 13.786 202.485 12.8977 203.654 12.2812V48.3256C203.654 48.3724 203.654 48.4157 203.657 48.4641C203.68 49.1637 203.889 49.9152 204.442 50.5282C204.442 50.5282 204.445 50.5316 204.452 50.5386C204.88 51.0719 205.479 51.5065 206.27 51.6779C206.513 51.7316 206.771 51.7611 207.049 51.7611L207.048 51.7576Z" fill="#F3F6FF"/>
<path d="M71.8199 35.3756C71.7559 35.2734 71.69 35.1695 71.6329 35.0812C70.6113 33.4881 69.4096 31.9973 68.0589 30.6449C63.0305 25.6164 56.1821 22.8355 49.0983 22.8996C49.1658 15.8192 46.3849 8.97257 41.3564 3.94235C40.0006 2.58653 38.5062 1.38309 36.927 0.373586L36.8751 0.338955C36.792 0.285276 36.7089 0.229866 36.624 0.177919C36.2413 -0.0593063 35.7565 -0.0593063 35.3738 0.177919C35.2838 0.233329 35.1955 0.292203 35.1072 0.349344L35.076 0.370123C33.4881 1.38482 31.9955 2.58653 30.6414 3.94062C25.613 8.9691 22.8303 15.8175 22.8979 22.8996C15.8157 22.8338 8.96737 25.6147 3.93889 30.6432C2.58827 31.9938 1.38482 33.4864 0.371855 35.0673C0.306055 35.1678 0.240255 35.2717 0.177919 35.3738C-0.0593063 35.7565 -0.0593063 36.2413 0.177919 36.624C0.233329 36.7141 0.292203 36.8041 0.351076 36.8924L0.370123 36.9218C1.38482 38.5097 2.58653 40.0023 3.94062 41.3564C8.91023 46.326 15.653 49.1017 22.6381 49.1017C22.7247 49.1017 22.8113 49.0982 22.8961 49.0982C22.8303 56.1804 25.613 63.0305 30.6432 68.0607C31.9938 69.4113 33.4864 70.6147 35.0673 71.6277C35.1678 71.6935 35.2717 71.7593 35.3738 71.8216C35.566 71.9394 35.7825 72 35.9989 72C36.2154 72 36.4335 71.9411 36.624 71.8216C36.7262 71.7576 36.8318 71.6918 36.9184 71.6346C38.5114 70.613 40.004 69.4113 41.3547 68.0607C46.3866 63.0287 49.1675 56.1804 49.1 49.1017C49.1831 49.1017 49.2679 49.1052 49.3511 49.1052C56.3414 49.1052 63.0876 46.3295 68.0589 41.3581C69.413 40.004 70.6147 38.5114 71.6294 36.9236L71.6502 36.8924C71.7074 36.8041 71.7662 36.7158 71.8216 36.6257C72.0589 36.2431 72.0589 35.7582 71.8216 35.3756H71.8199ZM39.6733 5.62198C44.5304 10.479 47.0844 17.1975 46.681 24.0597C46.6689 24.271 46.6533 24.4822 46.636 24.6935C46.6308 24.7628 46.6221 24.8338 46.6152 24.903C46.6013 25.045 46.5892 25.1853 46.5719 25.3272C46.5632 25.4104 46.5528 25.4917 46.5425 25.5749C46.5269 25.703 46.5113 25.8329 46.4922 25.961C46.4801 26.0476 46.468 26.1342 46.4541 26.2207C46.4351 26.3454 46.416 26.4701 46.3953 26.5965C46.3814 26.6831 46.3658 26.7696 46.3503 26.8562C46.3277 26.9826 46.3035 27.1073 46.2793 27.2337C46.2637 27.3186 46.2464 27.4017 46.229 27.4865C46.2013 27.6198 46.1736 27.7514 46.1442 27.8848C46.1269 27.9592 46.1113 28.0354 46.094 28.1099C46.0559 28.2778 46.0143 28.4441 45.971 28.6103C45.9606 28.6484 45.952 28.6882 45.9416 28.7281C45.8879 28.9324 45.8325 29.135 45.7736 29.3376C45.7546 29.4016 45.7355 29.4674 45.7148 29.5315C45.6732 29.67 45.6316 29.8086 45.5884 29.9471C45.5641 30.025 45.5364 30.1047 45.5122 30.1826C45.4723 30.3055 45.4308 30.4302 45.3875 30.5531C45.3598 30.6362 45.3304 30.7176 45.3009 30.8007C45.2576 30.9185 45.2161 31.038 45.1711 31.1557C45.1399 31.2388 45.1087 31.3202 45.0775 31.4033C45.0308 31.5211 44.984 31.6388 44.9373 31.7566C44.9044 31.8362 44.8732 31.9159 44.8403 31.9938C44.7884 32.1167 44.7347 32.2397 44.681 32.3626C44.6498 32.4336 44.6187 32.5063 44.5875 32.5773C44.5217 32.7245 44.4524 32.87 44.3849 33.0137C44.3624 33.0587 44.3416 33.1055 44.3208 33.1505C44.3174 33.1574 44.3139 33.1626 44.3122 33.1678C43.2802 32.425 42.3036 31.5938 41.3945 30.6882L41.3096 30.6033C40.0958 29.3843 39.0136 28.0406 38.0958 26.6051C37.8344 26.1982 37.5816 25.7757 37.3374 25.3411C40.572 18.801 40.9426 11.2548 38.4508 4.4826C38.8699 4.84796 39.2768 5.22891 39.6716 5.62371L39.6733 5.62198ZM44.1096 36.0993C42.5339 37.1089 41.0551 38.2967 39.7149 39.6318L39.6266 39.7201C38.2898 41.0603 37.1019 42.5391 36.0959 44.1113C36.0613 44.1633 36.0284 44.217 35.9955 44.2689C35.9626 44.217 35.9297 44.165 35.895 44.1113C34.8872 42.5373 33.6994 41.0586 32.3609 39.7166L32.2726 39.6283C30.9341 38.295 29.457 37.1071 27.8813 36.0976C27.8294 36.0647 27.7757 36.0301 27.7237 35.9972C27.7757 35.9643 27.8276 35.9314 27.8813 35.8968C29.4553 34.889 30.9323 33.7011 32.2743 32.3644L32.3626 32.276C33.6959 30.9375 34.8838 29.4605 35.8933 27.883C35.9262 27.8311 35.9608 27.7774 35.9937 27.7255C36.0266 27.7774 36.0595 27.8311 36.0942 27.883C37.1037 29.4588 38.2915 30.9375 39.6283 32.2778L39.7149 32.3644C41.0551 33.6994 42.5321 34.8872 44.1061 35.895C44.1581 35.9297 44.2118 35.9626 44.2637 35.9955C44.2118 36.0284 44.1598 36.0613 44.1079 36.0959L44.1096 36.0993ZM35.9972 4.7129C38.2725 10.4271 38.2725 16.8045 35.9972 22.5186C33.7219 16.8045 33.7219 10.4271 35.9972 4.7129ZM32.3193 5.62198C32.7141 5.22718 33.121 4.84623 33.5401 4.48087C31.0484 11.253 31.4189 18.7992 34.6535 25.3394C34.4093 25.774 34.1565 26.1982 33.8951 26.6051C32.9773 28.0389 31.8951 29.3843 30.683 30.6016L30.5981 30.6865C29.6891 31.5921 28.7107 32.4232 27.6805 33.1661C27.677 33.1609 27.6753 33.1539 27.6718 33.1488C27.6493 33.102 27.6268 33.0535 27.6043 33.0068C27.5367 32.863 27.4692 32.7193 27.4034 32.5739C27.3705 32.5029 27.3411 32.4319 27.3099 32.3592C27.2562 32.2362 27.2025 32.1133 27.1506 31.9903C27.1177 31.9124 27.0848 31.8328 27.0536 31.7531C27.0051 31.6354 26.9584 31.5176 26.9116 31.3981C26.8805 31.3168 26.8493 31.2354 26.8181 31.1523C26.7731 31.0328 26.7298 30.915 26.6865 30.7955C26.6571 30.7142 26.6277 30.6328 26.6 30.5514C26.5567 30.4267 26.5151 30.3021 26.4753 30.1774C26.4493 30.1012 26.4251 30.0233 26.3991 29.9471C26.3541 29.8068 26.3125 29.6648 26.2692 29.5228C26.2502 29.4605 26.2311 29.3999 26.2138 29.3393C26.1549 29.1367 26.0995 28.9324 26.0459 28.7263C26.0372 28.6934 26.0303 28.6588 26.0216 28.6259C25.9783 28.4545 25.935 28.2813 25.8952 28.1082C25.8779 28.0354 25.8623 27.9627 25.8467 27.89C25.8173 27.7549 25.7878 27.6198 25.7601 27.4848C25.7428 27.4017 25.7272 27.3203 25.7117 27.2372C25.6874 27.1108 25.6632 26.9844 25.6407 26.8562C25.6251 26.7696 25.6112 26.6848 25.5956 26.5982C25.5749 26.4735 25.5558 26.3471 25.5368 26.2225C25.5246 26.1359 25.5108 26.0493 25.4987 25.9645C25.4814 25.8363 25.464 25.7065 25.4485 25.5783C25.4381 25.4952 25.4277 25.4121 25.419 25.329C25.4034 25.1887 25.3896 25.0502 25.3775 24.9099C25.3705 24.8389 25.3636 24.7662 25.3567 24.6952C25.3394 24.4909 25.3238 24.2866 25.3117 24.0805C25.3117 24.0736 25.3117 24.0667 25.3117 24.0615C24.9099 17.1993 27.4657 10.479 32.3211 5.62371L32.3193 5.62198ZM5.61678 32.3245C10.2297 27.7116 16.5239 25.1749 23.0225 25.277C23.0312 25.3619 23.0416 25.445 23.0502 25.5298C23.0589 25.606 23.0675 25.6822 23.0762 25.7584C23.097 25.935 23.1195 26.1099 23.1437 26.2865C23.1507 26.3368 23.1559 26.387 23.1645 26.4372C23.1974 26.6623 23.232 26.8857 23.2701 27.109C23.2805 27.1662 23.2909 27.2216 23.3013 27.277C23.3307 27.445 23.3619 27.6129 23.3948 27.7792C23.4104 27.8571 23.426 27.935 23.4433 28.0129C23.4745 28.1618 23.5056 28.309 23.5385 28.4579C23.5559 28.5376 23.5749 28.6172 23.5922 28.6952C23.6286 28.8527 23.6684 29.0086 23.7082 29.1661C23.7238 29.2302 23.7411 29.296 23.7567 29.3601C23.8139 29.5783 23.8727 29.7964 23.9368 30.0129C23.9472 30.0492 23.9593 30.0856 23.9697 30.122C24.0234 30.3038 24.0788 30.4839 24.1359 30.6639C24.1584 30.7367 24.1827 30.8111 24.2069 30.8839C24.2537 31.0293 24.3022 31.1748 24.3524 31.3185C24.3783 31.3964 24.4061 31.4726 24.4338 31.5505C24.4857 31.696 24.5394 31.8414 24.5931 31.9869C24.619 32.0561 24.645 32.1254 24.671 32.1929C24.7472 32.3903 24.8251 32.5877 24.9065 32.7834C24.9117 32.7972 24.9169 32.8111 24.9221 32.8232C25.0086 33.0327 25.0987 33.2405 25.1922 33.4483C25.2199 33.5089 25.2476 33.5695 25.2753 33.6319C25.3428 33.779 25.4104 33.9245 25.4796 34.0699C25.5125 34.1409 25.5472 34.2102 25.5818 34.2812C25.6112 34.3435 25.6407 34.4041 25.6718 34.4665C25.561 34.5305 25.4485 34.5946 25.3376 34.6569C21.6442 32.8319 17.627 31.9193 13.6132 31.9193C10.5189 31.9193 7.42454 32.4613 4.47741 33.5453C4.84277 33.1262 5.22372 32.7176 5.61678 32.3245ZM22.5134 36.0006C16.7993 38.2742 10.4236 38.2742 4.70944 36.0006C10.4236 33.7288 16.7993 33.7288 22.5134 36.0006ZM22.6364 46.726C16.2781 46.726 10.1414 44.1996 5.61851 39.6768C5.22372 39.282 4.84277 38.8751 4.47741 38.456C11.2496 40.9477 18.7958 40.5772 25.3359 37.3426C25.4485 37.405 25.5593 37.469 25.6701 37.5331C25.6407 37.592 25.613 37.6526 25.5835 37.7132C25.5472 37.7859 25.5125 37.8604 25.4762 37.9331C25.4086 38.0751 25.3428 38.2188 25.277 38.3608C25.2476 38.4248 25.2182 38.4889 25.1887 38.553C25.0969 38.759 25.0069 38.9651 24.9203 39.1746C24.9134 39.1919 24.9065 39.211 24.8978 39.2283C24.8182 39.4205 24.742 39.6127 24.6675 39.8049C24.6415 39.8742 24.6156 39.9434 24.5896 40.0144C24.5359 40.1581 24.4822 40.3036 24.4303 40.4491C24.4026 40.527 24.3749 40.6049 24.3489 40.6828C24.2987 40.8265 24.2502 40.9703 24.2035 41.1157C24.1792 41.1884 24.155 41.2629 24.1325 41.3356C24.0753 41.5157 24.0216 41.6958 23.968 41.8759C23.9576 41.914 23.9455 41.9503 23.9351 41.9884C23.8727 42.2049 23.8139 42.4213 23.7567 42.6395C23.7394 42.707 23.7221 42.7746 23.7048 42.8421C23.6667 42.9945 23.6286 43.1486 23.5922 43.3027C23.5732 43.3841 23.5541 43.4672 23.5368 43.5486C23.5039 43.6923 23.4727 43.836 23.4433 43.9797C23.426 44.0611 23.4087 44.1425 23.3931 44.2256C23.3619 44.3866 23.3325 44.546 23.303 44.707C23.2927 44.7693 23.2788 44.8334 23.2684 44.8957C23.2303 45.1156 23.1957 45.3373 23.1645 45.5572C23.1559 45.6178 23.1489 45.6767 23.1403 45.7373C23.1178 45.9018 23.0953 46.068 23.0762 46.2325C23.0658 46.3156 23.0572 46.3987 23.0485 46.4818C23.0398 46.5615 23.0295 46.6412 23.0225 46.7208C22.8927 46.7225 22.7645 46.7243 22.6364 46.7243V46.726ZM32.3211 66.3811C27.464 61.524 24.9082 54.802 25.3099 47.9398C25.3221 47.7286 25.3376 47.5173 25.355 47.3061C25.3601 47.2368 25.3688 47.1675 25.374 47.0966C25.3879 46.9546 25.4017 46.8126 25.4173 46.6723C25.4259 46.5909 25.4363 46.5078 25.4467 46.4264C25.4623 46.2966 25.4796 46.1684 25.4969 46.0386C25.5091 45.952 25.5212 45.8671 25.535 45.7806C25.5541 45.6542 25.5731 45.5295 25.5939 45.4031C25.6078 45.3165 25.6233 45.2317 25.6372 45.1451C25.6597 45.0187 25.684 44.8923 25.7082 44.7659C25.7238 44.6827 25.7394 44.5996 25.7567 44.5165C25.7844 44.3832 25.8138 44.2481 25.8433 44.1148C25.8588 44.0403 25.8744 43.9676 25.8917 43.8931C25.9316 43.7217 25.9731 43.552 26.0164 43.3823C26.0251 43.346 26.0337 43.3113 26.0424 43.275C26.0961 43.0707 26.1515 42.8663 26.2103 42.6637C26.2277 42.6014 26.2484 42.5391 26.2675 42.4767C26.309 42.3365 26.3523 42.1962 26.3956 42.056C26.4199 41.978 26.4458 41.9001 26.4718 41.8222C26.5134 41.6975 26.5532 41.5728 26.5965 41.4499C26.6242 41.3685 26.6536 41.2854 26.6831 41.204C26.7264 41.0845 26.7696 40.9668 26.8129 40.849C26.8441 40.7659 26.8753 40.6845 26.9082 40.6014C26.9549 40.4837 27.0017 40.3659 27.0484 40.2482C27.0813 40.1685 27.1125 40.0889 27.1471 40.0092C27.1991 39.8863 27.251 39.7651 27.3047 39.6439C27.3359 39.5711 27.3688 39.4984 27.3999 39.4257C27.464 39.2837 27.5298 39.1417 27.5973 39.0015C27.6216 38.9512 27.6441 38.901 27.6683 38.8508C27.6718 38.8456 27.6735 38.8404 27.677 38.8335C28.709 39.5781 29.6873 40.4092 30.5947 41.3114L30.6795 41.3962C31.8968 42.617 32.9773 43.9624 33.8933 45.3944C34.1635 45.8152 34.418 46.2377 34.6518 46.6567C31.4172 53.1969 31.0466 60.7448 33.5384 67.517C33.1193 67.1516 32.7124 66.7724 32.3193 66.3776L32.3211 66.3811ZM35.9972 67.2884C33.7219 61.5742 33.7219 55.1968 35.9972 49.4827C38.2725 55.1968 38.2725 61.5742 35.9972 67.2884ZM39.6716 66.3811C39.2785 66.7741 38.8716 67.1551 38.4526 67.5187C40.9443 60.7465 40.5737 53.1986 37.3392 46.6585C37.5746 46.2394 37.8275 45.8152 38.0993 45.3944C39.0153 43.9624 40.0958 42.6187 41.3114 41.3997L41.3962 41.3148C42.3036 40.411 43.2819 39.5798 44.3139 38.8352C44.3157 38.8404 44.3191 38.8456 44.3226 38.8508C44.3486 38.9045 44.3728 38.9582 44.3988 39.0119C44.4646 39.1486 44.5286 39.2872 44.591 39.4257C44.6239 39.5002 44.6568 39.5746 44.6897 39.6491C44.7416 39.7685 44.7953 39.8898 44.8455 40.0092C44.8784 40.0889 44.9113 40.1703 44.9442 40.2517C44.991 40.3677 45.0377 40.4854 45.0845 40.6014C45.1174 40.6845 45.1485 40.7677 45.1797 40.8508C45.223 40.9685 45.2663 41.0845 45.3096 41.204C45.339 41.2871 45.3684 41.3702 45.3979 41.4534C45.4394 41.5763 45.481 41.6992 45.5208 41.8222C45.5468 41.9018 45.5728 41.9798 45.5987 42.0594C45.642 42.1962 45.6836 42.3347 45.7252 42.4733C45.7442 42.5391 45.765 42.6031 45.784 42.6689C45.8429 42.8715 45.8983 43.0741 45.9503 43.2784C45.9606 43.32 45.9693 43.3598 45.9797 43.4014C46.0212 43.5659 46.0628 43.7304 46.1009 43.8966C46.1182 43.9728 46.1355 44.049 46.1511 44.1269C46.1806 44.2585 46.2083 44.3884 46.236 44.52C46.2533 44.6048 46.2689 44.6914 46.2862 44.7762C46.3104 44.8992 46.3329 45.0239 46.3554 45.1468C46.371 45.2351 46.3866 45.3234 46.4005 45.4117C46.4212 45.5347 46.4403 45.6576 46.4576 45.7806C46.4715 45.8689 46.4836 45.9572 46.4957 46.0455C46.513 46.1719 46.5286 46.2983 46.5442 46.4247C46.5546 46.5095 46.565 46.5927 46.5736 46.6775C46.5892 46.816 46.6031 46.9563 46.6152 47.0948C46.6221 47.1658 46.629 47.2385 46.636 47.3095C46.6533 47.5208 46.6689 47.7303 46.681 47.9416C46.681 47.9416 46.681 47.9433 46.681 47.945C47.0844 54.8038 44.5304 61.524 39.6716 66.3828V66.3811ZM66.3741 39.6768C61.7595 44.2914 55.4739 46.8247 48.9684 46.7243C48.9597 46.6429 48.9511 46.5615 48.9407 46.4801C48.932 46.4005 48.9234 46.3191 48.9147 46.2394C48.8939 46.0697 48.8731 45.9 48.8489 45.7321C48.842 45.6767 48.8351 45.6195 48.8264 45.5641C48.7935 45.3407 48.7589 45.1191 48.7208 44.8975C48.7104 44.8386 48.7 44.7814 48.6896 44.7226C48.6602 44.5563 48.629 44.3901 48.5978 44.2256C48.5822 44.1477 48.5667 44.068 48.5493 43.9901C48.5182 43.8429 48.487 43.694 48.4541 43.5468C48.4368 43.4672 48.4177 43.3893 48.4004 43.3096C48.3641 43.152 48.3242 42.9945 48.2844 42.8386C48.2688 42.7746 48.2532 42.7105 48.2359 42.6464C48.1788 42.4265 48.1182 42.2083 48.0558 41.9902C48.0472 41.959 48.0368 41.9278 48.0281 41.8966C47.9727 41.7096 47.9173 41.5244 47.8584 41.3373C47.8359 41.2664 47.8134 41.1954 47.7892 41.1261C47.7407 40.9789 47.6922 40.83 47.6403 40.6828C47.6143 40.6066 47.5883 40.5322 47.5606 40.456C47.5069 40.3071 47.4533 40.1599 47.3978 40.011C47.3736 39.9434 47.3476 39.8776 47.3234 39.8101C47.2455 39.6092 47.1675 39.4101 47.0844 39.2127C47.0792 39.2006 47.0758 39.1902 47.0706 39.1781C46.984 38.9686 46.8922 38.759 46.8005 38.553C46.7727 38.4906 46.745 38.43 46.7173 38.3694C46.6515 38.224 46.584 38.0768 46.5147 37.9331C46.4801 37.8604 46.4455 37.7894 46.4109 37.7184C46.3814 37.6578 46.352 37.5954 46.3225 37.5348C46.4334 37.4708 46.5442 37.4067 46.6567 37.3443C50.3519 39.1712 54.3657 40.0837 58.3812 40.0837C61.4738 40.0837 64.5698 39.5417 67.5152 38.4577C67.1499 38.8768 66.7689 39.2837 66.3741 39.6785V39.6768ZM49.4792 36.0006C55.1934 33.7288 61.569 33.7288 67.2832 36.0006C61.569 38.2742 55.1934 38.2742 49.4792 36.0006ZM46.655 34.6587C46.5442 34.5963 46.4316 34.5323 46.3208 34.4682C46.3502 34.4093 46.378 34.3505 46.4057 34.2933C46.4438 34.2171 46.4801 34.1409 46.5165 34.0648C46.5823 33.9262 46.6463 33.7877 46.7104 33.6474C46.7416 33.5799 46.7728 33.5124 46.8022 33.4449C46.894 33.2405 46.9823 33.0345 47.0689 32.8284C47.0775 32.8059 47.0879 32.7834 47.0966 32.7591C47.1727 32.5721 47.2489 32.3851 47.3199 32.1964C47.3476 32.1254 47.3736 32.0544 47.3996 31.9834C47.4533 31.8397 47.5052 31.6977 47.5572 31.5522C47.5849 31.4743 47.6126 31.3947 47.6403 31.3168C47.6905 31.173 47.7372 31.0293 47.7857 30.8856C47.81 30.8111 47.8342 30.7384 47.8584 30.6639C47.9156 30.4839 47.971 30.3021 48.0229 30.122C48.0333 30.0856 48.0455 30.0492 48.0558 30.0129C48.1182 29.7964 48.1771 29.5783 48.2342 29.3601C48.2515 29.2943 48.2671 29.2267 48.2844 29.1609C48.3242 29.0068 48.3623 28.851 48.3987 28.6952C48.4177 28.6155 48.4351 28.5341 48.4541 28.4527C48.487 28.3073 48.5182 28.1601 48.5493 28.0129C48.5649 27.9333 48.5822 27.8536 48.5978 27.774C48.6307 27.6095 48.6602 27.445 48.6896 27.2805C48.7 27.2216 48.7121 27.161 48.7225 27.1021C48.7606 26.8805 48.7952 26.6571 48.8281 26.4355C48.8368 26.38 48.842 26.3246 48.8506 26.271C48.8749 26.1013 48.8957 25.9298 48.9164 25.7601C48.9251 25.6805 48.9338 25.6008 48.9424 25.5212C48.9511 25.4398 48.9615 25.3567 48.9701 25.2753C55.4739 25.1766 61.7664 27.7134 66.3776 32.3245C66.7724 32.7193 67.1516 33.1262 67.517 33.5453C60.7448 31.0553 53.1969 31.4258 46.655 34.6569V34.6587Z" fill="#F3F6FF"/>
<path d="M37.4711 34.5546L37.4434 34.5269C37.0226 34.1061 36.6607 33.6507 36.3525 33.171C36.2243 32.9719 36.1066 32.7676 35.9975 32.5615C35.8884 32.7676 35.7689 32.9719 35.6425 33.171C35.3343 33.6524 34.9707 34.1061 34.5516 34.5269L34.5239 34.5546C34.1032 34.9719 33.6478 35.3372 33.1681 35.6437C32.969 35.7719 32.7647 35.8913 32.5586 36.0004C32.7647 36.1095 32.969 36.2273 33.1681 36.3554C33.6495 36.6619 34.1032 37.0255 34.5239 37.4446L34.5516 37.4723C34.9707 37.893 35.336 38.3484 35.6425 38.8281C35.7707 39.0272 35.8901 39.2315 35.9975 39.4376C36.1066 39.2315 36.2261 39.0272 36.3525 38.8281C36.659 38.3484 37.0243 37.8913 37.4434 37.4723L37.4711 37.4446C37.8918 37.0255 38.3472 36.6619 38.8269 36.3554C39.026 36.2273 39.2303 36.1078 39.4364 36.0004C39.2286 35.8913 39.0243 35.7719 38.8269 35.6437C38.3455 35.3372 37.8901 34.9719 37.4711 34.5546Z" fill="#F3F6FF"/>
</g>
<defs>
<clipPath id="clip0_2816_1021">
<rect width="231.731" height="72" fill="white"/>
</clipPath>
</defs>
</svg>
