<svg width="216" height="72" viewBox="0 0 216 72" fill="none" xmlns="http://www.w3.org/2000/svg">
<g clip-path="url(#clip0_2816_1033)">
<path d="M76.2998 39.2767V38.5527H91.8988C93.1797 38.5527 93.96 38.9429 94.4065 39.4435C94.853 40.0006 95.0199 40.7245 95.0199 41.5048V44.2357H94.296C94.296 41.2837 92.6249 40.0006 89.727 40.0006H82.93V49.5286H92.7918V50.9764H82.93V61.2284H89.2805C92.6227 61.2284 94.4065 60.1143 95.5206 57.2165L96.2445 57.3834L94.9635 60.8382C94.5734 62.0087 93.6826 62.6762 92.2326 62.6762H79.642V42.9526C79.642 40.7245 79.2518 39.2745 77.0801 39.2745H76.2998V39.2767Z" fill="#F3F6FF"/>
<path d="M112.07 58.2738C112.07 59.8344 111.402 61.0048 110.232 61.7829C109.118 62.6195 107.446 63.0638 105.663 63.0638C102.765 63.0638 100.927 62.5068 100.036 61.5596C99.0889 60.6688 99.0889 59.609 99.0889 57.7146H99.8128C100.203 60.1096 101.818 61.5596 104.939 61.5596C107.724 61.5596 108.951 60.5019 108.951 58.9977C108.951 57.4935 107.893 56.6569 105.663 55.7098L103.491 54.8189C100.706 53.7049 99.0889 52.257 99.0889 49.8599C99.0889 48.2993 99.7564 47.1289 100.816 46.3508C101.874 45.5142 103.378 45.124 105.106 45.124C107.891 45.124 109.675 45.6811 110.622 46.5719C111.513 47.519 111.513 48.5767 111.513 50.4169H110.789C110.399 48.0761 108.784 46.5719 105.886 46.5719C103.491 46.5719 102.21 47.6859 102.21 49.1338C102.21 50.4147 103.268 51.4746 105.108 52.2527L107.336 53.1435C110.457 54.4245 112.072 55.7618 112.072 58.2695L112.07 58.2738Z" fill="#F3F6FF"/>
<path d="M116.972 46.964H114.41V45.5161H116.972V42.2281L118.756 40H120.26V45.5161H124.606V46.964H120.26V58.2736C120.26 60.5017 121.097 61.5616 122.822 61.5616C124.103 61.5616 124.827 61.2278 125.553 60.8377L125.887 61.5616C125.497 61.8954 125.05 62.2292 124.326 62.5088C123.546 62.8425 122.599 63.0658 121.318 63.0658C118.756 63.0658 116.972 61.6179 116.972 58.2736V46.964Z" fill="#F3F6FF"/>
<path d="M132.462 62.676H129.174V49.8621C129.174 47.6903 128.841 46.2403 126.613 46.2403H125.889V45.5164H129.177C130.458 45.5164 131.294 45.627 131.795 46.2967C132.296 46.9643 132.462 48.0805 132.462 49.8621V62.676ZM132.239 41.6714C132.239 42.6749 131.572 43.2861 130.568 43.2861C129.454 43.2861 128.507 42.2284 128.507 40.9453C128.507 39.9418 129.174 39.3306 130.178 39.3306C131.348 39.3306 132.239 40.3883 132.239 41.6714Z" fill="#F3F6FF"/>
<path d="M151.517 62.676H149.679L148.398 61.0049H148.175C147.785 61.4514 147.338 62.0084 146.558 62.3985C145.778 62.7887 144.72 63.0661 143.27 63.0661C141.098 63.0661 139.425 62.0084 138.311 60.3915C137.253 58.7767 136.696 56.5465 136.696 54.0951C136.696 51.6437 137.253 49.3593 138.424 47.7445C139.538 46.1298 141.265 45.1263 143.606 45.1263C145.667 45.1263 147.061 45.6833 148.175 46.2403V42.9523C148.175 40.7242 147.841 39.2742 145.667 39.2742H144.887V38.5503H148.175C149.456 38.5503 150.347 38.7172 150.85 39.3306C151.35 39.9981 151.517 41.1685 151.517 42.9523V62.676ZM148.175 47.6882C147.061 47.1311 145.834 46.5741 144.72 46.5741C143.105 46.5741 141.935 47.4107 141.211 48.7459C140.487 50.0832 140.153 51.9775 140.153 54.0951C140.153 56.2127 140.433 58.0507 141.211 59.388C141.879 60.7253 142.882 61.5597 144.386 61.5597C145.444 61.5597 146.224 61.3365 146.838 60.8922C147.451 60.502 147.785 59.945 148.175 59.388V47.6882Z" fill="#F3F6FF"/>
<path d="M169.29 62.6761H167.452L166.171 61.0051H166.004C165.224 61.9522 163.663 63.0663 160.878 63.0663C159.82 63.0663 158.537 62.7325 157.479 62.0086C156.422 61.2283 155.585 59.9473 155.585 57.9425C155.585 55.9376 156.643 54.6545 158.37 53.8764C160.098 53.0983 162.382 52.8187 164.89 52.8187H166.004C166.004 50.311 165.557 48.6962 164.89 47.7491C164.166 46.9124 163.219 46.5786 162.159 46.5786C160.098 46.5786 158.65 47.3026 158.147 49.6976H156.476C156.476 48.4166 156.476 47.3026 157.367 46.4096C157.813 45.9631 158.648 45.6293 159.651 45.4061C160.655 45.2392 161.712 45.1265 162.883 45.1265C164.497 45.1265 166.114 45.4061 167.339 46.4638C168.509 47.5778 169.29 49.5285 169.29 52.8143V62.6761ZM166.002 54.2643H164.888C161.209 54.2643 159.038 55.7122 159.038 57.9425C159.038 59.1129 159.484 59.9474 160.095 60.5607C160.709 61.1178 161.6 61.3974 162.49 61.3974C164.274 61.3974 165.221 60.3397 165.999 59.2256V54.2665L166.002 54.2643Z" fill="#F3F6FF"/>
<path d="M178.204 46.9644C179.151 46.0736 180.766 45.1265 182.94 45.1265C184.834 45.1265 186.449 45.6271 187.342 47.6884C188.623 46.0736 190.797 45.1265 192.858 45.1265C194.195 45.1265 195.476 45.4061 196.424 46.4074C197.314 47.4109 197.928 49.082 197.928 51.7003V62.6761H194.64V51.7003C194.64 48.0785 193.582 46.7976 191.742 46.7976C191.018 46.7976 190.238 47.1313 189.514 47.5215C188.846 48.0222 188.233 48.5792 187.897 49.1362C188.064 49.6932 188.064 50.9742 188.064 51.6981V62.674H184.776V51.6981C184.776 48.0763 183.718 46.7954 181.878 46.7954C180.374 46.7954 179.147 47.6862 178.2 48.6897V62.674H174.912V49.8601C174.912 47.6884 174.578 46.2384 172.35 46.2384H171.626V45.5144H174.914C176.808 45.5144 177.645 46.0715 178.035 46.9623H178.202L178.204 46.9644Z" fill="#F3F6FF"/>
<path d="M215.587 62.6761H213.749L212.469 61.0051H212.302C211.521 61.9522 209.961 63.0663 207.176 63.0663C206.118 63.0663 204.835 62.7325 203.777 62.0086C202.719 61.2283 201.883 59.9473 201.883 57.9425C201.883 55.9376 202.941 54.6545 204.668 53.8764C206.395 53.0961 208.68 52.8187 211.185 52.8187H212.299C212.299 50.311 211.853 48.6962 211.185 47.7491C210.461 46.9124 209.514 46.5786 208.454 46.5786C206.393 46.5786 204.945 47.3026 204.443 49.6976H202.771C202.771 48.4166 202.771 47.3026 203.662 46.4096C204.109 45.9631 204.943 45.6293 205.947 45.4061C206.95 45.2392 208.008 45.1265 209.178 45.1265C210.795 45.1265 212.41 45.4061 213.635 46.4638C214.805 47.5778 215.585 49.5285 215.585 52.8143V62.6761H215.587ZM212.302 54.2643H211.188C207.512 54.2643 205.338 55.7122 205.338 57.9425C205.338 59.1129 205.784 59.9474 206.395 60.5607C207.009 61.1178 207.9 61.3974 208.79 61.3974C210.574 61.3974 211.521 60.3397 212.299 59.2256V54.2665L212.302 54.2643Z" fill="#F3F6FF"/>
<path d="M94.7236 16.9844C93.3061 16.9844 93.0611 17.8644 93.0611 19.1865V29.653H97.4155V30.8754H85.3819C83.4247 30.8256 81.4199 30.093 79.855 28.8207C78.2901 27.5484 77.2129 25.7885 77.2129 23.6362C77.2129 19.284 81.2248 16.4945 87.5342 16.4945H95.2134V16.9844H94.7236ZM89.3917 18.2545C87.4843 17.6671 85.3321 17.7647 83.6198 18.6945C81.9075 19.6243 80.735 21.2867 80.735 23.6839C80.735 25.3962 81.2248 26.8137 82.0549 27.8909C82.8374 28.9659 84.0121 29.6508 85.3819 29.6508H89.3938V18.2545H89.3917ZM84.9398 11.9451C84.9398 12.9226 84.1573 13.7549 83.13 13.7549C82.1026 13.7549 81.3202 12.9226 81.3202 11.9451C81.3202 10.9177 82.1026 10.0854 83.13 10.0854C84.1573 10.0854 84.9398 10.9177 84.9398 11.9451ZM89.5369 11.9451C89.5369 12.9226 88.7046 13.7549 87.6772 13.7549C86.6499 13.7549 85.8674 12.9226 85.8674 11.9451C85.8674 10.9177 86.6997 10.0854 87.6772 10.0854C88.7046 10.0854 89.5369 10.9177 89.5369 11.9451Z" fill="#F3F6FF"/>
<path d="M115.609 18.794C117.126 20.3112 117.908 22.3638 117.908 24.8585C117.908 27.3532 117.076 29.4556 115.511 30.8753C113.946 32.3925 111.697 33.125 108.957 33.125C106.412 33.125 104.26 32.1952 102.893 30.8254C102.305 30.238 101.865 29.603 101.523 28.9657C101.083 29.798 100.445 30.3356 99.663 30.5805C99.223 30.7279 98.7831 30.8254 98.2932 30.8731H95.4561V29.6507H96.9733C97.9508 29.6507 98.7831 29.4556 99.4181 28.8184C100.053 28.1833 100.445 27.1061 100.593 25.3938V24.8064C100.593 22.2142 101.328 20.3069 103.038 18.742C104.455 17.3245 106.755 16.4922 109.445 16.4922C111.989 16.4922 114.239 17.422 115.609 18.7918V18.794ZM105.63 19.5764C104.798 20.7989 104.31 22.1188 104.31 24.3209C104.31 26.8157 104.897 28.2332 105.827 29.6528C106.757 31.0226 107.93 31.7075 109.447 31.7075C110.964 31.7075 112.186 31.1202 113.066 29.8977C113.996 28.723 114.241 27.4529 114.241 25.3006C114.241 22.8059 113.849 21.2887 112.921 19.9211C111.991 18.5036 110.819 17.8187 109.302 17.8187C107.784 17.8187 106.514 18.406 105.632 19.5786L105.63 19.5764Z" fill="#F3F6FF"/>
<path d="M126.125 10.1852C124.218 10.1852 124.023 11.0651 124.023 12.3873V30.8776H120.354V9.69531L126.125 9.74516V10.1852Z" fill="#F3F6FF"/>
<path d="M138.059 18.3044C139.378 19.6742 140.113 21.5317 140.113 23.5387V24.6636C140.261 27.9906 141.923 29.653 144.81 29.653H145.543V30.8755H142.803C141.483 30.8256 140.798 30.533 139.771 29.7007C139.233 29.3084 138.841 28.8684 138.498 28.2334C137.179 29.8481 135.124 30.8755 132.434 30.8755H126.612V29.653H131.797C133.362 29.653 134.536 29.018 135.319 27.8931C136.101 26.7682 136.444 25.251 136.444 23.5387C136.444 20.0167 134.927 17.7669 131.747 17.7669C129.447 17.7669 127.785 18.5493 127.59 21.1416H126.955C126.955 18.8419 126.955 17.9619 127.787 17.2293C128.57 16.4469 130.134 16.1543 132.434 16.1543C134.734 16.1543 136.739 16.9866 138.059 18.3066V18.3044Z" fill="#F3F6FF"/>
<path d="M143.588 30.8753V29.6528H151.17V30.8753H143.588Z" fill="#F3F6FF"/>
<path d="M149.213 30.8753V29.6528H156.795V30.8753H149.213Z" fill="#F3F6FF"/>
<path d="M164.524 17.0819C163.106 17.0819 162.862 17.9619 162.862 19.284V29.653H169.416V30.8754H154.84V29.653H159.192V16.5921H165.014V17.0819H164.524ZM160.562 11.9451C160.562 12.9226 159.779 13.7549 158.752 13.7549C157.725 13.7549 156.942 12.9226 156.942 11.9451C156.942 10.9177 157.725 10.0854 158.752 10.0854C159.779 10.0854 160.562 10.9177 160.562 11.9451ZM165.159 11.9451C165.159 12.9226 164.327 13.7549 163.299 13.7549C162.272 13.7549 161.49 12.9226 161.49 11.9451C161.49 10.9177 162.322 10.0854 163.299 10.0854C164.327 10.0854 165.159 10.9177 165.159 11.9451Z" fill="#F3F6FF"/>
<path d="M167.458 30.8753V29.6528H175.04V30.8753H167.458Z" fill="#F3F6FF"/>
<path d="M173.083 30.8753V29.6528H180.665V30.8753H173.083Z" fill="#F3F6FF"/>
<path d="M207.176 16.934C205.659 16.934 205.514 17.814 205.514 19.1361V24.7129C205.514 26.4252 204.879 27.8925 203.754 29.0174C202.629 30.1922 201.064 30.8771 199.254 30.8771C198.472 30.8771 197.494 30.682 196.612 30.2897C195.732 29.8974 194.9 29.3122 194.655 28.3824C193.725 29.9473 192.063 30.7297 190.35 30.7796C188.59 30.8294 186.78 30.1445 185.753 28.7248C184.578 29.8996 183.308 30.8771 181.351 30.8771H178.709V29.6547H179.394C180.421 29.6547 181.496 29.3122 182.329 28.5298C183.111 27.7473 183.649 26.5249 183.796 24.7151V17.426H189.568V17.9159H189.128C187.611 17.9159 187.368 18.7958 187.368 20.118V26.9649C187.368 28.4821 188.59 29.7045 190.107 29.7045C191.625 29.7045 192.652 28.4821 192.797 26.9649V16.9384H198.619V17.4282H198.129C196.712 17.4282 196.467 17.7706 196.467 19.0906V27.2597C196.614 28.5796 197.739 29.607 199.109 29.607C200.626 29.607 201.848 28.4322 201.848 26.9172V16.4507H207.62V16.9405H207.18L207.176 16.934Z" fill="#F3F6FF"/>
<path d="M215.588 10.1852C213.681 10.1852 213.486 11.0651 213.486 12.3873V30.8776H209.816V9.69531L215.588 9.74516V10.1852Z" fill="#F3F6FF"/>
<path d="M25.8696 47.7661C25.8675 47.9113 25.8675 48.0544 25.8675 48.1996C25.8675 48.3448 25.8675 48.4878 25.8696 48.6331V48.6677C25.8588 49.292 25.8241 49.9118 25.7656 50.5231C25.616 52.1291 25.3061 53.6875 24.8553 55.1852C23.7976 55.079 22.7464 54.9468 21.7038 54.7821C21.1685 54.6997 20.6374 54.6087 20.1064 54.5111C18.9837 54.3052 17.8718 54.0625 16.7751 53.7894C16.3351 53.6832 15.8994 53.5683 15.4638 53.4491C14.2457 53.1175 13.0493 52.7468 11.8659 52.3372H11.8637C11.5581 52.231 11.2525 52.1226 10.949 52.0121C9.61174 51.5222 8.29611 50.9869 7.00649 50.4017C6.86343 50.3367 6.72038 50.2716 6.5795 50.2044C5.20535 49.5694 3.86154 48.8823 2.55025 48.1432C2.42454 47.2632 2.34001 46.3746 2.29883 45.4729V45.4686V45.4599C2.3075 45.2692 2.31617 45.0806 2.327 44.8942C2.34001 44.6948 2.35085 44.4954 2.36385 44.296C2.37902 44.088 2.3942 43.8821 2.40937 43.6761C2.42454 43.4724 2.44188 43.273 2.45922 43.0693C2.47439 42.9176 2.48739 42.7637 2.50473 42.6098C3.01191 42.9327 3.52776 43.2492 4.05011 43.5526C4.05011 43.5526 4.05083 43.5533 4.05228 43.5548L4.05661 43.5591C4.05878 43.5591 4.06095 43.5591 4.06095 43.5613C4.26035 43.6783 4.45976 43.7932 4.65916 43.9059C4.66349 43.9102 4.66783 43.9102 4.67216 43.9146C4.67433 43.9167 4.68083 43.9189 4.683 43.9211C4.683 43.9211 4.68517 43.9211 4.68517 43.9232C4.68517 43.9232 4.68661 43.924 4.6895 43.9254C4.6895 43.9254 4.69167 43.9254 4.69384 43.9254C4.69601 43.9254 4.69601 43.9276 4.69817 43.9276C5.46761 44.3632 6.25005 44.7837 7.0455 45.1825C8.53886 45.9324 10.0712 46.613 11.6426 47.2199C11.66 47.2286 11.6773 47.2351 11.6968 47.2416C13.2335 47.8354 14.8049 48.3578 16.4088 48.8065C16.4088 48.8086 16.4153 48.8086 16.4175 48.8086C17.9455 49.2356 19.4974 49.5954 21.0774 49.8815C21.1099 49.8902 21.1446 49.8945 21.1793 49.901C21.1598 49.487 21.149 49.0709 21.1446 48.6547V48.5962C21.1446 48.4727 21.1468 48.3535 21.1468 48.2299C21.1468 48.1302 21.1446 48.0283 21.1425 47.9265V47.8463C21.1251 46.8883 21.0363 45.9498 20.8845 45.0286C20.735 44.1248 20.5226 43.247 20.2516 42.393C20.2451 42.3692 20.2365 42.3432 20.2278 42.3172C19.9482 41.4372 19.6058 40.5876 19.2091 39.7683H19.2069C18.7951 38.9186 18.3248 38.1059 17.7981 37.3343C16.7556 35.8019 15.5006 34.4277 14.0745 33.253C13.4047 32.7025 12.6982 32.1974 11.9612 31.7401C11.9591 31.7379 11.9547 31.7379 11.9547 31.7358C11.9504 31.7358 11.9504 31.7336 11.9461 31.7314C11.9396 31.7271 11.9331 31.7228 11.9265 31.7184C11.9222 31.7184 11.92 31.7141 11.9157 31.7119C11.6058 31.519 11.2893 31.337 10.9664 31.1636C10.9577 31.1592 10.9512 31.1549 10.9425 31.1527C10.9404 31.1506 10.9382 31.1506 10.9339 31.1462C10.6153 30.9728 10.2923 30.8125 9.96286 30.6564C8.63422 30.0539 7.14737 29.538 5.48712 29.1327C5.66268 28.6407 5.84474 28.1487 6.03331 27.661C6.41044 26.6748 6.81792 25.7017 7.24924 24.7437C7.97749 24.9105 8.69058 25.1121 9.38849 25.3484C10.1926 25.615 10.9794 25.9249 11.7445 26.2739C12.2625 26.5079 12.7697 26.7615 13.266 27.0325C13.266 27.0346 13.2704 27.0346 13.2747 27.0368C13.279 27.039 13.2812 27.0411 13.2855 27.0455C13.6301 27.2514 13.9769 27.4508 14.3281 27.6458C14.3302 27.648 14.3346 27.6502 14.3367 27.6502C14.3411 27.6502 14.3432 27.6545 14.3476 27.6545C14.8634 27.9731 15.3641 28.3091 15.8539 28.6624C17.2064 29.6377 18.4548 30.7496 19.5754 31.9785C20.6114 33.1143 21.5434 34.3497 22.3497 35.6718H22.3519C22.5448 35.9904 22.7334 36.3134 22.9133 36.6428C23.6502 37.9866 24.2657 39.4063 24.7361 40.8888C25.2367 42.4537 25.5792 44.0836 25.7504 45.7677C25.8154 46.4245 25.8566 47.0899 25.8696 47.7596V47.7661Z" fill="#F3F6FF"/>
<path d="M39.1649 4.95527C38.0942 5.45811 37.0452 5.99997 36.02 6.57868C36.0157 6.58084 36.0113 6.58301 36.0048 6.58734C36.0048 6.58734 36.0005 6.58951 35.9983 6.59168C35.6884 6.76507 35.3784 6.94497 35.0707 7.1292L35.0555 7.13787C34.9168 7.20723 34.7824 7.27225 34.6415 7.33511C34.6545 7.34378 34.6654 7.35245 34.6784 7.36545C33.2609 8.22592 31.8932 9.15792 30.5776 10.1593C29.262 9.16008 27.89 8.22809 26.4725 7.36979C26.4877 7.35895 26.4985 7.35028 26.5137 7.33728C26.3554 7.26575 26.1972 7.19206 26.0433 7.11186C26.039 7.1097 26.0325 7.10536 26.0282 7.10319C25.7637 6.94497 25.4971 6.79108 25.2284 6.63936C25.2284 6.63936 25.2284 6.63936 25.2262 6.63936C25.2219 6.6372 25.2154 6.63286 25.211 6.63069C24.162 6.03682 23.087 5.48412 21.9902 4.96828C22.233 4.75587 22.4757 4.54996 22.7207 4.34622C23.8087 3.43157 24.9336 2.55809 26.0888 1.72797C26.6264 2.00973 27.1574 2.30017 27.6819 2.60144C27.6862 2.60144 27.6906 2.60578 27.6949 2.61011C27.6949 2.61011 27.6956 2.61011 27.6971 2.61011C27.8705 2.72715 28.0525 2.83336 28.2411 2.92656C28.2498 2.93089 28.2606 2.93523 28.2671 2.94173C28.2714 2.94173 28.2758 2.94606 28.2823 2.94823C29.0604 3.40339 29.8255 3.87806 30.5754 4.37223C31.3037 3.89106 32.0406 3.43157 32.7949 2.98724C32.797 2.98724 32.8035 2.98508 32.8057 2.98291C32.8057 2.98291 32.81 2.98291 32.8122 2.98074C33.0636 2.85937 33.3042 2.72065 33.5318 2.5646C33.5318 2.5646 33.5318 2.5646 33.534 2.5646C33.5361 2.5646 33.5405 2.56026 33.5426 2.55593C34.0433 2.26983 34.5483 1.99239 35.062 1.72363C36.2216 2.55376 37.3486 3.42723 38.441 4.34406C38.6859 4.54563 38.9265 4.75153 39.1671 4.95961L39.1649 4.95527Z" fill="#F3F6FF"/>
<path d="M51.7427 20.398C50.4379 20.7578 49.1699 21.2065 47.9475 21.7397C47.7113 21.8394 47.4793 21.9456 47.2474 22.054C46.7077 22.3075 46.1767 22.5741 45.6587 22.8581C45.6587 22.8581 45.6587 22.8581 45.6565 22.8581C45.6544 22.8581 45.6565 22.8581 45.6544 22.8581C45.6522 22.8581 45.65 22.8602 45.6457 22.8624C45.6392 22.8646 45.6327 22.8689 45.6262 22.8711C45.6262 22.8711 45.624 22.8711 45.6219 22.8732C45.2035 23.1008 44.7917 23.3392 44.3864 23.5885C44.3864 23.5885 44.3864 23.5885 44.3843 23.5885C44.3778 23.5907 44.3713 23.5972 44.3648 23.6015C43.9508 23.8551 43.5433 24.1195 43.1467 24.3948C41.8245 25.3008 40.5804 26.3151 39.4295 27.427C38.2114 28.5996 37.0952 29.8784 36.096 31.2525C36.0613 31.3002 36.0266 31.3457 35.9941 31.3956C34.8953 32.928 33.9416 34.573 33.1548 36.3091C33.1288 36.3633 33.105 36.4197 33.0811 36.4739C32.3962 38.0106 31.8435 39.6123 31.436 41.2726C31.1521 41.2812 30.866 41.2834 30.5799 41.2834C30.2938 41.2834 30.0315 41.2812 29.7606 41.2747C29.3488 39.6123 28.7961 38.0106 28.109 36.476C28.083 36.4197 28.0613 36.3655 28.0353 36.3091C27.2464 34.5709 26.2884 32.928 25.1873 31.3956C25.1548 31.3479 25.1223 31.3002 25.0876 31.2525C24.0884 29.8827 22.9701 28.6018 21.7498 27.4314C20.5989 26.3216 19.3548 25.3094 18.0305 24.4056C17.7075 24.1824 17.3802 23.97 17.0465 23.7597C16.9706 23.712 16.8904 23.6644 16.8124 23.6145C16.8059 23.6123 16.8015 23.6058 16.795 23.6037C16.769 23.5885 16.7474 23.5733 16.7214 23.5582C16.7192 23.5582 16.7148 23.556 16.7127 23.5538C16.704 23.5495 16.6975 23.5452 16.691 23.5386C16.3551 23.3349 16.0169 23.1377 15.6701 22.9513C15.5314 22.8667 15.3905 22.78 15.2518 22.6933C15.3797 22.7757 15.5054 22.8537 15.6355 22.9318C15.0763 22.6218 14.5041 22.3314 13.921 22.0605C13.6913 21.9543 13.4572 21.8481 13.2253 21.7484C12.0007 21.2173 10.7327 20.7687 9.42578 20.4089C9.72489 19.8714 10.0327 19.3403 10.3491 18.8137C10.8715 17.938 11.4176 17.0819 11.9855 16.2387C13.5352 16.7329 15.0351 17.3376 16.4786 18.0442C16.9619 18.2805 17.4409 18.5276 17.9113 18.7855C17.9394 18.8006 17.9698 18.8158 17.998 18.8332C17.998 18.8332 18.0001 18.8332 18.0023 18.8353C18.0088 18.8375 18.0131 18.844 18.0196 18.8462C18.3513 19.0499 18.6894 19.245 19.0318 19.4314C19.0383 19.4335 19.047 19.44 19.0513 19.4422C19.0535 19.4422 19.0578 19.4444 19.06 19.4465C19.578 19.7565 20.0852 20.0816 20.5837 20.4219C21.8928 21.3105 23.1348 22.288 24.303 23.3501C25.4973 24.4295 26.6135 25.5977 27.6387 26.8396C27.669 26.8765 27.7015 26.9155 27.7319 26.9545C28.7788 28.2311 29.7324 29.5879 30.5842 31.0119C31.4339 29.5858 32.3875 28.2311 33.4301 26.9523C33.4604 26.9112 33.4929 26.8743 33.5254 26.8353C34.5506 25.5934 35.6647 24.4251 36.8568 23.3414C38.025 22.2794 39.2648 21.2997 40.5739 20.411C41.0356 20.0968 41.5059 19.7933 41.9849 19.5007C41.9849 19.5007 41.9849 19.5007 41.9871 19.5007C41.9936 19.4986 41.9979 19.4942 42.0044 19.4921C42.0109 19.4899 42.0174 19.4856 42.0239 19.4812C42.4401 19.2558 42.8475 19.0217 43.2485 18.7725C43.2485 18.7725 43.2507 18.7725 43.2529 18.7703C43.2572 18.7703 43.2615 18.766 43.2659 18.7616C43.2659 18.7616 43.2702 18.7595 43.2724 18.7573C43.734 18.5037 44.2022 18.261 44.6769 18.029C46.1204 17.3225 47.6181 16.7134 49.1699 16.2192C49.74 17.0624 50.2883 17.9207 50.8129 18.7963C51.1293 19.323 51.4371 19.8497 51.7362 20.3872L51.7427 20.398Z" fill="#F3F6FF"/>
<path d="M46.2219 12.2464C44.6743 12.8143 43.1788 13.4797 41.7331 14.234C41.4405 14.3835 41.1523 14.5417 40.8662 14.7C40.8662 14.7 40.864 14.7021 40.8618 14.7021C40.8618 14.7021 40.8553 14.7065 40.8531 14.7086C40.8531 14.7086 40.8531 14.7086 40.851 14.7086C40.851 14.7086 40.8466 14.7108 40.8445 14.7108C40.8423 14.7108 40.838 14.7151 40.8358 14.7173C40.4565 14.9275 40.0794 15.1464 39.7087 15.3697C39.7066 15.3697 39.7044 15.3719 39.7001 15.3719C39.6936 15.374 39.6892 15.3784 39.6827 15.3827C39.6827 15.3827 39.6806 15.3827 39.6784 15.3827C38.9935 15.7967 38.3238 16.2302 37.6692 16.6853C37.6562 16.694 37.6454 16.7027 37.6323 16.7113C36.3341 17.613 35.0921 18.5927 33.9174 19.6439C32.955 20.5043 32.0339 21.4147 31.1647 22.3683C30.9697 22.3748 30.7768 22.377 30.5817 22.377C30.3866 22.377 30.2024 22.377 30.0117 22.3705C29.1404 21.4147 28.2192 20.5065 27.2547 19.646C26.0778 18.597 24.838 17.6195 23.5397 16.7157C23.5289 16.707 23.518 16.7005 23.5072 16.694C22.8201 16.2193 22.1179 15.7685 21.4005 15.3393C21.3983 15.3393 21.394 15.3372 21.3918 15.335C21.3853 15.3307 21.3766 15.3263 21.3723 15.322C21.0623 15.1356 20.7481 14.9535 20.4316 14.7758C20.4295 14.7758 20.423 14.7736 20.4208 14.7693C20.4143 14.7671 20.4056 14.7606 20.4013 14.7585C20.4013 14.7585 20.4013 14.7585 20.3991 14.7585C20.3991 14.7585 20.3969 14.7585 20.3948 14.7563C20.0805 14.5807 19.7619 14.4095 19.4411 14.2426C17.9954 13.4905 16.4977 12.8251 14.9502 12.2573C15.0065 12.1857 15.0629 12.1185 15.1193 12.0492C15.1258 12.0405 15.1323 12.034 15.1366 12.0253C15.1409 12.021 15.1453 12.0167 15.1496 12.0102C15.1691 11.9863 15.1864 11.9647 15.2038 11.943C15.2341 11.9061 15.2666 11.8671 15.297 11.8281C15.297 11.8281 15.2977 11.8274 15.2991 11.8259C15.3533 11.7609 15.4054 11.6959 15.4617 11.6309C15.5029 11.5832 15.5419 11.5355 15.5809 11.4878C15.6264 11.4336 15.6741 11.3773 15.7218 11.3209C15.7326 11.3079 15.7435 11.2949 15.7543 11.2798C15.7673 11.2646 15.7782 11.2537 15.7912 11.2386C15.8562 11.1627 15.919 11.0869 15.9862 11.011C16.7253 10.144 17.4904 9.30306 18.2815 8.48377C19.8269 9.12533 21.3246 9.85575 22.7724 10.6664C22.7724 10.6664 22.7876 10.675 22.792 10.6794C22.805 10.688 22.8158 10.6945 22.8288 10.701C23.1149 10.8809 23.4075 11.05 23.7066 11.2104C23.7131 11.2126 23.7218 11.2191 23.7261 11.2212C23.7261 11.2212 23.7261 11.2212 23.7283 11.2212C24.8077 11.8606 25.8567 12.5499 26.8732 13.2803C27.9721 14.0714 29.032 14.9124 30.0485 15.801C30.2306 15.9571 30.4126 16.1196 30.5904 16.2822C30.7703 16.1196 30.9523 15.9592 31.1322 15.801C32.1466 14.9102 33.2065 14.0692 34.3053 13.2781C35.2915 12.565 36.3124 11.891 37.3614 11.2646C37.3614 11.2646 37.3658 11.2646 37.3679 11.2624C37.3744 11.2602 37.3788 11.2559 37.3853 11.2537C37.3874 11.2537 37.3918 11.2516 37.3939 11.2494C37.7386 11.0673 38.0788 10.8723 38.4061 10.6642C38.4256 10.6534 38.4408 10.6425 38.4581 10.6317C38.4668 10.6274 38.4733 10.623 38.4798 10.6187C38.4841 10.6165 38.4906 10.6122 38.495 10.61C38.4972 10.61 38.4993 10.6078 38.5037 10.6057C38.5037 10.6057 38.5058 10.6057 38.508 10.6035C39.9212 9.81457 41.3842 9.10365 42.8905 8.4751C43.6838 9.29439 44.4533 10.1375 45.1945 11.0023C45.3701 11.2082 45.5435 11.4141 45.7147 11.62C45.7645 11.6807 45.8166 11.7414 45.8664 11.8043C45.8837 11.8259 45.8989 11.8476 45.9184 11.8671C45.9358 11.8888 45.9531 11.9105 45.9704 11.9321C46.0571 12.0362 46.1417 12.1402 46.224 12.2443L46.2219 12.2464Z" fill="#F3F6FF"/>
<path d="M41.0899 70.4548C40.0734 70.8601 39.0265 71.2091 37.9558 71.4973C37.2319 71.6902 36.4971 71.8571 35.7537 71.9937C34.9821 71.2264 34.2473 70.4223 33.5538 69.5835C32.47 68.2722 31.4817 66.8764 30.606 65.409C29.7304 66.8785 28.7442 68.2744 27.6627 69.5878C26.9713 70.4266 26.2365 71.2329 25.4671 72.0002C24.7236 71.8658 23.9889 71.6989 23.265 71.5082C22.1943 71.2221 21.1474 70.8731 20.1309 70.47C20.6966 70.0061 21.2428 69.5185 21.7694 69.0091C22.9875 67.8365 24.1038 66.5534 25.1008 65.1814C26.2452 63.6079 27.2357 61.9151 28.0463 60.1227C28.7204 58.6336 29.2731 57.0752 29.6892 55.4648C29.984 55.4713 30.2809 55.4735 30.5779 55.4735C30.8921 55.4735 31.2064 55.4713 31.5185 55.4648C31.9347 57.0752 32.4874 58.6336 33.1636 60.1205C33.9764 61.9129 34.9691 63.6057 36.1135 65.1771C37.1127 66.5491 38.2311 67.8279 39.4513 68.9983C39.978 69.5076 40.5264 69.9953 41.0921 70.4591L41.0899 70.4548Z" fill="#F3F6FF"/>
<path d="M19.5941 64.4639C18.4735 65.695 17.2273 66.8091 15.877 67.7866C15.7383 67.8863 15.5995 67.9838 15.4587 68.0792C14.0347 67.1775 12.6995 66.1545 11.4619 65.0209C12.3896 64.4834 13.2674 63.8744 14.0888 63.1938C15.5128 62.019 16.7678 60.6427 17.8081 59.1104C18.2872 60.944 18.8854 62.7321 19.5919 64.4617L19.5941 64.4639Z" fill="#F3F6FF"/>
<path d="M58.7287 43.0415C58.7157 42.8876 58.7005 42.7381 58.6853 42.5863C58.5466 41.158 58.3537 39.747 58.1109 38.3533C58.0568 38.0347 57.9982 37.7205 57.9397 37.404C57.905 37.2328 57.8725 37.0637 57.8379 36.8925C57.814 36.7733 57.7902 36.6519 57.762 36.5305C57.7577 36.5002 57.749 36.4699 57.7447 36.4373C57.7425 36.433 57.7425 36.4265 57.7403 36.4222C57.7403 36.4135 57.7382 36.4048 57.7338 36.3962C57.7165 36.3138 57.6991 36.2271 57.6818 36.1447C57.671 36.1014 57.6623 36.058 57.6536 36.0125C57.6341 35.928 57.6146 35.8435 57.5973 35.7589C57.5973 35.7568 57.5951 35.7546 57.5951 35.7503C57.5583 35.5855 57.5214 35.4208 57.4824 35.2561C57.4781 35.2388 57.4737 35.2214 57.4694 35.2019C57.4607 35.1672 57.4542 35.1304 57.4434 35.0957C57.4369 35.061 57.4282 35.0285 57.4217 34.9938C57.4217 34.9917 57.4195 34.9895 57.4195 34.9873C57.4195 34.9852 57.4174 34.983 57.4174 34.983V34.9765V34.97C57.4174 34.97 57.4152 34.9657 57.4152 34.9635C57.4152 34.9613 57.4152 34.9613 57.413 34.9613V34.957C57.413 34.957 57.413 34.9527 57.4109 34.9505V34.9461C57.4065 34.931 57.4044 34.918 57.4 34.9028C57.4 34.8963 57.3979 34.8898 57.3957 34.8811C57.3784 34.8074 57.361 34.7316 57.3415 34.6557C57.3393 34.6492 57.3393 34.6427 57.3372 34.6362C57.3047 34.5062 57.2722 34.3739 57.2396 34.2439C57.2353 34.2309 57.2331 34.2157 57.231 34.2049C57.1898 34.0445 57.1486 33.8841 57.1053 33.7259C56.9926 33.2859 56.8734 32.8524 56.7476 32.4189C56.4355 31.32 56.0887 30.2385 55.7116 29.1699C55.5295 28.6584 55.341 28.1513 55.1459 27.6462C54.7644 26.6557 54.357 25.6804 53.9235 24.7202C53.1974 24.8893 52.4843 25.093 51.7864 25.3249C50.9801 25.5937 50.1933 25.908 49.4282 26.2569C48.9492 26.4737 48.4789 26.7077 48.0194 26.9548C48.0194 26.9548 48.0151 26.9613 48.0107 26.9613C48.0107 26.9613 48.0086 26.9628 48.0042 26.9657H48.0021C47.9999 26.9678 47.9977 26.9678 47.9977 26.9678C47.5881 27.2171 47.1741 27.4555 46.7558 27.6874C46.7536 27.6896 46.7493 27.6896 46.7471 27.6918C46.7406 27.6961 46.7363 27.6983 46.7298 27.7004H46.7276C46.2486 27.9995 45.7804 28.3138 45.3253 28.6454C43.9728 29.6208 42.7265 30.7348 41.606 31.9681C40.5699 33.106 39.6401 34.3436 38.8338 35.6657L38.8317 35.6679C38.6388 35.9865 38.4524 36.3095 38.2725 36.6367C37.5355 37.9805 36.9265 39.4024 36.454 40.8871C35.9555 42.452 35.6152 44.084 35.4461 45.7681C35.3811 46.4162 35.3421 47.0707 35.3291 47.734V47.7622C35.3313 47.9182 35.3334 48.0743 35.3334 48.2303C35.3334 48.3755 35.3313 48.5186 35.3291 48.666C35.3399 49.288 35.3768 49.9057 35.4353 50.5191C35.5892 52.123 35.8991 53.6814 36.3521 55.1791C36.8376 56.7917 37.49 58.3327 38.2855 59.7827C39.211 61.4712 40.3359 63.0382 41.6255 64.4492C42.746 65.6803 43.9945 66.7922 45.347 67.7675C45.4857 67.8672 45.6266 67.9669 45.7674 68.0623C47.1893 67.1585 48.5244 66.1333 49.7598 64.9997C48.8322 64.4644 47.9522 63.851 47.1286 63.1748C45.7024 62.0022 44.4453 60.628 43.4028 59.0956C42.4426 57.6868 41.6645 56.1436 41.0988 54.5007C42.2237 54.2926 43.3334 54.0499 44.4323 53.7746C44.8723 53.6662 45.3079 53.5535 45.7414 53.4343C46.9574 53.1005 48.1559 52.7299 49.3394 52.3181C49.645 52.2119 49.9527 52.1035 50.2562 51.9908C51.5935 51.501 52.907 50.9635 54.1966 50.3782C54.3396 50.3132 54.4827 50.2482 54.6236 50.181C55.9977 49.546 57.3415 48.8545 58.6528 48.1133C58.7764 47.2441 58.8587 46.3663 58.8999 45.4755C58.8631 44.6584 58.8067 43.8478 58.733 43.0393L58.7287 43.0415ZM54.1467 45.1634C52.6534 45.9177 51.121 46.5983 49.5518 47.2073C49.5344 47.2138 49.5171 47.2225 49.4976 47.2268C47.9609 47.8228 46.3895 48.3474 44.7878 48.796C44.7856 48.7982 44.7813 48.7982 44.7791 48.7982C43.2532 49.2252 41.6992 49.5871 40.1213 49.8776C40.0866 49.8841 40.0541 49.8906 40.0194 49.8949C40.0368 49.4701 40.0476 49.0431 40.0541 48.614V48.5836C40.0498 48.4557 40.0476 48.3279 40.0476 48.2C40.0476 48.0894 40.0498 47.9767 40.0519 47.8662V47.8337C40.0693 46.8778 40.156 45.9394 40.3077 45.0225L40.3099 45.0204C40.6133 43.165 41.1833 41.3986 41.9744 39.7622H41.9766C42.3884 38.9104 42.8609 38.0954 43.3854 37.3217C44.428 35.7893 45.6807 34.413 47.1069 33.2382C47.7463 32.7094 48.4204 32.2217 49.1248 31.7795C49.1291 31.7774 49.1356 31.773 49.1421 31.7687C49.1421 31.7665 49.1465 31.7665 49.1465 31.7665C49.1486 31.7644 49.1508 31.7644 49.153 31.7622C49.153 31.76 49.1573 31.76 49.1595 31.7579H49.1616C49.5258 31.5281 49.8964 31.3114 50.2757 31.1098C50.2757 31.1076 50.28 31.1076 50.2844 31.1055C50.2887 31.1033 50.293 31.1011 50.2974 31.0968C50.2995 31.0946 50.3039 31.0946 50.306 31.0925C50.3125 31.0903 50.3147 31.0881 50.319 31.086C50.3212 31.086 50.3234 31.086 50.3234 31.086C50.6138 30.9126 50.8977 30.7348 51.1817 30.5528C51.1925 30.5831 51.2034 30.6091 51.212 30.6395C51.7452 32.1372 52.2134 33.6674 52.61 35.2236V35.2279C53.0175 36.8253 53.3534 38.4487 53.6092 40.1025C53.6092 40.1198 53.6135 40.135 53.6179 40.1501C53.8715 41.7974 54.0492 43.4706 54.1467 45.1634Z" fill="#F3F6FF"/>
<path d="M3.6998 7.4798C4.84854 7.4798 5.75236 7.12217 6.40909 6.40475C7.06799 5.68733 7.39744 4.79869 7.39744 3.74098C7.39744 2.68328 7.06799 1.78596 6.40909 1.07071C5.75019 0.357626 4.84637 0 3.6998 0C2.55323 0 1.65592 0.357626 0.99485 1.07071C0.331617 1.78379 0 2.67461 0 3.74098C0 4.80736 0.331617 5.68733 0.99485 6.40475C1.65592 7.12217 2.55973 7.4798 3.6998 7.4798ZM1.37415 1.38282C1.93985 0.760768 2.71579 0.450825 3.6998 0.450825C4.68382 0.450825 5.46192 0.762935 6.03196 1.38282C6.60199 2.00487 6.88809 2.78948 6.88809 3.73882C6.88809 4.68815 6.60416 5.46409 6.03196 6.08614C5.46192 6.70819 4.68382 7.01814 3.6998 7.01814C2.71579 7.01814 1.93985 6.70603 1.37415 6.08614C0.806284 5.46409 0.524518 4.68165 0.524518 3.73882C0.524518 2.79598 0.808451 2.0027 1.37415 1.38282Z" fill="#F3F6FF"/>
<path d="M2.82025 4.17039H3.66988L4.95083 5.64641H5.48402V5.56404L4.25292 4.17039C4.62138 4.1227 4.90749 3.96882 5.10906 3.70439C5.31063 3.44213 5.40383 3.16253 5.39082 2.86993C5.37565 2.57516 5.25211 2.31073 5.02236 2.07448C4.79044 1.83823 4.47617 1.72119 4.07953 1.72119H2.33691V5.64641H2.82025V4.17039ZM2.82025 2.19369H4.07953C4.29194 2.19369 4.4675 2.24571 4.60838 2.35191C4.7471 2.45812 4.83379 2.586 4.86847 2.73772C4.90315 2.88727 4.90098 3.03899 4.86414 3.19288C4.82729 3.34676 4.73409 3.47681 4.58671 3.58301C4.44149 3.68922 4.26159 3.74124 4.04918 3.74124H2.82025V2.19369Z" fill="#F3F6FF"/>
</g>
<defs>
<clipPath id="clip0_2816_1033">
<rect width="215.588" height="72" fill="white"/>
</clipPath>
</defs>
</svg>
