<svg width="351" height="72" viewBox="0 0 351 72" fill="none" xmlns="http://www.w3.org/2000/svg">
<g clip-path="url(#clip0_2816_971)">
<path d="M276.472 16.7456V56.8166H271.684V24.1328L254.858 48.3125H251.369L234.543 24.2378V56.8166H229.755V16.7456H234.814L253.078 43.4246L271.341 16.7456H276.472Z" fill="#F3F6FF"/>
<path d="M312.999 44.7744H283.937C284.064 46.8368 284.705 48.5951 285.861 50.0604C287.017 51.5257 288.532 52.626 290.417 53.378C292.297 54.1245 294.354 54.5005 296.577 54.5005C299.485 54.5005 301.935 53.9531 303.92 52.8527C305.91 51.7579 307.221 50.2761 307.868 48.4182H312.617C311.76 51.0778 309.936 53.2453 307.132 54.9262C304.329 56.6071 300.812 57.4421 296.582 57.4421C293.287 57.4421 290.34 56.867 287.73 55.7224C285.12 54.5779 283.08 52.9467 281.603 50.8345C280.127 48.7223 279.392 46.2562 279.392 43.4307C279.392 40.6053 280.116 38.1281 281.576 36.0049C283.03 33.8761 285.059 32.2504 287.669 31.1169C290.279 29.989 293.248 29.4194 296.588 29.4194C299.928 29.4194 302.841 29.9834 305.346 31.1169C307.845 32.2449 309.775 33.7655 311.119 35.6786C312.468 37.5918 313.137 39.7095 313.137 42.0374C313.137 43.2317 313.093 44.1496 313.01 44.7799L312.999 44.7744ZM307 36.7458C305.91 35.3192 304.423 34.2355 302.543 33.5056C300.663 32.7757 298.606 32.4108 296.383 32.4108C293.049 32.4108 290.201 33.2402 287.851 34.9045C285.502 36.5689 284.197 38.9078 283.937 41.9323H308.57C308.614 39.903 308.089 38.1779 307 36.7458Z" fill="#F3F6FF"/>
<path d="M318.086 36.0212C319.541 33.909 321.537 32.2834 324.086 31.1333C326.629 29.9887 329.504 29.4136 332.711 29.4136C335.918 29.4136 338.573 29.9942 341.05 31.1609C343.532 32.3221 345.346 33.8371 346.502 35.7005V20.1465H350.991V57.0382H346.502V50.9559C345.434 52.8525 343.682 54.4062 341.243 55.6171C338.805 56.828 335.941 57.4363 332.645 57.4363C329.35 57.4363 326.563 56.8557 324.019 55.689C321.476 54.5278 319.485 52.8801 318.053 50.7513C316.621 48.6225 315.902 46.162 315.902 43.3752C315.902 40.5884 316.627 38.1334 318.086 36.0212ZM344.771 37.6413C343.615 35.9825 342.045 34.6997 340.054 33.8039C338.064 32.9082 335.874 32.4603 333.48 32.4603C331.086 32.4603 328.775 32.8916 326.806 33.7542C324.838 34.6167 323.29 35.8719 322.156 37.5196C321.022 39.1674 320.459 41.1192 320.459 43.3752C320.459 45.6312 321.022 47.5554 322.156 49.2307C323.29 50.9117 324.838 52.1889 326.806 53.0681C328.775 53.9473 330.997 54.3896 333.48 54.3896C335.963 54.3896 338.069 53.9417 340.054 53.046C342.045 52.1502 343.615 50.8674 344.771 49.2086C345.927 47.5443 346.502 45.6201 346.502 43.4249C346.502 41.2298 345.927 39.3056 344.771 37.6413Z" fill="#F3F6FF"/>
<path d="M77.505 0.182468V33.2589H51.6775C50.1957 33.2589 48.8244 34.033 48.0613 35.3047L47.6466 35.9959L47.0329 37.0244C46.961 37.146 46.7841 37.1405 46.7177 37.0188L46.1593 35.9959L45.2193 34.2708C44.8267 33.5575 44.0802 33.1483 43.2674 33.1981C42.4546 33.2478 41.7634 33.751 41.4649 34.503L40.8732 35.9959L38.949 40.8451C38.8827 41.0165 38.6283 40.9889 38.5951 40.8064L37.8487 36.0014L35.9411 23.7098C35.8194 22.9025 35.1891 22.2942 34.3763 22.1947C33.5635 22.0952 32.8115 22.5431 32.4963 23.2951L28.7198 35.161C28.5207 35.6476 28.0452 35.9627 27.5199 35.9627H21.8247C21.8247 35.9627 21.8136 35.9627 21.8081 35.9627C12.3806 35.3932 4.91602 27.5692 4.91602 17.998C4.91602 13.0271 6.92869 8.52622 10.1855 5.26945C13.4533 2.01267 17.9542 0 22.925 0H77.3225C77.4221 0 77.505 0.0829399 77.505 0.182468Z" fill="#F3F6FF"/>
<path d="M72.5779 53.8696C72.6498 63.839 64.2342 72.0003 54.2593 72.0003H0V38.7027H27.5305C29.1672 38.7027 30.6325 37.724 31.2518 36.2089L31.307 36.0099L33.4856 28.3739C33.552 28.1527 33.8727 28.1693 33.9058 28.4015L35.0836 36.0099L36.5157 45.277C36.6428 46.0954 37.2787 46.6981 38.0971 46.7921C38.1634 46.7976 38.2353 46.8031 38.3072 46.8031C39.0426 46.8031 39.695 46.3608 39.9715 45.6641L43.2836 37.3203C43.361 37.1213 43.6374 37.1047 43.737 37.2927L45.0142 39.6261C45.3737 40.2785 46.0538 40.6932 46.7947 40.7043C47.5356 40.7153 48.2323 40.3338 48.6138 39.698L50.4496 36.6402C50.6707 36.2698 51.0744 36.0265 51.5057 36.0099H54.5744C59.5453 36.0099 64.0407 38.0226 67.2974 41.2793C70.5266 44.5085 72.5337 48.954 72.5669 53.8751L72.5779 53.8696Z" fill="#F3F6FF"/>
<path d="M100.54 54.5495C98.0183 52.476 96.4037 49.5509 95.6904 45.7799L103.426 43.6511C103.835 45.6694 104.604 47.1733 105.726 48.1631C106.849 49.1528 108.248 49.6505 109.928 49.6505C110.902 49.6505 111.759 49.4846 112.505 49.1473C113.252 48.81 113.81 48.3566 114.186 47.776C114.556 47.1954 114.744 46.554 114.744 45.8408C114.744 44.5358 114.308 43.524 113.429 42.8162C112.549 42.1085 110.935 41.3233 108.579 40.4607C105.737 39.377 103.498 38.2545 101.856 37.0989C100.213 35.9433 99.0357 34.6605 98.3224 33.2615C97.6146 31.8626 97.2552 30.2094 97.2552 28.3017C97.2552 26.0624 97.7971 24.0718 98.8809 22.3301C99.9646 20.5939 101.496 19.2281 103.476 18.2384C105.455 17.2486 107.661 16.751 110.089 16.751C113.639 16.751 116.553 17.6688 118.831 19.4991C121.109 21.3293 122.624 23.928 123.37 27.2899L115.806 29.4187C115.397 27.8152 114.722 26.6153 113.788 25.8301C112.853 25.045 111.714 24.6524 110.371 24.6524C109.475 24.6524 108.69 24.8017 108.015 25.1003C107.341 25.3988 106.838 25.8191 106.5 26.3609C106.163 26.9028 105.997 27.4889 105.997 28.1248C105.997 28.91 106.185 29.5458 106.556 30.0324C106.926 30.519 107.507 30.9779 108.292 31.4037C109.077 31.835 110.233 32.3271 111.764 32.8911C115.911 34.4227 118.908 36.1589 120.76 38.1052C122.607 40.046 123.536 42.4789 123.536 45.3929C123.536 47.8203 122.956 49.9601 121.8 51.8124C120.639 53.6592 119.024 55.1024 116.951 56.1253C114.877 57.1538 112.511 57.668 109.862 57.668C106.163 57.668 103.05 56.6285 100.529 54.555L100.54 54.5495Z" fill="#F3F6FF"/>
<path d="M167.041 26.6138L159.975 56.8205H150.79L145.598 38.2198L140.423 56.8205H131.172L124.161 26.6138H132.853L135.093 37.7056L136.431 47.8243L138.676 37.7056L141.706 27.0616H149.441L152.521 37.7056L154.76 47.8243L156.11 37.6503L158.404 26.6138H167.041Z" fill="#F3F6FF"/>
<path d="M169.9 22.4062C168.965 21.5491 168.501 20.4101 168.501 18.989C168.501 17.568 168.965 16.4842 169.9 15.6272C170.834 14.7702 172.084 14.3389 173.654 14.3389C175.225 14.3389 176.419 14.7702 177.353 15.6272C178.288 16.4898 178.752 17.6288 178.752 19.0443C178.752 20.4598 178.282 21.5491 177.353 22.4062C176.419 23.2687 175.186 23.6945 173.654 23.6945C172.123 23.6945 170.834 23.2632 169.9 22.4062ZM169.397 26.6084H177.801V56.8152H169.397V26.6084Z" fill="#F3F6FF"/>
<path d="M192.935 25.548V26.6152H198.653V34.0687H193.383V56.8219H184.979V34.0687H180.66V26.6152H184.979V25.266C184.979 21.9097 185.758 19.4547 187.329 17.9231C188.899 16.3915 191.42 15.6284 194.898 15.6284C196.126 15.6284 197.491 15.7169 198.99 15.9049V22.6838C198.31 22.5014 197.508 22.4074 196.579 22.4074C195.352 22.4074 194.434 22.6617 193.837 23.1649C193.239 23.6681 192.935 24.4588 192.935 25.548Z" fill="#F3F6FF"/>
<path d="M212.547 34.0653V46.3404C212.547 47.5679 212.802 48.4084 213.305 48.8341C213.808 49.2654 214.676 49.4811 215.909 49.4811C216.589 49.4811 217.22 49.4258 217.817 49.3152V57.1613C216.434 57.3438 215.185 57.4378 214.062 57.4378C210.734 57.4378 208.251 56.5918 206.603 54.8888C204.961 53.1857 204.143 50.6256 204.143 47.1864V34.0653H199.94V26.7224H200.609C201.948 26.7224 202.943 26.5786 203.584 26.3021C204.215 26.0201 204.662 25.5114 204.922 24.7871C205.182 24.0517 205.315 22.968 205.315 21.5082V20.6069H212.204V26.6063H217.866V34.0598H212.542L212.547 34.0653Z" fill="#F3F6FF"/>
</g>
<defs>
<clipPath id="clip0_2816_971">
<rect width="350.991" height="72.0003" fill="white"/>
</clipPath>
</defs>
</svg>
