<svg width="254" height="72" viewBox="0 0 254 72" fill="none" xmlns="http://www.w3.org/2000/svg">
<path d="M23.9999 0V11.9999L11.9999 23.9999H0V11.9999L11.9999 0H23.9999Z" fill="#F3F6FF"/>
<path d="M47.9999 0V11.9999L35.9999 23.9999H24V11.9999L35.9999 0H47.9999Z" fill="#F3F6FF"/>
<path d="M23.9999 24V35.9999L11.9999 47.9999H0V35.9999L11.9999 24H23.9999Z" fill="#F3F6FF"/>
<path d="M23.9999 48.0005V60.0004L11.9999 72.0003H0V60.0004L11.9999 48.0005H23.9999Z" fill="#F3F6FF"/>
<path d="M47.9999 24V35.9999L35.9999 47.9999H24V35.9999L35.9999 24H47.9999Z" fill="#F3F6FF"/>
<path d="M72.7746 44.2722H65.0107V6.53662H91.5109V13.0065H72.7746V21.5488H89.2876V28.0187H72.7746V44.2722Z" fill="#F3F6FF"/>
<path d="M118.946 30.8663C118.946 39.8715 113.665 45.4612 105.127 45.4612C96.5877 45.4612 91.3066 39.8715 91.3066 30.6559C91.3066 21.4403 96.5351 15.8506 105.074 15.8506C113.613 15.8506 118.946 21.3877 118.946 30.8628V30.8663ZM98.5515 30.6594C98.5515 36.0422 101.192 39.6155 105.127 39.6155C109.061 39.6155 111.702 35.9931 111.702 30.7646C111.702 25.2766 109.114 21.7068 105.127 21.7068C101.139 21.7068 98.5515 25.2766 98.5515 30.6629V30.6594Z" fill="#F3F6FF"/>
<path d="M129.039 15.8535V20.4964C131.827 17.7086 133.489 15.8535 136.803 15.8535C137.115 15.8535 137.269 15.8535 137.683 15.9061V23.2562C136.701 23.1019 136.182 23.0493 135.407 23.0493C131.164 23.0493 129.039 25.1708 129.039 29.4174V44.2718H121.794V15.8535H129.039Z" fill="#F3F6FF"/>
<path d="M146.326 16.3199V19.788C148.707 16.888 150.776 15.8535 153.989 15.8535C157.457 15.8535 160.252 17.3544 161.598 19.9949C163.772 17.0949 166.206 15.8535 169.776 15.8535C175.365 15.8535 178.679 19.0621 178.679 24.4975V44.2718H171.434V25.6372C171.434 23.4105 169.934 22.0148 167.5 22.0148C164.393 22.0148 162.531 24.0837 162.531 27.5028V44.2718H155.286V25.6372C155.286 23.4105 153.785 22.0148 151.352 22.0148C148.245 22.0148 146.383 24.0346 146.383 27.5028V44.2718H139.138V16.3199H146.333H146.326Z" fill="#F3F6FF"/>
<path d="M200.211 44.2718V40.958C198.142 44.114 195.604 45.4606 191.827 45.4606C185.823 45.4606 182.457 41.9925 182.457 35.7821V15.8535H189.702V34.2812C189.702 37.6441 191.255 39.3028 194.359 39.3028C197.929 39.3028 200.208 37.1287 200.208 33.8148V15.8535H207.453V44.2718H200.208H200.211Z" fill="#F3F6FF"/>
<path d="M219.003 15.8535V21.8044C220.609 18.0242 223.453 15.8535 226.766 15.8535C227.079 15.8535 227.233 15.8535 227.647 15.9061V23.2562C226.665 23.1019 226.146 23.0493 225.371 23.0493C221.128 23.0493 219.003 25.1708 219.003 29.4174V44.2718H211.758V15.8535H219.003Z" fill="#F3F6FF"/>
<path d="M253.425 44.2732H245.556C244.883 43.4456 244.728 42.9266 244.728 41.4783C242.141 44.1715 239.346 45.4655 236.239 45.4655C231.115 45.4655 227.749 42.1025 227.749 37.0809C227.749 32.0594 230.442 29.2119 235.979 28.2826L238.879 27.7636C241.259 27.3849 242.778 27.0226 243.434 26.6766C244.209 26.2102 244.676 25.4352 244.676 24.5024C244.676 22.6404 243.277 21.7076 240.482 21.7076C236.912 21.7076 235.72 22.6404 235.359 25.5369H228.37C228.836 19.067 232.771 15.8584 240.328 15.8584C247.884 15.8584 251.766 18.7584 251.766 24.4498V39.9775C251.766 41.3767 252.18 42.2042 253.422 43.393V44.2732H253.425ZM244.676 31.074C243.848 31.4878 243.536 31.593 241.622 31.9542L239.135 32.4205C236.134 33.0412 234.994 34.0757 234.994 36.2499C234.994 38.424 236.495 39.6128 238.928 39.6128C242.603 39.6128 244.672 37.2317 244.672 33.0377V31.0705L244.676 31.074Z" fill="#F3F6FF"/>
<path d="M67.9778 69.388H79.4552V72.0005H65.0146V47.9551H67.9778V69.388Z" fill="#F3F6FF"/>
<path d="M95.7395 71.7127C94.8453 71.9372 94.4946 72.0003 93.923 72.0003C92.2012 72.0003 91.3736 71.2674 91.1808 69.5456C89.3012 71.2674 87.611 72.0003 85.5069 72.0003C82.1265 72.0003 80.0225 70.0891 80.0225 67.0593C80.0225 64.8922 81.0113 63.4264 82.9541 62.5953C83.9745 62.1815 84.5496 62.0518 88.3088 61.5749C90.4759 61.2873 91.051 60.8735 91.0826 59.7268V59.0255C91.0826 57.4299 89.7746 56.5392 87.3515 56.5392C84.9283 56.5392 83.6554 57.465 83.431 59.5024H80.7519C80.815 57.8437 81.1341 56.8899 81.8985 56.0273C83.0452 54.7824 84.9914 54.0811 87.4461 54.0811C91.5595 54.0811 93.7266 55.6766 93.7266 58.6398V68.4585C93.7266 69.2861 94.2351 69.7665 95.1609 69.7665C95.3187 69.7665 95.4484 69.7665 95.736 69.7034V71.7127H95.7395ZM91.0861 63.0091C90.1919 63.4229 89.6519 63.5526 86.8149 63.9349C83.9465 64.3487 82.7998 65.2429 82.7998 66.9962C82.7998 68.7496 84.0096 69.6753 86.082 69.6753C87.6425 69.6753 88.9505 69.1669 90.0341 68.178C90.8301 67.4451 91.0861 66.9015 91.0861 66.0108V63.0161V63.0091Z" fill="#F3F6FF"/>
<path d="M99.1817 47.9619V56.8269C100.427 54.9473 102.05 54.0846 104.347 54.0846C108.78 54.0846 111.487 57.43 111.487 62.8514C111.487 68.2727 108.618 72.0003 104.217 72.0003C101.889 72.0003 100.202 71.0746 98.9258 69.1319V72.0003H96.5342V47.9619H99.1817ZM99.1817 63.0442C99.1817 66.9647 100.998 69.5141 103.835 69.5141C106.672 69.5141 108.713 66.9332 108.713 63.1389C108.713 59.1553 106.802 56.5709 103.835 56.5709C100.868 56.5709 99.1817 59.1202 99.1817 63.0407V63.0442Z" fill="#F3F6FF"/>
<path d="M122.103 59.2184C122.04 57.465 120.893 56.5392 118.758 56.5392C116.622 56.5392 115.219 57.4966 115.219 59.0571C115.219 60.2353 116.145 60.9367 118.312 61.4486L120.862 62.0553C124.176 62.8513 125.578 64.2224 125.578 66.7087C125.578 69.9278 122.899 72.0003 118.691 72.0003C114.483 72.0003 112.155 70.1523 112.028 66.2949H114.834C114.991 67.4731 115.184 67.9536 115.598 68.4305C116.268 69.1318 117.478 69.5456 118.912 69.5456C121.24 69.5456 122.801 68.4936 122.801 66.898C122.801 65.7198 122.068 65.05 120.22 64.6012L117.734 63.9945C113.782 63.0372 112.442 61.7958 112.442 59.1798C112.442 56.0869 114.96 54.0811 118.849 54.0811C122.738 54.0811 124.873 55.9291 124.905 59.2149H122.1L122.103 59.2184Z" fill="#F3F6FF"/>
</svg>
