<svg width="1117" height="212" viewBox="0 0 1117 212" fill="none" xmlns="http://www.w3.org/2000/svg">
<g clip-path="url(#clip0_4260_3800)">
<path d="M52.5209 145.521C69.2442 135.235 91.1571 140.464 101.443 157.201C111.729 173.95 106.5 195.85 89.7635 206.123C73.0269 216.396 51.1273 211.18 40.8411 194.443C30.5549 177.693 35.7843 155.794 52.5209 145.521Z" fill="#F3F6FF"/>
<path d="M52.5061 75.3294C69.7736 84.4078 76.1842 105.378 66.8271 122.168C57.4567 138.971 35.8756 145.222 18.6081 136.144C1.3406 127.052 -5.07001 106.082 4.2871 89.2921C13.6575 72.4891 35.2386 66.2377 52.5061 75.3161V75.3294Z" fill="#F3F6FF"/>
<path d="M106.684 34.5975C107.229 54.2275 91.7395 70.5792 72.1095 71.1234C52.4662 71.6543 36.1145 56.1786 35.5836 36.5353C35.0527 16.892 50.5284 0.553527 70.1452 0.00935472C89.7884 -0.521545 106.14 14.9542 106.671 34.5975H106.684Z" fill="#F3F6FF"/>
<path d="M178.584 65.8632C161.86 76.1494 139.948 70.92 129.661 54.1834C119.375 37.4335 124.605 15.5339 141.341 5.26096C158.078 -5.01195 179.977 0.20414 190.264 16.9408C200.55 33.6907 195.32 55.5903 178.584 65.8632Z" fill="#F3F6FF"/>
<path d="M178.632 136.131C161.364 127.052 154.953 106.082 164.311 89.2921C173.681 72.4891 195.262 66.2377 212.53 75.3161C229.797 84.4078 236.208 105.365 226.851 122.155C217.48 138.958 195.899 145.209 178.632 136.131Z" fill="#F3F6FF"/>
<path d="M124.405 176.789C123.86 157.159 139.349 140.807 158.979 140.263C178.623 139.732 194.974 155.208 195.505 174.851C196.036 194.495 180.56 210.833 160.93 211.377C141.287 211.908 124.935 196.432 124.405 176.789Z" fill="#F3F6FF"/>
<path d="M372.955 175.57C363.213 175.57 354.028 173.752 345.401 170.115C336.761 166.478 329.262 161.514 322.904 155.223C316.547 148.932 311.517 141.499 307.814 132.925C304.111 124.351 302.266 115.207 302.266 105.465C302.266 95.7226 304.111 86.8034 307.814 78.2958C311.517 69.7881 316.547 62.3953 322.904 56.0909C329.262 49.7997 336.761 44.8358 345.401 41.1991C354.028 37.5625 363.213 35.7441 372.955 35.7441C382.697 35.7441 391.815 37.5625 400.31 41.1991C408.817 44.8358 416.276 49.7997 422.7 56.0909C429.124 62.3953 434.194 69.7881 437.884 78.2958C441.587 86.8034 443.432 95.8553 443.432 105.465C443.432 115.074 441.587 124.351 437.884 132.925C434.181 141.499 429.124 148.932 422.7 155.223C416.276 161.528 408.804 166.492 400.31 170.115C391.802 173.752 382.684 175.57 372.955 175.57ZM326.023 105.465C326.023 112.088 327.218 118.312 329.62 124.166C332.023 130.005 335.327 135.076 339.548 139.349C343.769 143.636 348.733 147.007 354.44 149.476C360.147 151.945 366.319 153.179 372.942 153.179C379.565 153.179 385.537 151.945 391.244 149.476C396.952 147.007 401.916 143.636 406.136 139.349C410.357 135.062 413.662 130.005 416.064 124.166C418.466 118.326 419.661 112.088 419.661 105.465C419.661 98.8416 418.453 92.869 416.064 87.1618C413.662 81.4546 410.344 76.4509 406.136 72.1639C401.916 67.8769 396.952 64.4791 391.244 61.944C385.524 59.409 379.432 58.1481 372.942 58.1481C366.451 58.1481 360.147 59.3825 354.44 61.8511C348.719 64.3198 343.755 67.691 339.548 71.9781C335.327 76.2651 332.023 81.2953 329.62 87.0689C327.218 92.8424 326.023 98.9743 326.023 105.478V105.465Z" fill="#F3F6FF"/>
<path d="M461.969 72.9586H483.775V90.0934C487.797 83.8686 492.801 78.9578 498.773 75.3875C504.746 71.8172 511.435 70.0254 518.828 70.0254C525.451 70.0254 531.742 71.3925 537.715 74.1133C543.688 76.8342 548.917 80.6036 553.39 85.4082C557.863 90.2129 561.433 95.8006 564.101 102.158C566.755 108.516 568.096 115.404 568.096 122.797C568.096 130.19 566.768 137.105 564.101 143.542C561.433 149.966 557.863 155.553 553.39 160.292C548.917 165.03 543.688 168.759 537.715 171.494C531.742 174.214 525.451 175.582 518.828 175.582C511.435 175.582 504.746 173.79 498.773 170.219C492.801 166.649 487.797 161.752 483.775 155.514V211.417H461.969V72.9586ZM483.775 122.611C483.775 127.031 484.585 131.185 486.204 135.074C487.824 138.963 490.067 142.347 492.92 145.201C495.774 148.054 499.052 150.337 502.755 152.023C506.458 153.708 510.453 154.558 514.727 154.558C519.001 154.558 523.062 153.748 526.898 152.129C530.72 150.51 534.065 148.267 536.932 145.413C539.785 142.56 542.028 139.215 543.648 135.379C545.267 131.557 546.077 127.429 546.077 123.009C546.077 118.589 545.267 114.634 543.648 110.745C542.028 106.857 539.785 103.472 536.932 100.618C534.078 97.7649 530.734 95.4953 526.898 93.7964C523.062 92.1108 519.014 91.2614 514.727 91.2614C510.44 91.2614 506.445 92.1108 502.755 93.7964C499.052 95.482 495.774 97.7251 492.92 100.512C490.067 103.3 487.824 106.618 486.204 110.44C484.585 114.276 483.775 118.324 483.775 122.611Z" fill="#F3F6FF"/>
<path d="M613.838 175.568C609.166 175.568 604.72 174.918 600.499 173.617C596.278 172.317 592.482 170.312 589.111 167.578C585.74 164.857 582.873 161.446 580.537 157.358C578.201 153.271 576.449 148.492 575.281 143.051H595.535C596.57 148.373 598.774 152.235 602.158 154.638C605.529 157.04 609.498 158.234 614.037 158.234C618.324 158.234 622.014 157.133 625.133 154.93C628.252 152.726 629.805 149.541 629.805 145.387C629.805 140.715 628.146 137.41 624.841 135.459C621.536 133.508 616.758 131.822 610.533 130.389C606.511 129.353 602.516 128.093 598.561 126.593C594.593 125.106 591.062 123.115 587.943 120.66C584.824 118.191 582.289 115.178 580.351 111.608C578.4 108.038 577.431 103.724 577.431 98.6542C577.431 94.6326 578.214 90.903 579.767 87.4522C581.32 84.0146 583.537 81.0017 586.39 78.4003C589.244 75.7989 592.681 73.755 596.716 72.2684C600.738 70.7819 605.211 70.0254 610.148 70.0254C619.107 70.0254 626.898 72.5604 633.521 77.6173C640.144 82.6874 644.617 90.465 646.953 100.99H627.084C625.783 96.1855 623.646 92.6815 620.66 90.4783C617.674 88.2751 614.356 87.1735 610.732 87.1735C607.109 87.1735 603.724 88.1423 600.99 90.0934C598.269 92.0445 596.902 94.898 596.902 98.6674C596.902 102.689 598.495 105.742 601.667 107.825C604.852 109.909 609.816 111.714 616.559 113.28C620.846 114.196 624.934 115.417 628.822 116.983C632.711 118.55 636.189 120.554 639.241 123.022C642.294 125.491 644.723 128.544 646.541 132.18C648.36 135.817 649.262 140.171 649.262 145.227C649.262 150.284 648.293 154.704 646.342 158.473C644.391 162.243 641.763 165.388 638.458 167.923C635.153 170.458 631.384 172.37 627.163 173.67C622.943 174.971 618.497 175.621 613.825 175.621L613.838 175.568Z" fill="#F3F6FF"/>
<path d="M704.398 35.5645H801.766V57.1853H727.572V94.1891H791.838V115.81H727.572V175.576H704.398V35.5645Z" fill="#F3F6FF"/>
<path d="M814.648 49.0858C814.648 45.3164 816.015 42.0779 818.736 39.3438C821.457 36.6229 824.842 35.2559 828.863 35.2559C832.633 35.2559 835.898 36.5831 838.698 39.2509C841.485 41.9187 842.879 45.197 842.879 49.0858C842.879 52.9746 841.485 56.1335 838.698 58.9207C835.911 61.7212 832.633 63.1016 828.863 63.1016C824.842 63.1016 821.457 61.7079 818.736 58.9207C816.015 56.1335 814.648 52.8552 814.648 49.0858ZM817.767 76.4271H839.773V176.13H817.767V76.4271Z" fill="#F3F6FF"/>
<path d="M885.867 75.9463V95.8153C888.336 89.1923 892.358 83.8435 897.945 79.7555C903.52 75.6676 910.926 73.9422 920.15 74.5925V97.1823C914.178 96.6647 909.081 97.0894 904.86 98.4432C900.64 99.8103 897.229 101.947 894.641 104.867C892.039 107.787 890.128 111.49 888.894 115.963C887.659 120.436 887.049 125.532 887.049 131.253V175.848H864.844V75.9463H885.881H885.867Z" fill="#F3F6FF"/>
<path d="M963.369 175.568C958.697 175.568 954.251 174.918 950.03 173.617C945.81 172.317 942.014 170.312 938.642 167.578C935.271 164.857 932.404 161.446 930.068 157.358C927.732 153.271 925.98 148.492 924.812 143.051H945.066C946.102 148.373 948.305 152.235 951.689 154.638C955.061 157.04 959.029 158.234 963.568 158.234C967.855 158.234 971.545 157.133 974.664 154.93C977.783 152.726 979.336 149.541 979.336 145.387C979.336 140.715 977.677 137.41 974.372 135.459C971.067 133.508 966.289 131.822 960.064 130.389C956.043 129.353 952.048 128.093 948.092 126.593C944.124 125.106 940.593 123.115 937.474 120.66C934.355 118.191 931.82 115.178 929.883 111.608C927.932 108.038 926.963 103.724 926.963 98.6542C926.963 94.6326 927.746 90.903 929.299 87.4522C930.851 84.0146 933.068 81.0017 935.922 78.4003C938.775 75.7989 942.213 73.755 946.248 72.2684C950.269 70.7819 954.742 70.0254 959.679 70.0254C968.638 70.0254 976.429 72.5604 983.052 77.6173C989.675 82.6874 994.148 90.465 996.484 100.99H976.615C975.314 96.1855 973.177 92.6815 970.191 90.4783C967.205 88.2751 963.887 87.1735 960.263 87.1735C956.64 87.1735 953.255 88.1423 950.521 90.0934C947.8 92.0445 946.433 94.898 946.433 98.6674C946.433 102.689 948.026 105.742 951.198 107.825C954.384 109.909 959.348 111.714 966.09 113.28C970.377 114.196 974.465 115.417 978.354 116.983C982.243 118.55 985.72 120.554 988.773 123.022C991.825 125.491 994.254 128.544 996.073 132.18C997.891 135.817 998.793 140.171 998.793 145.227C998.793 150.284 997.824 154.704 995.873 158.473C993.922 162.243 991.294 165.388 987.99 167.923C984.685 170.458 980.915 172.37 976.695 173.67C972.474 174.971 968.028 175.621 963.356 175.621L963.369 175.568Z" fill="#F3F6FF"/>
<path d="M1081.41 174.3C1069.98 175.853 1060.57 175.986 1053.17 174.685C1045.78 173.384 1039.9 170.823 1035.54 166.987C1031.19 163.164 1028.18 158.161 1026.49 151.989C1024.8 145.831 1023.96 138.716 1023.96 130.66V92.4884H1005.85V73.6016H1023.96V42.252H1045.58V73.6016H1080.43V92.4884H1045.58V126.957C1045.58 131.762 1045.87 136.181 1046.45 140.203C1047.04 144.225 1048.52 147.543 1050.92 150.131C1053.33 152.732 1056.92 154.444 1061.73 155.294C1066.53 156.143 1073.09 155.918 1081.4 154.617V174.287L1081.41 174.3Z" fill="#F3F6FF"/>
<path d="M1089.75 17.7798C1089.75 11.4355 1093.61 7.28125 1099.86 7.28125C1104.76 7.28125 1108.21 10.3472 1108.74 14.8333H1104.26C1103.73 12.5372 1102.08 11.0241 1099.62 11.0241C1096.27 11.0241 1094.26 13.798 1094.26 17.7798C1094.26 21.7615 1096.24 24.5355 1099.57 24.5355C1102.08 24.5355 1103.73 23.0357 1104.26 20.7263H1108.72C1108.21 25.2124 1104.64 28.2783 1099.6 28.2783C1093.47 28.2783 1089.75 24.124 1089.75 17.7798Z" fill="#F3F6FF"/>
<path d="M1099.17 35.5664C1089.36 35.5664 1081.38 27.5896 1081.38 17.7812C1081.38 7.97286 1089.37 -0.00390625 1099.17 -0.00390625C1108.96 -0.00390625 1116.95 7.97286 1116.95 17.7812C1116.95 27.5896 1108.98 35.5664 1099.17 35.5664ZM1099.17 2.45151C1090.71 2.45151 1083.84 9.32666 1083.84 17.7812C1083.84 26.2358 1090.71 33.111 1099.17 33.111C1107.62 33.111 1114.5 26.2358 1114.5 17.7812C1114.5 9.32666 1107.62 2.45151 1099.17 2.45151Z" fill="#F3F6FF"/>
</g>
<defs>
<clipPath id="clip0_4260_3800">
<rect width="1117" height="211.404" fill="white"/>
</clipPath>
</defs>
</svg>
