<svg width="345" height="66" viewBox="0 0 345 66" fill="none" xmlns="http://www.w3.org/2000/svg">
<g clip-path="url(#clip0_2041_1207)">
<mask id="mask0_2041_1207" style="mask-type:luminance" maskUnits="userSpaceOnUse" x="0" y="0" width="345" height="66">
<path d="M344.624 0H0.00195312V65.2234H344.624V0Z" fill="white"/>
</mask>
<g mask="url(#mask0_2041_1207)">
<path d="M16.2062 44.8967C21.3658 41.7232 28.1265 43.3364 31.2999 48.5002C34.4734 53.6677 32.8601 60.4244 27.6965 63.5939C22.5328 66.7633 15.7763 65.1541 12.6027 59.9903C9.42917 54.8225 11.0426 48.0661 16.2062 44.8967Z" fill="#F3F6FF"/>
<path d="M16.2023 23.2404C21.5298 26.0413 23.5076 32.5111 20.6207 37.6913C17.7297 42.8754 11.0714 44.804 5.74393 42.0032C0.416476 39.1981 -1.56136 32.7283 1.32554 27.5482C4.21655 22.3641 10.8748 20.4354 16.2023 23.2363V23.2404Z" fill="#F3F6FF"/>
<path d="M32.9169 10.674C33.085 16.7304 28.3061 21.7753 22.2498 21.9432C16.1894 22.107 11.1444 17.3324 10.9807 11.2719C10.8169 5.21146 15.5915 0.170639 21.6438 0.00274856C27.7042 -0.161047 32.7491 4.6136 32.9129 10.674H32.9169Z" fill="#F3F6FF"/>
<path d="M55.1009 20.3203C49.9411 23.4938 43.1807 21.8804 40.0069 16.7168C36.8334 11.549 38.447 4.79245 43.6105 1.623C48.7743 -1.54645 55.5307 0.0628434 58.7045 5.22652C61.8779 10.3943 60.2644 17.1508 55.1009 20.3203Z" fill="#F3F6FF"/>
<path d="M55.1152 41.9992C49.7876 39.1981 47.8096 32.7283 50.6968 27.5482C53.5877 22.3641 60.2459 20.4354 65.5735 23.2363C70.9008 26.0413 72.8788 32.5071 69.9919 37.6872C67.1007 42.8714 60.4425 44.8 55.1152 41.9992Z" fill="#F3F6FF"/>
<path d="M38.3852 54.5438C38.217 48.4874 42.9958 43.4424 49.0521 43.2746C55.1128 43.1108 60.1575 47.8855 60.3213 53.9459C60.4851 60.0065 55.7104 65.0472 49.654 65.215C43.5937 65.3789 38.5487 60.6041 38.3852 54.5438Z" fill="#F3F6FF"/>
<path d="M115.069 54.1671C112.063 54.1671 109.23 53.6062 106.568 52.4841C103.902 51.362 101.589 49.8305 99.6271 47.8895C97.6658 45.9486 96.1139 43.6554 94.9715 41.0101C93.829 38.3648 93.2598 35.5436 93.2598 32.538C93.2598 29.5322 93.829 26.7804 94.9715 24.1556C96.1139 21.5308 97.6658 19.2499 99.6271 17.3048C101.589 15.3638 103.902 13.8324 106.568 12.7103C109.23 11.5884 112.063 11.0273 115.069 11.0273C118.075 11.0273 120.888 11.5884 123.509 12.7103C126.133 13.8324 128.435 15.3638 130.417 17.3048C132.399 19.2499 133.963 21.5308 135.101 24.1556C136.244 26.7804 136.813 29.5731 136.813 32.538C136.813 35.5026 136.244 38.3648 135.101 41.0101C133.959 43.6554 132.399 45.9486 130.417 47.8895C128.435 49.8348 126.129 51.3663 123.509 52.4841C120.884 53.6062 118.071 54.1671 115.069 54.1671ZM100.589 32.538C100.589 34.5813 100.958 36.5016 101.699 38.3077C102.441 40.1092 103.46 41.6737 104.762 42.992C106.064 44.3147 107.596 45.3547 109.357 46.1165C111.117 46.8782 113.022 47.2589 115.065 47.2589C117.108 47.2589 118.951 46.8782 120.712 46.1165C122.473 45.3547 124.004 44.3147 125.306 42.992C126.609 41.6694 127.628 40.1092 128.369 38.3077C129.11 36.5059 129.479 34.5813 129.479 32.538C129.479 30.4945 129.106 28.6518 128.369 26.891C127.628 25.1302 126.605 23.5864 125.306 22.2638C124.004 20.9411 122.473 19.8928 120.712 19.1107C118.947 18.3286 117.067 17.9395 115.065 17.9395C113.062 17.9395 111.117 18.3204 109.357 19.082C107.592 19.8437 106.06 20.8838 104.762 22.2064C103.46 23.5291 102.441 25.081 101.699 26.8623C100.958 28.6436 100.589 30.5354 100.589 32.542V32.538Z" fill="#F3F6FF"/>
<path d="M142.531 22.5101H149.259V27.7966C150.5 25.8761 152.044 24.361 153.886 23.2594C155.729 22.1579 157.793 21.6051 160.074 21.6051C162.117 21.6051 164.058 22.0269 165.901 22.8663C167.744 23.7058 169.357 24.8687 170.737 26.3511C172.117 27.8334 173.218 29.5574 174.042 31.5188C174.86 33.4804 175.274 35.6055 175.274 37.8864C175.274 40.1674 174.864 42.3008 174.042 44.2868C173.218 46.2688 172.117 47.9925 170.737 49.4546C169.357 50.9164 167.744 52.0669 165.901 52.9107C164.058 53.7499 162.117 54.1719 160.074 54.1719C157.793 54.1719 155.729 53.6191 153.886 52.5173C152.044 51.4159 150.5 49.905 149.259 47.9805V65.2279H142.531V22.5101ZM149.259 37.8291C149.259 39.1927 149.509 40.4744 150.008 41.6742C150.508 42.8741 151.2 43.9181 152.08 44.7986C152.961 45.6789 153.972 46.3832 155.115 46.9034C156.257 47.4233 157.49 47.6855 158.808 47.6855C160.127 47.6855 161.38 47.4356 162.563 46.9361C163.743 46.4366 164.775 45.7446 165.659 44.864C166.539 43.9838 167.231 42.9518 167.731 41.7683C168.231 40.5891 168.481 39.3155 168.481 37.9519C168.481 36.5882 168.231 35.368 167.731 34.1681C167.231 32.9686 166.539 31.9242 165.659 31.0437C164.779 30.1634 163.747 29.4632 162.563 28.939C161.38 28.419 160.131 28.1569 158.808 28.1569C157.486 28.1569 156.253 28.419 155.115 28.939C153.972 29.4591 152.961 30.1511 152.08 31.011C151.2 31.8711 150.508 32.8948 150.008 34.074C149.509 35.2575 149.259 36.5064 149.259 37.8291Z" fill="#F3F6FF"/>
<path d="M189.388 54.1676C187.947 54.1676 186.575 53.9671 185.273 53.5657C183.97 53.1646 182.799 52.546 181.759 51.7025C180.719 50.863 179.835 49.8106 179.114 48.5494C178.393 47.2884 177.853 45.814 177.492 44.1353H183.741C184.06 45.7773 184.74 46.9688 185.784 47.7102C186.824 48.4513 188.049 48.8196 189.449 48.8196C190.772 48.8196 191.91 48.48 192.873 47.8003C193.835 47.1203 194.314 46.1376 194.314 44.856C194.314 43.4146 193.802 42.3949 192.783 41.793C191.763 41.1911 190.289 40.6709 188.368 40.2288C187.127 39.9091 185.895 39.5204 184.675 39.0576C183.45 38.5988 182.361 37.9846 181.399 37.2271C180.436 36.4654 179.654 35.5358 179.056 34.4344C178.454 33.3329 178.156 32.002 178.156 30.4378C178.156 29.197 178.397 28.0464 178.876 26.9817C179.355 25.9211 180.039 24.9916 180.92 24.189C181.8 23.3864 182.861 22.7558 184.105 22.2971C185.346 21.8385 186.726 21.6051 188.25 21.6051C191.014 21.6051 193.417 22.3872 195.461 23.9474C197.504 25.5116 198.884 27.9112 199.605 31.1584H193.475C193.073 29.6761 192.414 28.5951 191.493 27.9153C190.571 27.2356 189.548 26.8957 188.43 26.8957C187.312 26.8957 186.268 27.1946 185.424 27.7966C184.585 28.3985 184.163 29.2789 184.163 30.4419C184.163 31.6826 184.654 32.6246 185.633 33.2672C186.616 33.9102 188.147 34.4671 190.227 34.9502C191.55 35.2328 192.811 35.6095 194.011 36.0927C195.211 36.5761 196.284 37.1944 197.225 37.9559C198.167 38.7176 198.917 39.6595 199.478 40.7813C200.039 41.9034 200.317 43.2468 200.317 44.8067C200.317 46.3669 200.018 47.7306 199.416 48.8934C198.814 50.0565 198.004 51.0268 196.984 51.8089C195.964 52.5911 194.801 53.1809 193.499 53.582C192.197 53.9834 190.825 54.184 189.384 54.184L189.388 54.1676Z" fill="#F3F6FF"/>
<path d="M217.326 10.973H247.367V17.6436H224.476V29.0602H244.304V35.7307H224.476V54.17H217.326V10.973Z" fill="#F3F6FF"/>
<path d="M251.342 15.1447C251.342 13.9817 251.764 12.9826 252.603 12.139C253.443 11.2996 254.487 10.8778 255.727 10.8778C256.891 10.8778 257.898 11.2873 258.762 12.1104C259.622 12.9334 260.052 13.9449 260.052 15.1447C260.052 16.3445 259.622 17.3191 258.762 18.179C257.902 19.043 256.891 19.4689 255.727 19.4689C254.487 19.4689 253.443 19.0389 252.603 18.179C251.764 17.3191 251.342 16.3076 251.342 15.1447ZM252.304 23.5801H259.093V54.341H252.304V23.5801Z" fill="#F3F6FF"/>
<path d="M273.314 23.4307V29.5608C274.076 27.5174 275.317 25.8672 277.041 24.6059C278.761 23.3447 281.046 22.8124 283.891 23.013V29.9825C282.049 29.8228 280.476 29.9539 279.174 30.3715C277.872 30.7933 276.82 31.4525 276.021 32.3534C275.218 33.2543 274.629 34.3968 274.248 35.7768C273.867 37.1569 273.679 38.7291 273.679 40.4942V54.2528H266.828V23.4307H273.319H273.314Z" fill="#F3F6FF"/>
<path d="M297.226 54.1676C295.784 54.1676 294.413 53.9671 293.11 53.5657C291.808 53.1646 290.637 52.546 289.597 51.7025C288.557 50.863 287.672 49.8106 286.952 48.5494C286.231 47.2884 285.69 45.814 285.33 44.1353H291.579C291.899 45.7773 292.578 46.9688 293.622 47.7102C294.663 48.4513 295.887 48.8196 297.287 48.8196C298.61 48.8196 299.748 48.48 300.711 47.8003C301.673 47.1203 302.152 46.1376 302.152 44.856C302.152 43.4146 301.64 42.3949 300.621 41.793C299.601 41.1911 298.127 40.6709 296.206 40.2288C294.966 39.9091 293.733 39.5204 292.513 39.0576C291.288 38.5988 290.199 37.9846 289.237 37.2271C288.274 36.4654 287.492 35.5358 286.895 34.4344C286.293 33.3329 285.994 32.002 285.994 30.4378C285.994 29.197 286.235 28.0464 286.714 26.9817C287.193 25.9211 287.877 24.9916 288.758 24.189C289.638 23.3864 290.699 22.7558 291.944 22.2971C293.184 21.8385 294.564 21.6051 296.087 21.6051C298.851 21.6051 301.255 22.3872 303.299 23.9474C305.342 25.5116 306.722 27.9112 307.443 31.1584H301.313C300.911 29.6761 300.252 28.5951 299.331 27.9153C298.409 27.2356 297.386 26.8957 296.268 26.8957C295.15 26.8957 294.105 27.1946 293.262 27.7966C292.422 28.3985 292.001 29.2789 292.001 30.4419C292.001 31.6826 292.492 32.6246 293.471 33.2672C294.454 33.9102 295.985 34.4671 298.065 34.9502C299.388 35.2328 300.649 35.6095 301.849 36.0927C303.049 36.5761 304.122 37.1944 305.064 37.9559C306.005 38.7176 306.755 39.6595 307.316 40.7813C307.877 41.9034 308.155 43.2468 308.155 44.8067C308.155 46.3669 307.856 47.7306 307.254 48.8934C306.652 50.0565 305.841 51.0268 304.822 51.8089C303.802 52.5911 302.639 53.1809 301.337 53.582C300.035 53.9834 298.663 54.184 297.222 54.184L297.226 54.1676Z" fill="#F3F6FF"/>
<path d="M333.644 53.7763C330.118 54.2555 327.215 54.2965 324.931 53.8951C322.651 53.4937 320.837 52.7036 319.492 51.5201C318.15 50.3406 317.221 48.7971 316.7 46.8928C316.179 44.9929 315.919 42.7978 315.919 40.3123V28.5354H310.332V22.7084H315.919V13.0363H322.59V22.7084H333.342V28.5354H322.59V39.1698C322.59 40.6523 322.679 42.0157 322.858 43.2566C323.04 44.4975 323.497 45.5211 324.237 46.3196C324.981 47.1221 326.088 47.6503 327.572 47.9125C329.053 48.1745 331.077 48.105 333.641 47.7036V53.7723L333.644 53.7763Z" fill="#F3F6FF"/>
<path d="M336.217 5.4854C336.217 3.52803 337.408 2.24634 339.336 2.24634C340.848 2.24634 341.912 3.19226 342.076 4.57633H340.693C340.53 3.86793 340.021 3.4011 339.262 3.4011C338.228 3.4011 337.608 4.25692 337.608 5.4854C337.608 6.71385 338.219 7.5697 339.246 7.5697C340.021 7.5697 340.53 7.10698 340.693 6.39447H342.07C341.912 7.77854 340.811 8.72445 339.256 8.72445C337.365 8.72445 336.217 7.44274 336.217 5.4854Z" fill="#F3F6FF"/>
<path d="M339.125 10.973C336.099 10.973 333.637 8.51194 333.637 5.4858C333.637 2.45969 336.102 -0.00134277 339.125 -0.00134277C342.146 -0.00134277 344.611 2.45969 344.611 5.4858C344.611 8.51194 342.152 10.973 339.125 10.973ZM339.125 0.756214C336.515 0.756214 334.396 2.87737 334.396 5.4858C334.396 8.09426 336.515 10.2154 339.125 10.2154C341.732 10.2154 343.855 8.09426 343.855 5.4858C343.855 2.87737 341.732 0.756214 339.125 0.756214Z" fill="#F3F6FF"/>
</g>
</g>
<defs>
<clipPath id="clip0_2041_1207">
<rect width="344.622" height="65.4073" fill="white"/>
</clipPath>
</defs>
</svg>
