<svg width="211" height="66" viewBox="0 0 211 66" fill="none" xmlns="http://www.w3.org/2000/svg">
<g clip-path="url(#clip0_2041_1306)">
<mask id="mask0_2041_1306" style="mask-type:luminance" maskUnits="userSpaceOnUse" x="0" y="0" width="211" height="66">
<path d="M210.039 0H0V65.2603H210.039V0Z" fill="white"/>
</mask>
<g mask="url(#mask0_2041_1306)">
<path d="M126.132 45.6089C125.859 46.0735 125.035 46.6024 124.623 46.6024C123.938 46.6024 123.25 46.006 123.25 43.6862V31.8884C123.25 26.389 120.091 24.0018 115.08 24.0018C108.833 24.0018 103.562 26.9132 103.562 30.3598C103.562 31.6185 107.885 32.4158 107.885 31.4207C107.885 28.0401 109.312 25.394 113.639 25.394C117.55 25.394 119.198 27.7136 119.198 31.2905V32.0203C119.198 33.4108 118.443 33.4108 114.186 34.2741C105.743 35.9299 102.654 38.317 102.654 42.2267C102.654 45.7408 106.293 47.7293 110.274 47.7293C114.256 47.7293 117.619 46.0735 119.198 43.0898V43.8181C119.198 46.2712 121.325 47.7293 123.728 47.7293C124.964 47.7293 125.857 47.001 126.611 46.1394L126.131 45.6089H126.132ZM119.2 39.6448C118.513 43.8872 114.052 46.2068 111.373 46.2068C108.559 46.2068 106.705 44.4334 106.705 41.5831C106.705 38.733 109.041 36.2641 114.327 35.2707C116.935 34.8077 118.376 34.4766 119.2 34.2772V39.6448Z" fill="#F3F6FF"/>
<path d="M118.297 50.0796C117.55 50.6587 116.608 51.3069 115.306 52.0132C114.311 52.5499 113.028 53.2279 111.342 53.6941C105.976 55.1694 100.396 53.7145 97.1623 49.094C93.3889 43.7044 92.2288 35.35 85.0597 33.2202C84.5809 33.0789 84.0662 32.9785 84.0662 32.9785C82.7305 32.7086 81.478 32.7337 80.7216 32.7337C80.7216 32.4919 80.7295 32.1152 80.7342 31.9049C81.7653 31.9034 85.3924 31.9002 86.4235 31.9002C94.8646 31.9002 98.6025 27.614 98.6025 21.8728C98.6025 16.1316 94.8646 11.8454 86.4235 11.8454H78.697V43.662C78.697 44.1124 78.7362 44.6932 78.8978 45.2738C79.1977 46.0695 79.94 46.7742 81.77 46.7742V47.6045H71.5684V46.7742C74.6037 46.7742 74.6461 44.8406 74.6461 43.7514V14.9577C74.6461 14.9184 74.6461 14.8761 74.6446 14.8337C74.6242 14.388 74.5049 13.8841 74.2616 13.418C74.26 13.4117 74.2553 13.4055 74.2522 13.3976C73.8457 12.6317 73.1033 11.9741 71.9356 11.8627C71.8822 11.8564 71.8273 11.8533 71.7739 11.8486C71.708 11.8439 71.6405 11.8422 71.5699 11.8422V11.012H86.8378C99.4944 11.012 102.655 17.3056 102.655 21.8697C102.655 22.6434 102.533 23.5239 102.253 24.4405C101.829 25.8342 101.046 27.3095 99.7781 28.6106C97.6417 30.811 94.1358 32.5202 88.6867 32.5202C88.6867 32.5202 88.6725 32.5249 88.6474 32.5249C88.6349 32.5249 88.6255 32.5265 88.6114 32.5265C88.5234 32.5343 88.3665 32.5469 88.1876 32.5469C88.4889 32.5469 88.952 32.842 89.2266 32.966C89.5766 33.1213 89.9172 33.2893 90.2546 33.4713C93.5539 35.2464 95.7981 38.128 97.3626 41.4694C98.4076 43.7027 99.343 46.0397 100.957 47.9042C103.816 51.2096 107.875 52.0022 112.049 51.5109C113.004 51.3979 113.972 51.3037 114.902 51.0385C115.516 50.8643 116.104 50.6163 116.683 50.3495C116.746 50.3213 117.106 50.1628 117.516 49.9791C117.675 49.9085 117.851 49.83 117.997 49.7641C118.097 49.8693 118.198 49.9744 118.299 50.078L118.297 50.0796Z" fill="#F3F6FF"/>
<path d="M167.454 41.2347C165.864 43.4885 162.086 46.1394 158.64 46.1394C153.603 46.1394 151.084 42.2957 151.084 36.3317V35.1389H166.327C167.986 35.1389 168.317 34.1454 168.317 33.2822C168.317 28.9739 165.467 24.0018 159.701 24.0018C153.934 24.0018 146.977 28.7071 146.977 37.3252C146.977 44.085 151.814 47.7308 157.117 47.7308C162.421 47.7308 166.663 44.3502 168.318 42.1639C168.584 41.8328 167.788 40.7733 167.457 41.2363L167.454 41.2347ZM158.506 25.3955C162.483 25.3955 164.009 29.371 164.009 33.414C164.009 34.1438 163.545 34.2756 162.816 34.2756H151.218C151.814 29.5045 154.598 25.3955 158.508 25.3955H158.506Z" fill="#F3F6FF"/>
<path d="M209.122 41.2347C207.531 43.4885 203.754 46.1394 200.307 46.1394C195.27 46.1394 192.751 42.2957 192.751 36.3317V35.1389H207.994C209.65 35.1389 209.985 34.1454 209.985 33.2822C209.985 28.9739 207.133 24.0018 201.368 24.0018C195.604 24.0018 188.643 28.7071 188.643 37.3252C188.643 44.085 193.481 47.7308 198.784 47.7308C204.088 47.7308 208.327 44.3502 209.986 42.1639C210.25 41.8328 209.455 40.7733 209.124 41.2363L209.122 41.2347ZM200.172 25.3955C204.149 25.3955 205.932 29.3867 205.932 33.4297C205.932 34.1595 205.211 34.2756 204.482 34.2756H192.884C193.48 29.5045 196.264 25.3955 200.174 25.3955H200.172Z" fill="#F3F6FF"/>
<path d="M147.026 22.937C145.915 23.1081 144.821 23.265 143.746 23.4047C143.746 23.433 143.754 23.8112 143.755 23.8395C143.757 24.0027 143.761 24.1643 143.763 24.271C143.763 24.271 146.808 24.3966 145.557 27.2892L138.427 43.7876C136.239 38.6852 134.053 33.5828 131.865 28.4789C131.865 28.4789 130.284 25.1845 133.218 25.1845C133.218 24.9616 133.208 24.3229 133.202 24.3229C131.639 24.3542 130.054 24.439 128.441 24.4469C127.306 24.4516 126.184 24.4484 125.074 24.439C124.617 24.4343 124.163 24.4312 123.713 24.4248V25.2834C124.154 25.2834 125.215 25.6271 125.857 26.1011C125.963 26.1795 126.064 26.258 126.165 26.3412C126.857 26.9156 127.398 27.5905 127.744 28.4428C128.39 30.0311 129.067 31.6053 129.756 33.1763C130.644 35.2072 131.534 37.2412 132.422 39.2722C133.273 41.2137 134.122 43.1582 134.973 45.0997C135.353 45.966 135.731 46.8339 136.111 47.7003H137.7L146.024 28.4851C147.913 23.9822 149.712 23.3796 151.42 23.0704V22.1931C149.996 22.4583 148.532 22.7094 147.026 22.9417V22.937Z" fill="#F3F6FF"/>
<path d="M187.664 46.9121V47.7439H169.357V46.9121C169.609 46.9121 169.843 46.8855 170.064 46.8368C170.78 46.683 171.322 46.2874 171.711 45.804C171.711 45.804 171.714 45.8009 171.72 45.7946C172.22 45.239 172.411 44.5578 172.432 43.9238C172.435 43.8814 172.435 43.8421 172.435 43.7983V20.3125C172.435 18.9847 172.375 18.2941 169.808 18.1591V17.2771C170.489 17.0668 171.448 16.7215 172.435 16.3495C174.234 15.6746 176.107 14.9198 176.483 14.7549L176.485 15.7218V43.9222C176.509 44.5563 176.699 45.2374 177.2 45.7931C177.203 45.7993 177.206 45.7993 177.21 45.8025C177.528 46.2043 177.959 46.5464 178.508 46.7364C179.058 46.5448 179.491 46.2043 179.812 45.8025C179.814 45.7993 179.818 45.7993 179.821 45.7931C180.31 45.25 180.502 44.5893 180.531 43.9709V16.6666C180.531 16.6368 180.531 16.6101 180.529 16.5818C180.529 16.5615 180.529 16.5363 180.525 16.5159C180.492 16.0294 180.381 15.6935 179.973 15.4706C179.595 15.2572 178.964 15.141 177.907 15.0861V14.1398C178.553 13.942 179.447 13.5026 180.381 13.1431C181.838 12.4949 183.528 11.6898 184.588 11.131V43.8014C184.588 43.8438 184.588 43.883 184.59 43.9269C184.611 44.561 184.801 45.2422 185.302 45.7978C185.302 45.7978 185.304 45.8009 185.311 45.8072C185.699 46.2906 186.242 46.6845 186.959 46.8399C187.179 46.8885 187.413 46.9153 187.665 46.9153L187.664 46.9121Z" fill="#F3F6FF"/>
<path d="M65.097 32.0642C65.039 31.9716 64.9793 31.8774 64.9275 31.7973C64.0016 30.3534 62.9124 29.0021 61.6881 27.7763C57.1304 23.2185 50.923 20.6979 44.5023 20.756C44.5635 14.3384 42.0429 8.13267 37.4851 3.57332C36.2563 2.34441 34.9017 1.25362 33.4704 0.338616L33.4233 0.307226C33.348 0.258572 33.2727 0.208349 33.1957 0.161264C32.8489 -0.0537548 32.4094 -0.0537548 32.0626 0.161264C31.981 0.211488 31.9009 0.264851 31.8209 0.316643L31.7926 0.335477C30.3534 1.25519 29.0005 2.34441 27.7731 3.57175C23.2154 8.12953 20.6932 14.3369 20.7545 20.756C14.3352 20.6964 8.12796 23.217 3.57018 27.7748C2.34599 28.9989 1.25519 30.3518 0.337047 31.7847C0.277406 31.8758 0.217765 31.97 0.161264 32.0626C-0.0537548 32.4094 -0.0537548 32.8489 0.161264 33.1957C0.211488 33.2774 0.264851 33.359 0.318213 33.439L0.335477 33.4657C1.25519 34.9049 2.34441 36.2578 3.57175 37.4851C8.07617 41.9896 14.1878 44.5054 20.519 44.5054C20.5975 44.5054 20.676 44.5023 20.7529 44.5023C20.6932 50.9215 23.2154 57.1304 27.7748 61.6897C28.9989 62.9139 30.3518 64.0047 31.7847 64.9228C31.8758 64.9825 31.97 65.0421 32.0626 65.0986C32.2368 65.2054 32.433 65.2603 32.6291 65.2603C32.8254 65.2603 33.0231 65.2069 33.1957 65.0986C33.2884 65.0406 33.3841 64.9809 33.4626 64.9291C34.9065 64.0031 36.2593 62.9139 37.4836 61.6897C42.0445 57.1288 44.5651 50.9215 44.5039 44.5054C44.5792 44.5054 44.6561 44.5086 44.7315 44.5086C51.0674 44.5086 57.1821 41.9927 61.6881 37.4867C62.9154 36.2593 64.0047 34.9065 64.9244 33.4673L64.9432 33.439C64.9951 33.359 65.0484 33.2789 65.0986 33.1973C65.3137 32.8505 65.3137 32.411 65.0986 32.0642H65.097ZM35.9596 5.09572C40.362 9.49809 42.677 15.5877 42.3113 21.8075C42.3003 21.9991 42.2862 22.1905 42.2705 22.382C42.2658 22.4448 42.2579 22.5092 42.2517 22.5719C42.2391 22.7006 42.2281 22.8278 42.2124 22.9564C42.2045 23.0318 42.1951 23.1055 42.1858 23.1809C42.1716 23.297 42.1575 23.4148 42.1402 23.5309C42.1292 23.6094 42.1183 23.6878 42.1057 23.7663C42.0884 23.8793 42.0711 23.9923 42.0524 24.1069C42.0398 24.1854 42.0256 24.2638 42.0116 24.3423C41.9911 24.4568 41.9692 24.5699 41.9472 24.6844C41.9331 24.7614 41.9174 24.8367 41.9016 24.9136C41.8765 25.0344 41.8514 25.1537 41.8248 25.2746C41.8091 25.342 41.7949 25.4111 41.7793 25.4786C41.7447 25.6308 41.707 25.7815 41.6678 25.9322C41.6584 25.9667 41.6506 26.0028 41.6411 26.0389C41.5925 26.2241 41.5422 26.4078 41.4889 26.5914C41.4716 26.6494 41.4543 26.709 41.4356 26.7671C41.3979 26.8927 41.3602 27.0183 41.321 27.1438C41.299 27.2144 41.2739 27.2867 41.2519 27.3573C41.2158 27.4687 41.1781 27.5817 41.1389 27.6931C41.1138 27.7684 41.0871 27.8422 41.0604 27.9175C41.0212 28.0243 40.9835 28.1326 40.9428 28.2393C40.9145 28.3146 40.8862 28.3884 40.8579 28.4637C40.8156 28.5705 40.7732 28.6772 40.7308 28.784C40.701 28.8561 40.6727 28.9283 40.6429 28.9989C40.5959 29.1103 40.5472 29.2218 40.4985 29.3332C40.4703 29.3976 40.4421 29.4635 40.4138 29.5278C40.3541 29.6613 40.2913 29.7931 40.2301 29.9234C40.2098 29.9642 40.1909 30.0066 40.172 30.0474C40.169 30.0536 40.1658 30.0583 40.1643 30.0631C39.2289 29.3898 38.3437 28.6364 37.5197 27.8156L37.4427 27.7386C36.3425 26.6337 35.3616 25.4158 34.5298 24.1147C34.2928 23.7459 34.0637 23.3629 33.8423 22.969C36.7742 17.0411 37.1101 10.2013 34.8515 4.063C35.2314 4.39416 35.6002 4.73945 35.958 5.09729L35.9596 5.09572ZM39.9806 32.7201C38.5524 33.6352 37.212 34.7119 35.9973 35.922L35.9173 36.002C34.7056 37.2168 33.6289 38.5571 32.7171 39.9822C32.6857 40.0293 32.6559 40.078 32.6261 40.125C32.5962 40.078 32.5664 40.0308 32.535 39.9822C31.6215 38.5555 30.5449 37.2152 29.3317 35.9988L29.2516 35.9188C28.0384 34.7103 26.6996 33.6336 25.2714 32.7186C25.2244 32.6888 25.1757 32.6574 25.1286 32.6276C25.1757 32.5978 25.2227 32.568 25.2714 32.5366C26.6981 31.6231 28.0368 30.5464 29.2532 29.3349L29.3332 29.2547C30.5417 28.0415 31.6184 26.7028 32.5334 25.2729C32.5632 25.2259 32.5946 25.1772 32.6244 25.1302C32.6542 25.1772 32.6841 25.2259 32.7155 25.2729C33.6305 26.7012 34.7071 28.0415 35.9188 29.2564L35.9973 29.3349C37.212 30.5449 38.5508 31.6215 39.9774 32.535C40.0246 32.5664 40.0733 32.5962 40.1203 32.6261C40.0733 32.6559 40.0261 32.6857 39.9791 32.7171L39.9806 32.7201ZM32.6276 4.27174C34.6899 9.45105 34.6899 15.2315 32.6276 20.4107C30.5653 15.2315 30.5653 9.45105 32.6276 4.27174ZM29.294 5.09572C29.6518 4.73788 30.0206 4.39259 30.4005 4.06143C28.142 10.1996 28.4779 17.0395 31.4097 22.9674C31.1883 23.3614 30.9592 23.7459 30.7223 24.1147C29.8904 25.4143 28.9095 26.6337 27.8108 27.7371L27.7339 27.814C26.91 28.6349 26.0232 29.3882 25.0894 30.0615C25.0862 30.0568 25.0847 30.0505 25.0815 30.0458C25.0611 30.0034 25.0407 29.9595 25.0203 29.9171C24.9591 29.7868 24.8979 29.6565 24.8382 29.5247C24.8084 29.4604 24.7818 29.396 24.7535 29.3301C24.7048 29.2187 24.6561 29.1073 24.6091 28.9958C24.5793 28.9252 24.5495 28.853 24.5212 28.7808C24.4772 28.6741 24.4349 28.5673 24.3925 28.459C24.3643 28.3853 24.336 28.3115 24.3077 28.2362C24.2669 28.1279 24.2277 28.0211 24.1884 27.9128C24.1618 27.8391 24.1352 27.7653 24.11 27.6916C24.0708 27.5785 24.0331 27.4656 23.997 27.3526C23.9735 27.2835 23.9515 27.2129 23.928 27.1438C23.8872 27.0167 23.8495 26.888 23.8102 26.7593C23.793 26.7028 23.7757 26.6479 23.76 26.5929C23.7066 26.4093 23.6564 26.2241 23.6078 26.0373C23.5999 26.0075 23.5937 25.9761 23.5858 25.9463C23.5465 25.791 23.5073 25.634 23.4712 25.4771C23.4555 25.4111 23.4414 25.3452 23.4273 25.2793C23.4006 25.1568 23.3739 25.0344 23.3488 24.912C23.3331 24.8367 23.3189 24.7629 23.3049 24.6876C23.2829 24.573 23.2609 24.4585 23.2405 24.3423C23.2264 24.2638 23.2138 24.1869 23.1997 24.1084C23.1809 23.9954 23.1636 23.8808 23.1464 23.7679C23.1353 23.6894 23.1228 23.6109 23.1118 23.534C23.0962 23.4178 23.0804 23.3002 23.0663 23.184C23.0569 23.1087 23.0475 23.0333 23.0396 22.958C23.0255 22.8309 23.0129 22.7053 23.002 22.5782C22.9956 22.5138 22.9894 22.4479 22.9831 22.3836C22.9674 22.1984 22.9533 22.0132 22.9423 21.8264C22.9423 21.8201 22.9423 21.8139 22.9423 21.8092C22.5782 15.5893 24.8947 9.49809 29.2956 5.09729L29.294 5.09572ZM5.09101 29.2987C9.27212 25.1176 14.9771 22.8183 20.8674 22.9109C20.8753 22.9878 20.8847 23.0632 20.8925 23.14C20.9004 23.2091 20.9082 23.2782 20.9161 23.3472C20.935 23.5073 20.9553 23.6658 20.9773 23.8259C20.9836 23.8715 20.9883 23.917 20.9961 23.9625C21.026 24.1665 21.0573 24.369 21.0918 24.5714C21.1013 24.6232 21.1107 24.6735 21.1201 24.7237C21.1468 24.8759 21.1751 25.0281 21.2049 25.1789C21.219 25.2495 21.2332 25.3201 21.2488 25.3907C21.2771 25.5257 21.3053 25.6591 21.3351 25.794C21.3509 25.8663 21.3681 25.9384 21.3838 26.0091C21.4168 26.1519 21.4529 26.2932 21.4889 26.4359C21.5031 26.494 21.5188 26.5537 21.5329 26.6118C21.5847 26.8096 21.638 27.0072 21.6961 27.2035C21.7056 27.2364 21.7165 27.2694 21.726 27.3024C21.7746 27.4671 21.8248 27.6304 21.8766 27.7935C21.897 27.8595 21.919 27.927 21.941 27.9929C21.9834 28.1247 22.0273 28.2566 22.0728 28.3869C22.0963 28.4575 22.1215 28.5265 22.1466 28.5971C22.1937 28.729 22.2423 28.8608 22.291 28.9927C22.3145 29.0554 22.338 29.1182 22.3616 29.1794C22.4307 29.3583 22.5013 29.5373 22.5751 29.7146C22.5798 29.7271 22.5845 29.7397 22.5892 29.7507C22.6676 29.9406 22.7493 30.1289 22.834 30.3173C22.8591 30.3722 22.8842 30.4272 22.9093 30.4837C22.9705 30.617 23.0318 30.7489 23.0945 30.8807C23.1243 30.9451 23.1558 31.0079 23.1872 31.0722C23.2138 31.1287 23.2405 31.1836 23.2687 31.2402C23.1683 31.2982 23.0663 31.3563 22.9658 31.4128C19.6181 29.7586 15.977 28.9314 12.3389 28.9314C9.53425 28.9314 6.72955 29.4227 4.05829 30.4052C4.38945 30.0253 4.73474 29.655 5.09101 29.2987ZM20.406 32.6307C15.2268 34.6915 9.44788 34.6915 4.2686 32.6307C9.44788 30.5715 15.2268 30.5715 20.406 32.6307ZM20.5175 42.3521C14.7544 42.3521 9.19209 40.0622 5.09258 35.9628C4.73474 35.6049 4.38945 35.2361 4.05829 34.8562C10.1966 37.1147 17.0364 36.7789 22.9643 33.8471C23.0663 33.9036 23.1668 33.9616 23.2672 34.0197C23.2405 34.0731 23.2154 34.128 23.1887 34.183C23.1558 34.2489 23.1243 34.3164 23.0914 34.3823C23.0302 34.511 22.9705 34.6412 22.9109 34.77C22.8842 34.828 22.8576 34.8861 22.8309 34.9442C22.7476 35.1309 22.6661 35.3177 22.5876 35.5076C22.5813 35.5233 22.5751 35.5406 22.5672 35.5562C22.495 35.7305 22.426 35.9047 22.3584 36.0789C22.3349 36.1417 22.3114 36.2044 22.2878 36.2688C22.2392 36.399 22.1905 36.5309 22.1434 36.6628C22.1183 36.7334 22.0932 36.804 22.0697 36.8746C22.0242 37.0048 21.9802 37.1352 21.9379 37.267C21.9159 37.3329 21.8939 37.4004 21.8735 37.4663C21.8217 37.6295 21.773 37.7928 21.7244 37.956C21.715 37.9905 21.704 38.0234 21.6946 38.058C21.638 38.2542 21.5847 38.4504 21.5329 38.6481C21.5172 38.7093 21.5015 38.7706 21.4859 38.8318C21.4513 38.9699 21.4168 39.1096 21.3838 39.2493C21.3666 39.323 21.3493 39.3984 21.3336 39.4721C21.3038 39.6024 21.2755 39.7326 21.2488 39.8629C21.2332 39.9367 21.2175 40.0104 21.2033 40.0858C21.1751 40.2317 21.1484 40.3762 21.1217 40.5221C21.1123 40.5786 21.0997 40.6367 21.0903 40.6931C21.0558 40.8925 21.0244 41.0934 20.9961 41.2927C20.9883 41.3476 20.982 41.401 20.9742 41.456C20.9538 41.6051 20.9334 41.7557 20.9161 41.9048C20.9067 41.9801 20.8989 42.0554 20.891 42.1308C20.8831 42.203 20.8738 42.2752 20.8674 42.3474C20.7498 42.3489 20.6336 42.3506 20.5175 42.3506V42.3521ZM29.2956 60.1674C24.8932 55.7649 22.5766 49.6721 22.9407 43.4523C22.9518 43.2609 22.9658 43.0693 22.9816 42.8779C22.9862 42.8151 22.9941 42.7523 22.9988 42.688C23.0114 42.5593 23.0239 42.4306 23.0381 42.3034C23.0458 42.2297 23.0553 42.1543 23.0647 42.0806C23.0788 41.9629 23.0945 41.8467 23.1102 41.7291C23.1213 41.6506 23.1322 41.5736 23.1447 41.4952C23.162 41.3806 23.1793 41.2676 23.1981 41.153C23.2107 41.0745 23.2248 40.9977 23.2374 40.9192C23.2578 40.8046 23.2798 40.6901 23.3017 40.5755C23.3159 40.5001 23.33 40.4248 23.3457 40.3494C23.3708 40.2286 23.3974 40.1062 23.4242 39.9853C23.4382 39.9178 23.4524 39.8519 23.468 39.7844C23.5042 39.629 23.5418 39.4752 23.5811 39.3214C23.589 39.2885 23.5968 39.257 23.6046 39.2241C23.6533 39.039 23.7035 38.8537 23.7568 38.6701C23.7726 38.6136 23.7914 38.5571 23.8087 38.5006C23.8463 38.3735 23.8855 38.2463 23.9248 38.1193C23.9468 38.0486 23.9703 37.9779 23.9938 37.9073C24.0316 37.7943 24.0676 37.6813 24.1069 37.5699C24.132 37.4961 24.1586 37.4208 24.1854 37.347C24.2246 37.2387 24.2638 37.132 24.303 37.0252C24.3313 36.9499 24.3596 36.8761 24.3894 36.8008C24.4317 36.6941 24.4741 36.5874 24.5165 36.4807C24.5463 36.4084 24.5746 36.3363 24.6059 36.264C24.6531 36.1527 24.7001 36.0428 24.7488 35.9329C24.7771 35.867 24.8069 35.8011 24.8351 35.7352C24.8932 35.6065 24.9528 35.4778 25.014 35.3507C25.036 35.3051 25.0564 35.2596 25.0783 35.2141C25.0815 35.2094 25.0831 35.2047 25.0862 35.1984C26.0216 35.8733 26.9084 36.6266 27.7308 37.4444L27.8077 37.5212C28.911 38.6277 29.8904 39.8472 30.7206 41.1452C30.9655 41.5266 31.1962 41.9095 31.4081 42.2893C28.4763 48.2173 28.1404 55.0586 30.399 61.1969C30.0191 60.8657 29.6503 60.522 29.294 60.1642L29.2956 60.1674ZM32.6276 60.9897C30.5653 55.8104 30.5653 50.03 32.6276 44.8508C34.6899 50.03 34.6899 55.8104 32.6276 60.9897ZM35.958 60.1674C35.6017 60.5236 35.2329 60.8689 34.8532 61.1985C37.1116 55.0602 36.7757 48.2188 33.844 42.2909C34.0573 41.9111 34.2866 41.5266 34.5329 41.1452C35.3632 39.8472 36.3425 38.6293 37.4444 37.5244L37.5212 37.4474C38.3437 36.6282 39.2304 35.8748 40.1658 35.1999C40.1674 35.2047 40.1705 35.2094 40.1737 35.2141C40.1972 35.2628 40.2192 35.3114 40.2427 35.3601C40.3024 35.484 40.3604 35.6096 40.417 35.7352C40.4468 35.8027 40.4766 35.8701 40.5064 35.9377C40.5535 36.0459 40.6021 36.1558 40.6476 36.264C40.6775 36.3363 40.7073 36.4101 40.7371 36.4839C40.7795 36.589 40.8218 36.6957 40.8643 36.8008C40.8941 36.8761 40.9223 36.9515 40.9505 37.0269C40.9898 37.1336 41.029 37.2387 41.0683 37.347C41.0949 37.4223 41.1216 37.4976 41.1483 37.5731C41.1859 37.6845 41.2236 37.7959 41.2597 37.9073C41.2833 37.9795 41.3069 38.0502 41.3303 38.1223C41.3696 38.2463 41.4073 38.3719 41.445 38.4975C41.4622 38.5571 41.4811 38.6151 41.4983 38.6748C41.5517 38.8584 41.6019 39.0421 41.649 39.2272C41.6584 39.2649 41.6662 39.301 41.6757 39.3387C41.7133 39.4878 41.751 39.6369 41.7855 39.7876C41.8012 39.8566 41.8169 39.9257 41.831 39.9963C41.8578 40.1156 41.8829 40.2333 41.908 40.3526C41.9237 40.4295 41.9378 40.508 41.9535 40.5848C41.9754 40.6963 41.9958 40.8093 42.0162 40.9207C42.0303 41.0008 42.0445 41.0808 42.0571 41.1608C42.0758 41.2723 42.0931 41.3837 42.1088 41.4952C42.1214 41.5752 42.1324 41.6553 42.1434 41.7353C42.159 41.8499 42.1732 41.9644 42.1873 42.079C42.1968 42.1559 42.2062 42.2313 42.214 42.3081C42.2281 42.4337 42.2407 42.5608 42.2517 42.6864C42.2579 42.7507 42.2642 42.8166 42.2705 42.881C42.2862 43.0725 42.3003 43.2624 42.3113 43.4539V43.457C42.677 49.6738 40.362 55.7649 35.958 60.1689V60.1674ZM60.161 35.9628C55.9784 40.1454 50.2811 42.4416 44.3846 42.3506C44.3767 42.2768 44.3689 42.203 44.3595 42.1292C44.3516 42.0571 44.3438 41.9833 44.3359 41.9111C44.3171 41.7572 44.2982 41.6034 44.2763 41.4512C44.27 41.401 44.2638 41.3492 44.2559 41.299C44.2261 41.0965 44.1947 40.8956 44.1602 40.6948C44.1507 40.6414 44.1413 40.5895 44.1319 40.5362C44.1053 40.3855 44.077 40.2349 44.0487 40.0858C44.0346 40.0152 44.0205 39.9429 44.0047 39.8723C43.9765 39.7389 43.9483 39.6039 43.9184 39.4705C43.9028 39.3984 43.8854 39.3277 43.8698 39.2555C43.8369 39.1127 43.8007 38.9699 43.7646 38.8286C43.7505 38.7706 43.7363 38.7125 43.7207 38.6544C43.6689 38.4551 43.614 38.2573 43.5574 38.0596C43.5496 38.0313 43.5402 38.0031 43.5323 37.9748C43.4821 37.8053 43.4319 37.6374 43.3785 37.4678C43.3581 37.4036 43.3377 37.3392 43.3158 37.2764C43.2718 37.143 43.2279 37.008 43.1808 36.8746C43.1573 36.8055 43.1337 36.7381 43.1086 36.669C43.0599 36.5341 43.0113 36.4006 42.961 36.2657C42.9391 36.2044 42.9155 36.1448 42.8936 36.0836C42.823 35.9015 42.7523 35.721 42.677 35.5421C42.6722 35.5311 42.6692 35.5217 42.6644 35.5107C42.586 35.3209 42.5027 35.1309 42.4196 34.9442C42.3944 34.8876 42.3693 34.8327 42.3442 34.7777C42.2846 34.646 42.2234 34.5125 42.1606 34.3823C42.1292 34.3164 42.0979 34.252 42.0665 34.1877C42.0398 34.1328 42.0131 34.0762 41.9864 34.0213C42.0869 33.9633 42.1873 33.9052 42.2893 33.8486C45.6386 35.5045 49.2767 36.3316 52.9163 36.3316C55.7194 36.3316 58.5256 35.8403 61.1953 34.8578C60.8642 35.2376 60.5188 35.6065 60.161 35.9643V35.9628ZM44.8476 32.6307C50.0269 30.5715 55.8057 30.5715 60.985 32.6307C55.8057 34.6915 50.0269 34.6915 44.8476 32.6307ZM42.2878 31.4144C42.1873 31.3578 42.0853 31.2998 41.9848 31.2417C42.0115 31.1883 42.0367 31.135 42.0618 31.0832C42.0963 31.0141 42.1292 30.9451 42.1622 30.8761C42.2219 30.7505 42.2799 30.6249 42.338 30.4978C42.3662 30.4366 42.3945 30.3754 42.4212 30.3142C42.5044 30.1289 42.5844 29.9422 42.6629 29.7554C42.6707 29.735 42.6801 29.7146 42.688 29.6926C42.757 29.5231 42.8261 29.3536 42.8904 29.1826C42.9155 29.1182 42.9391 29.0539 42.9627 28.9895C43.0113 28.8593 43.0584 28.7306 43.1055 28.5987C43.1306 28.5281 43.1557 28.4559 43.1808 28.3853C43.2263 28.255 43.2687 28.1247 43.3126 27.9945C43.3346 27.927 43.3566 27.8611 43.3785 27.7935C43.4303 27.6304 43.4806 27.4656 43.5276 27.3024C43.537 27.2694 43.5481 27.2364 43.5574 27.2035C43.614 27.0072 43.6674 26.8096 43.7191 26.6118C43.7348 26.5521 43.7489 26.4909 43.7646 26.4312C43.8007 26.2916 43.8352 26.1503 43.8682 26.0091C43.8855 25.9369 43.9012 25.8631 43.9184 25.7893C43.9483 25.6575 43.9765 25.5241 44.0047 25.3907C44.0189 25.3185 44.0346 25.2463 44.0487 25.1742C44.0785 25.0251 44.1053 24.8759 44.1319 24.7268C44.1413 24.6735 44.1523 24.6185 44.1617 24.5651C44.1963 24.3643 44.2276 24.1618 44.2574 23.9609C44.2653 23.9106 44.27 23.8604 44.2778 23.8118C44.2999 23.658 44.3187 23.5026 44.3375 23.3488C44.3454 23.2766 44.3532 23.2044 44.361 23.1322C44.3689 23.0585 44.3783 22.9831 44.3861 22.9093C50.2811 22.8199 55.9846 25.1192 60.1642 29.2987C60.522 29.6565 60.8657 30.0253 61.1969 30.4052C55.0586 28.1483 48.2173 28.4841 42.2878 31.4128V31.4144Z" fill="#F3F6FF"/>
<path d="M33.9644 31.3218L33.9393 31.2967C33.5579 30.9153 33.2298 30.5025 32.9505 30.0677C32.8343 29.8872 32.7276 29.7021 32.6287 29.5153C32.5298 29.7021 32.4215 29.8872 32.3069 30.0677C32.0276 30.504 31.698 30.9153 31.3182 31.2967L31.2931 31.3218C30.9117 31.7 30.499 32.0311 30.0642 32.3089C29.8837 32.4251 29.6985 32.5334 29.5117 32.6323C29.6985 32.7311 29.8837 32.8379 30.0642 32.954C30.5005 33.2318 30.9117 33.5614 31.2931 33.9413L31.3182 33.9664C31.698 34.3477 32.0291 34.7605 32.3069 35.1953C32.4231 35.3757 32.5314 35.5609 32.6287 35.7477C32.7276 35.5609 32.8359 35.3757 32.9505 35.1953C33.2283 34.7605 33.5594 34.3462 33.9393 33.9664L33.9644 33.9413C34.3457 33.5614 34.7585 33.2318 35.1933 32.954C35.3737 32.8379 35.5589 32.7296 35.7457 32.6323C35.5574 32.5334 35.3722 32.4251 35.1933 32.3089C34.7569 32.0311 34.3441 31.7 33.9644 31.3218Z" fill="#F3F6FF"/>
</g>
</g>
<defs>
<clipPath id="clip0_2041_1306">
<rect width="210.283" height="65.2603" fill="white"/>
</clipPath>
</defs>
</svg>
