<svg width="228" height="65" viewBox="0 0 228 65" fill="none" xmlns="http://www.w3.org/2000/svg">
<path d="M92.1231 7.5181C92.1015 8.21114 91.4732 8.76866 90.7986 8.93191C90.124 9.09517 89.4156 8.94732 88.7441 8.77482C87.2009 8.38056 85.6916 7.85076 84.1268 7.55506C82.5621 7.25936 80.908 7.20391 79.4079 7.74295C77.6615 8.37131 76.2322 9.82518 75.6316 11.5809C75.031 13.3366 75.2712 15.3603 76.263 16.9282C77.3935 18.7116 79.3463 19.7989 81.2992 20.6059C83.9359 21.6963 86.6773 22.565 88.8519 24.5055C89.6928 25.254 90.3951 26.2058 90.6631 27.2992C90.9126 28.3219 90.7709 29.4061 90.4782 30.4164C89.6589 33.241 87.167 34.5501 84.3209 34.5439C83.2705 34.5439 82.2079 34.3591 81.2715 33.8878C80.3351 33.4166 79.5281 32.6403 79.1338 31.6701C78.6964 30.592 78.8165 29.2767 79.5342 28.3588C80.2519 27.4409 81.5703 27.0066 82.6606 27.4132C83.751 27.8198 84.4687 29.0981 84.1576 30.2224C85.5006 29.594 86.2368 27.9769 86.0058 26.5107C85.7748 25.0476 84.6844 23.794 83.3352 23.1779C81.9861 22.5619 80.4152 22.5372 78.9798 22.9069C77.5105 23.2857 76.1214 24.0958 75.2435 25.331C74.1007 26.9389 73.9529 29.1443 74.6767 30.9801C75.4006 32.8159 76.9191 34.2759 78.6933 35.1415C80.4675 36.007 82.4789 36.2996 84.4503 36.2226C89.1168 36.0409 94.1406 33.3118 94.8675 28.325C95.1355 26.4768 94.7659 24.5548 93.9188 22.8915C92.736 20.569 90.6477 18.8009 88.279 17.7691C85.6977 16.6448 82.9225 16.0041 80.7078 14.1406C80.0671 13.6015 79.4788 12.9424 79.2755 12.1292C79.0722 11.316 79.3679 10.3365 80.1195 9.96687C80.7016 9.68041 81.407 9.81286 82.0107 10.0531C83.3198 10.5798 84.3825 11.5655 85.4914 12.4403C86.6002 13.3151 87.8693 14.119 89.28 14.1683C90.8078 14.2206 92.3233 13.2781 92.9517 11.8858C93.58 10.4936 93.1796 8.63313 92.1292 7.52118L92.1231 7.5181Z" fill="#F3F6FF"/>
<path d="M118.847 35.4711C116.793 28.9472 114.874 22.0536 112.819 15.5328C112.071 13.1518 111.313 10.5614 111.257 8.06639C108.538 8.03558 106.055 8.09719 103.338 8.06639C100.92 17.2516 98.068 26.5538 94.8984 35.508C96.4355 35.508 97.7969 35.4741 99.2569 35.2924C100.714 35.1107 102.177 34.7441 103.126 33.6229C104.204 32.3477 104.475 30.5427 104.228 28.8886C103.982 27.2377 103.277 25.6945 102.58 24.1759C104.989 24.2129 107.244 24.139 109.656 24.1759C111.159 27.4933 111.76 32.1691 110.112 35.508C113.062 35.5019 115.899 35.4772 118.853 35.4711H118.847ZM109.308 22.8976H102.46C102.3 22.8976 102.131 20.4458 102.118 20.2055C101.986 17.4395 102.476 14.5656 103.699 12.0676C103.899 11.6579 104.188 11.2113 104.641 11.1651C105.1 11.1189 105.476 11.5101 105.741 11.8859C106.723 13.2904 107.222 14.9507 107.678 16.5832L109.308 22.8976Z" fill="#F3F6FF"/>
<path d="M120.445 8.42679V35.5111H129.674C129.618 32.7513 128.161 30.17 126.726 27.8137C125.29 25.4573 123.744 23.0578 123.344 20.3287C123.239 19.6203 123.298 18.7424 123.932 18.4067C124.585 18.0586 125.364 18.5422 125.907 19.0474C126.877 19.953 127.693 21.0095 128.62 21.9582C129.547 22.9069 130.616 23.7693 131.885 24.1605C133.154 24.5517 134.651 24.3916 135.628 23.4921V18.1634C134.993 19.2969 133.472 19.5587 132.196 19.3184C130.918 19.0782 129.8 18.342 128.697 17.6582C127.591 16.9744 126.406 16.3121 125.109 16.2536C123.812 16.1951 122.386 16.9313 122.087 18.1972C121.674 16.46 121.705 14.732 122.087 12.9886C122.275 12.1354 122.583 11.2606 123.245 10.6908C124.068 9.9823 125.294 9.89914 126.325 10.2318C127.357 10.5645 128.238 11.2483 129.055 11.9629C129.871 12.6775 130.662 13.4383 131.608 13.9712C133.419 14.9938 135.742 15.0462 137.599 14.1067V8.23274C136.281 9.44634 134.189 9.3447 132.43 9.01511C130.672 8.68553 128.965 8.01096 127.179 7.94012C125.001 7.85387 122.626 8.42679 120.445 8.42679Z" fill="#F3F6FF"/>
<path d="M139.199 8.42679V35.5111H148.428C148.372 32.7513 146.915 30.17 145.48 27.8137C144.044 25.4573 142.498 23.0578 142.098 20.3287C141.993 19.6203 142.052 18.7424 142.686 18.4067C143.339 18.0586 144.118 18.5422 144.66 19.0474C145.631 19.953 146.447 21.0095 147.374 21.9582C148.301 22.9069 149.37 23.7693 150.639 24.1605C151.908 24.5517 153.405 24.3916 154.382 23.4921V18.1634C153.747 19.2969 152.225 19.5587 150.95 19.3184C149.672 19.0782 148.554 18.342 147.451 17.6582C146.345 16.9744 145.159 16.3121 143.863 16.2536C142.566 16.1951 141.14 16.9313 140.841 18.1972C140.428 16.46 140.459 14.732 140.841 12.9886C141.029 12.1354 141.337 11.2606 141.999 10.6908C142.822 9.9823 144.047 9.89914 145.079 10.2318C146.111 10.5645 146.992 11.2483 147.808 11.9629C148.625 12.6775 149.416 13.4383 150.362 13.9712C152.173 14.9938 154.496 15.0462 156.353 14.1067V8.23274C155.035 9.44634 152.943 9.3447 151.184 9.01511C149.426 8.68553 147.719 8.01096 145.933 7.94012C143.755 7.85387 141.38 8.42679 139.199 8.42679Z" fill="#F3F6FF"/>
<path d="M157.95 35.508H165.379C164.788 32.3724 163.894 29.2829 162.61 26.3598C161.747 24.3977 160.734 22.491 160.109 20.4396C159.483 18.3882 159.274 16.1304 160.038 14.1252C160.685 12.4249 162.025 11.0111 163.666 10.2256C165.462 9.36314 167.643 9.26765 169.442 10.1209C171.241 10.9741 172.574 12.8161 172.667 14.8028C172.71 15.7392 172.396 16.8049 171.546 17.1992C170.538 17.6643 169.371 16.9466 168.656 16.0965C167.942 15.2464 167.384 14.1991 166.402 13.6816C164.966 12.927 163.029 13.7124 162.274 15.1478C161.519 16.5832 161.455 18.6685 162.404 19.9837C164.119 22.3555 166.688 23.9818 168.684 26.1257C171.065 28.6884 172.174 32.0582 171.589 35.508H179.305C179.48 32.0828 177.934 29.2336 175.553 26.8957C173.169 24.5578 170.126 23.0393 167.193 21.4437C166.275 20.9448 165.32 20.3872 164.825 19.4693C164.329 18.5514 164.538 17.1746 165.505 16.7803C166.417 16.4107 167.406 17.0575 168.12 17.729C169.171 18.7178 170.098 19.8482 171.271 20.6891C172.442 21.53 173.957 22.0598 175.337 21.6378C177.29 21.0372 178.088 18.9919 178.464 17.1653C178.858 15.2556 178.938 12.5419 177.832 10.8447C176.844 9.3231 175.094 8.05713 173.28 8.05713L157.943 8.10333C157.943 8.10333 157.977 35.508 157.943 35.508H157.95Z" fill="#F3F6FF"/>
<path d="M206.346 8.05711V35.5049H209.783C211.496 35.5049 213.07 34.4761 213.674 32.8744C213.8 32.5387 213.88 32.1875 213.883 31.8333C213.901 30.2716 213.504 28.8393 212.669 27.5118C211.958 26.3782 211.068 25.3618 210.362 24.2252C209.506 22.8421 208.936 21.2836 208.693 19.6788C208.431 17.9538 208.225 16.1488 208.262 14.4024C208.271 13.9126 208.329 13.3489 208.794 13.1148C209.09 12.967 209.441 13.0163 209.725 13.1857C210.187 13.4629 210.418 13.9588 210.633 14.4332C211.262 15.81 211.89 17.1869 212.518 18.5637C214.068 21.955 215.512 25.371 217.012 28.7808C217.829 30.6351 218.83 32.5017 220.444 33.7276C223.407 35.9793 225.264 35.5388 227.935 35.508V8.05711H223.499C222.181 8.05711 220.961 9.20911 220.484 10.4381C220.462 10.4936 220.444 10.5459 220.425 10.6014C219.264 14.1128 222.899 17.9015 224.254 20.8646C225.36 23.2888 225.85 25.9901 225.665 28.6484C225.625 29.212 225.569 30.0375 224.966 30.287C224.621 30.4287 224.211 30.2809 223.943 30.0221C223.675 29.7634 223.518 29.4153 223.364 29.0734C223.124 29.0734 222.018 26.0548 221.864 25.7067C221.325 24.4962 220.786 23.2888 220.247 22.0783C219.008 19.2999 217.903 16.4045 216.43 13.7401C215.706 12.431 214.933 10.6938 213.803 9.71118C211.659 7.84765 208.967 8.06019 206.346 8.06019V8.05711Z" fill="#F3F6FF"/>
<path d="M203.856 17.689C201.333 10.1086 194.104 5.71309 187.709 7.87232C181.311 10.0316 178.173 17.9231 180.692 25.5035C183.215 33.0839 190.444 37.4794 196.839 35.3201C203.236 33.1609 206.375 25.2694 203.856 17.689ZM200.517 25.1801C201.89 32.9607 195.545 35.1846 190.364 30.0129C188.984 28.6699 187.805 27.0898 186.754 25.4326C185.075 22.759 183.726 19.7373 183.711 16.577V16.5401C183.699 11.1928 187.512 8.73786 192.108 11.5008C196.294 14.0543 199.642 20.3564 200.517 25.177V25.1801Z" fill="#F3F6FF"/>
<path d="M26.5796 64.1877C26.1761 62.891 25.8588 61.5726 25.7387 60.2204C25.597 58.6249 25.7264 57.0078 26.1483 55.4615C26.7028 53.4285 27.7439 51.5589 29.0715 49.9325C30.5654 48.0998 31.3016 46.0206 31.4001 43.8953C31.4771 42.2504 31.1753 40.5748 30.5469 38.9608C30.2635 38.2308 29.9155 37.5162 29.5058 36.82C29.4165 36.666 29.2378 36.5798 29.0592 36.6106C27.0601 36.9371 25.4769 37.8303 24.0661 39.0932C19.3041 43.5811 18.2076 51.1184 20.2159 57.1802C20.6132 58.3815 21.1584 59.512 21.8176 60.5901C22.8648 62.2996 24.3279 63.7504 26.0498 64.773C26.213 64.8716 26.6443 65.0718 26.7028 64.7791C26.7089 64.7545 26.7059 64.7237 26.7028 64.6929C26.6812 64.5204 26.6319 64.3541 26.5796 64.1877Z" fill="#F3F6FF"/>
<path d="M40.2443 52.8681C37.6877 51.6576 35.3621 49.8803 33.6187 47.681C33.4616 47.4839 33.1505 47.5332 33.0612 47.7704C32.5899 49.0117 31.8661 50.2992 30.8065 51.6021C27.6123 55.5233 26.7283 60.3992 29.4912 64.8378C29.5528 64.9364 29.6145 65.0227 29.8609 64.9949C31.9493 64.7824 33.6064 64.2372 35.895 62.2289C38.4454 59.8232 39.9209 56.6075 40.4291 53.2069C40.4507 53.0653 40.3736 52.9266 40.2443 52.865V52.8681Z" fill="#F3F6FF"/>
<path d="M8.11021 40.7783C10.1493 40.2423 12.287 40.2115 14.36 40.5442C16.6948 40.92 18.8632 40.5195 20.7514 39.5431C22.2145 38.7885 23.5144 37.6888 24.5986 36.3366C25.0884 35.7267 25.535 35.0676 25.9323 34.3653C26.0186 34.2113 26.0063 34.0141 25.8923 33.8724C24.6078 32.3046 23.0431 31.3805 21.2443 30.7891C14.976 28.9102 7.90075 31.7286 3.65622 36.4968C2.81532 37.4424 2.10687 38.4774 1.50315 39.5862C0.551359 41.3512 0.0246417 43.3441 0 45.3462C0 45.5372 0.0369626 46.0116 0.320342 45.913C0.344984 45.9038 0.369626 45.8884 0.394268 45.8699C0.532877 45.7652 0.653006 45.6389 0.770054 45.5126C1.69104 44.5177 2.67363 43.5813 3.78559 42.802C5.09776 41.881 6.56086 41.1849 8.11329 40.7783H8.11021Z" fill="#F3F6FF"/>
<path d="M18.2295 42.9189C16.9173 43.1314 15.4419 43.1499 13.7816 42.8819C8.78861 42.0749 4.12208 43.7475 1.66099 48.3616C1.60554 48.4633 1.56242 48.5588 1.71027 48.7621C2.93928 50.4654 4.23913 51.6267 7.12221 52.6031C10.4796 53.6103 14.0034 53.2777 17.2038 52.0179C17.3362 51.9655 17.4194 51.83 17.4071 51.6883C17.176 48.8668 17.5549 45.9683 18.5868 43.3563C18.6792 43.1191 18.479 42.8758 18.2295 42.9189Z" fill="#F3F6FF"/>
<path d="M3.5392 13.6784C3.69937 13.7461 3.86878 13.7893 4.03819 13.8262C5.36269 14.125 6.66254 14.51 7.89154 15.083C9.34541 15.7606 10.6791 16.6785 11.8096 17.8182C13.2942 19.3152 14.3908 21.151 15.1362 23.1162C15.9771 25.3278 17.4094 27.0034 19.199 28.1523C20.5851 29.0425 22.1868 29.6185 23.8994 29.8803C24.6726 30.0004 25.4673 30.0559 26.2743 30.0497C26.4529 30.0497 26.6162 29.9358 26.6809 29.7694C27.3955 27.8751 27.414 26.0578 27.0289 24.2035C25.5227 17.8336 19.544 13.1178 13.2912 11.8241C12.0529 11.5684 10.7993 11.4729 9.53946 11.5037C7.53732 11.5561 5.5475 12.0982 3.80102 13.0777C3.63468 13.1701 3.2435 13.4412 3.46835 13.6383C3.48991 13.6568 3.51456 13.6691 3.54228 13.6815L3.5392 13.6784Z" fill="#F3F6FF"/>
<path d="M6.61878 31.3097C6.72967 31.399 6.88984 31.4021 7.00689 31.3189C9.33553 29.708 12.0338 28.5868 14.8122 28.174C15.0617 28.1371 15.1725 27.8414 15.0124 27.6442C14.1715 26.6154 13.4199 25.3464 12.8223 23.7755C11.0235 19.0473 7.24406 15.8439 2.01694 16.0164C1.89989 16.0195 1.79824 16.0318 1.69352 16.2597C0.834135 18.1756 0.47683 19.8821 1.07131 22.8668C1.87833 26.2797 3.92667 29.1628 6.61878 31.3066V31.3097Z" fill="#F3F6FF"/>
<path d="M33.1155 0.812394C33.519 2.10916 33.8363 3.4275 33.9564 4.77971C34.0981 6.37526 33.9688 7.99238 33.5468 9.53865C32.9923 11.5716 31.9512 13.4413 30.6236 15.0676C29.1297 16.9004 28.3936 18.9795 28.295 21.1049C28.218 22.7497 28.5199 24.4253 29.1482 26.0394C29.4316 26.7694 29.7797 27.484 30.1893 28.1801C30.2787 28.3341 30.4573 28.4204 30.636 28.3896C32.635 28.0631 34.2183 27.1698 35.629 25.9069C40.391 21.419 41.4876 13.8818 39.4793 7.81989C39.0819 6.6186 38.5367 5.48816 37.8775 4.41009C36.8303 2.70057 35.3672 1.24978 33.6453 0.227153C33.4821 0.128586 33.0509 -0.0716282 32.9923 0.220992C32.9862 0.245634 32.9892 0.276436 32.9923 0.307238C33.0139 0.479731 33.0632 0.646062 33.1155 0.812394Z" fill="#F3F6FF"/>
<path d="M19.4501 12.1321C22.0067 13.3426 24.3323 15.1199 26.0757 17.3192C26.2328 17.5163 26.5439 17.467 26.6332 17.2298C27.1045 15.9885 27.8283 14.701 28.8879 13.398C32.0821 9.47692 32.9661 4.60094 30.2032 0.162348C30.1416 0.0637811 30.08 -0.022465 29.8335 0.00525697C27.7452 0.217792 26.088 0.76299 23.7994 2.77129C21.249 5.17694 19.7736 8.39269 19.2653 11.7932C19.2438 11.9349 19.3208 12.0735 19.4501 12.1351V12.1321Z" fill="#F3F6FF"/>
<path d="M51.5816 24.2189C49.5425 24.7549 47.4048 24.7857 45.3318 24.453C42.997 24.0772 40.8286 24.4777 38.9404 25.4541C37.4773 26.2088 36.1774 27.3084 35.0932 28.6606C34.6034 29.2705 34.1568 29.9297 33.7595 30.6319C33.6732 30.786 33.6855 30.9831 33.7995 31.1248C35.084 32.6926 36.6487 33.6167 38.4476 34.2081C44.7158 36.087 51.7911 33.2686 56.0356 28.5004C56.8765 27.5548 57.5849 26.5199 58.1887 25.411C59.1466 23.6522 59.6702 21.6562 59.6949 19.6541C59.6949 19.4631 59.6579 18.9887 59.3745 19.0873C59.3499 19.0965 59.3253 19.1119 59.3006 19.1304C59.162 19.2351 59.0419 19.3614 58.9248 19.4877C58.0039 20.4826 57.0213 21.419 55.9093 22.1983C54.5971 23.1193 53.134 23.8154 51.5816 24.222V24.2189Z" fill="#F3F6FF"/>
<path d="M41.4662 22.0812C42.7784 21.8687 44.2538 21.8502 45.914 22.1182C50.9071 22.9252 55.5736 21.2526 58.0347 16.6385C58.0901 16.5368 58.1332 16.4413 57.9854 16.238C56.7564 14.5347 55.4565 13.3734 52.5735 12.397C49.216 11.3898 45.6922 11.7224 42.4919 12.9822C42.3595 13.0346 42.2763 13.1701 42.2886 13.3118C42.5196 16.1333 42.1408 19.0318 41.1089 21.6438C41.0165 21.881 41.2167 22.1243 41.4662 22.0812Z" fill="#F3F6FF"/>
<path d="M56.1557 51.3186C55.9955 51.2508 55.8261 51.2077 55.6567 51.1707C54.3322 50.872 53.0324 50.4869 51.8034 49.914C50.3495 49.2364 49.0158 48.3185 47.8853 47.1788C46.4007 45.6818 45.3041 43.846 44.5587 41.8808C43.7178 39.6692 42.2855 37.9936 40.4959 36.8447C39.1098 35.9545 37.5081 35.3785 35.7955 35.1166C35.0223 34.9965 34.2276 34.9411 33.4206 34.9472C33.242 34.9472 33.0787 35.0612 33.014 35.2275C32.2994 37.1219 32.281 38.9392 32.666 40.7935C34.1722 47.1634 40.1509 51.8792 46.4037 53.1729C47.642 53.4285 48.8956 53.524 50.1554 53.4932C52.1576 53.4409 54.1474 52.8987 55.8939 51.9192C56.0602 51.8268 56.4514 51.5558 56.2265 51.3586C56.205 51.3402 56.1803 51.3278 56.1526 51.3155L56.1557 51.3186Z" fill="#F3F6FF"/>
<path d="M53.0719 33.6906C52.958 33.6013 52.8009 33.5982 52.6838 33.6814C50.3552 35.2923 47.6569 36.4135 44.8786 36.8263C44.6291 36.8632 44.5182 37.1589 44.6784 37.3561C45.5193 38.3849 46.2708 39.6539 46.8715 41.2248C48.6703 45.9529 52.4497 49.1564 57.6769 48.9839C57.7939 48.9808 57.8956 48.9685 58.0003 48.7405C58.8597 46.8246 59.217 45.1182 58.6225 42.1335C57.8155 38.7206 55.7671 35.8375 53.075 33.6937L53.0719 33.6906Z" fill="#F3F6FF"/>
<path d="M81.6726 50.6009V50.3607C82.4303 50.2159 83.0525 50.0095 83.533 49.7477C84.0135 49.4859 84.3647 49.1409 84.5834 48.7189C84.8021 48.2969 84.913 47.8072 84.913 47.2527C84.913 46.5813 84.7836 46.0083 84.531 45.534C84.2754 45.0596 83.9088 44.6684 83.4345 44.3635C82.9601 44.0555 82.3933 43.8306 81.7373 43.6859C81.0812 43.5411 80.3419 43.4672 79.5257 43.4672H74.2246V57.9226H80.0277C81.2845 57.9226 82.3133 57.7717 83.1172 57.4729C83.9211 57.1741 84.5156 56.7398 84.9037 56.17C85.2918 55.6001 85.4828 54.9132 85.4828 54.1124C85.4828 53.1206 85.1809 52.3166 84.5741 51.7037C83.9673 51.0907 83.0001 50.7241 81.6726 50.6071V50.6009ZM76.1528 45.1459H79.2638C80.4744 45.1459 81.3892 45.3369 82.0022 45.7157C82.6151 46.0946 82.9231 46.6737 82.9231 47.4468C82.9231 48.2199 82.5689 48.8021 81.8605 49.1871C81.152 49.5752 80.0832 49.7662 78.6509 49.7662H76.1528V45.1459ZM82.689 55.6494C82.1562 56.0221 81.343 56.2069 80.2464 56.2069H76.1497V51.257H79.0636C80.539 51.257 81.6449 51.4788 82.381 51.9254C83.1172 52.3721 83.4868 53.0405 83.4868 53.9307C83.4868 54.7038 83.2188 55.2767 82.686 55.6494H82.689Z" fill="#F3F6FF"/>
<path d="M97.5612 53.0097C97.2778 52.6 96.9451 52.2859 96.5632 52.0672C96.1843 51.8485 95.7223 51.7099 95.1832 51.6513V51.3895C95.7808 51.3033 96.3075 51.1554 96.7603 50.9521C97.2131 50.7488 97.5919 50.4901 97.9 50.1759C98.208 49.8617 98.4359 49.4921 98.5899 49.0701C98.744 48.6481 98.821 48.1799 98.821 47.6686C98.821 47.1296 98.7378 46.6367 98.5684 46.1901C98.399 45.7435 98.1525 45.3554 97.823 45.0196C97.4934 44.6839 97.096 44.4036 96.6278 44.1756C96.1597 43.9508 95.6206 43.7752 95.0077 43.6489C94.3947 43.5257 93.714 43.4641 92.9716 43.4641H87.957V57.9196H89.9499V52.4429H92.8176C93.446 52.4429 93.9943 52.5292 94.4594 52.7048C94.9276 52.8803 95.3157 53.1514 95.6299 53.5149C95.944 53.8814 96.1751 54.3619 96.3198 54.9595L97.0652 57.9165H99.2121L98.2912 54.6977C98.0879 53.983 97.8414 53.4194 97.5581 53.0128L97.5612 53.0097ZM92.8423 50.7981H89.9499V45.1243H92.8638C94.1914 45.1243 95.1771 45.3554 95.8208 45.8143C96.4646 46.2733 96.7849 46.994 96.7849 47.9705C96.7849 48.9469 96.4492 49.6461 95.7777 50.1051C95.1062 50.564 94.1267 50.795 92.8423 50.795V50.7981Z" fill="#F3F6FF"/>
<path d="M103.55 51.3463H110.625V49.7015H103.55V45.1674H111.654V43.4609H103.55H102.564H101.535V57.9164H102.564H103.55H111.675V56.2069H103.55V51.3463Z" fill="#F3F6FF"/>
<path d="M130.118 43.4609L127.161 56.0991H126.985L124.028 43.4609H121.315L118.314 56.0991H118.139L115.247 43.4609H113.1L116.691 57.9164H119.627L122.562 45.2998H122.759L125.627 57.9164H128.498L132.222 43.4609H130.118Z" fill="#F3F6FF"/>
</svg>
