<svg width="319" height="66" viewBox="0 0 319 66" fill="none" xmlns="http://www.w3.org/2000/svg">
<g clip-path="url(#clip0_2041_1228)">
<mask id="mask0_2041_1228" style="mask-type:luminance" maskUnits="userSpaceOnUse" x="0" y="0" width="319" height="66">
<path d="M318.136 0H0V65.2605H318.136V0Z" fill="white"/>
</mask>
<g mask="url(#mask0_2041_1228)">
<path d="M250.594 15.179V51.499H246.254V21.8747L231.003 43.791H227.841L212.59 21.9698V51.499H208.25V15.179H212.835L229.39 39.3606L245.943 15.179H250.594Z" fill="#F3F6FF"/>
<path d="M283.697 40.5821H257.356C257.471 42.4514 258.052 44.0451 259.1 45.3733C260.148 46.7014 261.521 47.6987 263.229 48.3803C264.933 49.0569 266.798 49.3978 268.813 49.3978C271.448 49.3978 273.669 48.9016 275.468 47.9042C277.272 46.9119 278.46 45.5688 279.047 43.8848H283.351C282.574 46.2954 280.921 48.2601 278.38 49.7836C275.839 51.3072 272.651 52.064 268.817 52.064C265.831 52.064 263.16 51.5427 260.794 50.5053C258.428 49.4679 256.579 47.9894 255.24 46.0749C253.903 44.1604 253.236 41.9252 253.236 39.3642C253.236 36.8032 253.893 34.5579 255.216 32.6335C256.534 30.704 258.373 29.2304 260.739 28.203C263.104 27.1807 265.795 26.6644 268.823 26.6644C271.85 26.6644 274.49 27.1756 276.761 28.203C279.026 29.2254 280.775 30.6037 281.993 32.3377C283.216 34.0718 283.823 35.9913 283.823 38.1013C283.823 39.1838 283.783 40.0158 283.707 40.5871L283.697 40.5821ZM278.26 33.305C277.272 32.012 275.924 31.0297 274.22 30.3681C272.516 29.7066 270.652 29.3758 268.637 29.3758C265.615 29.3758 263.034 30.1276 260.904 31.6361C258.774 33.1447 257.592 35.2646 257.356 38.006H279.683C279.723 36.1667 279.247 34.6031 278.26 33.305Z" fill="#F3F6FF"/>
<path d="M288.308 32.6524C289.626 30.7379 291.436 29.2645 293.746 28.222C296.051 27.1846 298.657 26.6633 301.564 26.6633C304.47 26.6633 306.877 27.1896 309.122 28.247C311.372 29.2995 313.016 30.6727 314.064 32.3617V18.2637H318.133V51.702H314.064V46.1891C313.096 47.9082 311.508 49.3164 309.297 50.414C307.087 51.5115 304.491 52.0629 301.504 52.0629C298.517 52.0629 295.991 51.5366 293.685 50.4791C291.38 49.4266 289.576 47.9332 288.278 46.0036C286.98 44.0741 286.328 41.8439 286.328 39.318C286.328 36.7921 286.985 34.5669 288.308 32.6524ZM312.495 34.1208C311.447 32.6173 310.024 31.4546 308.219 30.6426C306.416 29.8308 304.431 29.4248 302.261 29.4248C300.091 29.4248 297.996 29.8157 296.211 30.5976C294.428 31.3794 293.025 32.5171 291.997 34.0105C290.969 35.5041 290.459 37.2732 290.459 39.318C290.459 41.3628 290.969 43.1069 291.997 44.6254C293.025 46.149 294.428 47.3067 296.211 48.1036C297.996 48.9005 300.01 49.3014 302.261 49.3014C304.511 49.3014 306.42 48.8954 308.219 48.0835C310.024 47.2716 311.447 46.1089 312.495 44.6053C313.543 43.0968 314.064 41.3528 314.064 39.363C314.064 37.3734 313.543 35.6293 312.495 34.1208Z" fill="#F3F6FF"/>
<path d="M70.2492 0.165388V30.1456H46.8393C45.4962 30.1456 44.2533 30.8473 43.5616 31.9999L43.1858 32.6264L42.6295 33.5586C42.5643 33.6689 42.404 33.6639 42.3438 33.5536L41.8377 32.6264L40.9857 31.0628C40.6298 30.4163 39.9532 30.0454 39.2165 30.0905C38.4798 30.1356 37.8533 30.5917 37.5827 31.2733L37.0464 32.6264L35.3023 37.0217C35.2422 37.1771 35.0116 37.152 34.9815 36.9866L34.305 32.6314L32.576 21.4904C32.4657 20.7587 31.8944 20.2073 31.1577 20.1171C30.4209 20.0269 29.7393 20.4329 29.4536 21.1145L26.0307 31.8697C25.8502 32.3107 25.4192 32.5963 24.9431 32.5963H19.781C19.781 32.5963 19.7709 32.5963 19.7659 32.5963C11.2209 32.0801 4.45508 24.9885 4.45508 16.3133C4.45508 11.8077 6.27935 7.7281 9.2313 4.77619C12.1932 1.82427 16.2728 0 20.7783 0H70.0838C70.1741 0 70.2492 0.0751761 70.2492 0.165388Z" fill="#F3F6FF"/>
<path d="M65.7841 48.8295C65.8492 57.8656 58.2214 65.263 49.1802 65.263H0V35.0823H24.9534C26.4369 35.0823 27.7651 34.1952 28.3264 32.8219L28.3764 32.6416L30.3511 25.7203C30.4113 25.5198 30.702 25.5349 30.732 25.7454L31.7995 32.6416L33.0976 41.0412C33.2128 41.783 33.7891 42.3293 34.5309 42.4145C34.591 42.4194 34.6562 42.4244 34.7214 42.4244C35.3879 42.4244 35.9793 42.0235 36.2299 41.392L39.2319 33.8293C39.3021 33.6489 39.5526 33.6339 39.6429 33.8043L40.8005 35.9192C41.1264 36.5106 41.7428 36.8865 42.4144 36.8965C43.0859 36.9065 43.7174 36.5607 44.0632 35.9844L45.7271 33.2129C45.9275 32.8771 46.2935 32.6566 46.6844 32.6416H49.4658C53.9714 32.6416 58.046 34.4658 60.9979 37.4177C63.9248 40.3446 65.744 44.374 65.7741 48.8344L65.7841 48.8295Z" fill="#F3F6FF"/>
<path d="M91.1281 49.4416C88.8424 47.5622 87.379 44.9109 86.7324 41.4929L93.7439 39.5633C94.1146 41.3927 94.8116 42.7558 95.8286 43.653C96.8465 44.55 98.1145 45.0011 99.6373 45.0011C100.52 45.0011 101.297 44.8508 101.973 44.545C102.65 44.2393 103.156 43.8284 103.497 43.3021C103.832 42.7759 104.002 42.1945 104.002 41.5481C104.002 40.3652 103.607 39.4481 102.811 38.8066C102.013 38.1651 100.55 37.4534 98.4146 36.6716C95.8386 35.6893 93.8092 34.6719 92.3209 33.6245C90.8317 32.577 89.7646 31.4143 89.1181 30.1463C88.4765 28.8783 88.1507 27.3799 88.1507 25.6507C88.1507 23.6211 88.6419 21.8168 89.6243 20.2381C90.6065 18.6645 91.9946 17.4265 93.7892 16.5294C95.583 15.6323 97.5825 15.1813 99.7832 15.1813C103.001 15.1813 105.642 16.0132 107.707 17.6721C109.772 19.331 111.145 21.6865 111.821 24.7337L104.965 26.6632C104.594 25.2098 103.983 24.1222 103.136 23.4105C102.288 22.6989 101.256 22.343 100.039 22.343C99.2267 22.343 98.5152 22.4784 97.9033 22.749C97.2924 23.0196 96.8365 23.4005 96.5302 23.8916C96.2247 24.3828 96.0743 24.914 96.0743 25.4904C96.0743 26.2021 96.2447 26.7784 96.5809 27.2194C96.9163 27.6605 97.4429 28.0764 98.1544 28.4624C98.8659 28.8533 99.9137 29.2993 101.301 29.8105C105.06 31.1988 107.777 32.7725 109.455 34.5366C111.129 36.2957 111.971 38.5009 111.971 41.1421C111.971 43.3423 111.446 45.2818 110.398 46.9607C109.346 48.6346 107.882 49.9427 106.003 50.8699C104.123 51.8021 101.978 52.2681 99.5775 52.2681C96.2247 52.2681 93.4031 51.3259 91.1181 49.4465L91.1281 49.4416Z" fill="#F3F6FF"/>
<path d="M151.409 24.1222L145.005 51.5013H136.679L131.973 34.6418L127.283 51.5013H118.898L112.543 24.1222H120.421L122.452 34.1757L123.664 43.3472L125.699 34.1757L128.446 24.5281H135.457L138.248 34.1757L140.278 43.3472L141.501 34.1256L143.581 24.1222H151.409Z" fill="#F3F6FF"/>
<path d="M153.995 20.3097C153.147 19.5328 152.727 18.5005 152.727 17.2124C152.727 15.9244 153.147 14.942 153.995 14.1653C154.841 13.3885 155.974 12.9976 157.397 12.9976C158.821 12.9976 159.903 13.3885 160.75 14.1653C161.597 14.9471 162.018 15.9795 162.018 17.2625C162.018 18.5455 161.592 19.5328 160.75 20.3097C159.903 21.0915 158.786 21.4774 157.397 21.4774C156.01 21.4774 154.841 21.0865 153.995 20.3097ZM153.539 24.1185H161.156V51.4978H153.539V24.1185Z" fill="#F3F6FF"/>
<path d="M174.87 23.1561V24.1234H180.053V30.8792H175.276V51.5025H167.659V30.8792H163.744V24.1234H167.659V22.9005C167.659 19.8584 168.365 17.6332 169.789 16.2449C171.212 14.8567 173.497 14.165 176.649 14.165C177.762 14.165 179 14.2453 180.358 14.4157V20.56C179.742 20.3947 179.015 20.3095 178.173 20.3095C177.061 20.3095 176.229 20.54 175.688 20.9961C175.146 21.4522 174.87 22.1688 174.87 23.1561Z" fill="#F3F6FF"/>
<path d="M192.65 30.8743V42.0003C192.65 43.1129 192.881 43.8747 193.337 44.2606C193.793 44.6515 194.579 44.847 195.697 44.847C196.313 44.847 196.885 44.7969 197.426 44.6967V51.8083C196.173 51.9737 195.041 52.0589 194.023 52.0589C191.006 52.0589 188.756 51.2921 187.262 49.7485C185.774 48.2048 185.032 45.8844 185.032 42.7671V30.8743H181.223V24.2187H181.829C183.043 24.2187 183.945 24.0884 184.526 23.8377C185.097 23.5821 185.503 23.1211 185.738 22.4646C185.974 21.798 186.095 20.8157 186.095 19.4926V18.6757H192.339V24.1135H197.471V30.8693H192.645L192.65 30.8743Z" fill="#F3F6FF"/>
</g>
</g>
<defs>
<clipPath id="clip0_2041_1228">
<rect width="318.144" height="65.2603" fill="white"/>
</clipPath>
</defs>
</svg>
