<svg width="216" height="66" viewBox="0 0 216 66" fill="none" xmlns="http://www.w3.org/2000/svg">
<g clip-path="url(#clip0_2041_1293)">
<path d="M52.5995 0.135032L35.0065 12.6856C34.7366 12.8778 34.6442 13.2216 34.7551 13.5322C34.9178 13.9868 35.0065 14.4748 35.0028 14.9812C34.9991 16.7188 33.964 18.2085 32.4853 18.8888C32.2302 19.0071 32.0639 19.2584 32.0639 19.5394L32.0195 64.5401C32.0195 65.2425 32.9215 65.5272 33.3245 64.9542L61.7933 24.5966C61.9264 24.4081 61.9597 24.1641 61.8857 23.9459L53.6974 0.482529C53.5384 0.0315228 52.9913 -0.145922 52.5995 0.135032Z" fill="#F3F6FF"/>
<path d="M9.32488 0.135032L26.9178 12.6856C27.1876 12.8778 27.2801 13.2216 27.1691 13.5322C27.0065 13.9868 26.9178 14.4748 26.9215 14.9812C26.9251 16.7188 27.9602 18.2085 29.439 18.8888C29.6941 19.0071 29.8604 19.2584 29.8604 19.5394L29.9048 64.5401C29.9048 65.2425 29.0028 65.5272 28.5998 64.9542L0.13097 24.5966C-0.00211332 24.4081 -0.0353843 24.1641 0.0385512 23.9459L8.2269 0.482529C8.38585 0.0315228 8.93298 -0.145922 9.32488 0.135032Z" fill="#F3F6FF"/>
<path d="M82.831 39.3125L75.082 15.936H80.9672L85.7887 31.8978L90.7091 15.936H96.2626L88.4811 39.3125H82.8289H82.831Z" fill="#F3F6FF"/>
<path d="M108.533 33.8226H113.421C112.888 35.6621 111.879 37.1087 110.395 38.1621C108.91 39.2155 107.058 39.7423 104.842 39.7423C102.203 39.7423 100.046 38.8894 98.3731 37.1815C96.6999 35.4758 95.8633 33.3689 95.8633 30.8629C95.8633 28.3569 96.7216 26.2743 98.4402 24.5441C100.158 22.8141 102.313 21.951 104.908 21.951C107.503 21.951 109.737 22.7715 111.343 24.4125C112.949 26.0535 113.754 28.1158 113.754 30.5975V32.127H100.684C100.906 33.2129 101.383 34.0779 102.115 34.7201C102.846 35.3643 103.778 35.6844 104.908 35.6844C106.617 35.6844 107.824 35.0645 108.533 33.8226ZM104.908 26.0413C103.932 26.0413 103.102 26.2905 102.415 26.7888C101.728 27.2872 101.229 27.9578 100.917 28.8006H108.865C108.287 26.961 106.968 26.0413 104.908 26.0413Z" fill="#F3F6FF"/>
<path d="M133.968 29.3657H128.946C128.701 28.5229 128.247 27.8524 127.583 27.3541C126.918 26.8557 126.108 26.6066 125.155 26.6066C123.914 26.6066 122.918 27.0117 122.163 27.82C121.41 28.6303 121.033 29.6432 121.033 30.8629C121.033 32.0824 121.41 33.063 122.163 33.8733C122.918 34.6837 123.914 35.0868 125.155 35.0868C126.108 35.0868 126.922 34.8315 127.599 34.321C128.276 33.8105 128.736 33.1358 128.979 32.2931H133.967C133.657 34.4446 132.702 36.2233 131.106 37.6313C129.51 39.0393 127.527 39.7423 125.154 39.7423C122.427 39.7423 120.215 38.8894 118.519 37.1815C116.824 35.4758 115.975 33.3567 115.975 30.8304C115.975 28.3042 116.824 26.2195 118.519 24.5118C120.215 22.806 122.427 21.951 125.154 21.951C127.504 21.951 129.481 22.65 131.09 24.0458C132.696 25.4417 133.657 27.2163 133.967 29.3657H133.968Z" fill="#F3F6FF"/>
<path d="M159.179 21.951C161.862 21.951 164.062 22.804 165.779 24.5118C167.498 26.2195 168.356 28.3244 168.356 30.8304C168.356 33.3364 167.503 35.4474 165.796 37.1653C164.088 38.8833 161.884 39.7423 159.179 39.7423C156.474 39.7423 154.24 38.8894 152.544 37.1815C150.849 35.4758 150 33.3567 150 30.8304C150 28.3042 150.849 26.2195 152.544 24.5118C154.24 22.806 156.453 21.951 159.179 21.951ZM162.206 27.8362C161.431 27.0157 160.421 26.6066 159.179 26.6066C157.937 26.6066 156.935 27.0178 156.169 27.8362C155.405 28.6567 155.022 29.6655 155.022 30.8629C155.022 32.0601 155.405 33.063 156.169 33.8733C156.935 34.6837 157.937 35.0868 159.179 35.0868C160.421 35.0868 161.431 34.6816 162.206 33.8733C162.982 33.065 163.371 32.0601 163.371 30.8629C163.371 29.6655 162.982 28.6567 162.206 27.8362Z" fill="#F3F6FF"/>
<path d="M202.904 37.3815C201.795 38.9557 200.187 39.7417 198.082 39.7417C196.464 39.7417 195.134 39.3041 194.091 38.429C193.05 37.5538 192.529 36.3828 192.529 34.9201C192.529 33.4575 193.011 32.2379 193.976 31.3283C194.94 30.4186 196.464 29.7319 198.548 29.266L202.705 28.334V28.1679C202.705 27.548 202.494 27.0497 202.074 26.6708C201.652 26.294 201.077 26.1056 200.345 26.1056C199.614 26.1056 198.987 26.2879 198.532 26.6546C198.078 27.0213 197.817 27.5034 197.75 28.1011H192.862C192.973 26.3507 193.727 24.886 195.122 23.711C196.518 22.536 198.293 21.9485 200.442 21.9485C202.792 21.9485 204.587 22.5745 205.829 23.8264C207.071 25.0784 207.691 26.6911 207.691 28.6642V39.3062H202.902V37.3776L202.904 37.3815ZM202.705 32.327V31.7618L199.879 32.3594C198.283 32.714 197.485 33.346 197.485 34.2557C197.485 35.2746 198.127 35.7852 199.413 35.7852C200.322 35.7852 201.097 35.4306 201.741 34.7216C202.383 34.0126 202.705 33.2144 202.705 32.327Z" fill="#F3F6FF"/>
<path d="M209.963 39.3088V15.9506H215.018V39.3088H209.963Z" fill="#F3F6FF"/>
<path d="M145.847 35.2881C145.138 35.2881 144.621 35.122 144.301 34.7897C143.979 34.4575 143.819 33.9024 143.819 33.1265V26.9071H147.775V22.3854H138.807L143.817 18.7834V16.4313L138.762 16.4739V22.3833H136.234V26.9051H138.762V33.556C138.762 37.6787 140.724 39.741 144.648 39.741C145.999 39.741 147.152 39.5181 148.105 39.0765V34.654C147.419 35.0754 146.665 35.2861 145.845 35.2861L145.847 35.2881Z" fill="#F3F6FF"/>
<path d="M185.312 22.3843L190.267 18.8228V16.4749H185.213V39.3063H190.267V22.3843H185.312Z" fill="#F3F6FF"/>
<path d="M179.192 22.4015L175.624 27.3648V22.4015H170.57V39.3073H175.624V27.456H182.943V22.4015H179.192Z" fill="#F3F6FF"/>
<path d="M85.2698 48.9445H83.4411C83.3665 48.0737 83.0803 47.433 82.5827 47.0225C82.0851 46.5995 81.4321 46.3881 80.6234 46.3881C79.8895 46.3881 79.2798 46.5622 78.7947 46.9105C78.3095 47.2464 78.067 47.7129 78.067 48.3101C78.067 48.9072 78.2349 49.3425 78.5708 49.6163C78.9067 49.8899 79.423 50.1263 80.1196 50.3253L82.0043 50.8666C83.1238 51.19 83.9885 51.613 84.5981 52.1354C85.2076 52.6454 85.5124 53.4105 85.5124 54.4307C85.5124 55.6995 85.0894 56.6761 84.2435 57.3603C83.3976 58.0445 82.2904 58.3866 80.9219 58.3866C79.4416 58.3866 78.2474 58.0196 77.3392 57.2856C76.431 56.5392 75.9521 55.4134 75.9023 53.9081H77.7124C77.7622 54.8909 78.0732 55.6187 78.6454 56.0914C79.2177 56.5641 79.9641 56.8005 80.8847 56.8005C81.7555 56.8005 82.4397 56.6076 82.9373 56.2221C83.4473 55.8364 83.7024 55.2766 83.7024 54.5426C83.7024 54.2191 83.6401 53.9392 83.5158 53.7028C83.3913 53.4665 83.1985 53.2675 82.9373 53.1057C82.6885 52.944 82.4397 52.8196 82.1909 52.7325C81.9545 52.633 81.6373 52.5272 81.2392 52.4153L79.6904 51.9675C79.1679 51.8182 78.7325 51.6689 78.3841 51.5196C78.0358 51.3579 77.6813 51.1464 77.3206 50.8851C76.9722 50.6115 76.7109 50.2694 76.5368 49.8588C76.3626 49.4483 76.2756 48.9631 76.2756 48.4033C76.2756 47.321 76.6923 46.4565 77.5258 45.8096C78.3593 45.1502 79.398 44.8205 80.6421 44.8205C81.9856 44.8205 83.0679 45.1689 83.8889 45.8655C84.7225 46.5622 85.1827 47.5885 85.2698 48.9445ZM87.8897 45.8096L89.6065 45.399V48.7392H92.0699V50.2694H89.6065V55.1211C89.6065 55.7306 89.7122 56.1785 89.9237 56.4646C90.1476 56.7383 90.5519 56.8751 91.1363 56.8751C91.584 56.8751 92.0445 56.7196 92.5176 56.4086V57.9388C91.9946 58.2373 91.4163 58.3866 90.7819 58.3866C88.8538 58.3866 87.8897 57.3354 87.8897 55.233V50.2694H86.3036V48.7392H87.8897V45.8096ZM100.149 54.1321V48.7392H101.865V58.1626H100.223V56.8191C99.5385 57.8641 98.5687 58.3866 97.3115 58.3866C96.2293 58.3866 95.3646 58.0445 94.7183 57.3603C94.0839 56.6761 93.7666 55.7866 93.7666 54.6919V48.7392H95.4833V54.3C95.4833 55.0464 95.6764 55.656 96.0616 56.1287C96.4468 56.589 97.0006 56.8191 97.7221 56.8191C98.4808 56.8191 99.0717 56.5579 99.495 56.0354C99.9301 55.5005 100.149 54.866 100.149 54.1321ZM108.337 58.3866C106.969 58.3866 105.837 57.9201 104.941 56.9871C104.045 56.0416 103.597 54.8723 103.597 53.479C103.597 52.0608 104.051 50.879 104.96 49.9335C105.868 48.9881 107.013 48.5153 108.393 48.5153C109.886 48.5153 111.068 49.0937 111.939 50.2507V44.3354H113.656V58.1626H112.032V56.502C111.149 57.7584 109.917 58.3866 108.337 58.3866ZM108.691 56.8191C109.638 56.8191 110.421 56.4957 111.042 55.8488C111.677 55.1895 111.994 54.3933 111.994 53.4603C111.994 52.5148 111.677 51.7187 111.042 51.0718C110.421 50.4124 109.638 50.0828 108.691 50.0828C107.734 50.0828 106.937 50.4124 106.303 51.0718C105.681 51.7311 105.37 52.5272 105.37 53.4603C105.37 54.3933 105.681 55.1895 106.303 55.8488C106.937 56.4957 107.734 56.8191 108.691 56.8191ZM116.139 44.9139C116.363 44.6775 116.656 44.5593 117.016 44.5593C117.377 44.5593 117.669 44.6775 117.893 44.9139C118.117 45.1378 118.229 45.4115 118.229 45.7349C118.229 46.0584 118.117 46.3383 117.893 46.5746C117.669 46.7986 117.377 46.9105 117.016 46.9105C116.656 46.9105 116.363 46.7986 116.139 46.5746C115.915 46.3383 115.804 46.0584 115.804 45.7349C115.804 45.4115 115.915 45.1378 116.139 44.9139ZM116.158 58.1626V48.7392H117.875V58.1626H116.158ZM121.044 49.9522C122.002 48.9943 123.202 48.5153 124.645 48.5153C126.088 48.5153 127.282 48.9943 128.228 49.9522C129.186 50.9101 129.664 52.0732 129.664 53.4416C129.664 54.8225 129.186 55.9918 128.228 56.9498C127.282 57.9077 126.088 58.3866 124.645 58.3866C123.202 58.3866 122.002 57.9077 121.044 56.9498C120.098 55.9918 119.625 54.8225 119.625 53.4416C119.625 52.0732 120.098 50.9101 121.044 49.9522ZM127.015 51.0718C126.38 50.4249 125.59 50.1015 124.645 50.1015C123.699 50.1015 122.909 50.4249 122.275 51.0718C121.641 51.7187 121.324 52.5087 121.324 53.4416C121.324 54.3871 121.641 55.1832 122.275 55.8301C122.909 56.477 123.699 56.8005 124.645 56.8005C125.59 56.8005 126.38 56.477 127.015 55.8301C127.649 55.1832 127.967 54.3871 127.967 53.4416C127.967 52.5087 127.649 51.7187 127.015 51.0718Z" fill="#F3F6FF"/>
</g>
<defs>
<clipPath id="clip0_2041_1293">
<rect width="215.721" height="65.2603" fill="white"/>
</clipPath>
</defs>
</svg>
